<svg width="14" height="14" fill="none" xmlns="http://www.w3.org/2000/svg"><path d="M2.746 7.527c.656.657 1.453.985 2.39.985.938 0 1.735-.328 2.391-.985.657-.656.985-1.453.985-2.39 0-.938-.328-1.735-.985-2.39-.656-.657-1.453-.985-2.39-.985-.938 0-1.735.328-2.39.984-.657.656-.985 1.453-.985 2.39 0 .938.328 1.735.984 2.391zm6.89.985l3.727 3.726-1.125 1.125-3.726-3.726v-.598L8.3 8.83c-.89.773-1.946 1.16-3.164 1.16-1.36 0-2.52-.47-3.48-1.407C.718 7.645.25 6.496.25 5.137c0-1.36.469-2.508 1.406-3.446C2.617.731 3.777.25 5.136.25c1.36 0 2.509.48 3.446 1.441.938.938 1.406 2.086 1.406 3.446 0 .492-.117 1.054-.351 1.687-.235.61-.504 1.102-.809 1.477l.211.21h.598z" fill="#fff"/></svg>