<svg width="30" height="30" fill="none" xmlns="http://www.w3.org/2000/svg"><g clip-path="url(#clip0_1606_5721)" fill="#fff"><path d="M15.4 18.127a1.365 1.365 0 001.485 2.244c.167-.075.317-.182.442-.316l4.091-4.09a1.58 1.58 0 00.091-.1l.017-.023c.021-.027.042-.055.062-.084l.014-.023c.019-.03.038-.06.054-.091l.01-.017a1.56 1.56 0 00.048-.104l.004-.011a1.12 1.12 0 00.041-.115l.003-.013a1 1 0 00.029-.116l.005-.033a1.317 1.317 0 000-.471l-.005-.032a.956.956 0 00-.03-.117l-.002-.012a1.36 1.36 0 00-.042-.116l-.003-.009a1.367 1.367 0 00-.05-.105l-.008-.016a1.593 1.593 0 00-.054-.092l-.015-.023a1.052 1.052 0 00-.061-.084l-.019-.024a1.135 1.135 0 00-.089-.099l-4.09-4.09a1.365 1.365 0 00-1.929 1.929l1.764 1.763h-15.8a1.364 1.364 0 000 2.727h15.799L15.4 18.127z"/><path d="M18.845 3.845a11.145 11.145 0 00-9.263 4.94 1.364 1.364 0 002.263 1.521 8.423 8.423 0 017-3.733c4.648 0 8.428 3.78 8.428 8.427 0 4.646-3.78 8.427-8.428 8.427a8.427 8.427 0 01-6.989-3.716 1.363 1.363 0 10-2.26 1.527 11.15 11.15 0 009.25 4.917C24.995 26.155 30 21.15 30 15c0-6.15-5.004-11.155-11.155-11.155z"/></g><defs><clipPath id="clip0_1606_5721"><path fill="#fff" d="M0 0h30v30H0z"/></clipPath></defs></svg>