<svg xmlns="http://www.w3.org/2000/svg" xmlns:xlink="http://www.w3.org/1999/xlink" viewBox="0 0 48 26">
  <defs/>
  <defs>
    <path id="a" d="M.3.84H16.3V15.9H.3z"/>
    <path id="c" d="M0 .98h10.38V8H0z"/>
    <path id="e" d="M.65.98h10.39V8H.64z"/>
    <path id="g" d="M.24 1H8.5v7H.24z"/>
  </defs>
  <g fill="none" fill-rule="evenodd">
    <g transform="translate(15 -.84)">
      <mask id="b" fill="#fff">
        <use xlink:href="#a"/>
      </mask>
      <path fill="#b0b0b0" d="M1.52 5.86A5.74 5.74 0 016.46 1.5c.4-.06.82-.08 1.26-.13l-.52 1.5C6.6 4.6 5.98 6.33 5.4 8.07c-.12.36-.14.74-.2 1.12-.26 1.51-.5 3.03-.74 4.54l-.13.79c-.19-.1-.36-.18-.51-.28a5.3 5.3 0 01-1.97-2.41 8.18 8.18 0 01-.63-3.09c-.02-.98.05-1.94.3-2.9zm6.26 2.06c.05-.1.1-.15.22-.14h.66c.09 0 .13.03.17.1l2 4.45 1 2.23.08.2a9.36 9.36 0 01-3.22.64c-1.37.06-2.7-.2-4.01-.68l.38-.84 2.72-5.96zm.2-1.12h.68V1.42h-.69V6.8zm4.06-4.73a5.5 5.5 0 012.92 3.3c.28.8.4 1.62.45 2.46a9.37 9.37 0 01-.43 3.48 5.66 5.66 0 01-2.07 2.9c-.19.13-.4.24-.61.36-.1-.6-.18-1.17-.26-1.74-.2-1.35-.42-2.69-.59-4.03-.1-.73-.38-1.38-.62-2.05-.61-1.74-1.25-3.47-1.87-5.2l-.05-.14c1.1 0 2.15.2 3.13.66zM4.51 15.31c1.37.49 2.8.64 4.24.59 1.09-.04 2.17-.18 3.2-.54a5.87 5.87 0 003.85-3.68c.38-1.06.51-2.16.51-3.4a9.92 9.92 0 00-.3-2.55 6.11 6.11 0 00-1.59-2.9 6.44 6.44 0 00-3.1-1.66C10.15.88 8.95.8 7.74.85c-.99.04-1.97.16-2.93.46-1.17.37-2.19.97-2.97 1.93A6.35 6.35 0 00.56 5.98C.26 7.34.23 8.7.42 10.08c.15.98.43 1.92.96 2.77a5.85 5.85 0 003.13 2.46z" mask="url(#b)"/>
    </g>
    <path fill="#b0b0b0" d="M37.23 20.43c.03-1.08-.68-2.3-2.17-2.29h-6.24l-.15.01v7h1.72v-5.49h4.42c.38.03.64.22.7.56.08.5-.08.86-.64.95l-.32.01h-3.57l-.17.01.3 1.32c.02.15.09.19.24.18h3.06c.55 0 .93.3 1.03.84.05.3.04.6.06.89l.03.72h1.67v-1.3a3.34 3.34 0 00-.07-.54c-.1-.48-.32-.9-.76-1.16.59-.44.85-1.01.86-1.71"/>
    <g transform="translate(0 17.16)">
      <mask id="d" fill="#fff">
        <use xlink:href="#c"/>
      </mask>
      <path fill="#b0b0b0" d="M6.18 1.07C6.14 1 6.08.98 6.01.98H4.32c-.08 0-.12.03-.16.1L.03 7.9 0 8l1.94-.01c.04 0 .1-.05.12-.09a52.8 52.8 0 00.64-.98c.05-.08.1-.11.2-.1h4.15l-.13-.22-.62-1c-.05-.1-.11-.13-.23-.13H3.5l1.67-2.8.75 1.26L8.29 7.9c.04.07.08.1.16.1h1.82l.1-.02-.04-.08-4.15-6.83" mask="url(#d)"/>
    </g>
    <g transform="translate(37 17.16)">
      <mask id="f" fill="#fff">
        <use xlink:href="#e"/>
      </mask>
      <path fill="#b0b0b0" d="M10.27 6.72a1958.63 1958.63 0 01-3.42-5.64c-.04-.07-.1-.1-.19-.1H4.98c-.08 0-.13.03-.17.1L.8 7.7l-.16.28L.7 8h1.87c.05 0 .11-.05.14-.1l.64-.97c.05-.08.1-.1.2-.1H7.7l-.08-.14-.67-1.09c-.05-.09-.11-.12-.22-.12H4.15l1.67-2.8.08.12L8.9 7.86c.06.1.13.14.24.14h1.72l.17-.01-.1-.18-.67-1.1" mask="url(#f)"/>
    </g>
    <g transform="translate(19 17.16)">
      <mask id="h" fill="#fff">
        <use xlink:href="#g"/>
      </mask>
      <path fill="#b0b0b0" d="M8.49 1H6.78v4.63l-.01.26a.69.69 0 01-.54.65 2.1 2.1 0 01-.51.08H3.19a3.15 3.15 0 01-.68-.09c-.26-.06-.42-.25-.48-.52A1.68 1.68 0 012 5.67V.99H.25v4.38c0 .24.01.48.05.71.11.7.45 1.25 1.09 1.6a2.79 2.79 0 001.28.31H5.8a4.46 4.46 0 00.76-.06c.62-.1 1.15-.37 1.52-.9.3-.46.4-.98.4-1.52V.99z" mask="url(#h)"/>
    </g>
    <path fill="#b0b0b0" d="M12.94 18.14l-.41.01c-.64.05-1.22.23-1.66.72-.4.44-.58.98-.6 1.56-.03.66-.02 1.32-.02 1.99 0 .23 0 .46.04.7.1.65.35 1.23.92 1.62.44.3.94.41 1.47.41h5.57v-1.44h-5.32l-.23-.01c-.32-.05-.55-.22-.62-.54a2.72 2.72 0 01-.08-.58V20.7c0-.13 0-.27.03-.4.07-.44.3-.65.76-.7a1.96 1.96 0 01.2 0h5.26v-1.46h-5.31z"/>
  </g>
</svg>
