<svg xmlns="http://www.w3.org/2000/svg" viewBox="0 0 50 26">
  <defs/>
  <g fill="none" fill-rule="evenodd">
    <path fill="#b0b0b0" d="M19.94 20.76c-.1-.12-.2-.17-.29-.15-.03.01-.23.15-.43.51-.03.07.02.06.02.09.85.18.31 1.4-1.46 1.46-.68.02-.82-.25-.36-.78l1.56-1.8h-1.61l-.23.26-.3-.17c-1.08-.57-3.07.38-3.66 1.37l-.17.3c-.1.17-.37.23-.8.17-.24-.03-.4-.05-.5-.15-.05-.03-.04-.12 0-.17l1.32-1.41.31-.14c1.46-.6 3.24-2.12 3.29-2.76.06-.77-1.15-.3-2.55.84-.37.31-.82.73-1.1 1l-2.28 2.1c-.01.02-.17-.12-.27-.2-.45-.37-1.08.23-.46.7.17.13-.13.19-.23.25 0 0-1.35.45-1.61.26-.14-.1-.1-.32.16-.62l1.4-1.64.41-.16a8.37 8.37 0 002.16-1.27c.9-.72 1.27-1.34.96-1.54-.52-.35-2.34.55-3.44 1.48-.48.4-1.03.96-1.66 1.66l-1.47 1.63c-.32.36-1.27.57-1.22.12 0-.09.2-.32.42-.57l3.82-4.46H8.11l-.2.23c-.06.08-.16.23-.27.13-.64-.51-1.61-.53-2.93-.05-.99.36-4.92 2.39-4.7 4.55.13 1.25 1.4 1.38 2.79.75l.41-.18c.15-.07.25.02.24.13-.03.43.4.53 1.24.35.45-.1.89-.22 1.28-.35.05-.02.13-.01.15.05.06.31.38.44.94.38a10.5 10.5 0 001.88-.4c.38-.12.5-.09.23.22l-.86 1c-1.13 1.23-1.93 1.54-2.61 1.62-.71.09-1.2-.11-1.45-.6-.17-.02-.36.08-.58.32a.22.22 0 000 .04c.75.65 1.65.92 2.69.82a4.02 4.02 0 002.67-1.32l2.1-2.28c.07-.07.16-.08.25-.07.48.05.87.1 1.44.02a.11.11 0 01.1.06c.17.35.44.54.84.59.49.04.96-.12 1.4-.3.07-.04.12.04.14.07.12.18.24.2.47.2h.74c1.07 0 1.75-.03 2.12-.14.91-.28 1.41-.73 1.5-1.36a.82.82 0 00-.19-.69zm-4.24-3.2c.52-.02-.4 1.05-.92 1.48-.78.67-1.21.93-1.27.78-.09-.23 1.86-2.25 2.19-2.26zM10.2 19.5c.1-.25 1.93-2.18 2.3-2.02.43.2-1.34 2.05-2.25 2.18-.01 0-.1-.02-.05-.16zm-8 1.1c.33-1.63 2.88-3.13 4.14-3.28.8-.1 1.06.48.67.94l-2.2 2.58c-1.26 1.45-2.89 1.06-2.62-.23zm14.14.68l-.44.52c-.28.33-.66.62-1.02.64-.37.02-.57-.12-.59-.42-.06-.96 2.05-2.37 2.37-1.46.1.27-.1.46-.32.72zm33.52-1.1l-.71.25c-.25.34-.64.6-1.08.52-.27-.06.02-.17-.32-.62-.6-.8-2.96-.16-3.35 1.59-.04.18-1.9.96-2.36.1-.02-.04-.03-.1.01-.11.1-.06.35-.14.69-.28.86-.37 1.48-1.07 1.26-1.43-.41-.66-2.79.28-3.25 1.9-.05.21-1.8.43-1.33-.1l.84-.98c.4-.46.4-1.22-.7-.94-.98.24-1.4.45-1.41.38-.04-.12.13-.58-1-.32-.91.2-1.48.38-1.5.33-.04-.14.33-.7-1.19-.27-.83.23-1.58.51-1.7.52-.44-.65-.94-.83-1.83-.64-.96.21-1.7.93-1.87 1.89-.05.24-1.7.7-1.42.16.16-.3.32-.57.5-1.05.05-.12.14-.52.17-.57.02-.04.18-.1.3-.13a2.6 2.6 0 001.36-1.03 2.18 2.18 0 00.12-2.02c-.14-.3-.28-.35 0-.5l.24-.13c.42-.22-.04-.2-.6.06-.14.07-.32-.07-.5-.16-2.14-1.05-6.06-.28-7 2.28-.62 1.73.93 2.33 1.86 2.03 1.4-.45 2.1-2.05 1.36-2.91l-1.16.97s.08.2.1.3c.22 1.1-1.14 1.95-1.77.94-.55-.9.58-2.69 2.91-3.17 1.07-.22 2.48-.11 2.99.47.07.1-.44.53-.79.87a5.62 5.62 0 01-.41.37c-.4-.22-1.79-.07-1.34.93l.13.28c.06.14-1.54 1.47-1.84 1.63-.67.38-1.32.41-1.97.07l-.33-.17-1.13 1.01c.8.6 2.2.75 3.26.07a14.6 14.6 0 001.8-1.76c.16-.16.38-.44.5-.49.07-.02.2.1.4.17.21.08.49.07.5.13.04.14-.54.9-.87 1.3-.66.8-.56 1.17.3 1.1a7.17 7.17 0 001.94-.48c.27-.1.3-.15.34-.14.05.01.2.2.34.33.66.61 2.44.18 3.1-1.2l.15-.31c.07-.16 1.8-.78 1.04.11l-1.4 1.64h1.4l1.57-1.83c.3-.35 1.44-.44 1.05.01l-1.56 1.82h1.4l1.55-1.8c.28-.32 1.48-.47 1.08 0l-.94 1.09c-.56.66.52 1.03 2.42.29l.34-.14c.1-.04.22-.05.24.02.26.58 1.02.67 1.92.46.3-.07.9-.3 1.35-.55.35-.18.32-.11.38 0 .52 1.04 2.35.77 3.3-.74.18-.28.22-.39.27-.39.79.03 1.34-.24 1.52-.37.22-.16.44-.36.46-.66 0-.06-.09-.02-.13 0zm-6.32.17c.25.34-1.27 1.6-1.4 1.16-.08-.24 1.13-1.52 1.4-1.16zm-14.77-2.46c.24.09.42 1.12-.2 1.7-.16.14-.28.2-.37.2-.02 0-.08-.29-.23-.52a1.6 1.6 0 00-.34-.39 7.36 7.36 0 011.14-1zm-2.37 1.75a.31.31 0 01-.14-.14c-.16-.4.5-.47.56-.27.01.05-.35.45-.42.41zm.85.4c-.14.03-.43-.07-.44-.15 0-.06.11-.2.2-.3.06-.05.13-.12.22-.1.12.04.32.51.02.56zm5 .79l-.16.15c-.18.16-.27.28-.27.35a.37.37 0 00.12.3c.3.29-1 1-1.23.17-.16-.62.92-1.73 1.46-1.24.13.11.16.2.09.27zm15.37.01c-.23.19-.62.28-.65.62a.42.42 0 00.06.24l.07.1c.16.2-.95.7-1.1 0-.13-.59.87-1.72 1.49-1.29.06.04.1.1.12.15.04.1.05.16.01.18z"/>
    <path fill="#b0b0b0" d="M25 15.99c4.49 0 8.13-3.58 8.13-8S29.49 0 25 0s-8.13 3.58-8.13 8c0 4.4 3.64 7.99 8.13 7.99zm0-.31a7.75 7.75 0 007.82-7.69c0-4.24-3.5-7.68-7.82-7.68s-7.82 3.44-7.82 7.68 3.5 7.69 7.82 7.69z"/>
    <path fill="#b0b0b0" d="M25 13.6c3.14 0 5.7-2.52 5.7-5.6 0-3.1-2.56-5.6-5.7-5.6A5.66 5.66 0 0019.3 8c0 3.08 2.56 5.6 5.7 5.6zm.06-.3A5.36 5.36 0 0030.38 8c0-2.9-2.38-5.27-5.32-5.31V13.3zM24.83 2.7c-.64 0-1.34.13-1.78.35v4.23h1.78V2.7zm0 6.07h-1.77v4.18c.56.2 1.1.34 1.77.36V8.76zm-3.3-4.83a5.32 5.32 0 00-1.9 3.34h1.87l.02-3.34zm-1.9 4.84c.3 1.42.85 2.44 1.9 3.29v-3.3h-1.9z"/>
    <path stroke="#b0b0b0" stroke-width=".22" d="M25 13.6c3.14 0 5.7-2.52 5.7-5.6 0-3.1-2.56-5.6-5.7-5.6A5.66 5.66 0 0019.3 8c0 3.08 2.56 5.6 5.7 5.6zm.06-.3A5.36 5.36 0 0030.38 8c0-2.9-2.38-5.27-5.32-5.31V13.3zM24.83 2.7c-.64 0-1.34.13-1.78.35v4.23h1.78V2.7zm0 6.07h-1.77v4.18c.56.2 1.1.34 1.77.36V8.76zm-3.3-4.83a5.32 5.32 0 00-1.9 3.34h1.87l.02-3.34zm-1.9 4.84c.3 1.42.85 2.44 1.9 3.29v-3.3h-1.9z"/>
    <path fill="#b0b0b0" d="M26.34 5.96c-.06-.04-.05-.13-.05-.2v-.43c0-.03-.03-.07-.05-.08l-.4-.28c-.14-.13-.27.08-.18.16.12.1.33.23.36.29.03.07.02.33.02.5-.03.1-.18.16-.32.13-.06-.02-.08-.06-.15-.08-.42-.05-.49.52 0 .46.07-.01.1-.06.15-.07.14-.03.3.02.32.12 0 .17.01.43-.02.5-.03.06-.24.2-.37.29-.08.09.05.29.2.16.12-.1.25-.18.38-.27.03-.02.06-.05.06-.08v-.43c0-.08 0-.16.05-.21l.26-.25s-.21-.2-.26-.23"/>
    <path fill="#b0b0b0" d="M26.57 5.74c.4 0 .72.04 1.11.02.12 0 .33-.08.3-.22-.02-.13.02-.17.14-.17h.6c.17 0 .22-.06.26-.12.06-.06.12.01.18.05.75.54.88 1.21.72 1.77-.2.68-.84 1.07-1.28 1.09h-1.9v.38h1.9c.48 0 .83.28.83.86-.04.58-.41.88-.84.88h-1.87c-.18 0-.22.35 0 .35h1.39c.25 0 .46.23.44.57-.02.24-.16.46-.48.46h-.85c-.2 0-.19.34.02.34.2 0 .38-.02.58 0 .17 0 .21.18.12.33-.07.11-.18.1-.21-.02-.02-.1-.05-.1-.12-.1h-.36c-.28 0-.45-.15-.45-.37 0-.28.16-.44.38-.44h.72c.2 0 .32-.07.31-.18-.01-.15-.12-.19-.25-.18a49.29 49.29 0 01-1.21 0c-.44 0-.68-.23-.69-.66 0-.42.25-.69.56-.7h1.91c.28 0 .29-.38.03-.37h-2a.87.87 0 01-.88-.85c0-.56.4-1.1.92-1.1h1.76c.19 0 .38-.1.35-.37-.03-.19-.18-.27-.37-.26H26.6c0-.25.16-.33.38-.32h.91c.17.01.13-.36 0-.36h-1.05c-.17 0-.28-.14-.26-.3m1.7-.86c.09 0 .15-.23.15-.5s-.06-.5-.14-.5c-.08 0-.14.22-.14.5s.06.5.14.5zm-.42 0c.08 0 .14-.23.14-.5s-.06-.5-.14-.5c-.08 0-.14.22-.14.5s.06.5.14.5zm-.43 0c.08 0 .14-.23.14-.5s-.06-.5-.14-.5c-.08 0-.14.22-.14.5s.06.5.14.5zm-.4 0c.07 0 .14-.23.14-.5s-.07-.5-.14-.5c-.08 0-.15.22-.15.5s.07.5.14.5zm-.44 0c.08 0 .15-.23.15-.5s-.07-.5-.14-.5c-.08 0-.15.22-.15.5s.07.5.14.5z"/>
    <path fill="#b0b0b0" d="M28.27 4.93h-1.83v-.6h1.83v.6m-9.34 1.9l-.07.61.28.16-.06.47-1.6-.88.06-.48 1.76-.43-.06.47-.3.08zm-.34.07l-.56.12.51.26.05-.38zm-.47-2.12l1.22.52.22-.46.35.15-.4.84-1.58-.67.19-.38m1.77-1.7l-.34.39.2.18.31-.36.28.24-.31.36.49.42-.28.32L19 3.55l.61-.71.28.24M22 2.74l-.5.31.06.3-.39.24-.36-1.7.4-.25 1.42 1.04-.39.24-.24-.18zm-.28-.21l-.43-.34.13.53.3-.19zm3.22-.92l.58.67-.54.04-.46-.63.05.67-.44.03-.13-1.74.68-.05c.16-.01.3.02.41.11.11.09.17.22.18.4a.5.5 0 01-.07.31.47.47 0 01-.26.2zm-.45-.21h.05a.48.48 0 00.22-.07c.05-.03.07-.1.07-.17 0-.08-.04-.13-.1-.16a.46.46 0 00-.22-.03.97.97 0 00-.05 0l.03.43zm1.68 0a.85.85 0 01.42-.55.89.89 0 01.7-.06.9.9 0 01.55.42.86.86 0 01.08.69.84.84 0 01-.42.54.89.89 0 01-.7.06.9.9 0 01-.55-.42.85.85 0 01-.08-.69zm.43.12a.46.46 0 00.04.35.45.45 0 00.28.23.44.44 0 00.35-.04.45.45 0 00.22-.28.46.46 0 00-.04-.36.45.45 0 00-.28-.23.44.44 0 00-.35.05.45.45 0 00-.22.28zM28.1 3l1.36-1.06.34.28-.34.87.89-.43.34.28-.94 1.4-.34-.28.56-.8-.97.46-.14-.11.35-.96-.77.62-.33-.27m3.47 2.03l-.27-.44-.25.14.26.41-.33.19-.25-.42-.26.14.27.45-.33.18-.5-.81 1.5-.83.49.8-.33.2m0 .95a.9.9 0 011.07.73.85.85 0 01-.14.67.87.87 0 01-.6.36.9.9 0 01-1.05-.72.86.86 0 01.72-1.04zm.09.43a.46.46 0 00-.31.2.42.42 0 00-.08.34c.02.12.09.22.2.29a.48.48 0 00.36.07.47.47 0 00.3-.19.42.42 0 00.08-.34.44.44 0 00-.2-.3.48.48 0 00-.36-.06z"/>
  </g>
</svg>
