<svg xmlns="http://www.w3.org/2000/svg" viewBox="0 0 177 109">
<path fill="#b0b0b0" fill-rule="evenodd" d="M148.59 107.97V84.63h-9.63v23.34h9.63zm-50.98-9.7V85h-9.33v10.16c0 2.95-.12 3.78-.3 4.54-.65 2.13-2.9 3.08-5.2 3.08-3.18 0-4.66-1.24-5.25-3.2-.18-.64-.24-1.35-.3-2.06-.06-.77 0-1.6 0-2.48V84.99h-9.45v13.35c0 3.01 1 5.25 2.66 6.79 2.84 2.78 7.62 3.6 12.05 3.6 5.38 0 9.51-.76 12.46-3.66 1.54-1.48 2.66-3.42 2.66-6.8zm-45.84-1.65a7.94 7.94 0 00-1.41-.11H39.73c-.54 0-1.13.05-1.42.11.17-.18.53-.53.88-1l4.79-7.92c.65-1.06.94-1.77 1.06-2.06.12.3.41 1 1.06 2.12l4.9 7.98c.24.35.6.7.77.88zm17.84 11.34l-21.26-31.9H36.42l3.13 3.73c.06.06.18.12.3.18-.13.06-.24.11-.3.17L21 107.97h10.75l2.9-4.79c.11-.24.17-.47.17-.59.12 0 .42.12.71.12h19.2c.3 0 .53-.06.65-.12a.8.8 0 00.11.47l3.02 4.9h11.1zm66.75-11.98c0-2.6-1.06-5.62-4.37-9.81l-7.98-10.1h-11.1l6.32 7.09a22.02 22.02 0 002.42 2.24 10.5 10.5 0 00-5.02-1.24 22 22 0 00-10.69 2.6c-3.54 1.95-5.9 5.2-5.9 9.51 0 3.3 1.47 5.85 3.36 7.8 4.25 4.25 11.99 4.66 14.83 4.66 4.19 0 10.75-.94 14.47-4.3 2.19-2.02 3.66-4.8 3.66-8.46zm-9.21.29c0 2.42-1.6 4.25-3.6 5.26-1.66.88-3.61 1.12-5.32 1.12-1.72 0-3.73-.36-5.38-1.18-2-1-3.54-2.96-3.54-5.08 0-2.54 1.94-4.55 4.25-5.56 1.42-.64 3.13-.88 4.49-.88 1.3 0 3.19.17 4.67.77 2.66 1.12 4.43 3.25 4.43 5.55zM145.53.02a30.58 30.58 0 00-19.05 6.62A30.58 30.58 0 00107.43.02a30.59 30.59 0 00-19.05 6.62A30.57 30.57 0 0069.33.02a30.59 30.59 0 00-19.05 6.62 30.72 30.72 0 100 48.21 30.59 30.59 0 0019.05 6.62 30.58 30.58 0 0019.05-6.62 30.59 30.59 0 0019.05 6.62 30.58 30.58 0 0019.05-6.62A30.72 30.72 0 10145.53.02zM45.25 49.83a23.67 23.67 0 01-37.7-19.09 23.67 23.67 0 0137.7-19.08 30.77 30.77 0 000 38.17zm5.03-5.01c-3.02-4.07-4.65-9-4.64-14.07a23.5 23.5 0 014.64-14.08c3.02 4.07 4.65 9 4.63 14.08.01 5.06-1.61 10-4.63 14.07zm33.07 5.01c-4.07 3-8.99 4.6-14.04 4.6-5.04 0-9.95-1.6-14-4.6a30.76 30.76 0 000-38.17c4.05-2.99 8.96-4.6 14-4.59a23.6 23.6 0 0114.04 4.6 30.76 30.76 0 000 38.17zm5.03-5.01c-3.02-4.07-4.65-9-4.64-14.07-.01-5.07 1.62-10 4.64-14.08A23.5 23.5 0 0193 30.75c.01 5.06-1.61 10-4.63 14.07zm33.07 5.01a23.58 23.58 0 01-14.04 4.6c-5.25 0-10.08-1.7-14-4.6a30.75 30.75 0 000-38.17 23.5 23.5 0 0114-4.59c5.26 0 10.11 1.7 14.04 4.6a30.77 30.77 0 000 38.17zm5.03-5.01c-3.02-4.07-4.65-9-4.64-14.07a23.5 23.5 0 014.64-14.08c3.02 4.07 4.65 9 4.63 14.08.01 5.06-1.61 10-4.63 14.07zm19.05 9.61c-5.22 0-10.11-1.74-14.02-4.6a30.77 30.77 0 000-38.17 23.67 23.67 0 0137.7 19.09 23.67 23.67 0 01-23.68 23.68z"/>
</svg>
