<svg xmlns="http://www.w3.org/2000/svg" viewBox="0 0 50 25">
  <defs/>
  <g fill="none" fill-rule="evenodd">
    <g fill="#b0b0b0">
      <path d="M4.74 25c.03-1.64.03-3.3 0-4.99.84.03 1.81.03 2.7 0 1.02 0 1.55.62 1.55 1.25 0 .46-.21.88-.55 1.07.57.17.9.67.9 1.26 0 .95-.69 1.4-1.55 1.4H4.74zm2.76-2.16c.6.02.9.27.9.66 0 .4-.27.62-.87.65-.57.03-1.2.03-1.8 0-.03-.44-.03-.85 0-1.31a33.5 33.5 0 011.77 0zm-.07-2c.43.02.63.24.63.56 0 .29-.16.55-.56.57-.41.02-1.36.02-1.78 0-.02-.38-.02-.75 0-1.14.48-.02 1.3-.02 1.7 0zM32.73 24.13V25c-1.37-.03-2.74-.03-4.11 0 .03-1.66.03-3.32 0-4.99h.95c-.03 1.37-.03 2.75 0 4.12 1.05.02 2.1.02 3.16 0M17.5 20.01c.93 1.11 1.9 2.23 2.9 3.34a77.6 77.6 0 000-3.34c.27.02.56.02.84 0-.02 1.65-.02 3.3 0 4.99a7.68 7.68 0 00-.72 0 158.5 158.5 0 00-3.05-3.53 96.93 96.93 0 000 3.53h-.85c.03-1.66.03-3.32 0-4.98h.88M15.07 20.88a72.77 72.77 0 00-3.28 0 8.6 8.6 0 000 1.13c.74.02 1.49.02 2.25 0-.02.29-.02.58 0 .87a37.1 37.1 0 00-2.25 0c-.02.42-.02.83 0 1.25 1.11.02 2.23.02 3.34 0V25c-1.43-.03-2.86-.03-4.29 0 .03-1.66.03-3.33 0-4.99 1.43.03 2.84.03 4.23 0v.87M42 25c.03-.7.03-1.42 0-2.15-.73-.94-1.49-1.89-2.29-2.84.4.02.78.02 1.17 0 .5.65 1.04 1.3 1.6 1.93.56-.64 1.1-1.28 1.6-1.93.38.02.77.02 1.16 0-.79.95-1.55 1.9-2.29 2.84-.02.72-.02 1.43 0 2.15h-.94M38.31 20.88a72.75 72.75 0 00-3.28 0c-.02.38-.02.75 0 1.13.74.02 1.49.02 2.25 0-.02.29-.02.58 0 .87a37.1 37.1 0 00-2.25 0c-.02.42-.02.83 0 1.25 1.11.02 2.23.02 3.34 0V25a129 129 0 00-4.29 0c.03-1.66.03-3.33 0-4.99 1.43.03 2.84.03 4.23 0v.87M24.53 25c.03-1.36.03-2.73 0-4.12-.59-.02-1.19-.02-1.8 0 .02-.28.02-.57 0-.87 1.52.03 3.03.03 4.54 0v.87c-.6-.02-1.2-.02-1.79 0-.02 1.37-.02 2.75 0 4.12a13.5 13.5 0 00-.95 0M0 1.52L.48.96.73.68A.27.27 0 01.95.6l1 .1c.2.03 1.05.06 1.4.06h1.42c.2 0 1.62-.07 1.94-.1C7.03.64 8.86.61 9.3.61a90 90 0 012.99.1c.5.03 1.9.1 2.36.08.46-.01 2.65-.1 3.08-.1.44 0 1.8.08 2.11.13.3.05.66.16.66.16s.59-.23.89-.33a12.4 12.4 0 013.55-.58 11.47 11.47 0 013.76.67c.27.1.85.37.85.37s.42-.13.78-.21c.35-.08.9-.16 1.21-.19.32-.02.57-.05.95-.04.39 0 1.3.1 1.56.13s.86.1 1.5.1a189.12 189.12 0 015.4-.22c.47-.02 2.6.11 3.02.13.43.03 1.32.07 1.6.06.28 0 1.21-.05 1.68-.1A65.6 65.6 0 0148.9.63c.2-.01.27-.01.3.01.04.02.33.3.45.44.13.14.25.3.3.36.04.05.06.07.05.1-.02.03-.1.18-.14.22a13.4 13.4 0 01-.7.37l-.48.2.14.35c.04.1.1.32.1.4l-.01.22a4.25 4.25 0 01-.84.37l-.39.1.02.31c-.01.12-.01.26-.04.38-.03.1-.1.24-.16.3a.76.76 0 01-.24.17 2.96 2.96 0 01-.85.2h-.14l-.02.34-.07.37a.74.74 0 01-.17.28.5.5 0 01-.26.13c-.13.03-.3.07-.46.09l-.57.06h-.2s-.08.3-.12.38c-.03.1-.13.29-.2.38-.06.1-.18.23-.24.29a.79.79 0 01-.2.13c-.05.02-.27.03-.38.03l-.59-.01-.44-.04-.17-.03-.05.28c-.01.05-.05.2-.1.3-.03.1-.09.18-.13.22-.05.05-.1.1-.22.12-.14.03-.27.04-.35.04a34.98 34.98 0 01-1.24.01h-.25l-.07.26c-.02.1-.09.25-.12.31a.82.82 0 01-.14.21c-.07.07-.1.1-.21.12l-.4.02a7 7 0 01-1.14-.15c-.09-.02-.17-.06-.17-.06l-.1.24c-.04.07-.14.22-.2.27-.07.06-.15.16-.3.18-.13.02-.27 0-.39-.02a6.51 6.51 0 01-.48-.1l-.45-.14c-.07-.01-.15-.05-.15-.05s-.07.15-.12.22c-.05.07-.14.17-.21.22a.76.76 0 01-.25.14c-.05 0-.15 0-.27-.02a2.82 2.82 0 01-.39-.1l-.23-.08-.17.48c-.03.09-.2.45-.27.57l-.43.7c-.11.16-.54.7-.64.8l-.34.36a11.82 11.82 0 01-1.58 1.24 13.44 13.44 0 01-1.58.8l-.16.32c-.06.13-.16.33-.19.36-.02.04-.07.05-.12.03l-.4-.15-.32-.12-.2.29-.2.3c-.03.03-.08.02-.12.01a7.86 7.86 0 01-.36-.2c-.06-.02-.3-.16-.3-.16l-.2.26-.28.32h-.08c-.05-.02-.13-.1-.22-.16-.1-.07-.25-.2-.3-.22l-.1-.08-.24.24-.24.23-.06.06s-.03.02-.08 0a28.56 28.56 0 01-.55-.51l-.3.22-.3.22a.1.1 0 01-.12-.02l-.28-.34-.18-.21-.37.2-.3.17c-.02 0-.09 0-.1-.03l-.22-.31-.19-.28-.32.12a5.9 5.9 0 01-.4.15c-.04 0-.1 0-.12-.04l-.24-.46-.1-.2-.47-.2-.81-.4a9 9 0 01-2.28-1.83 5.4 5.4 0 01-.95-1.35 6.96 6.96 0 01-.62-1.48l-.55.16c-.23.05-.48.12-.71.11-.23-.01-.28-.05-.33-.1a1.29 1.29 0 01-.21-.24c-.08-.1-.15-.25-.15-.25l-.5.12a8.48 8.48 0 01-1.2.16.53.53 0 01-.3-.15l-.2-.22a3.18 3.18 0 01-.2-.43h-1.29c-.12 0-.42-.02-.55-.05-.12-.02-.2-.04-.32-.2a1.15 1.15 0 01-.2-.36l-.08-.26s-.36 0-.55-.03c-.2-.02-.6-.06-.8-.1a6.4 6.4 0 01-.65-.12c-.08-.04-.13-.11-.21-.2-.08-.08-.16-.2-.23-.3l-.23-.36-.04-.07-.53-.05-.52-.08c-.1-.03-.4-.08-.46-.11s-.12-.06-.17-.17c-.06-.12-.1-.34-.15-.54l-.08-.36-.54-.15-.47-.13a1.8 1.8 0 01-.4-.17c-.1-.06-.1-.18-.1-.24-.02-.07-.04-.34-.05-.41v-.25l-.75-.35c-.16-.06-.52-.24-.6-.27-.07-.04-.06-.12-.05-.18a18 18 0 01.09-.42l.07-.33.01-.05-.72-.37-.6-.3c-.05-.04-.07-.1-.1-.2A2.39 2.39 0 010 1.53"/>
    </g>
    <path fill="#FFFFFE" d="M18.93 5.1c.06-.65.88-1.39.76-2.06-.1-.53-.75-.98-1.4-1.08a29.26 29.26 0 00-3.42-.2h-1.24c-.22-.01-.5-.02-.85-.08a7.24 7.24 0 01-.96-.24c-.35-.1-.63-.2-.91-.25a7.9 7.9 0 00-.88-.14 18.12 18.12 0 00-2.6-.06l-1.4.03h-.6c-.1.01-.08.07-.13.08h-.48l-.32-.02h-.13s-.01.05.04.07l.24.02.54.04c.13 0 .35 0 .48.02l.56.01h1.06c.25.02.7.02.93.02.22.01.75.03 1.17.08.42.05.75.1 1.17.2.4.1.88.25 1.11.32l.72.19c.17.04.32.05.36.08.04.04.04.08.02.13s-.05.07-.06.12l-.04.1h-.15s.03-.04.03-.07c0-.03-.08-.09-.18-.1l-.62-.07a7.52 7.52 0 00-.76-.05H9.64c-.23 0-1.06-.02-1.27 0l-1.14-.01H5.35l-1.13-.03-.76-.01-1.1-.03c-.2 0-.44-.01-.52-.03-.07-.02-.48-.23-.64-.31l-.56-.29-.2-.11c-.02-.01-.13.1-.16.14-.04.05-.1 0-.1 0L.67 1C.73.89.83.77.87.75h.32l.9.08.83.03 1.1.02c.23 0 .96.03 1.18.02L6.23.82C6.42.8 7 .76 7.29.76c.28-.01.85 0 1.03-.02L9.47.73l1.19.03a137.6 137.6 0 003.41.14c.3.01.73.03.96.01L16.7.84c.34-.02 1.22-.03 1.58-.02.36.01 1.23.1 1.52.13.3.04.58.11.66.12.09 0 .22 0 .26.05.05.04.1.14.18.2.1.05.22.07.26.12.04.06.05.18.07.23.03.05.13.21.14.32.02.11 0 .3-.07.43-.07.12-.19.26-.32.4s-.33.28-.5.43c-.18.15-.48.38-.63.6-.15.2-.25.34-.28.55-.03.21-.01.34-.02.38a.52.52 0 01-.1.17 9.45 9.45 0 00-.58.76l-.07.1-.05-.08s.11-.13.12-.17c.05-.05.03-.2.05-.45"/>
    <path fill="#FFFFFE" d="M1.64 2.64l.02-.13h.48l1 .03c.23 0 .95.02 1.13.01l1.35.02a178.81 178.81 0 013 .01H12.28l.24-.01c.03-.01.1-.04.15-.02.05.02.07.07.1.1.01.03.06.06.08.08.03.02.08.04.1.09l.1.08c.04.04.05.06.03.08l-.12.16-.06.12c-.02.02-.13.03-.13.03s.07-.05.06-.1c-.01-.03-.09-.13-.24-.14-.16-.01-.54.02-.7.04l-1.51.14c-.2.01-1.77.12-2.04.15-.27.02-1.5.1-1.75.1-.23.03-1.17.07-1.45.1-.3 0-.96.04-1.21.05-.25 0-.76.02-.85.01a1 1 0 01-.28-.09l-.58-.26c-.11-.05-.31-.13-.35-.17-.04-.05-.02-.13-.02-.18 0-.06 0-.13-.07-.19a4.04 4.04 0 00-.14-.11M2.89 4.18v-.1s.17 0 .26-.02l.67-.02 1.44-.07 1.86-.1 2.22-.16 1.9-.16c.22-.01.96-.1 1.23-.11.27-.03.3-.06.35-.06.04 0 .07-.03.12.02.04.05.13.15.18.18.06.04.22.14.23.2 0 .05-.05.12-.07.17-.03.05-.03.15-.03.15l-.17.03.02-.06c0-.03-.03-.1-.1-.12a.56.56 0 00-.3-.03l-.87.15-1.79.3a138.4 138.4 0 01-3.6.5l-1.13.1c-.26.01-.53.04-.72.02-.2-.03-.62-.16-.8-.2a2.1 2.1 0 01-.51-.18.31.31 0 01-.09-.15.45.45 0 00-.15-.2 3.62 3.62 0 01-.15-.08M4.47 5.43s.07.02.15 0c.08 0 .14-.04.24-.05l.52-.02c.15 0 .6-.05.76-.06a51.89 51.89 0 004.57-.63l1.58-.28.69-.12c.11-.03.2-.08.26-.06.06.01.13.06.21.1l.27.1c.07.03.14.07.14.1.01.02 0 .12-.03.16a.44.44 0 00-.05.15l-.02.1-.16.06s.03-.07 0-.1c-.02-.04-.11-.1-.16-.1a99.12 99.12 0 01-1.38.4l-1.15.31a43.34 43.34 0 01-2.74.61c-.23.04-1.12.16-1.35.17-.23.02-.27.02-.45.01a11.14 11.14 0 01-1.28-.18c-.08-.02-.16-.03-.2-.13-.03-.1-.02-.17-.08-.23a.7.7 0 00-.19-.16c-.05-.02-.13-.02-.14-.05-.02-.04-.01-.1-.01-.1M6.38 6.73l.8-.08c.14-.03 1.14-.17 1.38-.22.24-.05 1.27-.27 1.45-.32a109.83 109.83 0 002.72-.73l.87-.27c.07-.03.14-.08.2-.07.07 0 .27.06.34.08.07.03.26.06.29.09.03.03.05.06.04.11v.34c0 .03.07.09.07.09l-.17.07-.11.04v-.1a.4.4 0 00-.13-.08c-.04-.01-.06 0-.14.02l-.36.15-.84.34a63.74 63.74 0 01-2.5.89l-1 .28c-.15.04-.22.07-.35.08a7.99 7.99 0 01-1.7-.2.36.36 0 01-.18-.11.52.52 0 00-.16-.14 2.52 2.52 0 00-.24-.11l-.13-.06c-.04-.01-.09-.02-.11-.04-.03-.01-.04-.05-.04-.05M9.07 7.86l.27-.08c.06-.03.4-.13.5-.16.1-.03.49-.13.65-.19l1.05-.36 1.22-.45 1.3-.53.34-.15c.05-.03.2-.11.28-.13l.3-.04c.06 0 .11 0 .14.03.03.03.04.08.04.13s.01.19.07.23a.7.7 0 00.26.12l.24.04h.06l-.26.15-.26.13-.04-.07a.7.7 0 00-.2 0 .55.55 0 00-.23.08 72.86 72.86 0 01-2.22 1.16c-.14.06-.81.4-.92.44-.11.05-.18.1-.28.1a8.94 8.94 0 01-1.3.01c-.13 0-.31-.01-.41-.05-.1-.04-.12-.1-.18-.16a.64.64 0 00-.23-.16.39.39 0 00-.17-.02l-.02-.07M11.5 8.72l.94-.46a64.5 64.5 0 002.74-1.45c.2-.1.46-.25.5-.28.05-.02.08-.07.13-.08l.1-.03.1.15c.05.06.15.15.25.17.11.01.16.02.23 0l.19-.02-.35.32-.83.7-.7.56-.53.38-.38.14a27.7 27.7 0 01-1.55.3c-.09 0-.2 0-.28-.07-.07-.08-.1-.19-.2-.24-.1-.04-.15-.07-.22-.06-.13.01-.14-.03-.14-.03M13.87 9.2l.54-.4.6-.48a169.52 169.52 0 001.4-1.17l.33-.31s.02.08.05.11c.04.04.1.1.19.14.1.04.22.05.31.05l.22-.02c.04 0 .1.02.1.08v.13l.02.06-.66.72c-.12.15-.5.54-.61.66l-.46.48c-.03.03-.14 0-.2-.03-.08-.05-.16-.01-.26.01-.1.03-.27.08-.4.1-.1.03-.38.1-.45.1-.08 0-.16-.01-.2-.06a1.06 1.06 0 00-.21-.19c-.05-.02-.12-.04-.15-.02-.02.02-.14.09-.16.04M16.03 9.34l.52-.55a107 107 0 001.17-1.28l.24-.03c.1-.02.24-.05.28-.04.03.01.03.04.04.07v.44c.01.1.01.32-.01.4-.02.07-.26.53-.31.66-.05.12-.2.4-.23.45a.2.2 0 01-.05.09c-.02.02-.06-.05-.12-.12-.07-.1-.16-.08-.24-.06-.08.02-.54.15-.62.16-.08.02-.23.06-.3.05-.08-.02-.11-.07-.15-.13-.03-.06-.08-.1-.13-.1a.32.32 0 01-.1-.01M18.11 9.02s.1-.26.13-.3l.06-.12.05.19c.03.06.1.13.11.2l.14.36c.02.04.05.11.04.15a.16.16 0 000 .1c.02.04.03.08.01.09-.04.01-.11.06-.13.07-.03.02-.09.01-.13-.04-.02-.03-.1-.04-.18-.1-.07-.05-.06-.09-.06-.15 0-.05.04-.27.02-.31l-.06-.14M15.94 9.89s.14.16.22.16c.09 0 .11-.02.15-.04h.15c.03.03.08.08.07.14 0 .05.03.16.07.25l.33.65c.11.17.42.61.55.77.13.16.57.64.69.74.11.1.69.58.9.72a11.38 11.38 0 001.76.97c.1.03.16.04.17.07l.05.06-.1.18-.1.15-.08-.04s.06-.05.04-.09a.25.25 0 00-.12-.12l-.49-.22c-.12-.06-.69-.37-.89-.5-.2-.12-.69-.46-.92-.65a12.4 12.4 0 01-.9-.87 9.95 9.95 0 01-.62-.8c-.11-.17-.41-.72-.48-.86-.06-.15-.1-.25-.16-.3-.06-.06-.08-.07-.1-.07l-.09-.02-.05-.13-.05-.15"/>
    <path fill="#FFFFFE" d="M16.56 10s.12-.01.22-.05l.47-.15c.1-.02.23-.08.28-.1l.13-.02c.03.01.05.03.08.08.04.05.08.15.13.19.05.04.12.1.22.1a1 1 0 00.28-.06l.27-.15c.04-.02.09-.06.1-.04.02.02.05.05.07.05.03.01.07.04.08.07a7.47 7.47 0 00.77.95c.12.12.48.43.61.53a9.4 9.4 0 001.31.75l.42.18c.05.02.07.05.1.07.04.03.06.07.05.1l-.29.49-.3.5-.26.44-.17.3c-.01.03-.04.02-.05 0-.01-.01.04-.07.04-.14a.36.36 0 00-.08-.21c-.04-.04-.16-.1-.22-.13a9.93 9.93 0 01-1.88-1.13 7.21 7.21 0 01-1.66-1.88c-.11-.2-.23-.44-.27-.49-.04-.04-.1-.1-.18-.13l-.16-.05c-.04 0-.1 0-.1-.03v-.05M12.94 2.17h1.69c.06 0 .14.03.17.03l.06.01s.03.06 0 .09l-.06.13c-.01.04 0 .1-.02.1l-.14.02s.01-.05-.02-.08a.36.36 0 00-.18-.04l-.51.04-.47.06a.35.35 0 01-.18-.01 1.71 1.71 0 01-.34-.18l-.07-.01.04-.09a.47.47 0 01.03-.07M13.14 3.12s.06-.1.09-.12l.24-.08.5-.12.52-.11.27-.07c.04 0 .1.01.14.04l.15.12c.04.03.08.09.07.11 0 .03-.03.05-.05.08-.02.03-.01.05-.02.08v.08l-.13.04-.05.01s.03-.08 0-.09c-.01-.01-.1-.07-.17-.08-.08 0-.3.06-.38.09l-.46.13c-.1.03-.2.08-.29.07a.7.7 0 01-.23-.08l-.12-.06-.08-.04M13.43 3.87s0-.06.04-.08c.03-.03.12-.05.16-.07l.31-.12a10.95 10.95 0 01.92-.29c.06-.02.14-.07.2-.07s.17.03.24.06c.06.02.13.05.14.1 0 .04-.02.1-.04.14-.03.03-.03.06-.04.1v.07s-.05.04-.1.05l-.07.01s0-.05-.02-.08c-.03-.04-.12-.07-.18-.05-.06.01-.3.1-.39.15l-.42.19c-.09.03-.15.06-.24.05-.09-.01-.16-.02-.23-.05l-.19-.1a.74.74 0 00-.1-.01M13.98 4.49l.3-.15.62-.28.36-.18c.05-.01.1-.05.14-.05l.23.04c.06.01.15.02.17.06.03.04.04.12.03.15a.44.44 0 00-.04.14l.02.1-.1.06-.1.05s-.01-.05-.05-.09a.2.2 0 00-.18-.04 4.32 4.32 0 00-.69.41c-.04.03-.07.08-.17.07a.67.67 0 01-.22-.05l-.19-.13c-.03-.02-.13-.05-.13-.08V4.5M14.54 5.23l.44-.28.58-.34c.12-.06.25-.15.3-.16l.32-.01c.08 0 .13 0 .14.04l-.01.12v.13l-.62.49c-.1.07-.33.29-.34.29l-.2-.1-.18-.05a.83.83 0 01-.16-.06l-.12-.05a.39.39 0 00-.14.03v-.05M15.29 5.76l.26-.23c.1-.1.43-.36.52-.43l.33-.26c.04-.03.07-.03.11-.03l.18-.03c.04 0 .12 0 .12.06l.04.2v.12l.04.04-.1.1a38.36 38.36 0 00-.64.62l-.15.15s-.03-.1-.08-.14c-.05-.04-.19-.07-.27-.07-.07 0-.17-.08-.21-.1l-.09.02s-.05.02-.06-.02M16.06 6.22l.42-.42.43-.4c.06-.07.11-.13.18-.17.08-.03.16-.07.2-.06.04.02.07.07.09.13.01.06.07.13.17.17l.2.04.07-.01-.15.15-.3.3c-.1.08-.33.32-.4.39l-.16.14s0-.07-.05-.11c-.07-.07-.16-.06-.24-.05a.23.23 0 01-.17-.06c-.05-.04-.08-.08-.1-.08l-.1.03h-.09M16.9 6.6l.35-.34.43-.42.27-.26s.04.05.12.06c.08 0 .16.02.22.03.06 0 .17 0 .2-.03l.07-.05-.1.15-.34.47-.35.52-.14.22-.06.08s.01-.06-.05-.16c-.05-.1-.08-.1-.13-.12-.05-.02-.07 0-.15-.03-.07-.04-.11-.12-.16-.13-.04 0-.04-.02-.08 0-.06.03-.1 0-.1 0M18.62 5.77l.06.08c.03.03.07.07.06.1 0 .03-.14.29-.16.35a5.83 5.83 0 00-.23.75c-.03.07-.06.1-.06.13l-.01.09-.08.04-.08.02v-.07l-.07-.13a.22.22 0 01-.02-.2l.1-.29.13-.3a2 2 0 01.17-.33l.12-.2a.16.16 0 01.07-.04M15.01 2.21l.48-.01c.2 0 .46 0 .6.02.14.02.36.03.44.03.09 0 .22-.02.43-.01.2 0 .57.02.82.05.24.04.47.09.67.16a2 2 0 01.68.36c.12.14.2.25.19.43-.01.18-.08.37-.14.48l-.22.39-.33.34-.47.53-.23.27-.09.1h-.03s.04-.05.03-.12c-.01-.06-.06-.15-.11-.18s-.07-.03-.1-.02c-.04 0-.07.02-.1.03l-.04.01.19-.2.26-.26c.06-.05.1-.08.13-.08.02 0 .11.03.17 0 .06-.02.17-.13.18-.21a.23.23 0 00-.09-.2.32.32 0 00-.18-.06.42.42 0 00-.17.04c-.03.02-.07.02-.07.02l.01-.1c.01-.06-.02-.12-.05-.17a.24.24 0 00-.18-.1c-.08 0-.11.01-.14 0-.03-.03 0-.08-.03-.13-.03-.06-.07-.14-.14-.17a.62.62 0 00-.18-.05c-.03 0-.03-.02-.03-.06 0-.06-.02-.19-.05-.22a.5.5 0 00-.17-.1c-.05-.02-.08-.02-.08-.05 0-.02.03-.08.03-.14 0-.06-.01-.14-.08-.19-.07-.04-.14-.07-.17-.12a.34.34 0 00-.1-.1h-.11l-.22.04c-.08.01-.12.03-.16.02-.03-.01-.12-.05-.17-.05l-.3.02-.26.02c-.07 0-.12-.03-.18-.05a.67.67 0 01-.12-.06l-.05-.04v-.05l.03-.06"/>
    <path fill="#FFFFFE" d="M15.2 2.87s.2-.09.33-.13c.15-.05.41-.1.53-.13.12-.03.2-.06.25-.05l.13.01h.07s.02.03 0 .04l-.05.07c-.04.04-.07.09-.12.1l-.28.08c-.12.03-.3.1-.38.11-.06.02-.08.03-.19.02l-.18-.04h-.08c-.02.02-.04 0-.04 0v-.04-.04M15.54 3.38l.36-.17c.16-.07.48-.19.55-.2.07-.02.14-.04.18-.02.04.02.07.04.06.08a.33.33 0 01-.1.13l-.35.18c-.09.03-.28.13-.34.14a.5.5 0 01-.17-.03l-.1-.03h-.1l.01-.04v-.04M15.9 3.92l.29-.17.4-.2c.1-.06.2-.1.27-.1.05 0 .1.03.11.05 0 .03 0 .1-.03.14-.02.05-.04.08-.12.16l-.2.17a.59.59 0 01-.18.12c-.04 0-.11-.03-.15-.04-.03 0-.14-.05-.16-.06a.19.19 0 00-.1-.03l-.13.02v-.06M16.47 4.38l.22-.19.33-.24a.7.7 0 01.16-.1c.03 0 .05 0 .07.02.02.02.07.02.08.06.02.05 0 .08.02.1.01.03.05.03.05.05v.06l-.24.2c-.06.06-.17.16-.2.17-.02.02-.1-.03-.17-.06a1.09 1.09 0 00-.23-.07h-.09M16.97 4.71l.23-.2.21-.2.18-.14s.05 0 .05.04c-.01.03.03.04.05.04.03 0 .09-.02.1 0 .02 0 .05 0 .05.05 0 .04 0 .07.02.08h.05l.01.05-.28.27-.24.24-.03.04s-.03-.08-.1-.14c-.07-.07-.1-.09-.17-.1-.06-.03-.13-.03-.13-.03M18.14 5.21l.22-.25.25-.27a.78.78 0 00.07-.09l-.08.23-.03.27c0 .06-.03.13-.04.2l-.02.15-.08.04-.08.05s0-.1-.05-.17a.28.28 0 00-.1-.09.28.28 0 00-.09-.03l.03-.04M20.74 1.05l.33-.13c.13-.05.78-.28.99-.33.24-.06.81-.2 1.16-.26a12.35 12.35 0 013.09-.05 12.05 12.05 0 012.56.66c.13.06.21.07.24.1.02.02.02.05.09.08l.16.07-.08.05-.18.08-.1.05s0-.07-.03-.1l-.37-.17c-.16-.06-.4-.15-.64-.21-.23-.07-.65-.2-.93-.24a14.63 14.63 0 00-2.1-.2 12.01 12.01 0 00-2.39.27c-.29.07-.69.17-.84.22-.16.05-.35.13-.41.13l-.23-.01h-.11c-.03.01-.1.05-.12.04a8.17 8.17 0 01-.09-.05"/>
    <path fill="#FFFFFE" d="M30.52 5.13l-.12-.12c-.03-.04-.05-.23-.1-.34-.04-.1-.21-.33-.31-.44a5.87 5.87 0 00-1.76-1.1c-.4-.15-.66-.26-1.13-.36a9.41 9.41 0 00-4.77.17c-.5.16-.62.23-.78.3a7.7 7.7 0 00-.67.36l-.5.33c-.13.08-.16.15-.24.13a.21.21 0 01-.15-.13l.2-.22.46-.4.47-.4.17-.2s.04.09.11.07c.07-.02.19-.11.25-.22.07-.1.19-.35.16-.56-.03-.2-.06-.36-.11-.4-.06-.03-.16-.1-.23-.1-.07-.02-.1 0-.13-.02-.04-.01-.09-.06-.09-.06s.18-.06.25-.1a7.06 7.06 0 011.38-.38 11.42 11.42 0 012.07-.22 11.71 11.71 0 013.13.5l.53.18c.03.03.06.07.1.08l.1.05s-.12.13-.2.26c-.23.39.04.88.4 1.15.48.35 1.33.88 1.48 1.68.04.18.03.51.03.51"/>
    <path fill="#FFFFFE" d="M30.84 4.7c-.03-.27-.2-.55-.32-.73-.13-.18-.21-.37-.35-.61-.14-.24-.54-.48-.8-.66-.2-.14-.44-.44-.44-.68 0-.11-.06-.29-.2-.21a.5.5 0 01.15-.17c.13-.11.37-.26.6-.34.22-.09.75-.23.97-.28.23-.05.85-.16 1.1-.18l.92-.04c.24 0 .68.02 1.01.06.35.03.83.1 1.14.12.32.02.85.03 1.09.03l.9-.03a49.32 49.32 0 002.73-.13l1.42-.03a65.07 65.07 0 012.84.13l.83.04h.96l.87-.02 1.2-.09 1.11-.1c.21-.02.42-.05.5-.03.1.01.2.08.23.11a33.75 33.75 0 00.43.5c.01.03.07.11.06.14-.01.03-.02.08-.05.1l-.18.08s0-.06-.06-.09c-.05-.02-.13-.05-.2-.02l-.4.16c-.11.05-.31.15-.4.16l-.7.02-1.26.02-1.56.02-1.47.02c-.3 0-1.15.02-1.43.01L40.33 2a69.92 69.92 0 00-1.97.04c-.26.01-.64.05-.74.06a1 1 0 01-.3-.03l-.09-.03-.12-.01-.02-.05.21-.04c.1-.03.18-.07.35-.1l.82-.16 1.46-.24c.27-.03 1-.12 1.25-.13l1.23-.1.96-.03c.14 0 .63.01.82.03h.3l.03-.12s-.2 0-.37-.02a19.03 19.03 0 00-1.66 0l-.72-.03a14.5 14.5 0 00-2.44.13c-.23.03-1.04.15-1.41.22l-1.22.23c-.27.05-.62.12-.93.15-.3.03-.93.05-1.16.04-.23 0-.9-.02-1.24-.01-.34 0-.9 0-1.24.04-.33.04-.61.1-.78.16-.18.06-.35.12-.47.2-.12.1-.17.18-.16.22v.05l.1.03-.14.11a.46.46 0 00-.12.23l-.05.37c0 .1-.01.13.02.2.02.06.16.3.21.4l.24.4.17.25c.05.08.14.28.15.34l.01.25v.47c0 .07 0 .13-.02.15-.01.02-.06.05-.06.1l-.04.17c0 .04-.04.14-.04.14l-.06-.13c0-.01.02-.1.01-.24-.01-.14-.22-.57-.26-1"/>
    <path fill="#FFFFFE" d="M30.7 2.8s.06-.09.21-.19c.13-.08.34-.18.47-.21.13-.04.6-.15.81-.17.21-.02.79-.02.98-.02h1.81c.04.01.12.03.13.06.01.03.02.06 0 .1-.02.03-.02.08-.02.09v.03l-.05.03-.14.09-.02-.07c-.02-.05-.09-.09-.14-.1a3.73 3.73 0 00-.31-.02l-.34-.02c-.08 0-.11-.02-.15-.02-.03 0-.06 0-.09.03l-.06.05h-.07s-.03.01.01.06c.07.06.17.07.26.09l.3.05.3.06.2.02c.02 0 .07.03.07.05a.3.3 0 01-.02.08.2.2 0 00-.01.1c0 .02 0 .04-.03.05l-.13.06h-.06v-.06a.22.22 0 00-.1-.07 4.85 4.85 0 00-.34-.09l-.33-.07c-.1-.02-.16-.05-.19-.02l-.05.05h-.06c-.02.02-.05.04-.03.06.02.03.08.06.15.09l.36.1.34.12c.09.01.18.04.2.09.01.05 0 .1-.02.12-.04.03-.04.07-.05.09l-.02.06-.1.06-.08.03s.03-.03 0-.1c-.02-.05-.09-.09-.18-.14a4 4 0 00-.35-.14l-.36-.13c-.05-.02-.11-.04-.16-.03-.05.01-.08.04-.06.07.01.02.05.03.05.06l-.01.06-.02.01.2.12.34.18.26.13c.04.03.12.08.1.12l-.03.12c0 .02 0 .04-.03.05-.03.02-.17.05-.17.05v-.05c-.01-.01-.04-.05-.1-.09a10.78 10.78 0 00-.66-.37l-.15-.13c-.04-.02-.1-.05-.14 0-.04.03-.05.1-.03.12l.07.07s-.05.03-.04.05c0 .02.12.1.2.16l.37.25.22.15c.04.04.05.07.02.1l-.04.07v.1l-.07.02-.1.01s-.02-.02-.02-.05c0-.03-.03-.05-.07-.1L33 4.15l-.3-.21c-.03-.04-.1-.15-.14-.18-.04-.03-.1-.07-.14-.05-.05.02-.1.05-.1.1-.01.04-.02.07 0 .1.04.01.08.04.08.05 0 .02-.05.03-.04.05.01.03.16.14.23.2l.36.28c.05.05.16.15.17.2.02.04.01.13 0 .15-.02.03-.07.04-.12.05l-.1.01v-.08c0-.02-.1-.08-.18-.14l-.39-.32a.81.81 0 01-.2-.22C32.11 4.08 32.06 4 32 4c-.07 0-.14.01-.18.07-.04.05-.04.11-.01.14.03.02.09.06.07.07l-.07.04.16.11.33.29.22.2a.2.2 0 01.06.14l-.02.13c-.02.02 0 .04-.04.06-.03.02-.1.02-.12.02l-.05-.01s.06-.05.06-.07a.6.6 0 00-.13-.14l-.38-.33a1.11 1.11 0 01-.25-.29c-.03-.07-.03-.18-.07-.24l-.2-.2a4.7 4.7 0 01-.27-.46c-.07-.14-.15-.25-.16-.38-.02-.12 0-.2-.03-.24-.02-.04-.07-.1-.1-.1h-.1M31.28 4.58l.25.26c.05.05.15.1.18.13l.19.18c.03.03.1.11.1.16a.5.5 0 01-.06.2c-.03.02-.07.06-.11.06h-.1s.08-.03.08-.06-.02-.06-.07-.11a1.94 1.94 0 01-.25-.33l-.04.01h-.05l-.03-.2-.05-.18a2.8 2.8 0 01-.04-.12M31.26 6.2l.06-.17.03-.15.01-.06.12.16c.03.03.13.11.16.16l.27.35.3.4c.03.05.14.2.13.24 0 .05-.02.1-.04.14-.02.04-.04.1-.06.1h-.13l.03-.06c0-.03-.04-.1-.1-.14-.07-.03-.2-.1-.22-.13-.03-.04-.12-.27-.16-.35l-.19-.34c-.05-.07-.09-.15-.11-.16l-.04.02c-.04 0-.06-.02-.06-.02M31.42 5.66s.14.04.21.04h.15c.02 0 .05-.06.12-.08.08-.02.15 0 .22.05s.43.4.48.46l.36.34c.07.06.18.18.2.22.03.05.04.1.02.12l-.05.07c-.01.03-.02.1-.04.12a.1.1 0 01-.1.05h-.1s.07-.04.07-.07a.13.13 0 00-.07-.11l-.18-.1a.66.66 0 01-.19-.15l-.24-.3c-.06-.07-.2-.26-.27-.32a.5.5 0 00-.22-.14.75.75 0 00-.13-.02c-.02 0-.05.05-.04.07 0 .01-.04-.02-.07-.07l-.13-.18M32.1 5.5l.01-.07c0-.03.02-.08.03-.07.02 0 .11.04.17.04h.07s.03-.06.1-.08a.7.7 0 01.13-.01c.03 0 .06-.01.14.02.08.03.3.21.38.28l.5.4.23.17c.03.03.12.12.1.16-.02.03-.07.08-.08.12l-.02.13c0 .03-.06.04-.08.03h-.1s.04-.03.05-.06c.01-.03 0-.06-.05-.09-.04-.03-.1-.07-.18-.1l-.28-.21-.39-.35c-.05-.05-.22-.2-.26-.21-.04-.02-.17-.04-.21-.05l-.12-.03-.04.05h-.03l-.02-.03a.63.63 0 01-.05-.05"/>
    <path fill="#FFFFFE" d="M32.7 5.13v-.06l.1-.02c.07 0 .12 0 .2-.02l.1-.04.12-.07c.04-.03.03-.07.06-.07s.12-.01.14 0c.03.01.2.16.32.22l.55.34.36.23c.06.05.1.08.1.13s-.05.09-.07.13c-.02.04-.01.07-.03.1l-.02.07-.15.03s.04-.04.03-.07c0-.04-.03-.08-.1-.12-.06-.03-.15-.04-.22-.06-.07-.03-.2-.11-.27-.17l-.35-.26c-.1-.06-.22-.17-.28-.2a.89.89 0 00-.25-.05h-.17c-.01 0-.03.07-.06.05l-.08-.05c-.03-.02-.03-.04-.03-.04M33.59 4.64s.1 0 .12-.05c.02-.04.01-.13.02-.17 0-.05 0-.07.02-.08l.11.04c.05 0 .1 0 .18.04l.56.27c.17.07.5.25.6.29.11.04.28.1.3.15.03.04.04.1.02.14-.03.05-.05.07-.04.1 0 .04.04.07.01.1l-.12.03-.09.01s.04-.02.03-.06c0-.04-.04-.1-.11-.11l-.23-.04a.88.88 0 01-.23-.1c-.1-.07-.32-.2-.43-.25a7.06 7.06 0 01-.38-.21l-.13-.08a.22.22 0 00-.11 0l-.1-.02M34.19 4.07l.03-.12.01-.1c.03-.02.06 0 .1 0l.13.01.27.1.62.23.49.18c.1.04.18.05.21.08a.2.2 0 01.08.16c0 .07 0 .1-.02.13-.03.04-.04.04-.04.06 0 .02.02.06 0 .09-.01.02-.04.02-.1.03l-.1.02s.05-.06 0-.1c-.05-.05-.06-.08-.18-.12l-.38-.15c-.08-.03-.43-.2-.53-.23-.1-.04-.3-.11-.37-.15l-.13-.08c-.02-.03-.1-.04-.1-.04M34.63 3.47s0-.17.02-.18c.02 0 .1.02.13.01.03 0 .12 0 .2.02l.71.18c.18.04.42.1.57.12.15.02.25.02.28.08.03.05.03.16.02.22 0 .06.02.2 0 .21a.47.47 0 01-.13.07 1.2 1.2 0 00-.08.03s.03-.06 0-.1c-.04-.05-.18-.11-.27-.13l-.51-.16-.47-.15c-.08-.02-.18-.04-.24-.08-.05-.03-.11-.1-.14-.11-.02-.02-.09-.03-.09-.03M34.96 2.83v-.07s.08-.08.1-.08h.16a13.2 13.2 0 011.29.17c.11.02.29 0 .34.02.1.02.08.11.1.17v.18c0 .02-.06.07-.12.12l-.14.09c-.03.02 0-.08-.03-.11a.35.35 0 00-.16-.07l-.32-.07-.55-.1c-.13-.03-.28-.04-.37-.09-.09-.04-.14-.11-.2-.13a.46.46 0 00-.1-.03M35.22 2.36l-.03-.09.01-.03s.15 0 .25-.02l.58-.09.66-.11c.12-.02.26-.05.31-.03.05.02.09.07.1.12 0 .05.04.16.05.21.02.05.06.12.05.14 0 .02-.07.1-.11.14-.05.03-.15.13-.15.13s.02-.08-.02-.13a.34.34 0 00-.17-.13 3 3 0 00-.54-.05h-.54a.95.95 0 01-.32-.05l-.06-.02a.07.07 0 00-.07.01M37.14 2.75l.18-.2c.03-.04.07-.1.1-.1.02 0 .1 0 .17-.02s.55-.02.68-.02h1.2l1.66-.02h1.35c.23-.01 1.35 0 1.61-.02l1.9-.02 1.5-.03c.2 0 .58 0 .7-.02.12 0 .23-.02.28-.01.05 0 .05.05.07.08l.11.34c.03.1.06.23.06.29 0 .06.03.13.01.15l-.16.1h-.06s.02-.04 0-.07a.25.25 0 00-.13-.1 4.94 4.94 0 01-.72.19c-.16.03-.23.06-.49.06h-1.11c-.26-.02-1.02-.04-1.38-.05L43.1 3.2l-1.5-.09-1.57-.1-1.58-.1a26.7 26.7 0 00-1.09-.1c-.06-.02-.06-.04-.11-.05l-.12-.01M36.67 3.63l.23-.16c.07-.05.16-.1.17-.16l.02-.07.62.02.81.06c.15 0 1.03.07 1.31.09l1.77.12 1.5.09a239.08 239.08 0 003.08.12h.9l.3-.02c.08 0 .16.01.16.09 0 .07 0 .38-.04.49-.03.1-.1.27-.16.32l-.13.09s.03-.07 0-.11c-.01-.04-.09-.1-.14-.1-.06.01-.37.09-.53.1-.16.03-.42.05-.61.05l-.88-.04c-.23-.02-.85-.06-1.16-.1a198.98 198.98 0 01-4.43-.54l-1.07-.15-.9-.13-.32-.04H36.73c-.04 0-.06-.02-.06-.02M36.24 4.44l.21-.08c.07-.04.2-.07.23-.13.04-.06.04-.07.04-.11l-.01-.08.32.02.68.1c.14.01.82.12 1 .15l1.7.23 1.51.19c.2.02 1.41.16 1.6.17.2.02.87.09 1.1.1.24.02.75.05.96.05.22 0 .38 0 .43.02.06.02.1.05.1.1-.02.03-.06.37-.09.44-.02.07-.05.2-.09.25-.03.04-.05.1-.1.13l-.08.03s.04-.07.02-.12c-.02-.04-.1-.11-.15-.12l-.34.05-.48.05c-.15.01-.33.03-.43.02l-.42-.04-.91-.13a81.07 81.07 0 01-2.57-.48L39.38 5l-1.15-.27-.83-.2-.48-.11c-.08-.02-.16-.04-.23-.02l-.24.07c-.04.02-.05.02-.11.01-.06 0-.1-.04-.1-.04"/>
    <path fill="#FFFFFE" d="M35.63 5.12s.13 0 .19-.02l.28-.06c.07-.03.1-.04.1-.07V4.8a1 1 0 01.03-.09l.2.04c.07 0 .28.04.36.06a340.77 340.77 0 012.68.66l1.3.28a103.28 103.28 0 002.95.5l.5.06c.06.02.1.04.1.1-.02.1-.1.27-.14.36-.04.08-.1.24-.18.32l-.18.19-.06.04s.04-.07.03-.1c-.01-.05-.08-.1-.14-.12h-.34c-.14 0-.55-.02-.9-.07a18.33 18.33 0 01-2.54-.55c-.37-.1-.99-.28-1.38-.41l-1.1-.38-.95-.34a.82.82 0 00-.25-.06h-.24a1.44 1.44 0 01-.22-.05c-.04-.01-.07-.02-.1-.06v-.06M34.89 5.75l.36-.1c.1-.04.23-.1.35-.09.1.01.35.1.5.15l.76.28c.13.05 1.26.43 1.45.48l1.37.41 1.38.35.7.13c.12.02.23.05.24.1 0 .06 0 .14-.02.19l-.1.26a.93.93 0 01-.11.25c-.05.05-.15.07-.15.07s.05-.04.04-.09a.13.13 0 00-.06-.1c-.05-.03-.07-.06-.13-.06l-.34.02h-.7c-.17 0-.33.02-.45 0a2.95 2.95 0 01-.46-.09 13.54 13.54 0 01-1.85-.74 55.9 55.9 0 01-.98-.48l-.65-.33-.58-.31a1.13 1.13 0 00-.26-.1 1.21 1.21 0 01-.21-.06l-.11-.04v-.1M34.1 6.29l.32-.08c.06-.03.2-.06.25-.05.06.01.24.1.35.16a58.98 58.98 0 001.7.89l.8.38.92.4c.16.07.4.16.55.2.14.06.32.11.4.14.1.02.24.06.25.1.02.04.02.1-.01.16l-.13.3c-.03.07-.09.18-.13.23l-.1.07h-.03s.05-.06.05-.09c0-.02-.03-.1-.07-.14a.3.3 0 00-.15-.05c-.05 0-.2 0-.33-.02a5.55 5.55 0 01-.53-.08c-.17-.03-.29-.05-.42-.11a8.21 8.21 0 01-1.44-.83l-1-.7-.47-.35c-.11-.08-.26-.2-.32-.23l-.3-.12c-.06-.02-.13-.05-.15-.08-.02-.04-.01-.1-.01-.1M33.32 6.76h.2c.06-.02.19-.06.23-.06.04 0 .11-.01.18.02.08.03.26.14.35.21A28.7 28.7 0 0036.5 8.5l.53.32c.13.07.27.14.31.18.04.04.09.08.05.17-.04.09-.15.27-.18.31a.81.81 0 01-.15.15l-.05.04s.06-.07.04-.12a.23.23 0 00-.1-.15c-.08-.04-.22-.05-.33-.08l-.65-.16a1.16 1.16 0 01-.38-.15c-.1-.07-.35-.3-.47-.42l-.52-.48c-.15-.13-.45-.41-.55-.52l-.45-.41-.21-.21c-.04-.04-.06-.03-.09-.07-.02-.03 0-.09 0-.1l.02-.04M32.43 7.35l.03-.1.01-.06h.23c.1-.02.15-.05.23-.04.09 0 .13.03.17.11.04.09.17.23.26.31l.65.61.7.65.4.36.2.21c.03.04.02.1 0 .16-.04.06-.1.17-.16.21L35 9.9s.04-.07.03-.11c-.02-.04-.1-.1-.15-.13l-.41-.12c-.1-.03-.34-.12-.4-.17a6.68 6.68 0 01-.42-.47c-.06-.08-.3-.4-.4-.5l-.37-.51-.3-.39-.1-.09-.05-.05M31.56 7.47l.24.02h.21c.04 0 .1 0 .13.05.04.04.06.12.08.17a9.32 9.32 0 00.69.97l.4.52.25.29.14.21c.01.03-.02.07-.04.1a1.1 1.1 0 01-.11.12.61.61 0 01-.12.1c-.02 0 0-.06 0-.09.01-.03-.01-.07-.06-.11a1.1 1.1 0 00-.27-.13l-.37-.14a.55.55 0 01-.21-.12 26.02 26.02 0 01-.56-1 .7.7 0 01-.08-.22c-.01-.06-.01-.28-.04-.34a.6.6 0 00-.12-.19l-.07-.04-.08-.03v-.1a.2.2 0 00-.01-.04M31.5 8.64l.14.22c.03.06.13.18.17.28.05.09.2.32.23.4.04.08.09.15.08.23 0 .08-.07.18-.1.22-.02.04-.02.08-.07.12-.05.04-.13.05-.13.05s.05-.05.06-.1c0-.04-.04-.1-.06-.14a.49.49 0 00-.15-.12c-.06-.03-.2-.1-.2-.14-.02-.04-.03-.08 0-.16.05-.1.04-.2.03-.29-.02-.08-.04-.1-.05-.13a.13.13 0 00-.05-.05l.06-.23.04-.16"/>
    <path fill="#FFFFFE" d="M27.71 12.43l.35-.14.46-.2a5.5 5.5 0 001.8-1.28c.1-.1.37-.41.44-.53l.22-.33.3.15c.13.07.27.13.36.14.09.02.15.03.24.02.1 0 .13-.02.18-.08a.9.9 0 00.13-.21l.05-.13.19.08.34.12c.1.04.23.06.28.1.06.04.07.07.07.1 0 .05-.04.14-.08.21l-.22.46-.38.6c-.11.16-.47.6-.6.72-.13.13-.3.3-.39.34-.1.05-.25.08-.35.14l-.54.34a7.5 7.5 0 01-1.11.6l-.33.15c-.08.03-.13.06-.19.05-.06 0-.1-.04-.12-.08l-.26-.47-.36-.6c-.05-.09-.07-.12-.18-.17l-.13-.04h-.11c-.04-.02-.06-.06-.06-.06M26.9 12.66l.29-.08.27-.09c.07-.01.1-.01.13.02.04.04.07.1.09.15a46.34 46.34 0 01.6 1.06c.05.1.25.44.3.5l.13.23.11.25c.03.05.05.1.03.14l-.16.3a7.6 7.6 0 01-.13.26s-.01-.16-.04-.24a.31.31 0 00-.12-.17c-.06-.04-.17-.06-.21-.1-.04-.03-.08-.06-.14-.16l-.24-.62-.3-.73c-.05-.15-.15-.4-.2-.47a.53.53 0 00-.2-.15c-.05 0-.1-.02-.11-.01h-.06l-.04-.09"/>
    <path fill="#FFFFFE" d="M33.28 10.21l.13-.01a1.25 1.25 0 00.38-.36l.04-.05s.03 0 .03.03a3.2 3.2 0 01-.23.69l-.27.52a10.3 10.3 0 01-.96 1.31l-.59.6a14.15 14.15 0 01-1.61 1.03l-.52.25c-.11.06-.39.19-.46.2-.07.02-.14 0-.2 0l-.11-.01-.1.01-.04-.05.4-.17c.13-.06.7-.33.85-.42.16-.1.5-.28.67-.4.17-.11.58-.4.73-.54.15-.13.58-.55.65-.64.08-.1.42-.41.5-.5.08-.08.22-.2.31-.34.1-.16.33-.52.38-.63.04-.11.1-.2.09-.24l-.03-.1-.1-.03.04-.1.02-.05M26.12 12.8s.09.01.16-.01c.08-.03.25-.1.32-.1.07-.01.18-.01.2.01l.07.2.29.76.33.82.17.44c.01.05.06.2.05.23-.01.05-.1.18-.15.25l-.22.31v-.12c.02-.03.04-.09.03-.12a.44.44 0 00-.1-.17c-.06-.05-.16-.08-.21-.13-.05-.05-.08-.07-.12-.22l-.17-.7-.19-.84c-.03-.11-.06-.27-.1-.33-.05-.06-.15-.15-.19-.16h-.1a.4.4 0 00-.04 0l-.03-.11M25.38 12.88l.2-.03c.05-.02.2-.05.28-.05.09 0 .17.02.18.07l.05.28c0 .07.16.72.18.82.02.1.2.8.21.9.02.1.08.35.08.41v.12l-.18.21-.24.3s-.02-.07 0-.1c.03-.04.08-.08.08-.14a.43.43 0 00-.1-.2c-.05-.03-.16-.09-.2-.14-.05-.05-.07-.09-.08-.2a96.8 96.8 0 01-.15-1.8c-.01-.08-.03-.17-.08-.22a.38.38 0 00-.15-.1.45.45 0 00-.07-.01v-.13M24.61 12.88h.18c.03-.02.17-.03.27-.03s.2.03.21.08l.02.34.05.75.06.85.03.5v.12l-.22.22-.25.21.06-.12c.02-.03.05-.09.03-.13a1.82 1.82 0 00-.22-.22.31.31 0 01-.11-.19l.05-.78.06-.83c.02-.16.04-.35.01-.42s-.08-.15-.12-.17a.5.5 0 00-.11-.03v-.15M23.85 12.84H24l.18-.02c.08 0 .15 0 .2.02.07.02.12.06.1.16l-.03.55-.07.89-.03.48c0 .08-.04.27-.05.35 0 .07-.04.2-.04.21l-.01.04-.18.13c-.05.02-.05-.03-.08-.05-.02-.03-.06-.04-.13-.07a.69.69 0 01-.22-.2c-.04-.07-.06-.14-.03-.26l.16-.67.16-.7c.03-.14.09-.36.09-.44 0-.08-.03-.15-.07-.2l-.08-.05a.66.66 0 00-.05-.02l.03-.15M23.08 12.7l.15.02h.23c.1.03.21.05.23.1.01.03.03.08 0 .17a92.3 92.3 0 00-.4 1.67 4.13 4.13 0 01-.19.7c0 .02-.1.07-.12.08l-.06.03s.04-.06.02-.1a.12.12 0 00-.1-.07c-.06 0-.12.04-.16.03-.04-.02-.11-.04-.16-.16s-.05-.14-.04-.23c.02-.08.24-.61.29-.74.04-.12.24-.64.3-.76.04-.13.11-.3.1-.34a.33.33 0 00-.06-.16c-.02-.02-.06-.04-.07-.03L23 12.9l.08-.2M22.32 12.5s.07.03.15.03c.07 0 .15 0 .24.02.08.02.2.09.22.14.01.04-.03.13-.08.24l-.33.86a98.46 98.46 0 00-.55 1.33l-.13.04s.03-.06.01-.09c-.02-.03-.09-.1-.13-.1-.03 0-.09 0-.13.02-.06.03-.13.03-.15-.02-.03-.05-.1-.18-.1-.21-.01-.03-.04-.08 0-.15a20.14 20.14 0 01.7-1.21c.05-.12.2-.37.23-.43.03-.05.05-.1.03-.14-.02-.04-.02-.07-.05-.08l-.07-.01.14-.24"/>
    <path fill="#6F8F9D" d="M25.07 10.94H25c-.78 0-1.67-.22-1.67-1.47 0-1.26.87-1.51 1.7-1.52.78 0 1.62.3 1.62 1.52 0 1.1-.78 1.47-1.6 1.47"/>
    <path fill="#FFFFFE" d="M24.9 12.74c-3.71 0-6.52-2.3-6.52-4.9 0-2.6 2.8-4.9 6.53-4.9 3.72 0 6.53 2.3 6.53 4.9 0 2.6-2.81 4.9-6.53 4.9"/>
    <path fill="#6F8F9D" d="M24.9 4.7c.9.01 1.5.38 1.5 1.37 0 1.04-.63 1.38-1.5 1.38-.83 0-1.5-.3-1.5-1.38 0-.95.68-1.36 1.5-1.36"/>
    <path fill="#6F8F9D" d="M27.44 7.6c.9-.51 1.08-1.03 1.01-1.63-.12-1.09-1.6-1.87-3.58-1.84-2.38.02-3.82 1.22-3.82 1.53 0 .3.47.39.47.55V9.5c0 .2-.44.43-.44.65 0 .24 1.53 1.37 4.06 1.35 2.23-.01 3.5-.94 3.52-2.06 0-.6-.35-1.42-1.22-1.82v-.02"/>
    <path fill="#b0b0b0" d="M24.91 3.18c3.76 0 6.32 2.34 6.32 4.68 0 2.33-2.56 4.68-6.32 4.68-3.76 0-6.32-2.35-6.32-4.68 0-2.34 2.56-4.68 6.32-4.68"/>
    <path fill="#FFFFFE" d="M25.07 10.94H25c-.78 0-1.67-.22-1.67-1.47 0-1.26.87-1.51 1.7-1.52.78 0 1.62.3 1.62 1.52 0 1.1-.78 1.47-1.6 1.47zm2.37-3.35c.9-.5 1.08-1.02 1.01-1.62-.12-1.09-1.61-1.87-3.58-1.84-2.38.02-3.82 1.22-3.82 1.53 0 .3.47.39.47.55V9.5c0 .2-.44.43-.44.65 0 .24 1.53 1.37 4.06 1.35 2.23-.01 3.5-.94 3.52-2.06 0-.6-.35-1.42-1.22-1.82v-.02zM24.9 4.71c.9 0 1.5.37 1.5 1.36 0 1.04-.63 1.38-1.5 1.38-.83 0-1.5-.3-1.5-1.38 0-.95.68-1.36 1.5-1.36z"/>
  </g>
</svg>
