<svg xmlns="http://www.w3.org/2000/svg" viewBox="0 0 26 26">
  <defs/>
  <g fill="#b0b0b0" fill-rule="evenodd">
    <path d="M12.73 0a12.73 12.73 0 100 25.46 12.73 12.73 0 000-25.46zm0 25.11a12.38 12.38 0 110-24.76 12.38 12.38 0 010 24.76z"/>
    <path d="M5.47 7.73l.75-.93.27-.34a.38.38 0 00-.31-.62.42.42 0 00-.26.16l-.32.41-.68.85.35.28.2.19z"/>
    <path d="M12.73.57a12.16 12.16 0 100 24.32 12.16 12.16 0 000-24.32zm-2 .76l1.14-.12.82 2.4.82-2.4 1.14.12.13 3.42-.89-.13-.08-2.27-.8 2.27h-.64l-.8-2.27-.08 2.27-.89.13.13-3.42zM3.09 7l-.27-.22.05-.06.71-.88.83-1 .16-.2a.81.81 0 011.21-.08.9.9 0 01.23.4 1 1 0 010 .46L6 5.26a1 1 0 01.92-.1 1 1 0 01.54.74c.02.12.02.24 0 .36a1.72 1.72 0 01-.38.58L6.23 7.9l-.7.88-.06.07-.27-.21-1-.83L3.09 7zm9.64 13.37a7.6 7.6 0 117.6-7.6 7.6 7.6 0 01-7.6 7.56v.04zM20 8.8l-.44-.75 1.5-2-2.25 1-.64-.58 2.06-2.7.63.59L19.65 6l1.9-.87.55.69-1.27 1.64 1.78-.82.44.75L20 8.8z"/>
    <path d="M5.45 5.56a.41.41 0 00-.09-.35.4.4 0 00-.43-.09.63.63 0 00-.24.22l-.8 1-.06.08.17.13.42.34.43-.53.42-.52a.84.84 0 00.18-.28zm.07 7.17h7.21V5.52a7.4 7.4 0 00-7.21 7.21zm7.21 7.21a7.4 7.4 0 007.21-7.21h-7.21v7.21z"/>
  </g>
</svg>
