<svg xmlns="http://www.w3.org/2000/svg" fill="none" viewBox="0 0 26 26">
  <defs/>
  <path fill="#b0b0b0" d="M25.5957 14.6952a.1591.1591 0 11.3183.0006.1591.1591 0 01-.3183-.0006zm.299 0a.1399.1399 0 00-.1674-.1364.1403.1403 0 00-.1094.11.1394.1394 0 00.1909.1559.1394.1394 0 00.0859-.1295zm-.0607.0892h-.0257l-.0507-.0821h-.0401v.0821h-.0216v-.1779h.0775c.015 0 .03.0007.0433.0086a.0439.0439 0 01.0199.0383c0 .0349-.0245.0479-.0561.0487l.0535.0823zm-.0831-.0992c.025 0 .0638.0044.0638-.0318 0-.0276-.0243-.0309-.0462-.0309h-.0507v.063h.0331v-.0003zM2.4352 13.0556h.7558v.1511h-.7558v-.1511zm.781-.5277h.7561v.1512h-.756v-.1512z"/>
  <path fill="#b0b0b0" d="M5.369 11.597c-.0095-.0013-.9715-.1341-2.1652-.2531-1.1935.119-2.1553.2518-2.1648.2531l-.0652.0092.3852.6594c.003.0887.0254.688.0884 1.2083.036.2972.1007.454.5379.6087.3961.14.5615.1859.7216.2302.0663.0184.1117.0329.1555.0469.079.0252.1535.049.3317.089l.0104.002.0095-.002c.1784-.04.2528-.0638.3318-.089a4.1955 4.1955 0 01.1555-.0469c.1599-.0443.3253-.0902.7217-.2302.4374-.1545.5022-.3115.5381-.6087.0627-.5203.0854-1.1196.0885-1.2083l.3851-.6592-.0657-.0094zm-1.3967.7288v-.4897h.9684l-.0958.1642H3.998v.1511h.758l-.0203.0349-.0036.165h-.7341v.5029l.7239-.0002-.0005.0252H3.2173v.3579h1.497l-.0004.025H3.2165v.2656h1.4833a.58.58 0 01-.005.0247l-1.478.0003v.5169h-.0255l-.0003-.6633h-.7555v.5155a3.6215 3.6215 0 01-.3149-.0773c-.1307-.0407-.2169-.0762-.275-.1103h.5649v-.1515h-.689a.9285.9285 0 01-.011-.0476 1.1107 1.1107 0 01-.0128-.154h.7125v-.5029H1.687a.8212.8212 0 00-.0005-.0253h1.505v-.3561l-1.5121.0003a.8018.8018 0 00-.0005-.025l1.5124-.0003v-.2653l-1.518.0008s-.0013-.0225-.003-.0253l1.521-.0007v-.3452h.026v.4897h.755zm-.7354 1.7438v-.4955h1.4558c-.0253.0976-.0806.1703-.4038.2709-.145.0452-.3574.0872-.546.1227-.1912.0359-.367.0685-.506.1019zm1.478-.856H3.2384v-.3112h1.4828l-.0063.3112zM1.468 11.8361H3.17v.3227c-.0438 0-1.2529-.0007-1.5142 0l-.1878-.3227zm1.7023.9942H1.686l-.0061-.3098 1.4905-.0002v.31zm-.4466 1.4213c-.1591-.0441-.3235-.0897-.7174-.2289-.4073-.144-.4619-.2735-.496-.5564-.0632-.5229-.0857-1.1349-.088-1.203l-.0007-.016-.3452-.5912a64.8945 64.8945 0 012.118-.2472v.4017H1.4238l.2238.3829.0033.1453.0105.5276.0079.3829c.002.1226.004.2269.016.2911.0286.1359.0582.2144.4273.3289.1432.0446.348.0856.5488.1233.1993.0373.3857.0729.5328.1091v.2807a3.0409 3.0409 0 01-.3128-.0836c-.0439-.0138-.0897-.0286-.1576-.0472zm2.2623-2.0043l-.0005.016c-.0023.0681-.025.6801-.0882 1.203-.0342.2826-.0885.4121-.496.5564-.3942.1392-.5586.1848-.7174.2289-.0678.0189-.1134.0334-.1578.0474-.075.024-.1466.0467-.313.0837v-.2804c.1476-.0362.334-.0722.5338-.1094.2008-.0377.4055-.079.5488-.1234.3691-.1144.3984-.1929.4272-.3288.012-.0643.014-.1683.016-.2911l.008-.3829h.0002l.0105-.5277.0033-.1453.2238-.3828H3.2132v-.402c1.0668.1063 1.95.2243 2.118.2472l-.3451.5912zM3.1953 15.2259h.0191v.661h-.019v-.661z"/>
  <path fill="#b0b0b0" d="M3.2088 15.8688l-.0176-.0003c-.8404-.0426-1.6319-.3785-2.2291-.9465-.6075-.5778-.9401-1.3316-.936-2.1226.0066-1.362.785-2.3477 2.1927-2.7757a.5876.5876 0 01.154.041l.0053.0023-.0222.0072c-.329.1012-.6322.2437-.9.4226l-.0029-.0036a.844.844 0 00.163-.209l-.0164.0102-.011.0059-.084.0451c-.0903.0479-.162.0857-.2318.1478-.0912.0814-.1353.1739-.1744.2555l-.0247.0502a2.864 2.864 0 00-.2167.2261 2.5475 2.5475 0 00-.1904.2521l-.004-.0023c.0568-.1308.0808-.2391.1034-.3561l-.0188.0224-.0128.013-.0033.0028-.0007.001-.0227.0225c-.0959.0951-.1716.1703-.2272.3398a.5754.5754 0 00-.0282.1886c0 .0212.0005.0416.0012.0619.0005.0189.001.037.001.0551a.5723.5723 0 01-.0015.0469 2.5495 2.5495 0 00-.1932.7637H.2555c-.0148-.1274-.0434-.2128-.0686-.2883a2.1069 2.1069 0 01-.0357-.1178l-.012.0439c-.0331.1203-.0517.21-.0517.3069 0 .0525.0053.1071.0173.17.0232.1234.077.2246.12.3062l.0317.0614c.0245.3072.101.6036.2266.8815l-.0038.002-.0367-.0545c-.0734-.1056-.1285-.1548-.1818-.2027-.0341-.0306-.0665-.0594-.1012-.1012l-.0033-.0041-.0018-.002-.0132-.0168a.2611.2611 0 01-.0163-.027c.0231.2067.0716.3278.1952.4891.0846.1107.1937.1708.2735.2147l.0194.0107a.5079.5079 0 01.055.0323c.1307.2034.2863.3897.4632.5545l-.0025.0035-.068-.0405a1.0785 1.0785 0 00-.2624-.1081c-.0454-.0132-.0884-.0257-.1381-.0482l-.05-.0239c.1114.1802.208.2661.3938.3505.1153.0522.217.064.2985.0734l.0163.0018c.0296.0033.0574.0061.0763.0127.1936.1452.4024.2689.6227.3689l-.0013.0041a1.1669 1.1669 0 00-.1965-.0419.9523.9523 0 00-.2338-.0025.6573.6573 0 01-.171-.0008l-.0189-.0023c.17.1135.3052.168.4637.1866.1443.0169.2406.0018.3184-.0102l.022-.0035c.0392-.0064.0764-.0123.1154-.0107a3.317 3.317 0 00.4792.1267l-.0002.0043a1.4533 1.4533 0 00-.091.0013c-.1476.0063-.2325.0339-.3222.0627a1.706 1.706 0 01-.115.0341l-.036.0082-.0107.002h.0005l-.0244.0054c.1933.0684.4001.0899.6034.0627.1353-.0186.2245-.0581.3033-.0928a1.3312 1.3312 0 01.088-.0362l.0183-.001-.0005-.0253h-.0171a3.069 3.069 0 01-.5004-.069c-.0367-.0383-.064-.0732-.0905-.1066-.0479-.0607-.0976-.1236-.2034-.2093-.0584-.0471-.1904-.1175-.4035-.2151l-.0265-.0128c.051.0803.1738.2353.2748.3205.09.0757.157.1241.224.1613l-.002.0044a3.3564 3.3564 0 01-.7765-.3424 3.501 3.501 0 01-.0731-.1517 2.1864 2.1864 0 00-.1254-.2429c-.0625-.1009-.2226-.2475-.2886-.3059l-.0163-.0153.0204.0689c.029.1022.069.2424.1277.3329.0382.0588.0726.105.1083.145l-.003.0033a3.2682 3.2682 0 01-.2297-.1848 2.9736 2.9736 0 01-.308-.3161l-.02-.1501c-.0113-.091-.0217-.1769-.0444-.2779-.0265-.1175-.128-.3051-.1703-.3805l-.0097-.0202-.0028.0614a3.9161 3.9161 0 00-.0056.1859c0 .0642.0028.1279.0122.1774a.782.782 0 00.0276.1071l-.0041.0017a2.6034 2.6034 0 01-.3128-.6923l.0084-.038.0311-.1208c.0255-.0941.0497-.1833.0581-.2865a1.1572 1.1572 0 00.0034-.088c0-.0971-.01-.2138-.0283-.3285L.44 12.5549l-.01.0227c-.0384.0921-.1103.2636-.1297.3758a.8517.8517 0 00-.0089.0668H.2878a2.6706 2.6706 0 01.0253-.8117.63.63 0 01.0999-.1435c.0364-.042.078-.0895.14-.1863.0634-.0989.1203-.2228.1738-.3781a1.576 1.576 0 00-.0268.0266c-.0178.017-.0385.0341-.0599.052-.0543.0451-.122.1009-.1891.1934l-.025.0367-.0038-.0017a2.4658 2.4658 0 01.3375-.6266c.0553-.0375.091-.0584.1315-.0767.0589-.0265.1198-.0541.2116-.1249.094-.0747.18-.1589.2564-.2514l-.0232.0112a.9582.9582 0 01-.1053.037c-.0542.0171-.1014.0314-.1807.0803l-.0028-.0033.0043-.0041s.0059-.0059.0067-.0048l.0586-.0566a3.0048 3.0048 0 01.438-.3296l.11-.0273c.0908-.0224.1764-.0436.2873-.0879.1244-.0498.1818-.0788.2282-.102l.0086-.0043c.0378-.0189.0992-.05.154-.0709H2.3024c-.0676.001-.1313.0102-.22.0321v-.0002l-.001.0002v-.0015l-.0018-.0026a3.6339 3.6339 0 01.2824-.0996l.0026-.0005.041-.0123.0008-.0002.001.0005a.3793.3793 0 01.0849.0606l.0025.0026-.0035.001c-.6057.2146-1.0523.5022-1.4056.9052-.38.4336-.5878.9582-.6006 1.5164-.0158.6959.2657 1.3559.7923 1.8583.5011.4782 1.181.778 1.9141.844h.0168v-.0601c-.7237-.0627-1.3943-.3569-1.8886-.8282-.5141-.4905-.7887-1.1341-.7731-1.8124.0125-.5438.2149-1.0548.5852-1.4775.3437-.392.7765-.6775 1.4232-.9034l-.0003-.0007a.1338.1338 0 00-.011-.0189l-.0007-.0013a.296.296 0 00-.0308-.038.4078.4078 0 00-.1086-.0757.6.6 0 00-.153-.0489l-.0209-.0033L2.2162 10c-.6839.2078-1.21.5407-1.5832.9817-.4145.4899-.6266 1.1014-.6302 1.8177-.004.7991.3324 1.5606.9473 2.1433.6039.5722 1.4035.9095 2.2519.9498h.0055l.0013-.0237zM.2537 12.9131l-.0061-.0189.0058.0151a.0163.0163 0 01.0003.0038zm2.8392 2.6849c-.0773.0342-.1647.0727-.2968.0908a1.2337 1.2337 0 01-.497-.0331 5.9222 5.9222 0 00.7937-.0577zm-.8696-.4415c.1331.1091.271.2203.4168.3161-.1422-.0402-.252-.1154-.3836-.2263-.074-.0625-.1553-.1583-.2123-.2335.0588.0461.1177.0935.1791.1437zm-.0117.2335l-.0364.0054a1.0416 1.0416 0 01-.3123.0102c-.1285-.015-.234-.0515-.3648-.1277.2346.0617.3686.0749.5096.0887.0632.0061.1282.0125.204.0234zm-.966-.9054c.1001.1665.2434.4048.3762.5577-.1152-.0769-.1864-.1529-.27-.2814-.0502-.0775-.0866-.1942-.1144-.2901l.0081.0138zm.039.3915c-.0763-.0091-.1683-.0224-.2708-.069-.1504-.0683-.2416-.139-.3288-.2598.143.1055.406.2493.5995.3288zm-.7034-.8116c-.075-.0418-.169-.0991-.2426-.1955-.0997-.1303-.145-.2241-.1734-.3691.1025.2004.2718.4196.416.5646zm.0923-.3541c.0395.1905.1.4546.1815.6508-.0851-.1032-.1435-.1927-.1728-.3487a.9697.9697 0 01-.0117-.1695c0-.0454.0015-.091.003-.1326zm-.2636-.978c-.0247.1611-.0545.3563-.0545.6044l.0002.0152c-.0244-.0866-.0433-.17-.0433-.2651a.7706.7706 0 01.0115-.13c.0145-.0833.0589-.2016.0963-.2936l-.0102.0691zm-.1613.1198c-.0523-.1935-.0892-.5256-.0923-.7232l.0087.0265c.0293.0877.0624.1874.0734.3505.0046.067.0053.1229.0061.1761 0 .0567.0013.1134.004.1701zm.414-1.246c-.0421.106-.0816.1858-.1293.26a1.382 1.382 0 01-.1379.1835c-.0127.0148-.0255.0296-.0385.0456.081-.1756.17-.3.2567-.42l.049-.0691zm-.1739-.0314a2.0336 2.0336 0 01.2358-.5735 1.3207 1.3207 0 01-.141.3841 3.5213 3.5213 0 00-.0948.1894zm.766-.7644a1.6609 1.6609 0 01-.1664.1506c-.0893.0693-.149.0961-.2068.1224a1.7215 1.7215 0 00-.0466.0216c.1412-.1228.2852-.2118.3859-.2737l.0339-.0209zm.0507-.2182a6.3406 6.3406 0 00-.168.145c.1206-.154.2585-.2621.3559-.3378l.041-.0321c-.0573.078-.121.1336-.2289.2249zm.8876-.3834l-.0234.0114a2.4174 2.4174 0 01-.2259.101 1.6863 1.6863 0 01-.2159.0698 6.3102 6.3102 0 00.0908-.0405c.1274-.0576.2414-.1088.3744-.1417z"/>
  <path fill="#b0b0b0" d="M3.207 15.8925h.0057c.8483-.0401 1.648-.3773 2.2518-.9498.6148-.583.951-1.3442.9472-2.1433-.0035-.7163-.2156-1.3278-.63-1.8177-.3733-.441-.8991-.7737-1.583-.9817l-.0136.0013-.0211.0033a.608.608 0 00-.1527.0487.4092.4092 0 00-.1086.0757.2963.2963 0 00-.0311.038l-.0008.0012a.135.135 0 00-.011.0192l-.0002.0007c.6467.2259 1.0795.5116 1.4232.9034.3706.4227.573.9337.5852 1.4775.0156.6783-.2592 1.3219-.7731 1.8124-.494.4713-1.1647.7655-1.8884.8282l-.0002.0601h.0168c.7331-.066 1.413-.3658 1.9141-.844.5267-.5024.808-1.1624.792-1.858-.0127-.5583-.2205-1.0829-.6003-1.5165-.3533-.403-.7999-.6905-1.4056-.9051L3.92 10.145l.0026-.0025a.3764.3764 0 01.0849-.0607l.0007-.0005.0008.0003.041.0122.0023.0005c.0959.0296.1912.0632.2825.0997l-.0016.0025v.0016l-.001-.0003v.0003a.9296.9296 0 00-.22-.0319H4.0717c.0545.0209.1162.0517.1542.0709l.0084.0043c.0462.0232.1035.0523.2282.102.1111.0443.1968.0655.2872.0879l.11.027a2.998 2.998 0 01.4379.3296l.0586.0566c.0007-.001.0069.0049.0069.0049l.004.004-.0025.0031c-.0793-.0489-.1264-.0635-.1807-.0803-.0311-.0097-.0635-.0196-.1053-.037l-.023-.0112a1.679 1.679 0 00.2565.2514c.0915.0708.1527.0984.2115.1249.0406.0183.0763.039.1316.0767.142.1915.2558.4025.3375.6266l-.004.0017-.025-.0369c-.0671-.0926-.1347-.1484-.189-.1935a1.0764 1.0764 0 01-.0601-.052l-.0265-.0265c.0535.1552.1106.2794.1738.378a1.389 1.389 0 00.14.1861c.0344.0398.0642.0739.1001.1435.0492.2679.0577.5417.025.8122h-.0046a.985.985 0 00-.0086-.0668c-.0194-.1122-.0913-.2837-.1298-.3758l-.01-.0227-.0025.0164a2.127 2.127 0 00-.0283.3285c0 .0319.001.0615.003.088.0085.1032.0325.1924.0582.2865l.0314.1208.0084.038a2.6032 2.6032 0 01-.3128.6923l-.004-.0017a.7823.7823 0 00.0277-.1071 1.0103 1.0103 0 00.0123-.1774c0-.066-.0031-.1328-.0054-.1859l-.0028-.0614-.01.0202c-.0425.0754-.1437.263-.1702.3805-.0227.101-.0334.1869-.0446.2779l-.0202.1501a2.9482 2.9482 0 01-.308.3161 3.2085 3.2085 0 01-.2293.1848l-.003-.0033c.0356-.04.07-.0859.1082-.145.0587-.0903.0987-.2305.1278-.3329l.0203-.0689-.0163.0153c-.066.0584-.226.205-.2885.3059-.0515.0831-.0874.1606-.1254.2429-.0227.049-.0462.0997-.0732.1517a3.3596 3.3596 0 01-.7762.3424l-.0018-.0044c.067-.0372.1341-.0854.224-.1613.101-.0852.2239-.2402.2749-.3205l-.0265.0128c-.2131.0976-.3452.168-.4036.2151-.106.0854-.1554.1486-.2036.2093-.0265.0337-.0538.0686-.0905.1066a3.0768 3.0768 0 01-.5004.069h-.017l-.0006.0253.0184.001c.0285.0102.0568.0224.088.0362.0784.0349.1676.0742.303.0928.2033.0272.4102.0057.6036-.0627l-.0247-.0054h.0005l-.0107-.002-.036-.0084a1.6443 1.6443 0 01-.115-.0342c-.0899-.0288-.1745-.0563-.3221-.0627-.0303-.0013-.0607-.0018-.091-.0013l-.0005-.0043a3.3077 3.3077 0 00.4795-.1267c.0387-.0015.076.0046.1154.0107l.022.0036c.0777.012.174.027.3183.0102.1588-.0186.294-.0732.464-.1866l-.0191.0023c-.0763.0099-.1224.0053-.171.0007a.9502.9502 0 00-.2336.0026 1.1983 1.1983 0 00-.1965.0418l-.0015-.0041a3.3588 3.3588 0 00.623-.3688c.0188-.0064.0466-.0095.076-.0128l.0165-.0018c.0816-.0094.183-.0211.2982-.0734.1859-.0844.2825-.1703.3939-.3505l-.05.024a.95.95 0 01-.1382.0482c-.0731.0214-.1486.0433-.2623.108l-.068.0406-.0026-.0036a2.9091 2.9091 0 00.4632-.5544.497.497 0 01.0553-.0324l.0194-.0107c.0795-.0438.1889-.104.2735-.2146.1234-.1614.1718-.2827.1955-.49a.2512.2512 0 01-.0163.0271l-.0133.0168a.0231.0231 0 00-.0018.002l-.0033.0041c-.0349.0421-.0673.0709-.1012.1012-.0532.0479-.1086.0971-.1817.2026l-.037.0546-.0038-.002a2.6427 2.6427 0 00.2266-.8815c0-.0008.0316-.0614.0316-.0614.0431-.0814.0969-.1828.12-.3062a.9133.9133 0 00.0174-.17c0-.0969-.0188-.1866-.0517-.3069l-.0118-.0439a2.256 2.256 0 01-.0359.1178 1.3036 1.3036 0 00-.0686.2883h-.0043a2.5497 2.5497 0 00-.1932-.7637.6638.6638 0 01-.0015-.0459c0-.0181.0005-.0362.0012-.0548.0005-.0204.0013-.0408.0013-.0619a.5823.5823 0 00-.028-.1889c-.0559-.1695-.1316-.2445-.2274-.3398l-.0224-.0222-.001-.001-.0034-.0031-.0127-.013-.0189-.0224c.0227.117.0467.2256.1035.3561l-.004.0023a2.5977 2.5977 0 00-.1905-.2521 2.8287 2.8287 0 00-.217-.2261l-.0246-.0502c-.039-.0816-.0831-.1741-.1747-.2555-.0698-.0621-.1412-.1001-.2317-.1478l-.0838-.0451-.011-.0059-.0163-.0102a.8442.8442 0 00.1629.209l-.0028.0036a3.4414 3.4414 0 00-.9004-.4226l-.0219-.0069.0056-.0023a.57.57 0 01.154-.041c1.4073.428 2.1858 1.4137 2.1927 2.7757.004.7909-.3286 1.5447-.936 2.1226-.5973.5679-1.3887.9041-2.2292.9465l-.0176.0002.001.0235zm2.9542-2.9832c.002-.0049.004-.0097.0058-.0151l-.006.0189.0002-.0038zm-2.0457 2.7464a1.2249 1.2249 0 01-.497.0331c-.132-.0181-.2198-.0568-.297-.0908.2376.0352.5213.0556.794.0577zm.255-.6429c-.0574.0752-.1385.171-.2124.2335-.1315.1109-.2414.1861-.3836.2263.1455-.0958.2834-.207.4167-.3161.0615-.0502.1204-.0976.1792-.1437zm.0364.3535a2.8039 2.8039 0 00.5096-.0887c-.1308.0762-.236.1127-.3648.1277-.141.0164-.232.0023-.312-.0102l-.0365-.0053c.0755-.0107.1405-.0171.2037-.0235zm.7703-.8952c-.0278.0958-.0642.2126-.1144.2901-.0836.1285-.1547.2044-.27.2814.1328-.1529.2761-.3915.3763-.5577l.0081-.0138zm.5524.0762c-.0872.1208-.1782.1915-.3288.2598-.1025.0466-.1945.0599-.2707.069.1937-.0795.4565-.2233.5995-.3288zm.5198-1.0474c-.0283.145-.074.2391-.1734.3691-.0736.0964-.1677.1537-.2426.1955.1445-.145.3138-.3642.416-.5646zm-.5052.3431c0 .0617-.0031.1224-.0118.1695-.0293.156-.0877.2455-.1728.3487.0816-.1962.142-.4603.1815-.6508.0018.0416.003.0872.003.1326zm.2503-1.1795c.0374.0921.082.2103.0963.2937a.769.769 0 01.0115.13c0 .0948-.0189.1784-.0433.2651l.0002-.0153c0-.2483-.0298-.4435-.0545-.6044a15.6207 15.6207 0 00-.0102-.0691zm.175.0699l.0004-.0515a3.0953 3.0953 0 01.006-.1761c.0108-.1632.0442-.2626.0735-.3505l.0086-.0266c-.0033.1973-.04.5297-.0922.7232a2.0823 2.0823 0 00.0038-.1185zm-.3683-1.0581c.0865.1203.1754.2444.2565.42-.013-.016-.0258-.0308-.0385-.0456a1.443 1.443 0 01-.2671-.4435c.0163.0234.0328.0464.0491.0691zm.0299-.2899a1.3297 1.3297 0 01-.141-.3839c.107.1769.185.3661.2358.5736a3.206 3.206 0 00-.0948-.1897zm-.6373-.5541c.101.0619.2447.1509.386.2737a1.3477 1.3477 0 00-.0467-.0216.8933.8933 0 01-.2068-.1221 1.658 1.658 0 01-.1662-.1507l.0337.0207zm-.3135-.464l.0413.0321c.0973.0755.235.1838.3558.3378a6.3328 6.3328 0 00-.168-.145c-.108-.0913-.1718-.1469-.2291-.2249zm-.2843-.0168c.0296.0135.06.027.0908.0405a1.6985 1.6985 0 01-.2157-.0698c-.1233-.0492-.1804-.078-.226-.101a.6637.6637 0 00-.0233-.0114c.1328.0329.247.0841.3742.1417zM18.5974 12.8417c-.1104.0874-.2478.0959-.3069.0194-.0592-.0767-.0174-.2095.093-.2967.1104-.0875.2478-.0959.3069-.0194.0592.0767.0173.2095-.093.2967zm-2.0207.3467c-.0362-.0258-.0915-.0461-.1802-.0433-.1032.0033-.2106.0504-.3092.1017-.4341.225-.9531.7231-1.1999 1.1024-.1121.1724-.1121.2491-.0797.2771.029.0255.1187.0118.2459-.0614.3857-.2218 1.0651-.8983 1.5231-1.3765zm-2.2212-.002c-.0337-.0286-.0801-.0385-.1685-.038-.103.0005-.2295.0418-.3294.0902-.4394.2136-1.0099.7336-1.2666 1.1066-.1168.1695-.1175.2541-.0839.2878.0283.028.1168.0048.2458-.065.391-.2119 1.1323-.9152 1.6026-1.3816zm4.1909.924c.8091-.5386 1.5106-1.2279 1.8244-1.6686.17-.2389.0713-.3477-.1764-.1912-.6528.4129-1.4859 1.2947-1.648 1.8598zm4.9745-.924c-.0336-.0286-.08-.0385-.1685-.038-.103.0005-.2294.0418-.3293.0902-.4392.2136-1.01.7336-1.2667 1.1066-.1167.1695-.1175.2541-.0838.2878.0283.028.1167.0048.2457-.065.391-.2119 1.1326-.9152 1.6026-1.3816zm2.2776.9492l.0286.1181c-.1629.1763-.5654.4516-1.0077.5562-.3683.0871-.6426.0313-.8014-.1308-.1351-.1379-.1591-.3633-.0785-.5947-.7528.7069-1.1838.7798-1.3319.649-.128-.1129-.0897-.376.0614-.5779-.2258.1935-.4754.3903-.6745.5068-.3237.1891-.5016.1152-.5345-.0923-.0166-.1061.0296-.2483.1119-.3974-.6437.5552-1.1315.6676-1.4165.5766-.1214-.0388-.205-.1412-.244-.2799-.8407.4466-1.5294.4191-1.678-.0135-.5119.2809-1.0064.4076-1.2001.2852-.1507-.095-.2182-.2901-.0656-.5998-.5281.4818-.9921.7546-1.2322.598-.1468-.0955-.1009-.392.0418-.5931-.221.1991-.4489.3895-.6449.5108-.3189.1973-.509.1236-.5394-.0844-.0165-.1142.0311-.2676.1122-.4239-.6745.6212-1.1137.726-1.2641.5779-.1224-.1206-.0902-.3671.0625-.5712-.2259.1934-.4754.3902-.6745.5067-.3238.1892-.5017.1152-.5346-.0923-.0191-.1203.0434-.2872.1474-.4578-.8647.7061-1.9432 1.2774-2.67 1.2763-.9049-.0012-1.1641-.6515-.838-1.4308.1118-.2671.3277-.5666.6023-.8465-.8216-.0533-1.2004-.2424-1.3549-.5282-.1063-.1968-.0599-.5557.3278-.8799.5889-.4925 1.7072-.8076 2.5662-.9042.1937-.0216.3627-.029.4555-.0275l.0788.1438c-.7601-.0704-2.1598.2918-2.7545.8292-.409.3696-.3809.7099-.1792.9225.144.1519.3892.2743 1.0063.3026a4.4408 4.4408 0 01.2012-.1754c1.2398-1.0122 3.2414-1.9184 4.5865-2.1048.3513-.0487.6786-.0301.7446.2175.0821.3058-.2332.7825-1.3324 1.3306-.9495.4733-2.507.8853-3.8096.8893-.2858.2968-.5177.5925-.69.8815-.4036.6778-.2165 1.2358.4257 1.2381.896.0033 2.1134-.8193 2.9156-1.5277a2.9626 2.9626 0 01.4881-.3527c.2187-.1339.4214-.2249.6238-.2804.3681-.101.7606-.0967 1.0082.0614-.0189.0127-.0577.0372-.0872.0614-.504.4148-1.0212.9847-1.1558 1.2182-.0469.0813-.0629.1545-.0265.1927.1068.1132.6567-.1606 1.428-.9095a2.0454 2.0454 0 01.2735-.2258c.2616-.2001.5313-.3385.7449-.3969.3489-.0956.5812-.0803.7282-.0268.2419-.233.6692-.625.9835-.9192.1529-.0005.2646.0005.4211-.0058-.0268.0175-.0505.0323-.0752.0548-.2327.2105-.7117.6383-1.1117 1.0158-.4896.4621-.923.9266-1.0767 1.1978-.0596.1055-.08.1784-.0319.2174.1145.0923.6039-.1598 1.3278-.8312.2452-.2589.4998-.5087.7632-.749.1484.0003.2761.0003.4334-.003a1.1096 1.1096 0 00-.1336.0997c-.3153.2911-.8425.7815-1.0428 1.0729-.1611.2345-.1305.3436-.0602.3953.1321.0974.6156-.0267 1.075-.2811-.0128-.1828.0555-.4245.1917-.6603.233-.4035.7634-.9826 1.6061-1.4649.2506-.1433.4433-.1904.5366-.1009.0887.0853.0671.2651-.0795.4853-.416.6253-1.1703 1.1927-1.9704 1.7127-.048.3133.4188.5641 1.3849.0347-.0087-.1871.0537-.4196.2128-.6691.297-.4655.871-1.0411 1.6197-1.4668.2508-.1427.4354-.1965.5366-.0979.0907.0887.0691.2656-.0778.4861-.3923.5896-.9872 1.0556-1.9911 1.7281-.0545.2658.1316.444.6432.1878.2717-.1361.6263-.3936 1.1134-.8205a2.4056 2.4056 0 01.1086-.0882 1.4794 1.4794 0 01.1004-.0783c.3072-.2159.5764-.3525.8451-.4262.368-.1009.7609-.0966 1.0081.0615-.0188.0127-.0576.0372-.0869.0614-.504.4147-1.0201.9753-1.1547 1.2141-.0462.0821-.0582.1552-.0209.1925.0797.0803.5483-.0633 1.389-.8795.1294-.1256.2108-.2029.3135-.2806.2809-.2223.5774-.3763.8713-.4614.3168-.0918.6321-.0821.6719.1563.0474.2847-.2837.5353-.6097.6507l-.0105-.1241c.2422-.1616.4525-.4198.3566-.5567-.0571-.0808-.2207-.0694-.4591.0387-.2663.1208-.701.5075-.9248.8621-.1504.2386-.1835.4795-.0675.5932.1165.1142.3008.1241.5223.0749.3135-.0693.7489-.3048.9987-.5534zm-15.571-1.1641c1.3648-.0429 2.5287-.4471 3.7639-1.0464.7778-.3773 1.1308-.7681 1.0801-.9784-.0426-.1759-.3054-.1753-.5855-.1333-1.3008.1955-3.143 1.1512-4.0187 1.9335a7.3927 7.3927 0 00-.2398.2246zm10.0005 1.157c.8134-.5417 1.5654-1.2743 1.8721-1.7229.1386-.2029.0209-.2947-.1645-.1803-.65.4015-1.5322 1.3169-1.7076 1.9032zM5.0498 15.6794H4.969v-.0281h.1927v.0281h-.08v.2176h-.032v-.2176zm.2426.2174l-.067-.1993v.1993H5.193v-.2455h.0449l.0706.2088.0709-.2088h.0448v.2455H5.392v-.1993l-.067.1993h-.0325z"/>
</svg>
