<svg xmlns="http://www.w3.org/2000/svg" xmlns:xlink="http://www.w3.org/1999/xlink" viewBox="0 0 28 25">
  <defs/>
  <defs>
    <path id="a" d="M.04.65h5.79v5.28H.04z"/>
    <path id="c" d="M0 .33h27.7v11.5H0z"/>
  </defs>
  <g fill="none" fill-rule="evenodd">
    <path fill="#b0b0b0" d="M4.19 23.34a2.78 2.78 0 01-.73.1c-.32 0-.6-.07-.86-.2a1.52 1.52 0 01-.59-.53 1.33 1.33 0 01-.21-.73c0-.3.08-.57.24-.8.16-.22.38-.4.65-.51a2.27 2.27 0 011.76-.02c.25.1.51.24.77.4v-1.4a6.23 6.23 0 00-2.04-.4c-.4 0-.78.05-1.14.16a2.9 2.9 0 00-.97.5 2.3 2.3 0 00-.66.85c-.16.34-.24.74-.24 1.2 0 .4.07.76.2 1.09a2.3 2.3 0 00.6.87c.27.25.59.43.95.56.37.13.78.2 1.24.2a6 6 0 00.72-.05 4.08 4.08 0 001.37-.43v-1.34a4.93 4.93 0 01-.48.27 3.63 3.63 0 01-.58.21m5.8-2.08H7.6v-1.94H6v5.28h1.6v-2.06H10v2.06h1.6v-5.28H10zm4.21 1.16h2.22v-1.08H14.2v-.94h2.33v-1.08H12.6v5.28h4v-1.06h-2.4zm5.9-.94c-.15.08-.42.12-.8.12h-.35v-1.26h.34c.36 0 .62.05.78.14.16.1.24.27.24.5 0 .25-.07.41-.21.5m1.4 1.15a1.53 1.53 0 00-.43-.35 3 3 0 00.39-.24 1.35 1.35 0 00.48-1.07c0-.24-.07-.48-.19-.74a1.63 1.63 0 00-.6-.64 2 2 0 00-1.08-.27h-2.72v5.28h1.6v-2.06h.18c.18 0 .33.03.45.07a.9.9 0 01.35.3c.13.17.27.42.42.76l.42.93h1.7l-.52-1.14a4.35 4.35 0 00-.46-.83"/>
    <g transform="translate(22 18.67)">
      <mask id="b" fill="#fff">
        <use xlink:href="#a"/>
      </mask>
      <path fill="#b0b0b0" d="M2.91 2.31L1.7.65H.04l2.11 2.9v2.38h1.6V3.51L5.82.65H4.13z" mask="url(#b)"/>
    </g>
    <g transform="translate(0 -.33)">
      <mask id="d" fill="#fff">
        <use xlink:href="#c"/>
      </mask>
      <path fill="#b0b0b0" d="M13.87 8.12c-.7 0-1.4-.02-2.07-.06l2.4-6.8 4.86 10.56h3.24l-1.6-2.58.2.3c4.07-.87 6.8-2.46 6.8-4.28 0-2.28-4.28-4.2-10.1-4.79l.01.02a31.77 31.77 0 00-1.5-.12l.04.05.7.93s1.46.13 2.67.29c3.3.54 5.62 1.55 5.95 2.73a.9.9 0 01.03.24c0 1.02-1.47 1.94-3.8 2.58l.02.02c-.6.17-1.27.3-1.99.43L15.29.41h-2.16l-3.9 7.42a26 26 0 01-2.46-.44l.01-.01c-2.74-.63-4.51-1.62-4.55-2.74.03-1.34 2.63-2.5 6.4-3.07a80.55 80.55 0 013.1-.31l.75-.93a7.6 7.6 0 00-.77.04 39.3 39.3 0 00-1.37.1V.46A29.2 29.2 0 006 1.18l-.08.01-.3.09-.27.07a.13.13 0 01-.04.01C2.08 2.27 0 3.68 0 5.26c0 1.6 2.08 3.01 5.33 3.92v-.01c.88.24 1.85.46 2.87.62l-1.07 2.05h3.34l.6-1.72c.9.07 1.84.11 2.8.11a38.39 38.39 0 003-.12l-.79-2.03c-.55.02-1.64.04-2.2.04" mask="url(#d)"/>
    </g>
  </g>
</svg>
