<svg xmlns="http://www.w3.org/2000/svg" xmlns:xlink="http://www.w3.org/1999/xlink" viewBox="0 0 37 16">
  <defs/>
  <defs>
    <path id="a" d="M.69.02H20.7v7.3H.68z"/>
    <path id="c" d="M0 .85h3.2V6H0z"/>
    <path id="e" d="M.5.85H4.5V6H.5z"/>
    <path id="g" d="M.42.02h.5v1h-.5z"/>
    <path id="i" d="M.2.86h.72v1H.2z"/>
  </defs>
  <g fill="none" fill-rule="evenodd">
    <g transform="translate(7 -.02)">
      <mask id="b" fill="#fff">
        <use xlink:href="#a"/>
      </mask>
      <path fill="#b0b0b0" d="M2.48 4.43l.87-1.7c.03-.07.09-.1.22-.1h4.4c.16 0 .25-.06.25-.25V1.4c0-.18.08-.24.25-.24H13c.17 0 .25.07.25.24v.98c0 .17.08.24.25.24h5.21c.17 0 .22.11.22.2a.17.17 0 01-.02.09l-.87 1.7c-.06.1-.15.1-.22.1H13.5c-.18 0-.25.09-.25.25v.99c0 .16-.07.23-.24.23H8.47c-.16 0-.25-.05-.25-.24v-.98c0-.18-.08-.24-.24-.24h-5.3c-.14 0-.22-.08-.22-.2a.22.22 0 01.02-.09M1.04 5.86h5.8c.19 0 .25.08.25.24v.85c0 .25.15.37.37.37H14c.23 0 .38-.11.38-.37V6.1c0-.17.07-.24.24-.24h3.64c.25 0 .43-.07.56-.3l1.8-3.54c.05-.07.07-.12.07-.2 0-.25-.2-.33-.35-.33h-5.72c-.15 0-.24-.04-.24-.24V.4c0-.25-.14-.38-.38-.38H7.46c-.25 0-.37.14-.37.38v.84c0 .19-.09.25-.24.25H3.09c-.28 0-.45.14-.54.32L.72 5.38a.34.34 0 00-.04.15c0 .14.1.32.35.32" mask="url(#b)"/>
    </g>
    <path fill="#b0b0b0" d="M22 .67h.11c.04 0 .1 0 .1.05 0 .04-.02.08-.1.08H22V.67zm0 .17h.08l.12.18h.06l-.12-.18c.07 0 .13-.04.13-.12 0-.08-.08-.1-.15-.1h-.17v.4H22V.84z"/>
    <path fill="#b0b0b0" d="M22.08.52a.3.3 0 01.3.3.3.3 0 01-.6 0c0-.17.13-.3.3-.3m0 .66a.36.36 0 100-.72.36.36 0 000 .72M4.7 13.67h1.54v2.3H7.3v-5.15H6.24v2.07H4.7v-2.07H3.62v5.15h1.07zm28.65 2.3h1.08v-4.36h1.46v-.78h-4v.78h1.46zm-7.14-5.15h-1.07v5.15h3.07v-.78h-2zm-13.05 5.16h1c.29 0 .47-.15.55-.45l1.26-4.7h-.94l-1.12 4.29c-.02.05-.06.07-.11.07s-.1-.02-.12-.07l-1.13-4.3H11.3l1.3 4.7c.06.32.27.46.56.46"/>
    <g transform="translate(0 9.98)">
      <mask id="d" fill="#fff">
        <use xlink:href="#c"/>
      </mask>
      <path fill="#b0b0b0" d="M.8 6h2.4V5.2H1.48c-.3 0-.4-.07-.4-.4V2.04c0-.32.08-.4.4-.4H3.2V.85H.8c-.55 0-.81.28-.81.8v3.54c0 .58.3.81.8.81" mask="url(#d)"/>
    </g>
    <path fill="#b0b0b0" d="M9.43 11.61h1.76v-.78H8.76c-.55 0-.8.27-.8.8v3.54c0 .54.26.8.8.8h2.65v-.78H9.43c-.3 0-.4-.07-.4-.4v-1.12h2.14v-.78H9.03V12c0-.3.07-.39.4-.39M19.92 13v-1.36c0-.54-.26-.8-.8-.8h-3v5.15h1.07V11.6h1.26c.33 0 .39.1.39.4v.62c0 .3-.08.4-.4.4h-.58c-.23 0-.36.13-.36.36 0 .1.06.19.1.27l1.36 2.31h1.33l-1.42-2.17h.24c.5 0 .8-.23.8-.8"/>
    <g transform="translate(20 9.98)">
      <mask id="f" fill="#fff">
        <use xlink:href="#e"/>
      </mask>
      <path fill="#b0b0b0" d="M1.58 2.02c0-.27.04-.39.4-.39h1.04c.28 0 .4.05.4.4v2.79c0 .33-.1.4-.4.4H1.98c-.31 0-.4-.1-.4-.4v-2.8zM2.5 6h1.18c.52 0 .8-.25.8-.8V1.64c0-.53-.24-.8-.8-.8H1.31c-.56 0-.8.28-.8.8v3.54c0 .59.31.81.8.81h1.2z" mask="url(#f)"/>
    </g>
    <path fill="#b0b0b0" d="M29.23 15.98h2.65v-.8h-1.99c-.3 0-.4-.06-.4-.39v-1.12h2.14v-.78H29.5V12c0-.3.07-.39.4-.39h1.76v-.78h-2.43c-.56 0-.8.27-.8.8v3.54c0 .54.26.8.8.8"/>
    <g transform="translate(36 10.98)">
      <mask id="h" fill="#fff">
        <use xlink:href="#g"/>
      </mask>
      <path fill="#b0b0b0" d="M.48.07H.6c.04 0 .1 0 .1.06C.69.17.67.2.59.2h-.1V.07zm0 .17h.08l.12.18h.06L.62.24C.69.24.75.21.75.13.74.04.68.01.6.01H.43v.4h.05V.25z" mask="url(#h)"/>
    </g>
    <g transform="translate(36 9.98)">
      <mask id="j" fill="#fff">
        <use xlink:href="#i"/>
      </mask>
      <path fill="#b0b0b0" d="M.56.92a.3.3 0 010 .6.3.3 0 01-.3-.3c0-.16.13-.3.3-.3m0 .66a.35.35 0 00.36-.36.36.36 0 00-.36-.36.36.36 0 100 .72" mask="url(#j)"/>
    </g>
  </g>
</svg>
