<svg xmlns="http://www.w3.org/2000/svg" xmlns:xlink="http://www.w3.org/1999/xlink" viewBox="0 0 47 11">
  <defs>
    <path id="reuse-7" fill="#b0b0b0" d="M23 8.98c-.02 0-.03.02-.02.03H23l.01-.02H23"/>
    <path id="reuse-6" fill="#b0b0b0" d="M22.99 8.99v.03H23v-.04H23"/>
    <path id="reuse-5" fill="#b0b0b0" d="M24 8.99H24v.02h.02v-.02"/>
    <path id="reuse-4" fill="#b0b0b0" d="M24.99 7.98v.03H25V8H25"/>
    <path id="reuse-3" fill="#b0b0b0" d="M25 7.99H25v.02h.02v-.02"/>
    <path id="reuse-2" fill="#b0b0b0" d="M22.99 5.99v.03H23v-.04H23"/>
    <path id="reuse-1" fill="#b0b0b0" d="M23 5.98c-.02.01-.03.02-.02.03H23c.01 0 .02-.01.01-.02H23"/>
    <path id="reuse-0" fill="#b0b0b0" d="M22 7.01H22v-.02h-.02v.02"/>
  </defs>
  <defs>
    <path id="a" d="M0 0h4v2.95H0z"/>
    <path id="c" d="M0 .02h3.98V4H0z"/>
  </defs>
  <g fill="none" fill-rule="evenodd">
    <mask id="b" fill="#fff">
      <use xlink:href="#a"/>
    </mask>
    <path fill="#b0b0b0" d="M3.9 2.87c-.4.05-.8.08-1.24.08C1.22 2.95 0 2.5 0 1.48S1.22 0 2.65 0c.4 0 .82.03 1.22.08l.07.49A6.75 6.75 0 002.65.46c-.93 0-1.6.38-1.6 1.02s.67 1.02 1.6 1.02A7.4 7.4 0 004 2.38l-.1.5" mask="url(#b)"/>
    <path fill="#b0b0b0" d="M6 0h1.19v1.19H9.8V0H11v3H9.81V1.67H7.2V3H6V0m7 0h2.32c.99 0 1.66.27 1.66.76 0 .55-.51.75-1.33.87L17 3h-1.21l-1.42-1.66.45.03c.57 0 1.08-.16 1.08-.51 0-.22-.17-.42-.8-.42H14.1V3H13V0m7.84 1.73L19 0h1.3l1.18 1.22L22.7 0H24l-1.97 1.78V3h-1.2V1.73m4.17.62a8.07 8.07 0 001.64.19c.43 0 .97-.08.97-.32 0-.42-2.5-.8-2.5-1.5 0-.37.55-.72 2.04-.72.49 0 .99.03 1.47.08l.13.5a7.7 7.7 0 00-1.29-.12c-.7 0-.97.18-.97.3 0 .47 2.51.78 2.51 1.48 0 .34-.5.76-2.1.76a16.7 16.7 0 01-1.75-.11L25 2.35M31 0h1.3v2.52H35V3h-4V0m10 .48h-2.76v.78h2.4v.44h-2.4v.82H41V3h-4V0h4v.48M43 0h2.32c.99 0 1.66.27 1.66.76 0 .55-.51.75-1.33.87L47 3h-1.21l-1.42-1.66.45.03c.57 0 1.08-.16 1.08-.51 0-.22-.17-.42-.8-.42H44.1V3H43V0M31.19 6.5c-2.1 0-3.22-.04-3.45-.05-.38 0-.7-.1-.7-.1s.08.09.17.25c.1.17.15.35.15.35s0-.14.21-.14 5.4 0 8.62-.13c1.42-.05 2.66-.12 3.65-.19a3.6 3.6 0 01-.74.24c-.49.1-1.24.22-5.48.33-4.25.1-5.18.08-5.7.08-.5 0-.53-.06-.53-.06s.04.09.06.27c.01.22-.02.38-.02.38s.12-.3.52-.3a321.98 321.98 0 007.68-.2c-.23.07-.88.28-1.92.35-1.3.08-2.82.08-3.99.08-1.17 0-1.67.06-2.38.46-.8.45-1.14 1.01-2.36 1.44-1.04.36-1.98.31-1.98.31v.03-.03s-.95.05-1.98-.31c-1.22-.43-1.56-1-2.36-1.44-.7-.4-1.21-.45-2.38-.45s-2.68 0-4-.1a7.08 7.08 0 01-1.91-.35l.53.03c4.24.14 6.71.17 7.15.17.4 0 .52.31.52.31s-.03-.16-.02-.37a.88.88 0 01.06-.28s-.03.06-.53.06c-.52 0-1.45.02-5.7-.08-4.24-.1-5-.23-5.48-.33a3.56 3.56 0 01-.74-.24c.99.07 2.23.14 3.66.2 3.22.12 8.4.12 8.6.12.22 0 .22.14.22.14s.06-.18.15-.35l.17-.25s-.32.1-.7.1c-.23.02-1.35.05-3.45.05s-5.5-.13-7.82-.17C4.7 6.3 3 6 3 6s.26.12.8.25c.3.07 1.12.16 2.34.24.1.1.82.57 4.19.73.18.12.99.56 3.45.6 2.95.06 3.57.02 4.14.2 1.1.36 1.51 1.04 2.59 1.48 1 .4 1.7.5 2.49.5.8 0 1.5-.1 2.49-.5 1.08-.44 1.5-1.12 2.59-1.48.57-.18 1.2-.14 4.14-.2 2.46-.04 3.27-.48 3.45-.6 3.37-.16 4.08-.64 4.19-.73a21.7 21.7 0 002.35-.24C42.74 6.12 43 6 43 6s-1.68.29-4 .33c-2.3.04-5.71.17-7.81.17"/>
    <path fill="#b0b0b0" d="M42.48 6.6c-1.1.24-2.15.22-2.15.22s-.22.35-1.39.62c-.82.19-2.66.22-2.66.22s-.17.4-1.56.58c-1.72.23-3.08.16-4.43.2-1.35.04-1.72.2-2.37.62-.67.44-1.35.98-2.16 1.35-.46.2-1.26.4-1.94.42a2.55 2.55 0 01-.32 0h-.32a5.9 5.9 0 01-1.94-.42c-.81-.37-1.49-.91-2.16-1.35-.65-.41-1.02-.58-2.37-.62-1.35-.04-2.71.03-4.43-.2-1.4-.18-1.56-.57-1.56-.57s-1.84-.04-2.66-.23c-1.17-.27-1.4-.62-1.4-.62s-1.04.02-2.14-.22c-1.32-.3-1.3-.62-1.3-.62s6.05.25 9.12.3c3.32.07 3.69.05 5.4.05 1.6 0 1.93-.17 2.94-.62a6.97 6.97 0 012.74-.57c.85 0 1.75.08 2.9.57 1.02.43 1.33.62 2.93.62 1.72 0 2.1.02 5.4-.04 3.08-.06 9.13-.31 9.13-.31s.02.32-1.3.62zm-7.68-.41c-3.8.04-6.06.12-6.92-.07-.86-.18-1.69-.68-2.49-.87A8.64 8.64 0 0023.45 5a8.67 8.67 0 00-1.84.23c-.8.19-1.63.7-2.49.9-.86.18-3.11.1-6.92.06C8.65 6.14 3 5.92 3 5.92s.29.51 1.45.78c.9.2 2.17.22 2.17.22s.62.47 1.46.64c1.02.2 2.6.2 2.6.2s.29.42 1.6.58c1.49.2 2.46.27 3.95.3 1.5.01 1.97.18 2.3.32.86.38 1.51 1.07 2.62 1.59 1.07.5 2.29.45 2.35.45.06 0 1.27.05 2.35-.45 1.1-.52 1.76-1.21 2.62-1.59.33-.14.8-.3 2.3-.33 1.5-.02 2.46-.1 3.95-.29 1.31-.16 1.6-.57 1.6-.57s1.58 0 2.6-.2a3.94 3.94 0 001.45-.65s1.28-.02 2.18-.22C43.7 6.43 44 5.92 44 5.92s-5.65.22-9.2.26z"/>
    <path fill="#b0b0b0" d="M26 9c.23-.14.43-.3.6-.49.18-.21.4-.56.4-1.01 0-.45-.22-.8-.4-1.01A2.37 2.37 0 0026 6c.3.45.44.93.44 1.5A2.6 2.6 0 0126 9"/>
    <path fill="#b0b0b0" d="M19.8 6.22c.71-.67 1.9-1.06 3.2-1.06s2.49.4 3.2 1.06c.41.38.63.82.63 1.28 0 1.29-1.72 2.34-3.83 2.34a4.8 4.8 0 01-3.2-1.06 1.76 1.76 0 01-.63-1.28c0-.46.22-.9.63-1.28zM23 10c2.2 0 4-1.12 4-2.5S25.2 5 23 5s-4 1.12-4 2.5 1.8 2.5 4 2.5z"/>
    <path fill="#b0b0b0" d="M24.94 9.06l-.15.55-.26-.13-.16.45-.33-.32-.04.01.39.38.16-.47.26.14L25 9l-.06.06m-2-.3c-.16-.03-.25-.08-.35-.13l-.2-.1-.19-.06a1 1 0 01-.4-.2.5.5 0 01-.21-.32 1.42 1.42 0 00-.1-.28 3.22 3.22 0 00-.12-.22c-.1-.16-.16-.27-.14-.49a.84.84 0 01.14-.37l.09-.2.07-.2c.04-.17.07-.3.22-.44.11-.11.22-.14.33-.17.08-.01.15-.03.24-.07l.19-.1c.12-.09.25-.16.45-.16s.34.07.46.14c.07.03.13.07.2.09l.08.02c.17.05.34.1.5.21.13.1.18.25.23.41l.08.23.11.19c.08.12.15.24.15.44s-.06.3-.14.43l-.06.12a1.26 1.26 0 00-.1.3c-.04.15-.07.28-.19.4-.13.13-.23.16-.36.2a1.99 1.99 0 00-.26.1 3.69 3.69 0 00-.2.1c-.17.09-.31.16-.52.13zm.72-.23h.03l.08-.04a3.76 3.76 0 01.15-.05.74.74 0 00.33-.17l.03-.03a.65.65 0 00.17-.33l.02-.07.03-.12.03-.09V7.6l.2.09-.1.48a2 2 0 10-.76.63l-.21-.27zM24.91 8l-.02.05.18.12-.12.83a3.35 3.35 0 00.05-.1l.1-.77-.2-.13m-1 .85h-.02v.01l.22.3.03-.02-.22-.3"/>
    <path fill="#b0b0b0" d="M24 9.34l.65.66.35-1c-.24.16-.44.21-.69.26l-.31.08M25.05 8l-.03.13-.02.07.02.02-.18.7.11.08.2-.95-.1-.05m-.36-1.29l-.07.04-.12-.23-.03.02v.28l-.07.04v-.62l.16-.1h.05l.02.03v.26l-.01.04-.05.03.09.15.03-.02v.08zm-.32.16l-.23.12v-.63l.22-.11v.09l-.13.07v.18l.1-.06v.1l-.1.05v.18l.14-.07v.08zm-.28.14l-.19.1v-.63l.09-.04V7l.1-.06v.08zm-.28.14l-.17.09-.04.02V7.08l.07-.04v.1l.08-.04v-.16-.02h-.02l-.11.07h-.03v-.33-.02l.2-.1c.02-.01.03 0 .03.03v.13l-.07.03v-.08l-.09.04v.16c0 .01.01.02.02.01l.12-.06.02.01V7.15zm-.34-.13v.3l-.08.05v-.33l-.14-.22.08-.04.09.13.03-.2.09-.04-.07.35zm-.16.4a4.33 4.33 0 01-.08.03l-.12-.22-.02.01v.29l-.08.03v-.62l.16-.09h.05c.02.01.02.03.02.03v.25a.07.07 0 01-.01.04.17.17 0 01-.04.03l.08.15.04-.02v.08zm-.37.18l-.1.05.01-.28-.08.04v.28l-.08.04V7.1l.08-.04v.25l.08-.04V7l.1-.04-.01.63zm-.31-.27l-.09.04v-.12l-.07.04v.45c.04-.01.07-.02.07-.05v-.07l.08-.04v.16a.06.06 0 01-.02.04l-.17.08c-.03.01-.05 0-.05-.03v-.55c0-.02 0-.03.03-.05a4.47 4.47 0 01.19-.1c.02 0 .02.02.03.04v.16zm2.26-.87l-.09-.23c-.03-.1-.06-.17-.1-.23L22 7.39l.1.16c.06.12.09.22.11.29.02.07.04.11.08.16L25 6.63a1.55 1.55 0 01-.1-.17zm-1.94 1.66l.1-.04v-.2l-.1.04v.2m2-1l.1-.04v-.2l-.1.04v.2M21 6c-.23.13-.43.3-.6.49-.18.21-.4.56-.4 1 0 .46.22.8.4 1.02.17.19.37.35.6.49a2.6 2.6 0 01-.44-1.5c0-.57.14-1.05.44-1.5"/>
    <path fill="#b0b0b0" d="M24.96 7.33c0 .15-.04.21-.11.34h-.02.01l-.03.06v-.01c-.02 0-.02 0-.02.02a.02.02 0 00.01 0 1.17 1.17 0 00-.13.31l-.02.01v.02a2.65 2.65 0 000 .07.01.01 0 00-.01 0v.02c-.04.14-.06.23-.15.3a.8.8 0 01-.03.03.63.63 0 01-.27.13 2.44 2.44 0 00-.3.1l-.25.12h-.02a2.93 2.93 0 01-.1.06.01.01 0 00-.01-.01h-.02v.02a.48.48 0 01-.27.04.8.8 0 01-.31-.1 2.1 2.1 0 00-.15-.08c0-.01 0 0 0 0a2.2 2.2 0 00-.25-.08.02.02 0 000-.01l.01-.02a.02.02 0 00-.02 0v.02l-.08-.02a.9.9 0 01-.35-.15l.27-.14c.17.14.4.24.65.29v0l.25.02c.77 0 1.4-.59 1.4-1.3a1.04 1.04 0 00-.02-.21l.25-.13.05.08h-.02v.02a.01.01 0 00.02 0 .39.39 0 01.04.17v.01zm-2.52 1h-.02c.22.17.5.27.81.27.72 0 1.3-.54 1.3-1.22v-.15l-.03.01-.14.08.25-.14-.02.01.02.2c0 .7-.61 1.27-1.37 1.27a1.46 1.46 0 01-.88-.3l.08-.04zm1.22-.45l-.3.23v-.1a3 3 0 01-.22.09l.28-.21v.08l.3-.23-.01.12.2-.18-.24.32v-.12zm-1.03.34l.05.03.01.02.02.2-.07-.04-.02-.02-.01-.17.02-.02zm-.17.1l.1-.05v.1l-.1-.05zm1.8-.94c0 .53-.46.96-1.03.96-.2 0-.38-.05-.54-.15l.12-.06c.12.06.26.1.4.1.48 0 .87-.35.9-.79l.15-.07v.01zm.22 0l-.16.1h-.01v-.07-.02l.16-.12h.01v.1zm-.18.29l-.01-.01v-.07l.01-.02.18-.1v.1l-.18.1zm-.09.17v-.01l.01-.07a.03.03 0 01.02-.02l.2-.06-.02.08-.02.01-.19.07zm-.09.15v-.02l.03-.06a.04.04 0 01.02-.02l.2-.02-.03.07a.03.03 0 01-.02.02l-.2.03zm-.12.14v-.01l.04-.07.02-.01H24.27l-.04.08-.02.01H24zm-.15.12v-.01l.04-.06.03-.01.2.02-.05.07a.02.02 0 01-.02 0l-.2-.01zm-.17.08l.08-.06.2.06-.09.06-.2-.06zm-.18.05l.07-.04a.03.03 0 01.03 0l.18.09v.01l-.08.03a.03.03 0 01-.02 0l-.18-.09zm-.19.03V8.4l.08-.02a.04.04 0 01.03 0l.15.13v.01l-.08.02h-.03l-.15-.13zm-.19 0l.01-.01h.08a.04.04 0 01.02 0l.13.15-.08.01h-.03l-.13-.15zm-.2.11l-.07-.01a.03.03 0 01-.02-.02l-.08-.18h.01l.08.01.02.02.07.18h-.01zm0-.15H23.02l.03.01.1.17h-.09l-.02-.01-.1-.17zM24.89 7L22 8.51l.03.03a.94.94 0 00.38.17 1.73 1.73 0 01.48.18c.1.05.17.08.32.1.16.03.27-.02.45-.11l.24-.11c.12-.06.22-.08.3-.1.14-.05.21-.07.32-.17.1-.09.12-.18.15-.32.03-.1.06-.23.13-.36l.07-.12c.08-.14.12-.2.13-.36 0-.15-.04-.23-.12-.34zm-1.11-.65c-.77 0-1.4.59-1.4 1.31v.16l-.24.13c-.06-.1-.1-.17-.1-.26l.01-.07c.02-.14.06-.2.12-.3a1.39 1.39 0 00.12-.23 2.57 2.57 0 00.08-.24.01.01 0 00.02 0l-.02-.01c.05-.15.07-.24.19-.34.08-.08.15-.1.26-.12a1.51 1.51 0 00.53-.21c.14-.08.22-.13.39-.13.16 0 .27.06.4.12l.13.06c0 .01 0 .01 0 0a.9.9 0 00.12.04l.1.03a3.51 3.51 0 01.2.06c.09.02.17.06.25.1l-.31.17a1.45 1.45 0 00-.85-.27zm.76.32a1.36 1.36 0 00-.77-.23c-.72 0-1.31.54-1.31 1.22v.12l-.05.03a1.25 1.25 0 010-.15c0-.71.6-1.29 1.37-1.29.3 0 .6.1.83.27l-.07.03zm-1.83.69v.08a.03.03 0 010 .02l-.18.1v-.08-.02l.18-.1zm.07-.16v.01l-.01.07a.04.04 0 01-.02.02l-.19.06.01-.08a.03.03 0 01.02-.01l.19-.07zm.1-.14l-.03.07-.02.02-.2.02s-.01 0 0 0l.03-.07.02-.02.2-.02zm.12-.14v.01l-.04.07-.02.02h-.2v-.01l.04-.07a.04.04 0 01.02-.02h.2zm.14-.12v.01l-.04.06a.03.03 0 01-.03.01l-.2-.02.05-.07a.04.04 0 01.02 0l.2.01zm.17-.08v.01l-.06.04a.03.03 0 01-.03.01l-.2-.06v-.01l.07-.04h.02l.2.05zm.17-.06v.01l-.07.03h-.03l-.18-.09.08-.04h.02l.18.1zm.19-.02h-.01l-.07.02h-.03l-.15-.13.08-.02h.02l.16.13zm.18 0h-.11l-.13-.14.01-.01.08-.01h.02l.13.15zm.18.03h-.08a.04.04 0 01-.02-.01l-.1-.17h.11l.1.17-.01.01zm.18.06l-.08-.02a.04.04 0 01-.02-.01l-.07-.18h.08l.02.02.08.18h-.01zm-.34.18l-.3.2v-.1l-.29.26-.01-.1-.24.2.27-.32a.43.43 0 010 .1l.35-.27V7l.22-.1zm.4-.1l-.15.08a.96.96 0 00-.35-.06.89.89 0 00-.9.73l-.13.07c.02-.52.47-.93 1.03-.93.18 0 .35.04.5.12zm.02-.02l-.02-.02-.02-.2h.02l.06.04c.01 0 .02 0 .02.02l.01.14-.05.02h-.02zm.13-.13h.01l.09.05-.1.04v-.09zm-1.9 1.08l-.01-.07v-.02l.17-.12v.01l.01.07a.03.03 0 010 .02l-.16.11a1.68 1.68 0 01-.01.01zm2.12-1.08l.37-.2-.02-.01c-.15-.1-.31-.15-.49-.2l-.1-.02-.24-.1c-.13-.07-.25-.13-.42-.13-.18 0-.27.06-.4.13a1.53 1.53 0 01-.53.21.54.54 0 00-.28.13c-.12.1-.15.2-.2.36l-.07.25-.12.22a.66.66 0 00-.13.32c-.02.16.03.23.12.38l2.5-1.34zM22 7h-.02V7H22V7M22 6.99h-.02V7H22s.01 0 0 0l.02-.01v-.02h-.01"/>
    <path fill="#b0b0b0" d="M22.01 6.98h-.03v.04h.04v-.04"/>
    <path fill="#b0b0b0" d="M22 7.02l.02-.02s0-.02-.02-.02l-.02.02s0 .02.02.02"/>
    <path fill="#b0b0b0" d="M21.99 6.99c-.01 0-.02.02 0 .03H22c.01-.01.02-.03 0-.04H22"/>
    <path fill="#b0b0b0" d="M22.01 7.01V7h-.02V7h.02m-.02-1H22V6v-.01V6M22 6s0-.01 0 0c0 0 0 .01 0 0"/>
    <path fill="#b0b0b0" d="M22 6.01V6s0-.01 0 0M22 7v.02a.01.01 0 000-.02m1-.98v0M22 7c.01 0 .01 0 0 0V7m0-1v0M22 6v.01"/>
    <path fill="#b0b0b0" d="M21.98 5.98v.03c.01.01.03.02.04.01v-.03c-.01-.01-.03-.02-.04-.01m.02 1L22 7a.01.01 0 000 .01h.02a.01.01 0 000-.02"/>
    <path fill="#b0b0b0" d="M22 7.02A.02.02 0 0022 7h.02V7c0-.01-.02-.02-.03-.01V7h-.01v.02h.01"/>
    <path fill="#b0b0b0" d="M21.99 7V7h.02v-.02h-.02m0-.99v.02c.02 0 .03 0 .03-.02 0-.01 0-.02-.02-.02 0 0-.02 0-.02.02m1.02.02s.02 0 .02-.02c0-.01 0-.02-.02-.02 0 0-.02 0-.02.02 0 0 0 .02.02.02"/>
    <path fill="#b0b0b0" d="M22 5.98c-.02 0-.03.02-.02.03H22l.01-.02H22M22.02 7c0-.01 0-.03-.02-.03-.01 0-.02.01-.02.03 0 .02 0 .03.02.03.01 0 .02-.01.02-.03"/>
    <path fill="#b0b0b0" d="M21.99 7h0m.02-.97c.01 0 .02-.02.01-.04l-.03-.02-.01.04.03.02"/>
    <path fill="#b0b0b0" d="M22 7.03l.02-.02-.01-.03-.03.01.01.03m.02-1V6c0-.02 0-.02-.02-.02V6s0 .02.02.01"/>
    <path fill="#b0b0b0" d="M22 7.02l.02-.02-.01-.02c-.01 0-.02 0-.03.02 0 0 0 .02.02.02m1-1.04l-.02.02s0 .02.02.02c0 0 .02 0 .02-.02L23 5.98"/>
    <path fill="#b0b0b0" d="M22.01 7.01c.01 0 .02-.02 0-.03H22c-.01.02-.02.03 0 .04H22M22 7.01V7v-.01.02M22 7.01V7v-.01.02M22 6.99v0"/>
    <path fill="#b0b0b0" d="M22.02 7.02v-.03c-.01-.02-.03-.02-.04 0V7c.01.01.03.02.04 0"/>
    <path fill="#b0b0b0" d="M22 7A.02.02 0 0022 7v.02H22v-.01l.02-.02v-.01H22A.01.01 0 0022 7"/>
    <path fill="#b0b0b0" d="M22 6.97l-.02.03c0 .01 0 .02.02.02 0 0 .02 0 .02-.02a.02.02 0 00-.02-.03m0 1l-.02.03c0 .01 0 .02.02.02 0 0 .02 0 .02-.02 0-.01 0-.02-.02-.02"/>
    <path fill="#b0b0b0" d="M22 7.02s.02 0 .02-.02c0-.01 0-.02-.02-.02 0 0-.02 0-.02.02 0 .01 0 .02.02.02"/>
    <path fill="#b0b0b0" d="M21.99 6.97c-.01 0-.02.02-.01.04l.03.02.01-.04-.03-.02"/>
    <path fill="#b0b0b0" d="M22 7.03s.02 0 .02-.02l-.01-.04c-.01 0-.03.01-.03.03l.01.03m.02-1v-.04L22 5.98V6s0 .02.02.01M23 6h-.03l.01.02h.03L23.01 6"/>
    <path fill="#b0b0b0" d="M22 7.01h.02L22 6.99h-.03l.01.02"/>
    <path fill="#b0b0b0" d="M22.02 7l-.01-.03c-.02 0-.03.01-.03.03l.01.03c.02 0 .03-.01.03-.03"/>
    <path fill="#b0b0b0" d="M22.02 7L22 6.98l-.02.02.02.02.02-.02"/>
    <path fill="#b0b0b0" d="M22.01 6.98l-.03.01v.03l.04-.01v-.03M21.98 8h.03L22 7.99h-.03l.01.02"/>
    <path fill="#b0b0b0" d="M22 7.99H22v.02h.03L22 7.99M22 7v-.02h-.02V7h.02M21.99 7h.02-.02M22 6.99H22v.02h.02v-.02"/>
    <path fill="#b0b0b0" d="M21.99 7h.02V7h-.02M22 8h-.02v.02h.02v-.02M21.99 7V7h.02v-.02h-.02"/>
    <path fill="#b0b0b0" d="M21.99 7.02h.03v-.04h-.04l.01.04"/>
    <path fill="#b0b0b0" d="M22 6.99l-.01.01.01.01.01-.01v-.01M21.98 8l.01.01.01-.01-.01-.01-.01.01"/>
    <path fill="#b0b0b0" d="M22.01 7.02V7l.01-.01v-.01H22V7h-.02v.03h.03"/>
    <path fill="#b0b0b0" d="M22 7.02c.02 0 .02-.01.02-.02 0-.02-.02-.03-.03-.02V7s0 .02.02.01"/>
    <path fill="#b0b0b0" d="M21.98 7c0 .02.02.02.03.02V7c0-.02 0-.02-.02-.02V7"/>
    <path fill="#b0b0b0" d="M21.98 7.01h.03V7H22V7"/>
    <path fill="#b0b0b0" d="M22 7.03c.02 0 .03-.02.02-.04L22 6.97c-.01 0-.02.02-.01.04l.03.02"/>
    <path fill="#b0b0b0" d="M21.99 7V7h.02v-.02h-.02"/>
    <use xlink:href="#reuse-0"/>
    <path fill="#b0b0b0" d="M22 7.01H22a.01.01 0 000-.02h-.02v.02"/>
    <path fill="#b0b0b0" d="M21.98 6.98V7c.01.01.03.02.04.01V7c-.01-.02-.03-.02-.04-.01"/>
    <path fill="#b0b0b0" d="M22 7.03l.02-.03c0-.01 0-.03-.02-.03l-.02.03.02.03"/>
    <path fill="#b0b0b0" d="M22.01 7.02v-.03H22V7H22"/>
    <path fill="#b0b0b0" d="M22 6.98l-.02.02.02.02.02-.02-.02-.02"/>
    <path fill="#b0b0b0" d="M22.01 6.98l-.03.01v.03l.04-.01v-.03M22 7c.01 0 0 0 0 0-.01 0 0 0 0 0"/>
    <use xlink:href="#reuse-0"/>
    <path fill="#b0b0b0" d="M22.01 6.98h-.03l.01.04h.03l-.01-.04"/>
    <path fill="#b0b0b0" d="M22.01 7L22 6.99h-.01l.01.02h.01M21.99 6l.01.01.01-.01-.01-.01-.01.01"/>
    <path fill="#b0b0b0" d="M22 6.98c-.02 0-.02.01-.02.03 0 0 .01.02.02.01.02 0 .02-.01.02-.03 0 0-.02-.02-.03-.01"/>
    <path fill="#b0b0b0" d="M22.02 7c0-.02-.02-.02-.03-.02V7c0 .01 0 .02.02.02V7"/>
    <path fill="#b0b0b0" d="M21.99 6.99V7H22v-.03H22"/>
    <path fill="#b0b0b0" d="M21.98 7.01c.01.02.03.02.04.01V7c-.01-.02-.03-.02-.04-.01V7"/>
    <path fill="#b0b0b0" d="M22.02 7.02v-.03h-.03V7h.03"/>
    <path fill="#b0b0b0" d="M22 6.98s-.02 0-.02.02l.02.02s.02 0 .02-.02c0 0 0-.02-.02-.02m1-1L23 6v.02c.01 0 .02 0 .02-.02v-.02"/>
    <path fill="#b0b0b0" d="M23 5.99H23v.02h.02v-.02m1 0h-.02v.02h.02v-.02"/>
    <path fill="#b0b0b0" d="M23.01 6a.02.02 0 00-.01-.02l-.02.01v.02H23a.01.01 0 00.01 0h.02L23 6"/>
    <path fill="#b0b0b0" d="M23 5.99l-.01.01v.01l.02-.01v-.01"/>
    <path fill="#b0b0b0" d="M23 5.98L23 6v.02c.01 0 .02 0 .02-.02v-.02M23 6c0 .01 0 0 0 0 0-.01 0 0 0 0M23 6c0-.01 0 0 0 0"/>
    <path fill="#b0b0b0" d="M23.01 6V6l-.02.01.01.01h.01"/>
    <path fill="#b0b0b0" d="M23 5.99h-.01v.02h.02L23 5.98m-1 2v0"/>
    <path fill="#b0b0b0" d="M23 5.99c-.01 0-.02.01-.01.02H23v-.02H23m-1 0c-.01 0-.02.01-.01.02H22l.01-.01a.01.01 0 00-.01-.01"/>
    <path fill="#b0b0b0" d="M22.99 6v.02l.02-.01v-.03l-.02.01"/>
    <use xlink:href="#reuse-1"/>
    <path fill="#b0b0b0" d="M22.99 5.98c-.01 0-.02.02-.01.03 0 .01.02.02.03.01.01 0 .02-.02.01-.03 0-.01-.02-.02-.03 0"/>
    <path fill="#b0b0b0" d="M23.02 5.99c0-.01-.02-.02-.03 0-.02 0-.02.01-.02.02.01.02.03.02.04.01.01-.01.02-.02.01-.03"/>
    <path fill="#b0b0b0" d="M23 5.99H23v.02h.02v-.02M23 6.01H23v-.02h-.02v.02"/>
    <path fill="#b0b0b0" d="M23 6.01H23v-.02a.01.01 0 00-.02 0v.02M23 5.99H23v.02h.02v-.02M23 5.99v0"/>
    <path fill="#b0b0b0" d="M23 5.98c-.02 0-.03.02-.02.03l.03.01.02-.03H23M22 7V7H22V7H22M22 6.98s-.02 0-.02.02l.01.02c.01 0 .02 0 .03-.02 0 0 0-.02-.02-.02"/>
    <path fill="#b0b0b0" d="M22 7s0 .01 0 0c0 0 0-.01 0 0m1-1.01l-.01.01.01.01.01-.01-.01-.01"/>
    <path fill="#b0b0b0" d="M23 5.97s-.02.01-.02.03c0 .01 0 .02.02.03 0 0 .02-.01.02-.03 0-.01 0-.02-.02-.03"/>
    <path fill="#b0b0b0" d="M23 5.99l-.01.02H23c.01 0 .02 0 .01-.01L23 5.99"/>
    <path fill="#b0b0b0" d="M23 5.99c-.01 0-.02.01-.01.02H23l.01-.01-.01-.01"/>
    <use xlink:href="#reuse-1"/>
    <path fill="#b0b0b0" d="M23 5.99c-.02 0-.02.01-.02.02h.03l.01-.02h-.03m-.98.98l-.03.02.01.03.03-.01-.01-.04"/>
    <path fill="#b0b0b0" d="M22.99 5.99v.03H23v-.04L23 6m-1 2V8H22V8H22"/>
    <path fill="#b0b0b0" d="M22 7.98l-.02.02.02.02.02-.02-.02-.02m1-2c-.01 0-.03.01-.02.02 0 .01 0 .02.02.02l.02-.02c0-.01 0-.02-.02-.02"/>
    <path fill="#b0b0b0" d="M22 8s0-.01 0 0c-.01 0 0 0 0 0s0 .01 0 0c.01 0 0 0 0 0"/>
    <path fill="#b0b0b0" d="M21.99 8V8h.02v-.02h-.02m1-2.02l-.01.03c0 .02 0 .03.02.03l.02-.03-.02-.03M23 7l-.01.02h.02v-.02h-.02"/>
    <path fill="#b0b0b0" d="M23 6h-.01 0m-1 1.98V8s0 .02.02.01V8c0-.02 0-.03-.02-.02M22.99 5.99v.03L23 6v-.03L23 6"/>
    <path fill="#b0b0b0" d="M23 5.98l-.02.01.01.03.03-.01-.01-.03m-1 .04c.02 0 .02-.02 0-.03 0-.02-.02-.02-.03-.01V6c.01.01.03.02.04.01m-.03 1.96v.03H22V8H22m0-1V7c0 .01.01.02.02 0V7H22"/>
    <path fill="#b0b0b0" d="M23.02 6L23 5.98l-.02.02.02.02c.01 0 .02-.01.01-.02"/>
    <path fill="#b0b0b0" d="M22.99 5.99v.03H23v-.03H23"/>
    <path fill="#b0b0b0" d="M23 5.98c-.02 0-.03.01-.02.02 0 .01 0 .02.02.02s.02-.01.02-.02 0-.02-.02-.02M23 5.99v0M23 6.01v-.02.02"/>
    <path fill="#b0b0b0" d="M22.99 6H23a.01.01 0 00.01 0L23 5.98l-.01.01"/>
    <path fill="#b0b0b0" d="M23 6.01l.01-.01A.01.01 0 0023 6a.01.01 0 00-.01 0l.01.01"/>
    <path fill="#b0b0b0" d="M22.98 6c0 .02.01.03.02.03l.02-.03c0-.02-.01-.03-.02-.03-.02 0-.02.02-.02.03M23.01 6H23 23"/>
    <path fill="#b0b0b0" d="M22.98 5.99v.03h.03v-.04h-.03m1.03 0L24 6v.03H24v-.04"/>
    <path fill="#b0b0b0" d="M24 5.98l-.02.01c0 .01 0 .02.02.03l.02-.01c0-.01 0-.02-.02-.03m-1 .03a.01.01 0 00.01-.01L23 5.99l-.01.01.01.01"/>
    <path fill="#b0b0b0" d="M23 5.97s-.02 0-.02.03l.01.03c.02 0 .03-.01.03-.02l-.01-.04"/>
    <path fill="#b0b0b0" d="M23 5.97s-.02 0-.02.02l.01.04.03-.02-.01-.04"/>
    <path fill="#b0b0b0" d="M23.02 5.98h-.03c-.01.01-.02.03-.01.04h.03c.01 0 .02-.03.01-.04m.97.04l.03-.01c0-.02 0-.03-.02-.03l-.02.02.01.02"/>
    <path fill="#b0b0b0" d="M24.01 6.01V6H24V6H24m-1.01 0v-.02.02M23 5.99v0M22.99 5.99v.03H23v-.04H23"/>
    <use xlink:href="#reuse-2"/>
    <path fill="#b0b0b0" d="M23 5.98l-.02.01.01.03.03-.01-.01-.03m1 .01L24 5.98V6l.02.01v-.03"/>
    <path fill="#b0b0b0" d="M23 6v.01m1.03 0c0-.02-.01-.02-.02-.02a.03.03 0 00-.02 0h-.01V6l.02.02c.02 0 .03 0 .03-.02"/>
    <path fill="#b0b0b0" d="M24 6.01a.01.01 0 000-.02V6M24 6v-.01"/>
    <path fill="#b0b0b0" d="M23.99 5.99V6a.02.02 0 00.02 0V6h-.02M24.01 6h-.02.02M24.01 6h-.02.02M24 6H24h.02M24.01 6h-.02.02"/>
    <path fill="#b0b0b0" d="M24 5.99H24v.02a.01.01 0 00.02 0v-.02M24 5.99h-.02c0 .02.01.02.02.02H24v-.02"/>
    <path fill="#b0b0b0" d="M24 6A.01.01 0 0024 6h.02M24.01 6V6h-.02v.02h.02"/>
    <path fill="#b0b0b0" d="M24.01 6V6a.01.01 0 00-.02 0v.02h.02"/>
    <path fill="#b0b0b0" d="M24.01 5.98h-.03l.01.04h.03l-.01-.04m-1.01 0l-.01.02.01.01.01-.01-.01-.01"/>
    <path fill="#b0b0b0" d="M24 5.99l-.01.01.01.01.01-.01-.01-.01"/>
    <path fill="#b0b0b0" d="M24 5.98c-.02 0-.02.02-.02.03H24l.01-.02H24m-1-.02l-.02.03c0 .02 0 .03.02.03l.02-.03c0-.02 0-.03-.02-.03"/>
    <use xlink:href="#reuse-2"/>
    <path fill="#b0b0b0" d="M23 5.98l-.02.01c0 .01 0 .02.02.03l.02-.01c0-.01 0-.02-.02-.03"/>
    <path fill="#b0b0b0" d="M23 6.02l.02-.02-.01-.02c-.01 0-.02 0-.03.02l.01.02"/>
    <path fill="#b0b0b0" d="M22.99 5.99V6H23V6H23M23 5.99v0M23 6.01v0M22.99 6h0"/>
    <path fill="#b0b0b0" d="M23 5.97c-.02 0-.02.02-.02.03 0 .02 0 .03.02.03l.02-.03c0-.02-.01-.03-.02-.03"/>
    <path fill="#b0b0b0" d="M23 5.98s-.02 0-.02.02c0 .01 0 .02.02.02 0 0 .02 0 .02-.02 0-.01 0-.02-.02-.02m.99 0v.03H24v-.02H24M24 6s-.01 0 0 0c0 0 .01 0 0 0M24 6s-.01 0 0 0c0 0 .01 0 0 0M23.99 6h.02V6h-.02"/>
    <path fill="#b0b0b0" d="M24 5.98l-.02.02c0 .01 0 .02.02.02l.02-.02c0-.01 0-.02-.02-.02"/>
    <path fill="#b0b0b0" d="M24.02 6.02V6v-.04l-.04.01V6a.02.02 0 000 .01l.01.03c.02 0 .03 0 .03-.02"/>
    <path fill="#b0b0b0" d="M24 5.98L24 6v.03l.02-.01v-.03"/>
    <path fill="#b0b0b0" d="M23.98 6c0 .01.01.02.03.01l.01-.02H24l-.01.01"/>
    <path fill="#b0b0b0" d="M24.02 6l-.01-.02-.03.01.01.03.03-.01M24 6c0-.01 0 0 0 0M24 6c0 .01 0 0 0 0 0-.01 0 0 0 0"/>
    <path fill="#b0b0b0" d="M24 6.01H24v-.02a.01.01 0 00-.02 0v.02M24 5.99L24 6v.01h.02v-.02"/>
    <path fill="#b0b0b0" d="M24 5.99H24v.02h.02v-.02m1 0h-.02v.02h.02a.01.01 0 000-.02"/>
    <path fill="#b0b0b0" d="M24 5.97s-.02 0-.02.02l.01.03.03-.01-.01-.04"/>
    <path fill="#b0b0b0" d="M23.99 6l.01.01.01-.01-.01-.01s-.02 0-.01.01"/>
    <path fill="#b0b0b0" d="M24 6.02c.02 0 .03-.02.02-.03H24c-.01 0-.02.01-.01.02H24"/>
    <path fill="#b0b0b0" d="M24 6.02c.02 0 .02-.02.02-.03H24l-.01.02H24"/>
    <path fill="#b0b0b0" d="M24.01 5.99h-.03V6h.04V6"/>
    <path fill="#b0b0b0" d="M24 5.99H24v.02a.01.01 0 00.02 0v-.02"/>
    <path fill="#b0b0b0" d="M24.02 6.01v-.03h-.04v.04h.04"/>
    <path fill="#b0b0b0" d="M23.98 5.99v.03h.04v-.04h-.04"/>
    <path fill="#b0b0b0" d="M24 5.98c-.02 0-.03.01-.02.03l.02.01c.02 0 .03-.01.03-.03L24 5.98"/>
    <path fill="#b0b0b0" d="M24.01 6.01v-.03H24v.04H24"/>
    <path fill="#b0b0b0" d="M24.02 6c0-.02-.01-.02-.02-.02-.02 0-.02.02-.02.03H24l.01-.02"/>
    <path fill="#b0b0b0" d="M24 6s.01 0 0 0c0-.01 0 0 0 0 0 .01 0 0 0 0"/>
    <path fill="#b0b0b0" d="M24.02 5.99h-.03l-.01.02h.03l.01-.02"/>
    <path fill="#b0b0b0" d="M24 6.02c.02 0 .02-.02.02-.03H24l-.01.02h.03"/>
    <path fill="#b0b0b0" d="M24.01 6.01v-.03L24 6v.03H24"/>
    <path fill="#b0b0b0" d="M24 5.98s-.02 0-.02.02l.02.02c.01 0 .02 0 .02-.02L24 5.98"/>
    <path fill="#b0b0b0" d="M24.01 6L24 5.98a.01.01 0 000 .02H24v-.02"/>
    <path fill="#b0b0b0" d="M24 5.99l-.01.01c0 .01 0 .02.01.01l.01-.01a.01.01 0 00-.01-.01"/>
    <path fill="#b0b0b0" d="M24 6.01l.01-.01c0-.01 0-.02-.01-.01l-.01.01.01.01"/>
    <path fill="#b0b0b0" d="M24 5.99l-.01.01.01.01.01-.01-.01-.01M24 5.99v0m1 0v0"/>
    <path fill="#b0b0b0" d="M24 5.99V6l.01-.01-.02-.01M23.99 6h.02V6h-.02M24 6H24h.02M24 5.99v0M23.99 6h.02-.02"/>
    <path fill="#b0b0b0" d="M23.99 5.99v.02h.02v-.02h-.02"/>
    <path fill="#b0b0b0" d="M23.99 5.98V6c0 .01.01.02.02.01V6L24 5.98"/>
    <path fill="#b0b0b0" d="M23.99 5.98c-.01.01-.02.02-.01.03 0 .01.02.02.03 0 .01 0 .02-.01.01-.02 0-.01-.02-.02-.03 0"/>
    <path fill="#b0b0b0" d="M24 5.99H24v.02h.02v-.02"/>
    <path fill="#b0b0b0" d="M24.01 6V6h-.02v.02h.02"/>
    <path fill="#b0b0b0" d="M24 5.98c-.01 0-.02 0-.02.02 0 0 0 .02.02.02.01 0 .02 0 .02-.02a.02.02 0 00-.02-.02"/>
    <path fill="#b0b0b0" d="M24.01 5.97c-.01 0-.02 0-.03.02l.01.04c.01 0 .02 0 .03-.02l-.01-.03"/>
    <path fill="#b0b0b0" d="M24 5.99c-.02 0-.03.01-.02.02h.03l.01-.02h-.03"/>
    <path fill="#b0b0b0" d="M23.98 5.99V6h.04V6h-.04"/>
    <path fill="#b0b0b0" d="M23.99 5.99v.03H24v-.04H24"/>
    <path fill="#b0b0b0" d="M24 5.98l-.02.03H24l.02-.01c0-.01-.01-.02-.03-.02"/>
    <path fill="#b0b0b0" d="M24 5.99l-.01.01s0 .02.01.01l.01-.01-.01-.01"/>
    <path fill="#b0b0b0" d="M24.01 6L24 5.99l-.01.01c0 .01 0 .02.01.01l.01-.01M24 5.99v0"/>
    <path fill="#b0b0b0" d="M23.99 6.03s.02 0 .03-.02L24 5.97c-.01 0-.02 0-.03.02v.04"/>
    <path fill="#b0b0b0" d="M24.01 5.98l-.03.01v.03l.04-.01-.01-.03m-2 1.01H22v.02H22v-.02M22 8.01h.02v-.02h-.02v.02"/>
    <path fill="#b0b0b0" d="M21.98 6.99V7h.04v-.02H22h-.02"/>
    <path fill="#b0b0b0" d="M22.02 7s0-.02-.02-.02l-.02.01c0 .02 0 .03.02.03l.02-.02"/>
    <path fill="#b0b0b0" d="M22 7v-.01A.01.01 0 0022 7s0 .01 0 0M22 7v-.01M22 7v-.01"/>
    <path fill="#b0b0b0" d="M22.02 7.02v-.03c-.01-.01-.03-.02-.04-.01V7c.01.02.03.02.04 0"/>
    <path fill="#b0b0b0" d="M22.01 7V7a.01.01 0 00-.02 0v.02h.02m0 .97c-.02 0-.03 0-.03.02 0 .01 0 .02.02.02 0 0 .02 0 .02-.02 0-.01 0-.02-.02-.02"/>
    <path fill="#b0b0b0" d="M22.02 8l-.01-.02-.03.01.01.04.03-.02"/>
    <path fill="#b0b0b0" d="M21.99 7.98v.03H22V8H22"/>
    <path fill="#b0b0b0" d="M22 7.98l-.02.02.02.02.02-.02-.02-.02M22 8s0-.01 0 0c0 0 0 .01 0 0M22 8v.01m0-1.02v0"/>
    <path fill="#b0b0b0" d="M22 7.99l-.01.01.01.01.01-.01-.01-.01"/>
    <path fill="#b0b0b0" d="M22 7.98c-.02 0-.02.01-.02.02 0 .02.02.03.03.02V8c0-.02 0-.03-.02-.02"/>
    <path fill="#b0b0b0" d="M22 8.02l.02-.02c0-.02-.02-.02-.03-.02V8c0 .02 0 .02.02.02"/>
    <path fill="#b0b0b0" d="M21.98 7.98V8c.01.01.03.02.04.01V8c-.01-.02-.03-.02-.04-.01"/>
    <path fill="#b0b0b0" d="M22.02 8.02v-.03c0-.01-.02-.02-.03-.01V8h-.01v.02h.01A.02.02 0 0022 8h.03"/>
    <path fill="#b0b0b0" d="M22 7.98s-.02 0-.02.02c0 0 0 .02.02.02 0 0 .02 0 .02-.02 0 0 0-.02-.02-.02m3.01 1H25v.03H25V9m-.02-1v.02H25v-.02H25"/>
    <path fill="#b0b0b0" d="M25 8.02A.01.01 0 0025 8h.02V8L25 7.98V8h-.02v.02H25"/>
    <path fill="#b0b0b0" d="M25.02 8.01v-.03h-.04v.04c.01.01.03 0 .04-.01m-.01.97l-.03.01.01.03c.01 0 .02 0 .03-.02 0 0 0-.02-.02-.02"/>
    <path fill="#b0b0b0" d="M25.01 9.01c.01 0 .02-.02 0-.03s-.01 0-.02 0c-.01.02-.02.03 0 .04H25m0-1.01v-.02h-.02V8h.02M25 9s0-.01 0 0c0 0 0 .01 0 0M25 9s0 .01 0 0c0 0 0-.01 0 0M25 9s0 .01 0 0c0 0 0-.01 0 0m0-1.01v0m-1 1A.01.01 0 0024 9c0 .01 0 .02 0 0 .01 0 .01 0 0 0v-.01M25 7.99v0m0 1.02v0"/>
    <path fill="#b0b0b0" d="M25.01 8.99c0-.01-.02-.02-.03 0V9c.01.02.03.02.04.01v-.03"/>
    <path fill="#b0b0b0" d="M25 8.99H25v.02h.02v-.02m.01-1a.01.01 0 000-.01h-.01A.02.02 0 0025 8h-.03V8c0 .01.02.02.03.01V8h.01"/>
    <path fill="#b0b0b0" d="M25.01 8V8h-.02v.02h.02m0 .96c-.02 0-.03.01-.03.03 0 .01 0 .02.02.03 0 0 .02-.01.02-.03 0-.01 0-.02-.02-.02m-1 0s-.02 0-.02.02c0 .01 0 .02.02.02a.02.02 0 00.02-.02c0-.01 0-.02-.02-.02"/>
    <path fill="#b0b0b0" d="M25.02 9c0-.02-.01-.02-.03-.02l-.01.03H25s.02 0 .01-.02M25 8.03c.01 0 .02-.01.02-.03 0-.02 0-.03-.02-.03s-.02.01-.02.03c0 .01 0 .03.02.03"/>
    <path fill="#b0b0b0" d="M24.99 8h0m.02 1.03c.01 0 .02-.02.01-.04l-.03-.02-.01.04.03.02"/>
    <path fill="#b0b0b0" d="M25 8.97l-.02.02.01.03.03-.01-.01-.03"/>
    <path fill="#b0b0b0" d="M25 8.98c-.02 0-.02.01-.02.02l.03.02V9L25 8.98m.02-1a.02.02 0 00-.03.02l.01.02c.01 0 .02 0 .03-.02 0 0 0-.02-.02-.02m-1 1l-.02.02s0 .02.02.02l.02-.01c0-.02 0-.03-.02-.03"/>
    <path fill="#b0b0b0" d="M24.99 7.99c-.01 0-.02.02 0 .03H25v-.04H25M25 8s0 .01 0 0c0 0 0-.01 0 0M25 7.99V8M25 7.99v.02a.01.01 0 000-.02"/>
    <path fill="#b0b0b0" d="M24.98 7.98v.03c.01.01.03.02.04.01v-.03c-.01-.01-.03-.02-.04-.01"/>
    <use xlink:href="#reuse-3"/>
    <path fill="#b0b0b0" d="M25 7.97s-.02.01-.02.03c0 .01 0 .02.02.02 0 0 .02 0 .02-.02 0-.01 0-.02-.02-.02"/>
    <path fill="#b0b0b0" d="M25 8.02s.02 0 .02-.02c0-.01 0-.02-.02-.02 0 0-.02 0-.02.02 0 .01 0 .02.02.02m0 .96a.02.02 0 00-.02.02c0 .01 0 .02.02.02 0 0 .02 0 .02-.02 0-.01 0-.02-.02-.02"/>
    <path fill="#b0b0b0" d="M25.01 8.03a.03.03 0 00.01-.04l-.03-.02-.01.04.03.02m-.02.95V9c0 .02 0 .02.02.02V9L25 8.98m-.98 0h-.03l.01.03h.03L24 8.98"/>
    <path fill="#b0b0b0" d="M25 7.99h-.02l.01.02h.03L25 7.99"/>
    <path fill="#b0b0b0" d="M25 8.03l.02-.02-.01-.04c-.01 0-.03.01-.03.03 0 .01 0 .03.02.03"/>
    <path fill="#b0b0b0" d="M24.98 8l.02.02.02-.02-.02-.02-.02.02"/>
    <path fill="#b0b0b0" d="M24.99 8.02l.03-.01v-.03l-.04.01v.03"/>
    <path fill="#b0b0b0" d="M25 7.99h-.02l.01.02h.03L25 7.99M24.98 7h.02v-.02h-.03l.01.02"/>
    <path fill="#b0b0b0" d="M25 8c-.01 0-.01 0 0 0 0 0 0 .01 0 0 .01 0 .01 0 0 0"/>
    <path fill="#b0b0b0" d="M25 7.99H25v.02h.02v-.02M25 8H25h-.02M25 8H25h-.02m0-1h.02-.02M25 7.99v.02H25v-.02"/>
    <path fill="#b0b0b0" d="M24.98 7.99l.01.03h.03l-.01-.04h-.03"/>
    <path fill="#b0b0b0" d="M25 8.01l.01-.01v-.01l-.02.01v.01M25.02 7c0-.01 0-.02-.01-.01l-.01.01.01.02.01-.02"/>
    <path fill="#b0b0b0" d="M24.99 7.98V8a.01.01 0 00-.01 0v.02H25V8h.02v-.03h-.03"/>
    <path fill="#b0b0b0" d="M25.02 8c0-.02-.02-.02-.03-.02V8a.02.02 0 00.02.02V8"/>
    <path fill="#b0b0b0" d="M25.02 7.99h-.03v.03H25v-.03"/>
    <path fill="#b0b0b0" d="M25 7.97c-.02 0-.03.02-.02.04l.03.02.01-.04-.03-.02M25 8H25h.02"/>
    <use xlink:href="#reuse-3"/>
    <path fill="#b0b0b0" d="M24.98 7.98v.03c.01.02.03.02.04.01V8c-.01-.02-.03-.02-.04-.01"/>
    <path fill="#b0b0b0" d="M25 7.97l-.02.03c0 .02.01.03.02.03l.02-.03c0-.02-.01-.03-.02-.03"/>
    <use xlink:href="#reuse-4"/>
    <path fill="#b0b0b0" d="M25 8.02l.02-.02-.02-.02c-.01 0-.02 0-.02.02l.02.02"/>
    <path fill="#b0b0b0" d="M25.02 8.01v-.03l-.04.01v.03l.04-.01"/>
    <path fill="#b0b0b0" d="M25 8s0 .01 0 0c.01 0 0 0 0 0s0-.01 0 0"/>
    <path fill="#b0b0b0" d="M25 7.99v.02a.02.02 0 00.01 0v-.02"/>
    <path fill="#b0b0b0" d="M24.99 8.02h.03v-.04h-.04v.04"/>
    <path fill="#b0b0b0" d="M25.01 8v-.01l-.02.01.01.01.01-.01m0 1a.01.01 0 00-.01-.02l-.01.02v.01l.02-.01"/>
    <path fill="#b0b0b0" d="M25 7.98c-.02 0-.02.01-.02.03l.02.01.02-.02c0-.02-.02-.03-.03-.02"/>
    <path fill="#b0b0b0" d="M25.02 8c0-.02-.02-.02-.02-.02l-.02.02c0 .02.01.02.02.02l.02-.02"/>
    <path fill="#b0b0b0" d="M25.01 8.01V8H25V8H25"/>
    <path fill="#b0b0b0" d="M24.98 7.98V8c.01.01.03.02.04.01V8c-.01-.02-.03-.02-.04-.01"/>
    <use xlink:href="#reuse-4"/>
    <path fill="#b0b0b0" d="M25 8.02s.02 0 .02-.02c0 0 0-.02-.02-.02 0 0-.02 0-.02.02 0 0 0 .02.02.02m-1 .96A.02.02 0 0024 9v.02c.01 0 .02 0 .03-.02L24 8.98"/>
    <path fill="#b0b0b0" d="M24 8.99H24v.02h.02v-.02M23 9V9h-.02v.02h.02M24 9.01L24 9 24 8.99l-.01.01v.01"/>
    <path fill="#b0b0b0" d="M24 8.99h-.01v.02l.02-.01-.01-.01"/>
    <path fill="#b0b0b0" d="M24 8.98L24 9a.01.01 0 000 .02.02.02 0 00.02-.02v-.02M24 9c0 .01 0 0 0 0M24 9c0-.01 0 0 0 0 0 .01 0 0 0 0"/>
    <path fill="#b0b0b0" d="M24 8.99l-.01.01.01.01h.01L24 8.98"/>
    <path fill="#b0b0b0" d="M24 8.99L24 9v.01l.02-.01v-.01M25 7V7h-.02a.01.01 0 000 .02h.02M24 8.99l-.01.02H24v-.02H24M25 9a.01.01 0 00.01-.01L25 8.99c-.01 0-.02.01-.01.02H25"/>
    <path fill="#b0b0b0" d="M24.01 9v-.02l-.02.01v.03l.02-.01"/>
    <path fill="#b0b0b0" d="M24.01 9v-.02l-.02.01a.02.02 0 000 .03.02.02 0 00.02-.01"/>
    <path fill="#b0b0b0" d="M23.99 8.98c-.01.01-.02.02-.01.03H24c.01 0 .02-.01.01-.02H24"/>
    <path fill="#b0b0b0" d="M23.99 8.98l-.01.03c0 .01.02.02.03.01.01 0 .02-.02.01-.03 0-.01-.02-.02-.03-.01"/>
    <path fill="#b0b0b0" d="M23.99 8.98c-.01 0-.02.02-.01.03 0 .01.02.02.03.01.01 0 .02-.02.01-.03 0-.01-.02-.02-.03-.01"/>
    <use xlink:href="#reuse-5"/>
    <use xlink:href="#reuse-5"/>
    <use xlink:href="#reuse-5"/>
    <path fill="#b0b0b0" d="M24 8.99H24v.02h.02v-.02M24 8.99V9v.01H24v-.02"/>
    <path fill="#b0b0b0" d="M24 8.98c-.02 0-.03.02-.03.03h.04c.01 0 .02 0 .01-.02L24 8.98m1-1v.03H25V8H25M25 8.02l.02-.02-.01-.02c-.02 0-.02 0-.03.02l.01.02"/>
    <path fill="#b0b0b0" d="M25 7.99v0m-1 1l-.01.01.01.01.01-.01-.01-.01"/>
    <path fill="#b0b0b0" d="M24 8.97s-.02.01-.02.03c0 .01 0 .02.02.03 0 0 .02-.01.02-.03 0-.01 0-.02-.02-.03"/>
    <path fill="#b0b0b0" d="M24 9.01l.01-.01-.01-.01-.01.01.01.01"/>
    <path fill="#b0b0b0" d="M24.01 9L24 8.98v.02H24c.01 0 .02 0 .01-.02"/>
    <path fill="#b0b0b0" d="M24.02 8.99H24c-.01 0-.02.01-.01.02H24c.01 0 .02-.01.01-.02"/>
    <path fill="#b0b0b0" d="M24 8.98c-.02.01-.02.02-.02.03h.03l.01-.02h-.03m1-.97c.01 0 .03 0 .03-.02L25 7.97l-.03.02.01.03"/>
    <path fill="#b0b0b0" d="M23.99 8.99v.03H24v-.04H24m1-2v.03H25V7H25"/>
    <path fill="#b0b0b0" d="M25 7.02l.02-.02-.02-.02c-.01 0-.02 0-.02.02l.02.02M24.02 9c0-.01 0-.02-.02-.02l-.02.02c0 .01 0 .02.02.02s.02-.01.02-.02m.99-1h-.02.02"/>
    <path fill="#b0b0b0" d="M24.99 7V7h.02v-.02h-.02m-1 1.98l-.01.03.02.03.02-.03c0-.02-.01-.03-.02-.03"/>
    <path fill="#b0b0b0" d="M24 9l.01-.01H24v.02H24M24 8.99a.02.02 0 00-.01.02H24v-.02h-.02m1.02-1.97V7s0-.02-.02-.01V7c0 .02 0 .03.02.02"/>
    <path fill="#b0b0b0" d="M24.01 9.01v-.03L24 9v.03L24 9"/>
    <path fill="#b0b0b0" d="M24.02 9l-.01-.02-.03.01.01.03.03-.01m.96-.03V9c.01.02.03.02.04.01V9c-.01-.02-.03-.02-.04-.01m.03-1.96v-.03H25V7H25m0 1V8H25V8s.01.02.02 0"/>
    <path fill="#b0b0b0" d="M24 8.98c-.01 0-.02.01-.01.02l.01.02c.01 0 .02-.01.01-.02L24 8.98"/>
    <path fill="#b0b0b0" d="M24.01 9.01v-.03H24v.03H24"/>
    <path fill="#b0b0b0" d="M24 9.02c.02 0 .03-.01.03-.02L24 8.98c-.02 0-.03.01-.03.02l.03.02M24 9v-.01M24 8.99V9v-.01"/>
    <path fill="#b0b0b0" d="M24 8.99l-.01.01H24L24 8.99M24 9h-.01.01"/>
    <path fill="#b0b0b0" d="M23.98 9c0 .02.01.03.02.03.02 0 .02-.02.02-.03 0-.02-.01-.03-.02-.03l-.02.03M24 9h-.01 0"/>
    <path fill="#b0b0b0" d="M23.98 8.99a.03.03 0 000 .03h.04v-.04h-.04m-1 0v.04h.03v-.04H23"/>
    <path fill="#b0b0b0" d="M23.02 9L23 8.99s-.02 0-.02.02l.02.02.02-.01m.98-.02v0M24 8.97l-.02.02.01.04.03-.02-.01-.04"/>
    <path fill="#b0b0b0" d="M24.02 9l-.01-.03c-.01 0-.03.01-.03.03l.01.03.03-.02"/>
    <path fill="#b0b0b0" d="M23.99 8.98c-.02.01-.02.03-.01.04H24c.01-.01.02-.03.01-.04h-.03m-.98 0l-.03.01.01.03.03-.01-.01-.03"/>
    <path fill="#b0b0b0" d="M22.99 8.99V9H23v-.03H23M24 9v0M23.99 8.99v.03H24v-.04L24 9"/>
    <path fill="#b0b0b0" d="M24 8.98l-.02.02.01.02.03-.01-.01-.03M22.98 9c.01.01.02.02.03.01v-.03L23 8.98V9"/>
    <path fill="#b0b0b0" d="M23.99 9V9h.02v-.02h-.02m-.97 0l-.03-.01-.02.02.02.02h.02a.01.01 0 00.01 0V9"/>
    <path fill="#b0b0b0" d="M22.99 8.99V9h.02v-.02h-.02M23 9a.01.01 0 000 .01V9H23V9"/>
    <path fill="#b0b0b0" d="M22.99 8.99V9h.02V9h-.02M23 9H23h.02M22.99 9h0"/>
    <path fill="#b0b0b0" d="M23 9c0-.01 0-.01 0 0-.01 0-.01 0 0 0H23M22.99 9h0"/>
    <path fill="#b0b0b0" d="M23 9.01H23v-.02h-.03l.02.02M23 8.99H23v.02h.02v-.02"/>
    <path fill="#b0b0b0" d="M23 9.01H23v-.02a.01.01 0 00-.02 0v.02"/>
    <path fill="#b0b0b0" d="M23 9.01H23v-.02h-.02v.02"/>
    <path fill="#b0b0b0" d="M22.99 9V9h.02v-.02h-.02"/>
    <path fill="#b0b0b0" d="M23.01 8.98h-.03l.01.03h.03l-.01-.03M24 9c-.01 0-.02 0-.01.01l.01.01.01-.01-.01-.01"/>
    <path fill="#b0b0b0" d="M23 8.99a.01.01 0 00-.01.01l.01.01.01-.01-.01-.01"/>
    <path fill="#b0b0b0" d="M23 9.02c.02 0 .02-.02.02-.03H23l-.01.02H23m.99-.04c-.01 0-.02.01-.02.03l.02.03.02-.03c0-.02 0-.03-.02-.03"/>
    <path fill="#b0b0b0" d="M23.99 8.99v.03L24 9v-.03H24"/>
    <path fill="#b0b0b0" d="M24 8.98s-.02 0-.02.02c0 0 0 .02.02.02 0 0 .02 0 .02-.02L24 8.98"/>
    <path fill="#b0b0b0" d="M24 8.98l-.02.01.01.03c.01 0 .02 0 .03-.02L24 8.98"/>
    <path fill="#b0b0b0" d="M24.01 9.01V9H24V9H24M24 9.01v0M23.99 8.99V9h.02v-.02h-.02"/>
    <path fill="#b0b0b0" d="M24 9c0-.01 0-.01 0 0-.01 0-.01 0 0 0A.01.01 0 0024 9"/>
    <path fill="#b0b0b0" d="M24 8.97l-.02.03c0 .02 0 .03.02.03l.02-.03c0-.02-.01-.03-.02-.03m-2 0l-.02.03c0 .01 0 .02.02.02 0 0 .02 0 .02-.02 0-.01 0-.02-.02-.02m1 .01V9s.01 0 0 0M23 9s-.01 0 0 0c0 0 .01 0 0 0M23 9H23h-.02"/>
    <path fill="#b0b0b0" d="M23 9.02l.03-.02-.03-.02c-.01 0-.03 0-.03.02 0 .01.01.02.03.02"/>
    <path fill="#b0b0b0" d="M23 8.96l-.03.01c0 .01 0 .02.02.03v.04l.03-.01V9a.02.02 0 000-.01c0-.01 0-.03-.02-.03"/>
    <path fill="#b0b0b0" d="M23 8.98L23 9v.03l.02-.01v-.03"/>
    <path fill="#b0b0b0" d="M23.02 9c0-.02-.01-.02-.02-.02-.02 0-.02.02-.02.02 0 .01.01.02.03.02l.01-.03"/>
    <path fill="#b0b0b0" d="M23 9.02a.02.02 0 00.02-.01l-.01-.03-.03.01.01.03M23 9c0 .01 0 0 0 0 0-.01 0 0 0 0"/>
    <path fill="#b0b0b0" d="M23 8.99a.01.01 0 00-.01 0v.02h.02v-.02"/>
    <path fill="#b0b0b0" d="M22.99 9v.01h.02v-.02l-.02.01"/>
    <path fill="#b0b0b0" d="M23 8.99h-.01v.02h.02v-.02m-1 0h-.02v.02h.02v-.02"/>
    <path fill="#b0b0b0" d="M23.01 8.97l-.03.02.01.03.03-.01-.01-.04"/>
    <path fill="#b0b0b0" d="M23 9.01l.01-.01-.01-.01-.01.01.01.01"/>
    <path fill="#b0b0b0" d="M23 8.98c-.02 0-.03.02-.02.03H23c.01 0 .02-.01.01-.02H23"/>
    <path fill="#b0b0b0" d="M23 8.98c-.02 0-.02.02-.02.03h.03l.01-.02h-.03"/>
    <path fill="#b0b0b0" d="M22.98 8.98v.03h.04V9h-.04"/>
    <path fill="#b0b0b0" d="M23 8.99H23v.02h.02v-.02"/>
    <path fill="#b0b0b0" d="M23.02 9.01v-.03h-.04v.04h.04"/>
    <path fill="#b0b0b0" d="M23.02 9c0-.02-.01-.02-.03-.02l-.02.03H23c.02 0 .03 0 .02-.01"/>
    <use xlink:href="#reuse-6"/>
    <path fill="#b0b0b0" d="M23.02 9c0-.02-.01-.02-.02-.02-.02 0-.02.02-.02.02 0 .02.01.02.03.02l.01-.03"/>
    <path fill="#b0b0b0" d="M23 9c-.01 0-.01 0 0 0 0 .01 0 0 0 0s.01 0 0 0"/>
    <use xlink:href="#reuse-7"/>
    <path fill="#b0b0b0" d="M23 8.98c-.02 0-.02.02-.02.03h.03l.01-.02H23"/>
    <use xlink:href="#reuse-6"/>
    <path fill="#b0b0b0" d="M23 8.98s-.02 0-.02.02l.02.02c.01 0 .02 0 .02-.02L23 8.98"/>
    <path fill="#b0b0b0" d="M23 8.99l-.01.02H23v-.02H23"/>
    <path fill="#b0b0b0" d="M23 9.01l.01-.01a.01.01 0 00-.01-.01.01.01 0 00-.01.01l.01.01"/>
    <path fill="#b0b0b0" d="M23 8.99l-.01.01a.01.01 0 00.01.01l.01-.01c0-.01 0-.02-.01-.01"/>
    <path fill="#b0b0b0" d="M23 8.99l-.01.01c0 .01 0 .02.01.01l.01-.01c0-.01 0-.02-.01-.01"/>
    <path fill="#b0b0b0" d="M23 8.99l-.01.01a.01.01 0 00.01.01.01.01 0 00.01-.01c0-.01 0-.02-.01-.01M23 9v-.01m-1 0v0M23 8.99v0"/>
    <path fill="#b0b0b0" d="M23 9.01H23v-.02h-.02v.02M23 8.99H23v.02h.02v-.02M23 9.01v0"/>
    <path fill="#b0b0b0" d="M23.01 9.01v-.02h-.02v.02h.02M23 9h-.01"/>
    <path fill="#b0b0b0" d="M23.01 9.02v-.03c0-.01-.01-.02-.02-.01v.03c0 .01.01.02.02.01"/>
    <path fill="#b0b0b0" d="M23.02 8.99H23c-.01 0-.02.01-.01.02 0 .01.02.02.03 0 .01 0 .02-.01.01-.02"/>
    <path fill="#b0b0b0" d="M23.01 9V9h-.02v.02h.02"/>
    <path fill="#b0b0b0" d="M23 9.02s.02 0 .02-.02a.02.02 0 00-.02-.02.02.02 0 00-.02.02s0 .02.02.02"/>
    <path fill="#b0b0b0" d="M23.02 9v-.03c-.02 0-.03 0-.04.02l.01.04c.01 0 .02 0 .03-.02"/>
    <use xlink:href="#reuse-7"/>
    <path fill="#b0b0b0" d="M23.02 9.02v-.03a.02.02 0 00-.04 0V9h.04"/>
    <path fill="#b0b0b0" d="M23.02 8.98h-.03v.04H23v-.04"/>
    <path fill="#b0b0b0" d="M23 8.98c-.02 0-.02.02-.02.03H23c.02 0 .02 0 .02-.02h-.03"/>
    <path fill="#b0b0b0" d="M23 8.99l-.01.01c0 .01 0 .02.01.01l.01-.01-.01-.01"/>
    <path fill="#b0b0b0" d="M23 8.99l-.01.01.01.01.01-.01c0-.01 0-.02-.01-.01"/>
    <path fill="#b0b0b0" d="M23 8.99l-.01.01.02.01A.01.01 0 0023 9l-.02-.01"/>
    <path fill="#b0b0b0" d="M23.01 8.97c-.01 0-.02 0-.03.02v.04c.02 0 .03 0 .04-.02L23 8.97M24.99 8v.02H25v-.02H25m.02-1h-.02v.02h.02v-.02"/>
    <path fill="#b0b0b0" d="M25.02 7.99h-.04v.03h.01A.02.02 0 0025 8h.03V8"/>
    <path fill="#b0b0b0" d="M24.98 8l.01.02c.01 0 .02 0 .03-.02 0 0 0-.02-.02-.02l-.02.02"/>
    <path fill="#b0b0b0" d="M25 7.99V8s0 .01 0 0c0 0 .01 0 0 0 0 0 0-.01 0 0M25 7.99v0M25 7.99v0"/>
    <path fill="#b0b0b0" d="M24.98 7.98v.03c.01.01.03.02.04.01v-.03c-.01-.01-.03-.02-.04 0"/>
    <path fill="#b0b0b0" d="M25 7.99H25v.02h.02a.01.01 0 000-.02M25 7.02s.02 0 .02-.02c0-.01 0-.02-.02-.02 0 0-.02 0-.02.02 0 .01 0 .02.02.03"/>
    <path fill="#b0b0b0" d="M24.98 8l.01.03.03-.02-.01-.03-.03.01m.02-.97l.02-.02-.02-.02c-.01 0-.02 0-.02.02l.02.02"/>
    <path fill="#b0b0b0" d="M25 7c-.01 0-.01 0 0 0s.01 0 0 0c0 0 0-.01 0 0M25 6.99v0m0 1v0"/>
    <path fill="#b0b0b0" d="M25 7.01L25 7 25 6.99h-.01v.02"/>
    <path fill="#b0b0b0" d="M25 7.02c.02 0 .02-.01.02-.02 0-.02-.02-.03-.03-.02V7c0 .02 0 .02.02.02m-.02.96V8c0 .02 0 .02.02.02V8c0-.02 0-.02-.02-.02"/>
    <path fill="#b0b0b0" d="M25.02 7.02V7c-.01-.02-.03-.02-.04-.01V7c.01.02.03.02.04.01m-.04.97V8c0 .01.02.02.03.01V8h.01a.01.01 0 000-.02h-.01A.01.01 0 0025 8h-.03"/>
    <g transform="translate(25 7)">
      <mask id="d" fill="#fff">
        <use xlink:href="#c"/>
      </mask>
      <path fill="#b0b0b0" d="M.05.08h.02C.07.05.07.04.05.04L.03.06c0 .01 0 .02.02.02m2.58 3.27c0-.35.3-.64.68-.64.37 0 .67.29.67.64a.66.66 0 01-.67.65.66.66 0 01-.68-.65zm1.23 0a.53.53 0 00-.55-.52.53.53 0 00-.55.52c0 .3.24.53.55.53a.53.53 0 00.55-.53zm-.21.35h-.17l-.16-.29h-.15v.3h-.14V3h.35c.07 0 .15 0 .2.03.06.04.08.1.08.18 0 .13-.06.18-.2.19l.18.3zm-.26-.4c.08 0 .13-.01.13-.1 0-.1-.1-.1-.17-.1h-.18v.2h.22z" mask="url(#d)"/>
    </g>
  </g>
</svg>
