<svg xmlns="http://www.w3.org/2000/svg" xmlns:xlink="http://www.w3.org/1999/xlink" viewBox="0 0 19 24">
  <defs/>
  <defs>
    <path id="a" d="M0 .14h18.06V24H0z"/>
  </defs>
  <g fill="none" fill-rule="evenodd">
    <path fill="#b0b0b0" d="M15 18.58a.84.84 0 00.05-.07l-.22.3.16-.23m-1.61 1.94l.06-.06.05-.05-.16.17a.5.5 0 00.05-.06m1.89-16.18l-.5.69h1.02zM2.65 3.69h-.61v1.58h.61c.97-.06.86-1.6 0-1.58m2.98 1.34h1.03l-.52-.7z"/>
    <g transform="translate(0 -.14)">
      <mask id="b" fill="#fff">
        <use xlink:href="#a"/>
      </mask>
      <path fill="#b0b0b0" d="M11.35 3.56l-.15.76h-.34v-.3c-1.99-.86-2.96 1.94.4 1.21v.56c-4.9.81-3.84-3.37.09-2.23zm1.67-.2v2.52h-1.1v-2.1l-.37-.42h1.47zm1.42 0h1.09l1.88 2.52h-1.1l-.3-.4h-1.46l-.29.4h-1.05l1.54-2.09-.3-.43zm1.46 13.57h-1.92l1.92-1.97v1.97zm0-4.3v1.97h-1.92l1.92-1.97zm0-2.33v1.96h-1.92l1.92-1.96zm-1.93-.37l1.92-1.96v1.96h-1.92zm-.36 9.46h-1.92l1.92-1.96v1.96zm0-4.43v1.97h-1.92l1.92-1.97zm0-2.33v1.97h-1.93l1.92-1.97zm-.01-2.33v1.96h-1.92l1.92-1.96zm-1.92-.37l1.91-1.96v1.96h-1.91zm-.36 11.8H9.4l1.92-1.97v1.97zm0-4.3v1.96H9.4l1.91-1.96zm0-2.47v1.97H9.38l1.92-1.97zm-.01-2.33v1.97H9.39l1.92-1.97zm-.01-2.33v1.96H9.39l1.91-1.96zm-1.92-.37l1.92-1.96v1.96H9.38zm-.36 11.8H7.11l1.91-1.97v1.97zm0-4.3v1.96H7.1l1.92-1.96zm0-2.47v1.97H7.1l1.92-1.97zM9 12.63v1.97H7.09l1.92-1.97zm0-2.33v1.96H7.08L9 10.3zm0-2.33v1.96H7.08L9 7.97zM5.41 5.48l-.29.4H4.08l1.54-2.09-.3-.43H6.4l1.88 2.52h-1.1l-.3-.4H5.41zm1.3 13.91H4.8l1.92-1.96v1.96zm0-4.43v1.97H4.8l1.92-1.97zm0-2.33v1.97H4.8l1.92-1.97zM6.7 10.3v1.96H4.79l1.92-1.96zm-1.92-.37L6.7 7.97v1.96H4.8zm-.37 7H2.51l1.91-1.97v1.97zm0-4.3v1.97H2.5l1.92-1.97zm0-2.33v1.96H2.5l1.92-1.96zm0-2.33v1.96H2.48l1.92-1.96zM1 5.87V3.8l-.38-.43h2.19c2.07.03 2.02 2.4 0 2.52H1zm1.12 4.06H.2l1.92-1.96v1.96zM0 .14v9.72c.04.77.13 1.55.28 2.33l.07-.08 1.77-1.82v1.97H.3c.12.6.27 1.19.46 1.78l.07-.07 1.3-1.34v1.97H.94c.13.37.28.75.45 1.13l.06-.08.68-.69v1.97h-.15a13.15 13.15 0 00.42.74c.22.37.47.73.72 1.1l.07-.07 1.24-1.27v1.96h-.84l.56.67.06-.07.22-.22v.6c.27.3.56.59.85.87l.07-.07 1.38-1.4v1.96H5.8l.18.15c.17.16.35.3.53.44l.06-.07.15-.15v.38c.36.28.74.55 1.13.8l.07-.06 1.1-1.12V24c.37-.2.72-.42 1.07-.65l.3-.31.92-.94v.4l.7-.57.24-.2h-.56l1.92-1.97v.66c.3-.34.6-.68.87-1.03H14l1.45-1.48.28-.28a16.48 16.48 0 001.42-3.03h-.86l1.13-1.16.12-.13c.1-.35.17-.7.24-1.05h-1.5l1.64-1.68.1-.1.04-.55h-1.78l1.7-1.74.09-.1V.15H0z" mask="url(#b)"/>
    </g>
  </g>
</svg>
