<svg xmlns="http://www.w3.org/2000/svg" viewBox="0 0 50 50">
  <defs/>
  <g fill="none" fill-rule="evenodd">
    <path fill="#FFFFFE" d="M.07 49.85h49.68V.17H.07z"/>
    <path fill="#b0b0b0" d="M5.98 28.47c-2.12-.42-3.72-1.8-3.72-3.46 0-.4.09-.78.26-1.13 2.52.42 3.52 2.82 3.46 4.59zm1.29.12h.13c-.1-2.7.27-5.95.48-7.13a7.06 7.06 0 00-1.22 0c.21 1.18.58 4.42.48 7.13h.13zm.37 0l.22-.02c-.1-3.4 1.22-5.55 1.97-6.63a6.09 6.09 0 00-1-.33c-.65 1.17-1.16 3.99-1.19 6.98zm.45-.05a.83.83 0 00.22-.02c0-3.67 2.24-4.9 3.18-5.43a4.18 4.18 0 00-.76-.66c-2.45 2.08-2.7 4.1-2.64 6.11zm.46-.07c2.13-.42 3.73-1.8 3.73-3.46 0-.4-.1-.78-.26-1.13-2.53.41-3.52 2.82-3.47 4.59zm-1.65.12l-.22-.02c.1-3.4-1.22-5.55-1.97-6.63a6.09 6.09 0 01.99-.33c.66 1.17 1.17 3.99 1.2 6.98zm-.45-.05a.82.82 0 01-.22-.02c0-3.67-2.24-4.9-3.18-5.43.21-.24.47-.47.76-.66 2.45 2.08 2.7 4.1 2.64 6.11zm12.06-1.66l1.94-4h2.19l1.97 4h-3.46l-.43-.83h2.03l-1.18-2.37-1.6 3.2h-1.46zm-4.8.1h3.38a2 2 0 100-4l-3.37.01v4zm1.44-.83v-2.34h1.3a1.17 1.17 0 010 2.35h-1.3zm20.06-3.27l-1.06 2.53-.8-1.7.37-.85h-1.97l.4.82-.83 1.73-1.06-2.53h-5.49v4h4.34v-.83H26.3v-.72h2.48v-.87h-2.45v-.7h3.03l1.28 3.12h1.17l.94-1.92.93 1.95h1.17l1.68-4.03h-1.3zm9.4-.38c-1.41 0-2.6.79-2.87 1.83-.28-1.04-1.46-1.83-2.88-1.83-1.62 0-2.94 1.03-2.94 2.3 0 1.27 1.32 2.3 2.94 2.3 1.42 0 2.6-.79 2.88-1.83.28 1.04 1.46 1.83 2.88 1.83 1.62 0 2.94-1.03 2.94-2.3 0-1.27-1.32-2.3-2.94-2.3zm0 3.8c-.74 0-1.35-.67-1.35-1.5s.6-1.5 1.36-1.5c.75 0 1.35.67 1.35 1.5s-.6 1.5-1.35 1.5zm-5.75 0c-.75 0-1.35-.67-1.35-1.5s.6-1.5 1.35-1.5c.75 0 1.36.67 1.36 1.5s-.6 1.5-1.36 1.5z"/>
  </g>
</svg>
