<svg xmlns="http://www.w3.org/2000/svg" xmlns:xlink="http://www.w3.org/1999/xlink" viewBox="0 0 30 25">
  <defs/>
  <defs>
    <path id="a" d="M.54.36h3.31V5H.55z"/>
    <path id="c" d="M0 .23h3.8v4.6H0z"/>
    <path id="e" d="M0 .4h29.85v17.67H0z"/>
  </defs>
  <g fill="none" fill-rule="evenodd">
    <path fill="#b0b0b0" d="M6.05 22.75l-.64-.01s.05-.2.3-.95c.24-.75.33-.97.33-.97s.1.25.35 1.03l.28.9h-.62m1.73.13c-.07-.22-.33-.97-.5-1.4a42.68 42.68 0 01-.46-1.39c-.04-.14-.05-.2-.2-.22a5.36 5.36 0 00-.73-.02c-.03 0-.1 0-.13.1a115.79 115.79 0 01-.45 1.38 266.39 266.39 0 00-.54 1.6l-.44 1.29c-.05.17-.06.22.05.22h.3c.1 0 .15 0 .19-.08l.38-1.12h1.59s.06.1.2.54c.14.44.18.67.38.67h.72c.1 0 .13-.04.13-.11 0-.08-.07-.26-.07-.26l-.41-1.2m9.59-.13l-.65-.01.3-.95c.24-.75.33-.97.33-.97s.1.25.35 1.04l.29.89h-.62m1.73.13l-.5-1.4a42.91 42.91 0 01-.46-1.39c-.05-.14-.05-.2-.2-.22a5.37 5.37 0 00-.74-.02c-.03 0-.1 0-.12.1a229.54 229.54 0 01-.46 1.38c-.12.37-.5 1.45-.54 1.6l-.43 1.29c-.06.17-.06.22.05.22H16c.1 0 .15 0 .19-.08l.38-1.12h1.59s.06.1.2.54c.14.44.18.67.39.67h.72c.1 0 .13-.04.13-.11 0-.08-.08-.26-.08-.26l-.41-1.2m-9.05-2.9c0-.13-.22-.12-.34-.12h-.47c-.17 0-.22.07-.22.26l.01 1.42.01 2.67c0 .24.1.25.28.26l.58-.01c.16 0 .18-.1.18-.3v-2.09l-.03-2.09m4.67-.12h-.45c-.12 0-.33 0-.33.12l-.01 1.83h-1.52a640.64 640.64 0 01-.02-1.83c0-.13-.2-.12-.33-.12h-.45c-.16 0-.2.08-.2.26v1.42l.01 2.67c0 .23.11.25.27.26l.55-.01c.16 0 .18-.1.18-.3V22.3h1.5v1.84c0 .21.01.3.17.3l.55.02c.16 0 .27-.02.27-.26v-2.67l.02-1.42c0-.19-.05-.27-.21-.27m7.95.07a76.08 76.08 0 00-1.2-.03 74.2 74.2 0 00-1.05 0l-1.1.01c-.06 0-.09.08-.09.24 0 .17.02.27.1.27H20.46c.03 0 .06 0 .06.03l.02.92-.01 1.16.01 1.24c0 .1 0 .37.02.52 0 .14 0 .17.06.18.07.02.33.04.51.05.19.01.43.05.43-.21v-3.83c0-.04 0-.05.05-.05h1.07c.05 0 .1.02.11-.05l.02-.31c0-.08 0-.13-.13-.14m1.12.91c0-.26.2-.49.65-.49.69 0 .87.31 1 .31.04 0 .07-.03.07-.08v-.34c0-.07-.02-.1-.14-.17a2.55 2.55 0 00-.98-.17c-.61 0-1.37.18-1.37 1.2 0 1.37 1.92 1.58 1.92 2.56 0 .18-.08.46-.57.46-.86 0-1.06-.3-1.25-.3-.05 0-.06.11-.06.2v.2c0 .05 0 .13.11.16.12.04.7.2 1.13.2.64 0 1.47-.26 1.47-1.23 0-1.37-1.98-1.72-1.98-2.51"/>
    <g transform="translate(26 19.6)">
      <mask id="b" fill="#fff">
        <use xlink:href="#a"/>
      </mask>
      <path fill="#b0b0b0" d="M3.66.39h-.32c-.06 0-.08.03-.08.12v.84l.03 2.28c0 .93-.69.92-.87.92-.96 0-.88-.86-.88-1.33v-1V.74c0-.36-.09-.38-.18-.38a10.11 10.11 0 00-.32 0H.7C.56.37.54.45.54.54l.02 2.96c0 .76.48 1.5 1.9 1.5C3.88 5 3.85 3.96 3.85 3.68V2.29C3.85 1 3.83.53 3.83.46c0-.07-.06-.07-.17-.07" mask="url(#b)"/>
    </g>
    <g transform="translate(0 19.6)">
      <mask id="d" fill="#fff">
        <use xlink:href="#c"/>
      </mask>
      <path fill="#b0b0b0" d="M1.6 4.36l-.57-.02V.84c0-.1.1-.1.15-.1h.37c.55 0 1.22.01 1.22 1.77s-.6 1.85-1.17 1.85M1.74.23H.2c-.12 0-.2 0-.2.15v2.27l.02 2c0 .11 0 .16.27.18H1.9c1.26 0 1.9-.9 1.9-2.19C3.8.5 2.6.24 1.74.24" mask="url(#d)"/>
    </g>
    <g transform="translate(0 -.4)">
      <mask id="f" fill="#fff">
        <use xlink:href="#e"/>
      </mask>
      <path fill="#b0b0b0" d="M3.62 4.7l6.81 6.78s16.72-1.47 16.72-3.23c0-1.06-7.47-1.99-11.12-2.29-3.27-.26-6.88-.25-6.88-.25l5.06 5.05-3.6.36L4.14 4.7s4.21-.26 11.88.43c7.66.7 11.91 1.86 11.91 3.1 0 3.26-20.75 6.46-20.75 6.46l1.85-2.89-7.1-7.02 1.68-.08zM0 18.06h29.85V.41H0v17.66z" mask="url(#f)"/>
    </g>
  </g>
</svg>
