<svg xmlns="http://www.w3.org/2000/svg" viewBox="0 0 29 30">
  <defs/>
  <g fill="#b0b0b0" fill-rule="evenodd">
    <path d="M13.96 8.63l.35-1.18s-1.36-3.4-4.54-3.4c-2.78 0-3.65 2.38-3.65 2.38S7.15 4.7 9.34 4.7c3.01 0 4.62 3.92 4.62 3.92M5.15 10.1h.5s.78 5.15 2.83 5.15c1.36 0 .83-1.82.83-1.82s.47.7.47 1.67c0 .62-.44 1.35-1.51 1.35-3.3 0-3.12-6.02-3.12-6.35M15 8.63l-.35-1.18s1.36-3.4 4.55-3.4c2.77 0 3.64 2.38 3.64 2.38S21.8 4.7 19.62 4.7C16.61 4.7 15 8.63 15 8.63m8.82 1.46h-.51s-.78 5.15-2.83 5.15c-1.36 0-.83-1.82-.83-1.82s-.47.7-.47 1.67c0 .62.44 1.35 1.52 1.35 3.29 0 3.12-6.02 3.12-6.35"/>
    <path d="M10.2 9.96l.68 1.07.26 1.1-.26-.1c-.4-.16-.78-.44-.78-1.13 0-.4.05-.73.1-.94zm8.56 0l-.68 1.07-.26 1.1.26-.1c.4-.16.78-.44.78-1.13 0-.4-.05-.73-.1-.94zm-4.28 8.41l-.99-.39.25-.78-.36-2.44-1.02-.42-.18-.9.58.23.56.67-.2-1.41-1.13-.46-.3-1.44.6-.42s-1.11-4.2-4.12-4.2c-.95 0-2.67.5-2.67 3.4h.48s.24 1.44.87 2.6 1.22 1.44 1.47 1.44c.26 0 .6-.21.17-1.62-.42-1.38-.54-3.04.41-3.04.56 0 .82.76.82.76s-.7 1.82.63 2.4l.95.42.6 2.54c.1.34.4.81.4.81l.64 1.09.3 1.46c.07.37.15.75 1.09.75h.3c.94 0 1.02-.38 1.1-.75l.3-1.46.63-1.09s.3-.47.4-.81l.6-2.54.95-.41c1.33-.58.63-2.41.63-2.41s.27-.76.82-.76c.96 0 .83 1.66.4 3.04-.42 1.4-.08 1.62.18 1.62.25 0 .83-.27 1.47-1.43.64-1.17.88-2.6.88-2.6h.47c0-2.9-1.72-3.42-2.66-3.42-3.02 0-4.14 4.2-4.14 4.2l.6.43-.28 1.44-1.13.46-.21 1.41.56-.67.58-.24-.18.91-1.02.42-.36 2.44.25.78-.99.4z"/>
    <path d="M14.48 0c4.08 0 8.66.33 9.37.38.9.06 2.3.63 2.3 2.8 0 1.84-.2 8.53-.38 11.39-.2 2.97-1.15 4.5-2.85 5.67-.79.53-3.05 1.76-5.12 2.86a419.53 419.53 0 01-3.32 1.74c-.7-.37-1.97-1.02-3.32-1.74a84.77 84.77 0 01-5.11-2.87c-1.71-1.15-2.66-2.69-2.85-5.66-.19-2.86-.4-9.55-.4-11.4C2.8 1.02 4.22.45 5.11.38 5.82.34 10.41 0 14.48 0m0 1.03c-4.04 0-8.59.32-9.3.38-.5.03-1.34.28-1.34 1.77 0 1.82.2 8.48.39 11.32.17 2.71 1 3.93 2.4 4.88 1.16.79 5.74 3.2 7.85 4.3 2.1-1.1 6.69-3.51 7.85-4.3 1.4-.95 2.23-2.17 2.4-4.88.18-2.84.39-9.5.39-11.32 0-1.5-.83-1.74-1.35-1.77-.7-.06-5.25-.38-9.29-.38M1.12 28.11v1.15h1.8c.58 0 1.04-.36 1.04-.8 0-.46-.47-.84-1.05-.84H0v-.7h3.3c1 0 1.82.68 1.82 1.52v.1c0 .77-.82 1.4-1.83 1.4H0v-1.83h1.12zm12.02 0v1.15h1.8c.58 0 1.05-.36 1.05-.8 0-.46-.47-.84-1.05-.84h-2.92v-.7h3.3c1 0 1.82.68 1.82 1.52v.1c0 .77-.82 1.4-1.83 1.4h-3.29v-1.83h1.12zm7.2 0v.63h1.56v.52h-1.8c-.58 0-1.04-.36-1.04-.8 0-.46.47-.84 1.05-.84H23v-.7h-3.28c-1.01 0-1.83.68-1.83 1.52v.1c0 .77.82 1.4 1.83 1.4h3.29v-1.83h-2.67zm4 1.84h4.62v-.69H25.5v-.53h3.25v-.62H25.5v-.5h3.46v-.68h-4.63zM5.9 28.44c0-.86.79-1.55 2.59-1.55 2 0 2.59.7 2.59 1.55 0 .85-.58 1.55-2.6 1.55-1.8 0-2.58-.7-2.58-1.55m1.14 0c0-.5.44-.92 1.45-.92.98 0 1.44.41 1.44.92s-.46.91-1.44.91c-1 0-1.45-.4-1.45-.91"/>
  </g>
</svg>
