<svg xmlns="http://www.w3.org/2000/svg" viewBox="0 0 30 30">
  <defs/>
  <g fill="none" fill-rule="evenodd">
    <path fill="#b0b0b0" d="M24.02 15.19a39.14 39.14 0 01-1.96 7.91c-.15.42-.29.57-.62.83a7.35 7.35 0 01-2.87 1.22c-1.06.2-2.25.32-3.51.32h-.03a18.47 18.47 0 01-3.51-.32 7.34 7.34 0 01-2.87-1.22 1.56 1.56 0 01-.63-.83 39.13 39.13 0 01-1.96-7.92c-.44-3.04-.41-5.72.22-7.33.07-.2.16-.34.22-.43l.09-.12c1.26-1.26 4.8-1.95 8.45-1.95 3.66 0 7.2.69 8.45 1.95l.1.12c.06.1.14.23.22.43.63 1.6.65 4.3.21 7.33"/>
    <path fill="#b0b0b0" d="M1.04 15.38c.16-.76.55-1.25 1-1.52.78-.46.99-1.63 1.06-2.34l.01-.07c-.04.47-.08.93-.08 1.44 0 .98.08 2.03.25 3.2.48 3.43 2.14 7.1 3.11 8.22l.06.06.22.24h.01c2.37 1.95 4.55 2.64 8.33 2.64h.03c3.78 0 5.96-.69 8.33-2.64h.01l.22-.23.06-.07c.98-1.13 2.63-4.8 3.12-8.22.16-1.17.24-2.22.24-3.2 0-.54-.02-1.05-.07-1.55.08.71.45 2.54 1.18 3.06.37.27.62.57.78.94A13.96 13.96 0 0114.98 29 13.96 13.96 0 011.04 15.4"/>
    <path stroke="#b0b0b0" stroke-width=".5" d="M28.92 15c0 7.73-6.24 14-13.94 14S1.04 22.72 1.04 15c0-7.72 6.24-13.98 13.94-13.98s13.94 6.26 13.94 13.99z"/>
    <path fill="#FFFFFE" d="M24.59 15.22a40.52 40.52 0 01-2.04 8.23c-.18.48-.37.69-.74.98a7.91 7.91 0 01-3.07 1.3 19.47 19.47 0 01-3.68.34h-.03c-1.32 0-2.57-.12-3.68-.34a7.9 7.9 0 01-3.08-1.3c-.37-.3-.56-.5-.73-.98a40.64 40.64 0 01-2.04-8.23c-.46-3.15-.44-5.98.24-7.7.08-.24.18-.4.26-.51l.12-.16c1.4-1.4 5.16-2.1 8.92-2.1 3.77 0 7.53.7 8.92 2.1a2.6 2.6 0 01.39.66c.67 1.73.7 4.56.24 7.7zm1.22-7a5.4 5.4 0 00-2.1-2.47c-2.35-1.47-5.01-2.34-7.7-2.5a15.33 15.33 0 00-.97-.03H15c-.32 0-.64 0-.96.03-2.7.16-5.36 1.03-7.7 2.5a5.4 5.4 0 00-2.1 2.46 11.74 11.74 0 00-.86 4.68c0 .96.08 2 .24 3.15.48 3.36 2.09 6.94 3.03 8.03l.26.28c2.29 1.87 4.4 2.54 8.1 2.54h.02c3.69 0 5.8-.67 8.1-2.55l.2-.21.06-.07c.94-1.08 2.54-4.66 3.02-8.02a22.41 22.41 0 00.24-3.15c0-1.8-.28-3.32-.85-4.68z"/>
    <path fill="#b0b0b0" d="M24.18 22.87c-.49.57-.96.72-1.11.63-.14-.07-.2-.57-.1-1.26.74-2.25 1.28-4.71 1.62-7.02.45-3.15.43-5.98-.24-7.7a2.64 2.64 0 00-.26-.51l-.13-.16c-1.39-1.4-5.15-2.1-8.92-2.1-3.76 0-7.53.7-8.92 2.1L6 7a2.45 2.45 0 00-.26.5c-.68 1.73-.7 4.56-.24 7.7.33 2.3.87 4.76 1.6 7 .1.7.05 1.22-.08 1.3-.16.09-.68-.08-1.19-.73a22.26 22.26 0 01-2.2-6.74 22.39 22.39 0 01-.24-3.15c0-1.8.28-3.32.86-4.67a5.4 5.4 0 012.1-2.46A16.39 16.39 0 0115 3.22h.03a16.39 16.39 0 018.67 2.54 5.4 5.4 0 012.1 2.45c.57 1.36.85 2.89.85 4.68a22.21 22.21 0 01-2.49 9.98m-3.97 3.25c.43-.26.9-.66.85-.82-.04-.12-.82.06-1.46.22a8.78 8.78 0 01-.86.21 19.47 19.47 0 01-3.67.34h-.03c-1.32 0-2.57-.12-3.68-.34a8.79 8.79 0 01-.77-.19c-.66-.16-1.53-.37-1.57-.24-.04.16.44.57.87.83 1.42.54 3.02.76 5.13.76h.03c2.13 0 3.74-.22 5.16-.78"/>
    <path fill="#FFFFFE" d="M6.3 7.78l-.02.07c-.06.14-.1.3-.15.45a74.63 74.63 0 00.33 9.2c.1.53.22 1.05.35 1.57a74.07 74.07 0 01-.5-11.3zm4.13-2.03l-.16.03c-.05 5.55.02 14.21.55 19.2l.16.04c-.53-4.98-.6-13.7-.55-19.27zm-3.08 1l-.17.1a90.82 90.82 0 00.92 16.44c.07.15.14.26.23.36-1.04-5.92-1.1-12.72-.98-16.9zm2.06-.78l-.17.05c-.07 5.14 0 13.38.7 18.64l.18.07c-.72-5.26-.8-13.59-.71-18.76zm5.01-.61l.05 20.1h.16l-.05-20.1a4 4 0 00-.16 0zm-1.05.04c0 6.34.04 15.29.14 20.01l.16.01c-.1-4.72-.14-13.68-.14-20.03h-.16zm-.88.06l-.15.02c-.02 6.14.03 15.11.25 19.84l.16.02c-.22-4.72-.27-13.72-.26-19.88zm-1.03.12l-.16.02c-.03 5.89.03 14.78.4 19.58l.16.03c-.37-4.8-.43-13.74-.4-19.63zm-3.08.7l-.17.07c-.1 4.68-.03 12.27.85 17.85l.18.1C8.34 18.7 8.28 11 8.38 6.3zm10.24-.7c.03 5.9-.03 14.83-.4 19.63l.17-.03c.37-4.8.42-13.7.4-19.58l-.17-.02zm1.03.17c.05 5.56-.01 14.29-.55 19.27a3.82 3.82 0 00.17-.04c.53-4.99.6-13.65.54-19.2l-.16-.03zm-3.23 19.67l.15-.01c.1-4.72.14-13.67.14-20.01l-.15-.01c0 6.35-.04 15.31-.14 20.03zm-.96.04h.16l.04-20.1a3.92 3.92 0 00-.15 0l-.05 20.1zm2.13-20a517.3 517.3 0 01-.26 19.88l.16-.02c.23-4.73.27-13.7.26-19.84l-.16-.02zm5.14 1.29c.13 4.18.06 10.98-.97 16.9.09-.1.16-.21.22-.36a90.75 90.75 0 00.92-16.45l-.17-.1zm1.23 1.55a4.53 4.53 0 00-.15-.45l-.03-.07c.09 2.87.04 6.88-.5 11.29.12-.52.24-1.04.34-1.56.35-3.53.4-6.74.34-9.2zm-2.09-1.95a5.52 5.52 0 00-.17-.06c.1 4.7.04 12.4-.85 18.02l.18-.1c.87-5.6.94-13.18.84-17.86zm-1.03-.33l-.16-.05c.08 5.17 0 13.5-.71 18.76l.17-.07c.7-5.26.78-13.5.7-18.64z"/>
    <path stroke="#b0b0b0" stroke-width=".25" d="M24.02 15.19a39.14 39.14 0 01-1.96 7.91c-.15.42-.29.57-.62.83a7.35 7.35 0 01-2.87 1.22c-1.06.2-2.25.32-3.51.32h-.03a18.47 18.47 0 01-3.51-.32 7.34 7.34 0 01-2.87-1.22 1.56 1.56 0 01-.63-.83 39.13 39.13 0 01-1.96-7.92c-.44-3.04-.41-5.72.22-7.33.07-.2.16-.34.22-.43l.09-.12c1.26-1.26 4.8-1.95 8.45-1.95 3.66 0 7.2.69 8.45 1.95l.1.12c.06.1.14.23.22.43.63 1.6.65 4.3.21 7.33z"/>
    <path fill="#b0b0b0" d="M15.98 11.2h.5c.2.48.38 1.16.54 2.03.08.45.14.86.17 1.1h-1.24l.03-3.13zm1.63-1.65h-3.44L14.3 21H16l.02-4.99h1.28c.11 1.03.14 4.03.14 4.77V21h1.67l.01-.77c.06-2.89.16-7.71-1.33-10.58l-.05-.11h-.13zm-9.66.2l.32 11.24 1.74.02-.02-5.03h1.2v-1.71h-1.2v-3h1.54V9.56l-3.59-.02v.2zm5.6-.22H11.7l.23 11.48h1.78l.03-11.48h-.2zm9.16 0l-4.16.02v1.7h1.18L19.68 21h1.75l.32-9.77h1.17v-1.7h-.2z"/>
    <path fill="#FFFFFE" d="M18.75 9.75v1.3h1.18l-.05 9.75h1.35l.33-9.76h1.16v-1.3l-3.97.01zM8.46 20.79l1.35.02-.02-5.03h1.2v-1.31h-1.2v-3.4h1.54V9.76l-3.18-.02.31 11.05zm3.67.02h1.39l.03-11.08H11.9l.22 11.08zm3.62-6.28l.03-3.53.8.01h.02c.3.62.5 1.52.61 2.18.13.73.2 1.34.2 1.34h-1.66zm-1.38-4.78l.13 11.05h1.31l.01-4.99h1.66c.14.91.16 4.67.16 4.97v.02h1.27c.05-2.8.27-8.03-1.3-11.05h-3.24z"/>
    <path stroke="#b0b0b0" stroke-width=".25" d="M18.75 9.75v1.3h1.18l-.05 9.75h1.35l.33-9.76h1.16v-1.3l-3.97.01zM8.46 20.79l1.35.02-.02-5.03h1.2v-1.31h-1.2v-3.4h1.54V9.76l-3.18-.02.31 11.05zm3.67.02h1.39l.03-11.08H11.9l.22 11.08zm3.62-6.28l.03-3.53.8.01h.02c.3.62.5 1.52.61 2.18.13.73.2 1.34.2 1.34h-1.66zm-1.38-4.78l.13 11.05h1.31l.01-4.99h1.66c.14.91.16 4.67.16 4.97v.02h1.27c.05-2.8.27-8.03-1.3-11.05h-3.24z"/>
  </g>
</svg>
