<svg xmlns="http://www.w3.org/2000/svg" viewBox="0 0 37 14">
<g fill="none" fill-rule="evenodd">
<path fill="#b0b0b0" d="M18.5 14C28.73 14 37 10.87 37 7c0-3.86-8.28-7-18.5-7C8.3 0 0 3.14 0 7c0 3.87 8.28 7 18.5 7z"/>
<path fill="#FFF" d="M18.49 13.26C8.7 13.26.74 10.48.74 7.01S8.7.74 18.49.74 36.26 3.55 36.26 7s-7.95 6.25-17.77 6.25z"/>
<path fill="#b0b0b0" d="M18.49 12.53c9.4 0 17.03-2.64 17.03-5.9S27.9.72 18.49.72c-9.4 0-17.01 2.65-17.01 5.9 0 3.24 7.6 5.9 17 5.9z"/>
<path fill="#FFF" d="M22.84 7.86c.82-.79 1.29-1.6 2.48-1.6.71.02.9.6 1.01.84l1.57-2.68h.96l-2.6 4.66a.96.96 0 00-.15.43c.02.23.31.17.2.17.52-.03 1.48-1.03 1.7-1.28.06-.06.14-.17.2-.17.04 0 .14.05.14.12a1.13 1.13 0 01-.2.35c-.49.6-1.29 1.56-2.2 1.58-.45 0-.62-.18-.68-.54a2.93 2.93 0 01-1.62.5.99.99 0 01-.96-.64 1.44 1.44 0 01-.07-.92 2 2 0 01-1.07.18c-.5-.01-.82-.24-.98-.85l-1.2 2.24h-1.03l1.32-2.27a3 3 0 00.32-.81.24.24 0 00-.05-.2.24.24 0 00-.18-.1c-.17 0-.45.18-.72.44-.42.46-.82.96-1.18 1.48-.47.72-1.28 1.53-2.17 1.53-.64 0-1.22-.36-1.35-1.05 0 0-.06.16-.63.5-.05.02-.17.1-.2.07a.56.56 0 01-.18-.31c.04.01.1-.05.34-.23a1.59 1.59 0 00.55-.61c.1-.24.3-.61.43-.86.37-.74 1-1.49 2.03-1.52a.25.25 0 01.26.13.23.23 0 01.06.22 2.32 2.32 0 00-1.53.96 2.7 2.7 0 00-.4 1.03c-.08.55.17.92.55 1 .7.12 1.29-.4 1.75-1.2.13-.33.2-.68.2-1.04a1.17 1.17 0 00-.28-.72.31.31 0 01.07-.24.3.3 0 01.22-.1.18.18 0 01.15.04c.24.3.38.68.37 1.07a1.9 1.9 0 01-.02.37c.51-.63 1.15-1.44 1.65-1.6a.62.62 0 01.3-.05c.9-.02.78.82.78.82.49-.57.83-.78 1.28-.75a.62.62 0 01.46.17.64.64 0 01.2.47.7.7 0 01-.65.7.65.65 0 01-.67-.5c-.23.09-.34.25-.39.57a.62.62 0 00.14.51.6.6 0 00.48.21 1.57 1.57 0 001.2-.51l-.01-.01zm.84-5c0 .39-1.32 1.13-2.44 1.13-1.75 0-3.56-.86-4.4-1.05-.9-.22-1.73-.4-2.38-.4-2.27 0-3.29 1-3.24 1.92.02.37.32.61.76.53.47-.09 1.13-.54 1.3-.94a.13.13 0 01.06-.07.12.12 0 01.1 0 .15.15 0 01.04.14c-.06.47-.76 1.77-1.99 1.77-.68 0-1.14-.65-1.13-1.29.01-1.19 1.2-2.39 4.14-2.39.62 0 1.24.06 1.86.17 1.44.27 2.9.44 4.36.5.65.03 1.3 0 1.96-.07.64-.1.5-.13.76-.13s.24.1.24.2v-.02z"/>
<path fill="#b0b0b0" d="M25.46 6.64c-.4-.06-.9.34-1.3.91a3.02 3.02 0 00-.46 1.17c-.05.25 0 .53.14.74.1.1.56.37 1.26-.46.3-.37.56-.77.79-1.2l-.13-.04c.24-.5.2-1.06-.3-1.12z"/>
<path fill="#FFF" d="M17.06 5.58c0 .13.18.24.34.25-.04.13-.03.2-.09.18a.59.59 0 01-.51-.34c-.49.08-.97.14-1.94.23-2.44 3.8-3.2 4.42-4.69 4.42-1.07 0-2-.68-2.03-1.88-.01-.73.6-1.62 1.74-1.89.14 0 .18.05.18.12s-.04.1-.16.15c-.33.12-.9.74-.9 1.32 0 .43.28.92.76 1.02.12.03.25.03.38.03 1.18 0 2.52-1.3 3.96-3.24-.23 0-1.21.11-1.46.39-.12.08-.2.03-.2-.06a.41.41 0 01.06-.15c.4-.43 1.57-.52 1.85-.56 1.1-1.62 2.53-2.63 2.82-2.62a.14.14 0 01.11.07.13.13 0 010 .12 1.26 1.26 0 01-.18.2 7.35 7.35 0 00-1.99 2.2 16.29 16.29 0 001.6-.18 1.06 1.06 0 01-.05-.28c.04-.5.34-.81.73-.76.21.03.36.2.37.4a1.03 1.03 0 01-.32.64c-.12.1-.24.17-.38.24v-.02z"/>
</g>
</svg>
