<svg xmlns="http://www.w3.org/2000/svg" xmlns:xlink="http://www.w3.org/1999/xlink" viewBox="0 0 25 25">
  <defs/>
  <defs>
    <path id="a" d="M0 .69h24.32V25H0z"/>
  </defs>
  <g fill="none" fill-rule="evenodd">
    <g transform="translate(0 -.69)">
      <mask id="b" fill="#fff">
        <use xlink:href="#a"/>
      </mask>
      <path fill="#b0b0b0" d="M12.16 24.91a12.08 12.08 0 1112.07-12.07c0 6.66-5.42 12.07-12.07 12.07m0-24.22C5.46.69 0 6.14 0 12.84S5.46 25 12.16 25s12.16-5.45 12.16-12.16S18.86.7 12.16.7" mask="url(#b)"/>
    </g>
    <path fill="#b0b0b0" d="M19.18 5.69l-.74.6-.03.02-.03.03-.23-.28-.07-.1.02-.01.78-.63.2-1.4.3.38-.1 1 1 .11.3.37-1.4-.1zm-1.09 12.19l-.1.11a8.74 8.74 0 01-2.18 1.58 8.1 8.1 0 01-3.5.91h-.18a8.27 8.27 0 01-.8-.03 9.27 9.27 0 01-1.04-.18 8.7 8.7 0 01-4.05-2.24 8.08 8.08 0 01-2.54-5.8c0-2.14.92-4.29 2.54-5.9a8.68 8.68 0 014-2.3 8.24 8.24 0 011.12-.2c.26-.03.52-.04.77-.04h.17c2.08.05 4.14.95 5.68 2.5a8.39 8.39 0 012.5 5.85c0 2.08-.87 4.16-2.39 5.74zM3.64 5.15a.55.55 0 01.17-.33l1.31-1.36.26.25-1.33 1.37.97.94 1-1.02-.36-.35-.61.62-.26-.24.95-.97.87.84-1.32 1.36a.56.56 0 01-.32.17c-.12.02-.22 0-.3-.08l-.94-.92a.32.32 0 01-.09-.28zm3.74-3.03a.54.54 0 01.3-.21l1.78-.62.12.34-1.8.62.16.47 1.8-.62.12.33-1.8.62.16.48 1.8-.62.11.33-1.78.61a.54.54 0 01-.37.01c-.12-.03-.19-.1-.22-.2l-.43-1.24a.33.33 0 01.05-.3zm4.36-.75a.33.33 0 01.17-.24.57.57 0 01.37-.07l1.87.22-.04.36-1.9-.23-.05.5 1.89.22-.04.35-1.9-.22-.06.5 1.9.22-.04.35-1.88-.22a.57.57 0 01-.33-.15c-.09-.09-.13-.18-.12-.28l.16-1.3zm3.7 2.1l.88-1.44.47.3-.85 1.4 1.21.75-.21.35-1.28-.78a.56.56 0 01-.24-.27c-.04-.12-.04-.22.02-.3zM12.12.5C5.74.5.54 5.7.54 12.08s5.2 11.58 11.58 11.58A11.6 11.6 0 0023.7 12.08 11.6 11.6 0 0012.12.5z"/>
    <path fill="#b0b0b0" d="M18.14 16.83a7.68 7.68 0 01-5.86 2.92 7.69 7.69 0 01-6.15-3.3l.05-.1H6.1l3-4.09 3-4.09.15.2.83 1.14-3.71 4.98a8.62 8.62 0 01.85-.18l3.21-4.32.15.2.69.94L12 14.16h.7l1.9-2.54.15.2.33.44.13.18-1.37 1.84c.09 0 .18.03.26.05l.37.06 1.1-1.46.14.2.34.46-.75 1.01.24.08.32.12.55-.72.14.2.38.5-.29.4a4.34 4.34 0 01.48.31l.16-.22.15.2.64.89H18c.1.15.14.3.16.47M14.2 4.54a7.48 7.48 0 00-1.93-.29h-.17a7.8 7.8 0 00-7.8 7.8 7.75 7.75 0 001.72 4.86l.17.22a7.78 7.78 0 005.9 2.71h.18c.32-.01.64-.04.95-.08a7.8 7.8 0 004.92-2.8l.13-.17a7.76 7.76 0 001.62-4.75 7.8 7.8 0 00-5.69-7.5"/>
  </g>
</svg>
