<svg xmlns="http://www.w3.org/2000/svg" xmlns:xlink="http://www.w3.org/1999/xlink" viewBox="0 0 50 25">
  <defs/>
  <defs>
    <path id="a" d="M.81.02h4.13V4H.8z"/>
  </defs>
  <g fill="none" fill-rule="evenodd">
    <path fill="#b0b0b0" d="M16.53 13.79c2.07-1.1 5.18-1.6 8.24-1.57 3.17.03 6.3.65 8.24 1.8a11.95 11.95 0 01-8.24 3.18 11.33 11.33 0 01-8.24-3.41zm-1.7-2.69c2.34-1.54 5.4-2.03 8.74-2.23V6.48h2.42v2.4c3.53.15 6.31.96 8.72 2.25a7.83 7.83 0 01-.58 1.22c-2.55-1.54-6-2.29-9.36-2.34-3.64-.06-7.2.7-9.45 2.18-.21-.37-.33-.7-.48-1.1zm9.94-10.09h.11c4.38-.1 10.38 2.98 10.16 8.24A17.92 17.92 0 0028.1 7V4.3h-6.56v2.68a18.39 18.39 0 00-7 2.2c0-5.75 5.97-8.14 10.22-8.18zm.04 16.96c6.43-.04 11.85-4.02 11.85-9C36.66 4.03 31.4 0 24.8 0h-.03C18.2.02 12.86 4.03 12.86 8.98s5.24 8.97 11.91 8.99h.03zM0 22.2c-.03.54.1 1.12.52 1.51.95.87 2.91.56 4.16.52v-2.08H1.76c.03.2.14.4.32.59h1.34v1.1c-.5.04-.9-.12-1.35-.27-1.2-.41-1.34-2 .07-2.46a4.43 4.43 0 012.55.13v-.85c-2.4-.04-4.6-.27-4.68 1.8m8.4.02H7.03v-1.14h1.43c.54.22.45 1.02-.05 1.14m.97-1.86H5.66v3.98h1.36v-1.61h.91l.87 1.61h1.39l-1-1.68c.6-.23.98-.75 1-1.26v-.08c-.02-.4-.26-.77-.8-.96"/>
    <g transform="translate(10 20.33)">
      <mask id="b" fill="#fff">
        <use xlink:href="#a"/>
      </mask>
      <path fill="#b0b0b0" d="M2.17 2.24l2.13.02c.25 0 .32-.42.38-.63H2.17V.64H4.3c.26 0 .4-.42.46-.62H.8v3.61c0 .21.1.37.33.37h3.8v-.62H2.17V2.24z" mask="url(#b)"/>
    </g>
    <path fill="#b0b0b0" d="M18.24 22.84h-.75l.64-1.38h.3l.55 1.38h-.74zm0-2.49h-.97l-1.73 3.98h1.42l.32-.75h1.93l.34.75h1.42l-1.78-3.98h-.95zm19.58 2.47h-.74l.63-1.38h.3l.54 1.38h-.73zm0-2.49h-.98l-1.72 3.99h1.41l.33-.75h1.92l.34.75h1.42l-1.77-3.99h-.95zm-17.24.76h1.64v3.24h1.38V21.1h1.32c.3 0 .53-.41.63-.74h-4.97v.74zm13.58-.74l-.6 2.85h-.38l-.98-2.85h-.54l-1.04 2.85h-.36l-.59-2.85h-1.2l1.16 3.98h1.55l.73-1.89.81 1.9h1.51l1.1-3.99zm8.36 0h-1.37v3.52c0 .24.1.46.39.46h3.6v-.73h-2.62v-3.25zm4.37 0h-1.36v3.5c0 .26.1.48.38.48h3.6v-.74H46.9v-3.24z"/>
  </g>
</svg>
