<svg xmlns="http://www.w3.org/2000/svg" xmlns:xlink="http://www.w3.org/1999/xlink" viewBox="0 0 42 27">
  <defs/>
  <defs>
    <path id="a" d="M.81.95h7.76V6H.81z"/>
  </defs>
  <g fill="none" fill-rule="evenodd">
    <path fill="#b0b0b0" d="M10.73 6.86c.01-.6.03-1.2.07-1.8.03-.53.1-1.05.25-1.57a3 3 0 011.11-1.6 3.8 3.8 0 011.04-.51 6.59 6.59 0 011.26-.28 62.1 62.1 0 011.79-.2 26 26 0 011.26-.08c.7-.03 1.39-.07 2.08-.08h3.07a62.53 62.53 0 012.32.11 25.83 25.83 0 012.48.26c.53.07 1.05.18 1.55.39a3 3 0 011.9 2.24c.09.37.13.75.16 1.14.1 1.14.1 2.28.09 3.42a26.43 26.43 0 01-.13 2.03c-.06.55-.1 1.1-.17 1.65-.11.9-.26 1.79-.54 2.65a5.31 5.31 0 01-.35.86c-.36.7-.9 1.18-1.62 1.47-.44.19-.9.3-1.37.37-.8.13-1.61.2-2.42.24-1.11.06-2.23.09-3.35.09h-.26v.01c-.97-.02-1.93-.03-2.9-.07a48.88 48.88 0 01-2.1-.14 11.02 11.02 0 01-1.72-.27 4.64 4.64 0 01-.82-.28 3.08 3.08 0 01-1.54-1.52 7.13 7.13 0 01-.5-1.43 16.16 16.16 0 01-.34-2.03l-.23-2.3a26.08 26.08 0 01-.07-2.77m-.54 6.82c.11.59.26 1.18.48 1.74.14.32.28.64.49.93.38.54.88.94 1.5 1.21.25.1.5.2.76.28.72.22 1.47.33 2.22.39a47.23 47.23 0 002.17.14c1.04.04 2.09.05 2.9.07l2.16-.03c.9-.02 1.8-.06 2.71-.12a17.73 17.73 0 002.02-.24 7.26 7.26 0 001.59-.47 3.52 3.52 0 001.87-1.8 7.57 7.57 0 00.41-1.1c.2-.73.33-1.46.44-2.2.1-.73.17-1.47.25-2.2a32.17 32.17 0 00.07-5.74 5.82 5.82 0 00-.25-1.34 3.6 3.6 0 00-1.26-1.83A4.43 4.43 0 0029.4.7c-.63-.2-1.28-.32-1.94-.4a33.06 33.06 0 00-2.41-.2 91.13 91.13 0 00-2.51-.1 73.67 73.67 0 00-3.36.01 54.3 54.3 0 00-3.78.19 20.66 20.66 0 00-1.87.24A6.94 6.94 0 0012 .89c-.84.36-1.48.94-1.88 1.76a4.87 4.87 0 00-.42 1.48 13.33 13.33 0 00-.11 1.64 73.85 73.85 0 000 2.1 38.05 38.05 0 00.6 5.8m-5.36 8.47l.15.02.46.05c.2.03.29.12.32.3a.28.28 0 01.01.07v.77l-.01.02c-.14.02-2.82.02-2.91 0v-.44-.4c.03-.19.13-.29.31-.31l.26-.03.38-.05v-.33l-.01-.3H0v.63l.15.02.47.05c.19.03.28.12.32.3v2.71c-.04.18-.14.27-.32.3l-.46.04-.16.03v.62c.13.02 3.7.02 3.8 0v-.63l-.59-.07c-.24-.02-.34-.12-.35-.36v-.78-.01c.16-.03 2.82-.02 2.91 0v.76a.5.5 0 01-.01.1c-.03.17-.12.26-.3.29l-.26.03-.37.04v.64h3.79v-.63a5.69 5.69 0 00-.19-.03l-.45-.05c-.17-.03-.26-.11-.3-.28a1.27 1.27 0 010-.2 455.52 455.52 0 010-2.52c.04-.19.14-.27.33-.3l.26-.03.35-.04v-.64h-3.8v.64zm17.25-.63v.63h.06l.54.07c.2.03.3.13.33.33a.49.49 0 010 .1V24.97l-.1-.13a622.44 622.44 0 01-2.36-3.12c-.12-.15-.26-.23-.45-.23H16.78v.64l.13.02.47.05c.2.02.3.12.34.32V25.16c-.02.22-.13.33-.35.35l-.26.03-.33.05v.62c.12.02 2.93.02 3.02 0 .02-.14.01-.54 0-.63l-.18-.02-.44-.05c-.2-.02-.3-.13-.31-.32v-.13-2.28a.15.15 0 00.02-.01l.08.1c.78 1.04 1.58 2.07 2.36 3.12a.56.56 0 00.49.24h2.24l.1-.02v-3.5-.15c.02-.21.13-.32.33-.35.1 0 .18-.01.27-.03.12 0 .23-.03.34-.04v-.63c-.18-.02-2.94-.02-3.03 0m8.93 3a1.42 1.42 0 01-.14.36.86.86 0 01-.64.4 2.5 2.5 0 01-.4.05h-1.59v-2.9l.08-.01h1.54c.18 0 .36.02.53.08a.87.87 0 01.55.51c.1.24.12.5.13.75.01.26 0 .52-.06.77m2.24-.92a2 2 0 00-.8-1.47 2.65 2.65 0 00-.7-.38 4.52 4.52 0 00-1.57-.25h-4.6a.94.94 0 00-.1 0v.64l.5.05c.3.04.39.14.39.44v2.42l-.01.16c-.04.2-.14.28-.33.3l-.27.03-.34.05v.64H30c.27 0 .54-.02.81-.04a3.52 3.52 0 001.2-.33c.55-.26.94-.66 1.13-1.23.1-.34.13-.69.1-1.03"/>
    <g transform="translate(8 20.39)">
      <mask id="b" fill="#fff">
        <use xlink:href="#a"/>
      </mask>
      <path fill="#b0b0b0" d="M6.32 4.06c-.1.52-.43.84-.94.96a2.97 2.97 0 01-1.42-.01c-.5-.13-.8-.46-.9-.97-.04-.18-.05-.37-.08-.56.02-.22.03-.44.1-.66.11-.46.4-.75.86-.88a2.92 2.92 0 011.45-.01c.5.12.82.44.93.95.09.4.09.79 0 1.18m1.34-2.4a3.37 3.37 0 00-1.17-.51C5.9 1 5.3.95 4.71.95a7.63 7.63 0 00-1.64.15 3.73 3.73 0 00-1.16.44 2.13 2.13 0 00-1.1 1.92c0 .82.34 1.45 1.03 1.9.19.12.39.22.6.3.49.18.98.27 1.5.3a8.5 8.5 0 002.25-.1 3.85 3.85 0 001.23-.43c.69-.4 1.1-.98 1.14-1.78a2.14 2.14 0 00-.9-1.98" mask="url(#b)"/>
    </g>
    <path fill="#b0b0b0" d="M35.92 23.92l.88-1.4c.06.05.85 1.23.93 1.4-.08.02-1.63.03-1.8 0m4.86 1.3l-1.06-1.63-1.18-1.79c-.12-.2-.29-.3-.53-.3h-3.56v.64l.14.02.67.08c.2.02.3.19.2.37a.8.8 0 01-.04.08l-1.57 2.55a.7.7 0 01-.08.1.4.4 0 01-.3.17l-.25.03-.35.04v.63c.17.03 2.94.02 3.02 0v-.63l-.21-.02c-.12-.01-.25-.02-.37-.05-.2-.04-.26-.18-.15-.35l.17-.3c.04-.07.09-.09.18-.09h2.74c.02.01.06.02.07.05l.23.35c.07.13.03.25-.12.31a1.19 1.19 0 01-.26.06l-.44.04v.63l.04.01h4.04l.01-.02v-.62l-.55-.06a.62.62 0 01-.5-.3M14.2 2.74l.08 1.21.13 2 .1 1.63.13 1.9.1 1.52.15 2.08.13 1.7.16 1.95.02.16c.41.1 1.92.17 2.27.16l.04-.15.59-2.14c.11-.39.25-.76.44-1.12.23-.46.6-.7 1.1-.79a8.38 8.38 0 011.31-.1c.45 0 .89.03 1.33.1.47.09.83.33 1.05.76l.14.28c.16.36.29.72.39 1.1l.52 1.91.04.15c.44.03 2.06-.1 2.27-.17.43-5.06.74-10.13 1.06-15.21a12.8 12.8 0 00-1.57-.12 1.67 1.67 0 00-.03.1c-.2.97-.42 1.92-.63 2.88a101.08 101.08 0 01-1.03 4.17c-.12.45-.27.9-.47 1.31a2.36 2.36 0 01-1.93 1.38c-.33.05-.66.06-1 .07-.48 0-.97 0-1.45-.1-.6-.1-1.1-.38-1.48-.87a3.3 3.3 0 01-.43-.8 13.21 13.21 0 01-.47-1.5c-.53-2.03-.99-4.06-1.42-6.1l-.13-.54c-.53.01-1.05.04-1.57.12v.1l.06.97"/>
  </g>
</svg>
