<svg xmlns="http://www.w3.org/2000/svg" fill="none" viewBox="0 0 26 26">
  <defs/>
  <path fill="#b0b0b0" d="M11.15 12l-.52 1.15-.51-1.15H8.34v2.47h1.4v-1.26l.52 1.26h.75l.52-1.26v1.26h1.4V12h-1.78zm4.89 0l-.52 1.15-.51-1.15h-1.78v2.47h1.4v-1.26l.52 1.26h.74l.53-1.26v1.26h1.4V12h-1.78zM2.68 12v.9h-.7V12H.5v2.47h1.48v-.93h.7v.93h1.49V12H2.68zm18.63.6V12h-3.18v2.47h3.18v-.6h-1.7v-.36h1.7v-.54h-1.7v-.38h1.7zM5.92 12v1.66c0 .21.14.27.33.27.2 0 .33-.06.33-.28V12h1.48v1.66c0 .74-.53.9-1.8.9-1.28 0-1.82-.16-1.82-.9V12h1.48zm17.58 1.13c.28 0 .41-.1.41-.3 0-.26-.16-.33-.4-.33h-.44v.63h.43zm.42 1.34l-.85-.89v.9h-1.49V12h2.39c.5 0 1.33-.01 1.28.81-.02.39-.42.67-.74.74l.99.92h-1.58z"/>
</svg>
