<svg xmlns="http://www.w3.org/2000/svg" xmlns:xlink="http://www.w3.org/1999/xlink" viewBox="0 0 28 17">
  <defs/>
  <defs>
    <path id="a" d="M.38.9H4.3V5H.38z"/>
    <path id="c" d="M.82.9h4V5h-4z"/>
    <path id="e" d="M.33.9h4V5h-4z"/>
    <path id="g" d="M0 .9h3.94V5H0z"/>
    <path id="i" d="M.13.9H4.7V5H.13z"/>
    <path id="k" d="M.84.9h1.14V5H.84z"/>
  </defs>
  <g fill="none" fill-rule="evenodd">
    <path fill="#b0b0b0" d="M9.92 1.32c.21-.06.44-.06.67-.06.19 0 .23.09.11.24-.3.41-.63.8-.93 1.22a19.07 19.07 0 00-2.68 4.8 2.1 2.1 0 01-.23.46c-.12.2-.26.24-.48.16-.27-.1-.48-.27-.69-.46-.45-.43-.85-.9-1.06-1.5-.08-.24-.1-.49-.16-.73a.09.09 0 01.03-.01c0-.62.27-1.13.65-1.59.44-.53 1-.93 1.6-1.27.99-.58 2.06-.96 3.17-1.26m3.07.06c.4-.41.88-.58 1.43-.6a14.92 14.92 0 015.25.78c.12.04.23.1.33.16.12.1.13.2.03.32a1.03 1.03 0 01-.24.2 21.77 21.77 0 01-4.53 2.14c-.6.2-1.22.35-1.86.38a1.76 1.76 0 01-.8-.13c-.42-.18-.55-.53-.54-1.04.07-.77.32-1.57.93-2.21m8.49 2.04l.25-.5c.12-.22.23-.27.44-.16 1.02.5 1.64 1.3 1.82 2.42.02.08 0 .16 0 .25.01.57-.2 1.07-.54 1.51a5.34 5.34 0 01-1.72 1.4 11.32 11.32 0 01-3.6 1.26c-.06 0-.16-.01-.17-.04a.24.24 0 01.02-.2l.51-.68c.62-.82 1.15-1.7 1.63-2.6.48-.87.9-1.77 1.36-2.66m-4.96 4.1c-.14.87-.57 1.6-1.23 2.18-.25.22-.55.3-.87.33l-.58.03a18.72 18.72 0 01-2.27-.19c-.75-.1-1.5-.23-2.23-.43a8.96 8.96 0 01-.73-.24c-.2-.09-.2-.2-.04-.34a13.08 13.08 0 015.3-2.5c.52-.12 1.03-.21 1.56-.18.39.03.75.15.97.52.15.25.17.53.12.81M4.15 3.77c-.53.8-.7 1.67-.41 2.6.24.75.72 1.34 1.3 1.84a8.85 8.85 0 002.64 1.53c1.86.73 3.8 1.04 5.78 1.1.96.04 1.93 0 2.89-.1a18.19 18.19 0 002.93-.55c1.25-.35 2.44-.82 3.52-1.56a5.41 5.41 0 001.67-1.68c.41-.68.57-1.41.4-2.2a3.56 3.56 0 00-.92-1.67 7.59 7.59 0 00-2.38-1.66C20.5.92 19.4.6 18.26.37a18.14 18.14 0 00-2.42-.32L15.3 0h-1.77l-.1.02-.9.06c-.96.09-1.9.24-2.83.48-1.29.32-2.52.77-3.65 1.46a5.93 5.93 0 00-1.89 1.75m16.48 11.37c-.01.3-.1.37-.38.37h-1.18V13.4h1.26c.18.01.25.1.28.27a.8.8 0 01.02.18v1.3m.57-2.7a1.63 1.63 0 00-.24-.02h-3.1v4.08h3.36l.13-.05a.64.64 0 00.45-.53c.03-.1.03-.2.03-.3v-1.48-.88c-.02-.5-.2-.74-.63-.82"/>
    <g transform="translate(22 11.5)">
      <mask id="b" fill="#fff">
        <use xlink:href="#a"/>
      </mask>
      <path fill="#b0b0b0" d="M3.1 3.07H1.55l.01-.88c0-.16.11-.26.26-.27.31-.02.63-.02.94-.02h.36v1.17zm1.2-2.02V.91H1.34l-.12.02C.74.95.4 1.29.4 1.78V5h1.16v-.9H3.1V5H4.3V1.06z" mask="url(#b)"/>
    </g>
    <g transform="translate(8 11.5)">
      <mask id="d" fill="#fff">
        <use xlink:href="#c"/>
      </mask>
      <path fill="#b0b0b0" d="M4.69.9H3.7c-.1 0-.13.04-.13.14v2.67c0 .23-.07.3-.3.3H2.03V.9H.82V5h3.4l.03-.02c.33-.06.5-.27.54-.59l.03-.3V.92H4.7" mask="url(#d)"/>
    </g>
    <g transform="translate(13 11.5)">
      <mask id="f" fill="#fff">
        <use xlink:href="#e"/>
      </mask>
      <path fill="#b0b0b0" d="M4.33 2.58c0-.32 0-.64-.03-.95-.02-.34-.2-.57-.5-.65a2.05 2.05 0 00-.49-.07H.43a.89.89 0 00-.1 0V5h1.2V1.94l.01-.04a.23.23 0 01.07 0h1.2c.2 0 .28.07.28.26v2.78a.17.17 0 01-.01.06h1.26a.23.23 0 01-.02-.07V2.58" mask="url(#f)"/>
    </g>
    <g transform="translate(0 11.5)">
      <mask id="h" fill="#fff">
        <use xlink:href="#g"/>
      </mask>
      <path fill="#b0b0b0" d="M2.78.9c-.08 0-.07.06-.07.12v1.34H1.16V.91H1L0 .9V5h1.16V3.4h1.57V5h1.2l.01-.03V1L3.93.9H2.78" mask="url(#h)"/>
    </g>
    <g transform="translate(4 11.5)">
      <mask id="j" fill="#fff">
        <use xlink:href="#i"/>
      </mask>
      <path fill="#b0b0b0" d="M3.51.91c-.04 0-.09.04-.11.08l-.9 1.25-.08.1-.07-.1A294.44 294.44 0 011.55 1C1.5.95 1.46.92 1.38.92L.28.9H.13l.08.13c.44.66.87 1.33 1.33 1.97.2.28.28.55.26.88-.03.37-.01.74-.01 1.11h1.2L3 3.5c0-.06.03-.14.06-.19l1.58-2.29.06-.1-.04-.01H3.5" mask="url(#j)"/>
    </g>
    <g transform="translate(26 11.5)">
      <mask id="l" fill="#fff">
        <use xlink:href="#k"/>
      </mask>
      <path fill="#b0b0b0" d="M.85 1.06V5h1.13V.93C1.65.9 1.32.92 1 .9.87.9.85.94.85 1.06" mask="url(#l)"/>
    </g>
  </g>
</svg>
