<svg xmlns="http://www.w3.org/2000/svg" xmlns:xlink="http://www.w3.org/1999/xlink" viewBox="0 0 38 19">
  <defs/>
  <defs>
    <path id="a" d="M.42.28h28.66v14.07H.42z"/>
  </defs>
  <g fill="none" fill-rule="evenodd">
    <path fill="#b0b0b0" d="M10.66 16.74v1.96h.37v-.89h.63v-.28h-.63v-.5h.67v-.29zm16.19 1.98h.36v-1.96h-.36zm4.76-1.97v.29h.43v1.67h.37v-1.68h.43v-.28zM0 18.72h.37v-1.96H0zm21.97-1.98v1.48l-.5-1.48h-.43v1.96h.31v-1.48l.51 1.48h.43v-1.96zm15.17 1.98h.37v-1.96h-.37zm-21.04 0h.36v-1.96h-.36zM5.8 16.74v1.48l-.5-1.48h-.43v1.96h.3v-1.48l.52 1.48h.43v-1.96z"/>
    <g transform="translate(4 -.28)">
      <mask id="b" fill="#fff">
        <use xlink:href="#a"/>
      </mask>
      <path fill="#b0b0b0" d="M21.33 11.1l-6.58-7.62-6.55 7.6c-3.23-.9-5.36-2.47-5.36-4.4 0-3.07 5.3-5.95 11.9-5.95 6.6 0 12.03 2.88 12.03 5.94 0 1.95-2.17 3.53-5.44 4.43M14.75.28C6.84.28.42 3.51.42 7.48c0 3.22 4.2 5.95 10.01 6.87l4.32-10.29 4.32 10.29c5.8-.92 10.01-3.65 10.01-6.87 0-3.97-6.41-7.2-14.33-7.2" mask="url(#b)"/>
    </g>
  </g>
</svg>
