<svg xmlns="http://www.w3.org/2000/svg" fill="none" viewBox="0 0 26 26">
  <defs/>
  <path fill="#b0b0b0" d="M11.45 15.12c.08 0 .6 0 1.02-.03.5-.03.76-.2.95-.46.24-.3.24-.88.24-1.33v-2.09c0-.13-.05-.2-.2-.2h-.96c-.15 0-.2.07-.2.2v2.26c0 .32-.05.63-.5.67a3.92 3.92 0 01-1.03 0c-.45-.04-.48-.35-.48-.67v-.15-2.11c0-.13-.06-.2-.2-.2h-.97c-.15 0-.2.07-.2.2v2.09c0 .45 0 1.03.23 1.33.2.25.45.43.95.46.42.03.92.03 1.03.03h.32zm-9.07-.18c0 .14-.05.2-.19.2h-.98c-.13 0-.2-.04-.2-.18L1 11.22c0-.13.06-.2.2-.2H2.2c.14 0 .17.09.17.23v3.69zm19.27-1.4c0 .32.08.54.45.6.3.02.7.03 1.01 0 .29-.03.5-.15.52-.47l.01-.6v-1.85c0-.15.07-.22.2-.22h.96c.13 0 .2.07.2.22v2.19c-.01.22-.03.75-.2 1.1-.16.28-.43.5-.9.55-.88.1-1.7.06-2.32.03-.46-.03-.76-.13-1.01-.4-.28-.32-.3-.87-.3-1.49v-1.98c0-.15.07-.22.2-.22h.98c.13 0 .2.07.2.22V13.53zm-6.93-2.52h3.4c.7 0 .95.1 1.14.36.21.29.23.65.06.95-.13.21-.36.4-.7.57l-1.23.57-1.3.57c-.13.07-.08.17.02.17l3.01-.03c.14 0 .19.05.19.2v.55c0 .15-.05.19-.19.19H16c-.44 0-.89 0-1.16-.13a.8.8 0 01-.45-.72c.02-.56.33-.74.9-1 .62-.29 2.46-1.09 2.57-1.14.14-.06.1-.19-.03-.19l-3.06.02c-.14 0-.23-.02-.23-.16v-.61c0-.14.05-.17.2-.17zm-7.3 2.1c-.62-.25-2.45-.83-2.69-.95-.12-.05-.1-.2.05-.2h3.08c.14 0 .2-.05.2-.2v-.57c0-.13-.05-.18-.16-.18H4.7c-.87 0-1.1.13-1.34.43-.31.38-.21.9-.03 1.17.2.3.55.43 1.09.62.65.21 2.2.76 2.2.76.13.06.12.2-.05.2l-3.08-.02c-.14 0-.21.07-.21.2v.53c0 .14.04.22.18.22H6.9c.6 0 1.17-.19 1.28-.84.07-.57-.16-.92-.76-1.16"/>
</svg>
