<svg xmlns="http://www.w3.org/2000/svg" viewBox="0 0 50 11">
  <defs/>
  <path fill="#b0b0b0" fill-rule="nonzero" d="M43.74 0c.87 0 1.68.05 2.36.14a4.38 4.38 0 013.76 3.57 11.96 11.96 0 010 3.53 4.42 4.42 0 01-3.76 3.62c-.68.05-1.5.14-2.36.14h-.27c-.9 0-1.67-.1-2.4-.14a4.37 4.37 0 01-3.72-3.62 11.94 11.94 0 010-3.53A4.33 4.33 0 0141.07.14c.73-.1 1.5-.14 2.36-.14h.31zm-.13 2.58c-.23 0-.36 0-.55.05a1.6 1.6 0 00-1.54 1.4c-.04.4-.04 1.04-.04 1.5 0 .45 0 .85.04 1.26.14.95.86 1.5 1.5 1.5h1.18c.68 0 1.36-.55 1.5-1.5.04-.4.04-.81.04-1.31V5.2c0-.38-.01-.86-.05-1.18a1.56 1.56 0 00-1.5-1.4zm-16.23 2.9c0-.6.05-1.18.18-1.77A4.33 4.33 0 0131.28.14a20.97 20.97 0 014.9 0c.27.04.45.27.45.54V2.3c0 .32-.23.54-.5.54 0 0-.86-.04-1.32-.04-.54 0-1 0-1.5.04-.8.05-1.4.64-1.49 1.4-.04.41-.09.82-.09 1.23v.04c0 .41.05.82.1 1.22.08.77.63 1.36 1.49 1.45.45.05 1 .1 1.5.1.45 0 1.3-.05 1.3-.05.28 0 .5.22.5.54v1.63c0 .27-.17.5-.45.54-.72 0-1.58.05-2.53.05-.87 0-1.68-.1-2.36-.14a4.37 4.37 0 01-3.72-3.62 7.15 7.15 0 01-.18-1.72v-.04zm-1.22 2.67c.31 0 .54.27.54.54v1.63c0 .32-.23.54-.54.54h-6.49a2.13 2.13 0 01-2.13-2.12V2.3A2.12 2.12 0 0119.67.18h6.49c.31 0 .54.23.54.5v1.58c0 .32-.23.55-.54.55h-4c-.31 0-.54.18-.54.5v.99l3.4-.04c.27 0 .55.27.55.54v1.36c0 .31-.28.54-.55.54h-3.4v.9c0 .32.23.55.55.55h3.99zm-16.5 2.71c-.96 0-1.77-.63-2.04-1.49L5.39.81V.68c0-.27.23-.5.55-.5h3.3c.28 0 .5.18.55.4l1.72 7.16c0 .1.1.18.23.18.1 0 .18-.09.18-.18L13.7.6c.05-.23.27-.4.5-.4h1.86c.31 0 .54.22.54.49V.8L14.46 9.2a2.1 2.1 0 01-2.08 1.67H9.66zM.54.18h3.22c.32 0 .55.23.55.5v9.64c0 .32-.23.54-.55.54H.54a.55.55 0 01-.54-.54V.68C0 .4.27.18.54.18z"/>
</svg>
