<svg xmlns="http://www.w3.org/2000/svg" xmlns:xlink="http://www.w3.org/1999/xlink" viewBox="0 0 39 18">
  <defs/>
  <defs>
    <path id="a" d="M.75.72h33.42V13.1H.75z"/>
    <path id="c" d="M0 .85h4.9V3.9H0z"/>
    <path id="e" d="M.84.85h5.74V3.9H.84z"/>
  </defs>
  <g fill="none" fill-rule="evenodd">
    <path fill="#b0b0b0" d="M7.39.86A1.19 1.19 0 007.9.73a.74.74 0 00.15-.08 34.59 34.59 0 00-.4 0c-.32 0-.49.18-.49.2h.12l.1.01"/>
    <g transform="translate(3 -.72)">
      <mask id="b" fill="#fff">
        <use xlink:href="#a"/>
      </mask>
      <path fill="#b0b0b0" d="M2.15 2.37l.03-.1c.02-.01.09-.22.27-.24h.27s-.08.25-.4.3c0 0-.12.04-.17.04m-.97.9c.26-.59.74-.67.8-.68l.3-.04c.62-.1.9-.75.9-.75-.4 0-.61.03-.61.03-.41.07-.55.55-.55.55-.35.08-.34-.22-.28-.3.06-.1.26-.45 1.6-.76 0 0 .65-.2 2.06-.13l-.06.1c-.12.24-.62.72-1.43.54 0 0 0 .37.89.5 0 0 .8.14 2.16 1.22 0 0-.65-1.28-1.75-1.62 0 0-.14-.02-.07-.11 0 0 .68-.63 1.55-.65 0 0 2.97-.3 4.61 1.97 0 0-.5-.96-.87-1.38a88.13 88.13 0 007.34 2.5c1.56.6 5.46 2.12 7.96 3.48l4.94 2.58c1.25.56 2.11.22 2.11.22.28-.1.79-.5 1.01-.28.12.12.13.27.08.42-.07.22-.39.52-.78.7-.41.18-1.27.22-1.76.15 0 0-.95-.1-1.8-.97l-.88-.9a1.69 1.69 0 00-1-.53c-.56-.08-1.94-.12-2.45-.29-.35-.11-.77-.34-1.32-1.16-.27-.4-.46-.5-.82-.73 0 0 .28.22.44.5.22.4.34.7.46.9.13.23.27.42.48.59.26.21.42.25.7.3.28.04 1.2.03 2 .02.77-.01 1.11.24 1.37.45.24.2.64.77.89 1.01.3.3.51.6 1.1.9.2.1.54.35.52.6-.26.25-.6.32-1.38.12.06.05.47.48 1.17.28a.9.9 0 01-.64.24c-.73-.04-1.45-.95-1.86-1.28-.3-.25-.34-.32-.86-.68-.79-.54-2.57-.39-2.57-.39l-1.3.07c-2.55.19-3.61-2.05-3.9-2.52a3.47 3.47 0 00-.26-.4 4.76 4.76 0 00-1.53-1.37s.69.6.65.99c0 0-.29-.13-1.07-.02C14.13 7.73 13 6.9 13 6.9c.15-.68-.31-1.36-.31-1.36.25.08 1.9.64 3.46.32 0 0-2.54.02-4.32-1.4 0 0 1.1 1.38.84 2.3 0 0-.18.96-2.11.57-.21-.04-.45-.11-3.35-.91-.68-.2-.92.12-1.04.31 0 .29-.34.62-.51.72-.9-.15-.54-.98-.54-.98-.56.8.02 1.15.21 1.18-.1.06-.21.1-.3.13 0 0-.74-.44-.33-1.15.57-1 1.15-1.31 2.22-1.4.47-.05.85-.09 1.15-.05.77.1 1.26.54 2.41.66-2.45-.72-2.46-2.14-2.46-2.17-.14.47-.07.86.05 1.2l-.77-.5c-.89-.53-1.58-.62-1.58-.62-.3-.04-.43-.4-.43-.4l-.03-.05c-.4-.7-.81-.7-.81-.7.23.3.23.74.23.74.12.86-.86 1.13-.86 1.13-.6.75-.57.77-.7.8-.13 0-.43-.14-.43-.14-.04-.07.03-.14.03-.14l.2-.18c.63-.65.7-.96.63-1.38-.16-.84-.76-.74-.76-.74-.29.02-.41.27-.41.27-.1.15-.32.63-.32.63-.13.28-.26.34-.33.35h-.1c-.2 0-.36-.18-.36-.18l-.03-.03c-.18-.2-.05-.46-.05-.46m-.24.38c.06.11.12.26.2.35.11.13.34.36.66.3.14-.01.14-.06.14-.06.16.16.42.16.42.16-.03-.1-.15-.3-.16-.42-.02-.14.02-.26.02-.26.05-.15.14-.34.24-.44.08-.09.3-.18.48-.06.15.1.31.43.17.9 0 .03-.16.37-.33.41l-.04.01c-.12 0-.33-.12-.33-.12l.03.16.06.2-.06.11c-.04.05-.08.21 0 .28 0 0 .38.25.74.27.25.01.34-.15.34-.15.18-.25.32-.47.51-.64.53-.48 1.27-.61 1.27-.61.05 0 .85-.23 2.23.86-.4.03-.86.13-1.22.2-1.01.17-1.67 1.13-1.85 1.51-.5 1.02.5 1.37.5 1.37.02 0 .97-.08 1.43-1.1 0 0 .17-.44.62-.3.3.1 2.88 1 3.46 1.15 0 0 1.73.45 2.39-.34 1.04.34 2.01.5 4.57.17.45-.06.8-.04.8-.04.6.04 1.15.44 1.31.71.67 1.07 1.53 3.2 4.5 2.95l1.34-.12c.82-.05 1.48-.08 2.16.27.3.15.46.21.96.69.68.65 1.31 1.35 2.15.97.3-.14.63-.67.63-.67a.97.97 0 00-.4-.67c.76.18 2.47.3 3.13-.86.17-.27.2-.51.13-.66-.19-.4-.69-.27-.69-.27-.24.05-.5.32-.9.44-.87.26-1.57-.04-1.57-.04-1.33-.58-5.61-3.02-7.8-4.09 0 0-2.52-1.17-6.2-2.61 0 0-7.22-3.07-12.03-2.82 0 0-2.57.07-3.38 1.2 0 0-.14.15-.06.32 0 0 .02.05-.02.08 0 0-.43.39-.65.73-.08.12-.15.32 0 .48 0 0 .07.05.1.1" mask="url(#b)"/>
    </g>
    <g transform="translate(0 13.28)">
      <mask id="d" fill="#fff">
        <use xlink:href="#c"/>
      </mask>
      <path fill="#b0b0b0" d="M4.55 3.34c.23-.23.34-.52.34-1V.84H3.75v1.4c0 .41-.09.69-.29.88-.26.26-.7.37-1.34.37H0v.41h2.3c1.08 0 1.85-.15 2.25-.56" mask="url(#d)"/>
    </g>
    <path fill="#b0b0b0" d="M28.29 14.57l1.35 1.56h-2.7l1.35-1.56zm1.7 1.96l.56.65h1.28l-2.66-3.06h-1.13l-2.66 3.06h.66l.56-.65h3.38zm-23.01-.4l1.35-1.56 1.35 1.57h-2.7zm3.6 1.05h1.28L9.2 14.13H8.07l-2.66 3.05h.67l.55-.65h3.39l.56.65z"/>
    <g transform="translate(32 13.28)">
      <mask id="f" fill="#fff">
        <use xlink:href="#e"/>
      </mask>
      <path fill="#b0b0b0" d="M1.98 2.46V1.23h2.25c.43 0 .62.04.75.14.12.09.16.23.16.45v.06c0 .2-.04.36-.19.46-.14.1-.34.12-.7.12H1.97zm3.88.13c.3-.15.43-.45.43-.75 0-.41-.19-.68-.52-.82-.3-.13-.66-.17-1.39-.17H.84V3.9h1.14V2.84h1.5L5.19 3.9h1.4l-1.8-1.08c.42-.01.79-.08 1.07-.23z" mask="url(#f)"/>
    </g>
    <path fill="#b0b0b0" d="M19.23 14.13v1.52c0 .4.04.7.24.96.32.43.92.67 2.57.67h.02c1.66 0 2.25-.24 2.57-.67.2-.26.25-.57.25-.97v-1.52h-1.14v1.48c0 .39-.05.63-.2.84-.25.34-.64.47-1.44.47H22c-.76 0-1.19-.13-1.44-.47-.14-.2-.2-.44-.2-.84v-1.48h-1.13zm-4.23.4h2.85v-.4h-3.2a3.2 3.2 0 00-1.66.31c-.4.22-.7.63-.7 1.2 0 .62.28 1.07.9 1.32.37.15.86.22 1.47.22h3.3v-1.4h-1.13v1H15c-.6 0-.93-.1-1.19-.29-.24-.18-.36-.46-.36-.84 0-.36.12-.64.34-.82.25-.2.59-.3 1.2-.3"/>
  </g>
</svg>
