<svg xmlns="http://www.w3.org/2000/svg" xmlns:xlink="http://www.w3.org/1999/xlink" viewBox="0 0 34 15">
  <defs/>
  <defs>
    <path id="a" d="M.75.57h6.87V12H.75z"/>
    <path id="c" d="M0 .22h6.99v11.45H0z"/>
  </defs>
  <g fill="none" fill-rule="evenodd">
    <path fill="#b0b0b0" d="M20.33 5.66c.23-.37.53-.56.91-.56.33 0 .6.12.8.37.2.25.32.66.37 1.23h-2.35c.03-.46.12-.8.27-1.04M19.26 11c.48.29 1.13.43 1.95.43a4 4 0 002.2-.5c.5-.34.93-.9 1.3-1.67l-2.36-.28c-.15.24-.29.4-.42.5a1.14 1.14 0 01-.67.21c-.37 0-.67-.16-.9-.5a2.2 2.2 0 01-.31-1.07h4.79V7.8c0-1.02-.14-1.85-.4-2.48a3.14 3.14 0 00-1.19-1.46 3.83 3.83 0 00-2.11-.5 3.2 3.2 0 00-2.59 1.12 4.43 4.43 0 00-.93 2.94c0 .84.15 1.58.47 2.21.3.63.7 1.1 1.17 1.38"/>
    <g transform="translate(26 2.78)">
      <mask id="b" fill="#fff">
        <use xlink:href="#a"/>
      </mask>
      <path fill="#b0b0b0" d="M4.95 6.01c-.2.3-.42.43-.7.43A.92.92 0 013.46 6c-.2-.3-.31-.76-.31-1.37 0-.66.1-1.14.3-1.44.2-.3.46-.45.77-.45.28 0 .52.15.71.45.2.29.3.75.3 1.38 0 .68-.1 1.16-.28 1.44M5 .57c-.42 0-.81.11-1.16.34-.26.17-.54.5-.85.98V.75H.75V12h2.42V7.73c.24.3.5.54.8.7.31.15.65.22 1.02.22.76 0 1.39-.33 1.88-1 .5-.7.75-1.67.75-2.95 0-1.17-.23-2.15-.68-2.94C6.48.96 5.84.57 5 .57" mask="url(#b)"/>
    </g>
    <g transform="translate(0 -.22)">
      <mask id="d" fill="#fff">
        <use xlink:href="#c"/>
      </mask>
      <path fill="#b0b0b0" d="M5.67 11c.53-.43.88-.97 1.05-1.61C6.9 8.75 7 7.82 7 6.6V.22H4.32V7.4a3.3 3.3 0 01-.21 1.39.69.69 0 01-.66.4c-.18 0-.33-.04-.43-.13a1.2 1.2 0 01-.32-.56c-.06-.23-.1-.57-.1-1.05L0 7.34c.05.83.26 2.06.52 2.61.26.56.63 1 1.11 1.28a3.9 3.9 0 002.02.44c.82 0 1.5-.22 2.02-.66" mask="url(#d)"/>
    </g>
    <path fill="#b0b0b0" d="M11.5 5.66c.24-.37.53-.56.92-.56.32 0 .59.12.8.37.2.25.32.66.37 1.23h-2.36c.04-.46.13-.8.28-1.04M10.44 11c.47.29 1.12.43 1.95.43a4 4 0 002.19-.5c.5-.34.94-.9 1.3-1.67l-2.36-.28c-.14.24-.28.4-.41.5-.21.14-.44.21-.67.21-.37 0-.67-.16-.9-.5a2.23 2.23 0 01-.32-1.07h4.8V7.8c0-1.02-.14-1.85-.41-2.48a3.15 3.15 0 00-1.18-1.46 3.83 3.83 0 00-2.11-.5 3.2 3.2 0 00-2.6 1.12 4.45 4.45 0 00-.93 2.94c0 .84.16 1.58.47 2.21.31.63.7 1.1 1.18 1.38"/>
  </g>
</svg>
