<svg xmlns="http://www.w3.org/2000/svg" viewBox="0 0 34 18">
  <defs/>
  <g fill="#b0b0b0" fill-rule="evenodd">
    <path d="M16.94 17.34c9.33 0 16.94-3.9 16.94-8.67S26.27 0 16.94 0C7.61 0 0 3.89 0 8.67c0 4.78 7.61 8.67 16.94 8.67zm0-15.29c8.6 0 15.61 3 15.61 6.62s-7 6.61-15.61 6.61-15.62-3-15.62-6.61c0-3.61 7.02-6.62 15.62-6.62z"/>
    <path d="M22.93 12.78l1.65-5.77 1.65 5.77h2.28l-2.35-8.27h-3.5v.38h.33l-2.34 7.89zm-16.24 0H9v-3.6l2.57 3.4h2.65l-3.1-4.05 2.64-3.83h-2.65L9 7.82V4.7H6.28v.35a1 1 0 01.41.06v7.67zm9.4 0h2.28V4.7h-2.69v.35a.93.93 0 01.41.06v7.67z"/>
  </g>
</svg>
