<svg xmlns="http://www.w3.org/2000/svg" viewBox="0 0 35 25">
  <defs/>
  <path fill="#b0b0b0" fill-rule="evenodd" d="M1.54 6.15C1.54 2.75 8.42 0 16.9 0c8.48 0 15.37 2.75 15.37 6.15 0 3.4-6.89 6.15-15.37 6.15-8.5 0-15.37-2.75-15.37-6.15zm18.8.54a.05.05 0 00-.05-.04c-.44-.07-.88-.12-1.33-.15-.03 0-.04-.03-.03-.09 1.42-1.5 1.96-3.4 1.24-4.88a.05.05 0 01.06-.05c4.89.6 8.46 2.46 8.46 4.67 0 2.69-5.28 4.87-11.78 4.87-6.51 0-11.79-2.18-11.79-4.87 0-2.33 3.97-4.28 9.26-4.76.03 0 .05.03.05.07l-1.15 6.33a.77.77 0 00.76.91h.04a7.15 7.15 0 004.02-1.54.05.05 0 01.05 0c.35.23.55.5.55.79 0 .4-.37.75-.97 1.02a7.3 7.3 0 01-2.87.52 7.91 7.91 0 01-2.58-.38.05.05 0 00-.02.04l-.1.53c0 .03.02.05.05.06 1.39.32 3 .5 4.7.5 2.12 0 3.84-.68 3.84-1.53 0-.33-.26-.63-.7-.88-.39-.2-.63-.44-.57-.6.06-.18.43-.2.87-.09.02 0 .05 0 .06-.05l-.08-.4zM16.9 2.8v.1c.05 1.13-.65 2.64-1.92 3.91a8.14 8.14 0 01-.85.72c-.02 0-.04-.03-.04-.06L15.35.6a.05.05 0 00-.05-.05C8.42.88 3.07 3.25 3.07 6.15c0 3.11 6.2 5.64 13.84 5.64s13.83-2.53 13.83-5.64S24.54.51 16.9.51l-.73.01a.05.05 0 00-.05.04l-.14.8c0 .03 0 .05.02.06.55.25.9.8.9 1.4zM2.58 15.37v7.53h4.18v1.7H0v-9.23h2.58zm10.1 5.49l-1.2-3.36-1.2 3.36h2.4zm.44-5.48l3.5 9.21h-2.68l-.78-2.17H9.8l-.77 2.17H6.86l3.47-9.21h2.79zm6.36 7.52h1.16c.69 0 1.6-.12 2.2-.92.6-.79.61-1.72.61-2.1 0-.48-.06-1.46-.75-2.14-.65-.62-1.48-.68-2.1-.68h-1.12v5.84zm-2.57-7.53h3.78c1.1 0 2.75.1 4.02 1.2a4.61 4.61 0 01-.16 6.97 5.5 5.5 0 01-3.59 1.05h-4.05v-9.22zm14.15 5.48l-1.2-3.36-1.21 3.36h2.41zm.43-5.48L35 24.6h-2.69l-.77-2.18h-3.37l-.78 2.18h-2.15l3.47-9.22h2.78z"/>
</svg>
