<svg xmlns="http://www.w3.org/2000/svg" fill="none" viewBox="0 0 26 26">
  <defs/>
  <path fill="#b0b0b0" fill-rule="evenodd" d="M24.35 5.2c1.04 10.1-3.51 16.43-11.37 19.65C4.61 21.25.84 14.6 1.6 5.15 9.18-.2 16.76-.19 24.35 5.2z" clip-rule="evenodd"/>
  <path fill="#fff" fill-rule="evenodd" d="M12.98 1.55a10.2 10.2 0 0110.18 10.19 10.2 10.2 0 01-10.18 10.18A10.2 10.2 0 012.79 11.74 10.2 10.2 0 0112.98 1.55z" clip-rule="evenodd"/>
  <path fill="#b0b0b0" fill-rule="evenodd" d="M12.98 2.12c5.29 0 9.61 4.32 9.61 9.62 0 5.3-4.32 9.61-9.61 9.61a9.64 9.64 0 01-9.62-9.61c0-5.3 4.32-9.62 9.62-9.62z" clip-rule="evenodd"/>
  <path fill="#fff" fill-rule="evenodd" d="M12.98 2.34a9.41 9.41 0 019.39 9.4 9.41 9.41 0 01-9.4 9.39 9.41 9.41 0 01-9.39-9.4c0-5.17 4.22-9.39 9.4-9.39z" clip-rule="evenodd"/>
  <path fill="#b0b0b0" fill-rule="evenodd" d="M13.7 4.3c3.62.36 6.5 3.31 6.73 6.96l-1.53-.13v1.48l1.5-.12a7.49 7.49 0 01-6.56 6.66l.2-3.68h-1.99l.25 3.7a7.44 7.44 0 01-4.44-2v1.14h-.7v-1.9a7.44 7.44 0 01-1.63-4.1l1.62.2v-1.45l-1.61.04c.1-1.25.53-2.46 1.22-3.5H6.4l1.08-2.3.47.92A7.44 7.44 0 0112.4 4.3l-.25 3.95h1.88L13.7 4.3z" clip-rule="evenodd"/>
  <path fill="#fff" fill-rule="evenodd" d="M14.26 8.24h4.64v2.66l1.28.11a7.27 7.27 0 00-6.23-6.45l.31 3.68zm-5.6-.64h-.8v.64h4.07l.24-3.7c-1.58.18-3 .86-4.11 1.89l.6 1.17zm10.24 5.24v2.63h-4.64l-.18 3.42c3.14-.48 5.63-3 6.07-6.15l-1.25.1zm-11.75-.1v3.29a7.2 7.2 0 01-1.37-3.46l1.37.17zm.71 4.11v-1.38h3.97l.22 3.45a7.22 7.22 0 01-4.19-2.07z" clip-rule="evenodd"/>
  <path fill="#fff" fill-rule="evenodd" d="M18.64 13.14c-.13 0-.17-.14-.3-.6l-.6-2.23h-.07l-.6 2.33c-.1.32-.13.47-.27.5v.1h.55v-.1c-.1-.01-.23-.02-.23-.18 0-.07.05-.25.12-.56h.62c.03.14.12.46.12.57 0 .14-.05.15-.22.17v.1h.88v-.1zm-1.92 0c-.15-.02-.26-.03-.26-.3v-2.06c0-.3.13-.3.26-.3v-.11h-.95v.1c.12.02.25.03.25.3v2.07c0 .26-.1.28-.25.3v.1h.95v-.1zm-1.19-.54c-.22.4-.42.52-.64.52-.08 0-.3-.06-.41-.37-.1-.27-.12-.68-.12-.93 0-.72.1-1.38.5-1.38.32 0 .54.5.64.87h.07v-1h-.08c-.02.11-.05.2-.12.2-.07 0-.28-.2-.53-.2-.57 0-.96.66-.96 1.52 0 .8.34 1.5.98 1.5.35 0 .56-.27.76-.62l-.09-.11zm-3.7.65h.62v-.11c-.2-.03-.26-.12-.26-.42v-1.7l1.21 2.3h.08v-2.5c0-.21.01-.3.21-.35v-.1h-.58v.1c.22.03.25.17.25.43v1.29l-.95-1.82h-.57v.1c.03 0 .07.02.23.31v2.02c0 .28-.08.31-.24.34v.1zm-.14-.11c-.13 0-.17-.14-.29-.6l-.6-2.23h-.08l-.6 2.33c-.09.32-.13.47-.28.5v.1h.56v-.1c-.1-.01-.22-.02-.22-.18 0-.07.04-.25.12-.56h.6c.04.14.13.46.13.57 0 .14-.05.15-.22.17v.1h.88v-.1zm-1.95-.86h-.08c-.12.48-.28.83-.69.83-.18 0-.24-.03-.24-.23v-2.01c0-.38.09-.38.28-.4v-.1h-.95v.1c.12.02.23.03.23.3v2.07c0 .26-.08.27-.23.3v.1h1.57l.11-.96zM7.15 7.6h-.11c-.68.97-1.11 2.1-1.25 3.27l1.36-.03V7.6z" clip-rule="evenodd"/>
  <path fill="#b0b0b0" fill-rule="evenodd" d="M17.28 12.24l.26-1.03.27 1.03h-.53zm-6.95 0l.26-1.03.28 1.03h-.53z" clip-rule="evenodd"/>
</svg>
