<svg xmlns="http://www.w3.org/2000/svg" xmlns:xlink="http://www.w3.org/1999/xlink" viewBox="0 0 37 19">
  <defs/>
  <defs>
    <path id="a" d="M0 .5h36.73V19H0z"/>
  </defs>
  <g fill="none" fill-rule="evenodd">
    <path fill="#b0b0b0" d="M29.42 10.9h-.51l-.3.94h.48c.06 0 .17-.02.33-.06a.48.48 0 00.24-.15.73.73 0 00.16-.27c.04-.15.04-.26 0-.34-.06-.08-.19-.12-.4-.12m-7.24-3.03c.24 0 .42-.03.54-.1.13-.06.25-.18.36-.35.12-.16.24-.43.37-.8.17-.5.23-.84.17-1.02-.07-.18-.24-.27-.54-.27h-.28l-.9 2.54h.28zM12.05 10.9h-.51l-.3.94h.48l.33-.06a.5.5 0 00.24-.15.74.74 0 00.15-.27c.05-.15.05-.26 0-.34-.05-.08-.18-.12-.4-.12m2.26-5.42l-.99 1.67h.8z"/>
    <path fill="#b0b0b0" d="M31.02 11.25c-.08.25-.2.47-.35.66a1.84 1.84 0 01-.52.45 1.58 1.58 0 01-.46.18.85.85 0 01.25.17c.03.04.06.12.1.25.04.12.07.22.07.28l.13 1.34h-1.31l-.16-1.41c-.02-.18-.05-.3-.1-.36a.3.3 0 00-.25-.1h-.1l-.6 1.87h-1.17l1.5-4.61h1.93c.36 0 .62.04.79.12.16.07.27.2.32.41.05.2.02.46-.07.75zM26 12.63h-1.8l-.3.9h2l-.34 1.05H22.4l1.5-4.61H27l-.32.99h-1.94l-.24.73h1.8l-.3.94zm-6.97 1.95l.08-4.61h1.21l-.24 3.32L22 9.97h1.17l-2.89 4.61h-1.25zm-.8-5.65l-.47-2.56-.9 2.56h-1.05l1.63-4.65h1.05l.48 2.57.9-2.57h1.07L19.3 8.93h-1.06zm-.23 3.3c-.18.55-.4 1-.66 1.34-.26.34-.56.6-.9.8a2.33 2.33 0 01-1.13.29c-.43 0-.75-.08-.97-.25a1.17 1.17 0 01-.42-.79c-.06-.36 0-.8.18-1.34.24-.75.6-1.34 1.08-1.76a2.4 2.4 0 011.63-.63c.62 0 1.04.2 1.24.62.2.41.19.99-.05 1.73zm-4.36-.98a2.03 2.03 0 01-.35.66 1.87 1.87 0 01-.5.45 1.62 1.62 0 01-.47.18.8.8 0 01.24.17 1.54 1.54 0 01.17.53l.13 1.34h-1.3l-.16-1.41c-.03-.18-.06-.3-.1-.36a.3.3 0 00-.25-.1h-.1l-.61 1.87H9.18l1.5-4.61h1.93c.36 0 .62.04.78.12.17.07.27.2.32.41.05.2.03.46-.07.75zm-5 1.31l-3.16.06.63-.98 3.13-1.48-1.67 1.5 1.4-.06-.33.96zm.73-8.28h1.13l-1.24 3.5h1.77l-.4 1.15h-2.9l1.64-4.65zm4.75 0h1.23l-.26 4.65h-1.18l.1-.77h-1.3l-.44.77H11.1l3.01-4.65zm9.6 0c.33 0 .58.06.75.17a.82.82 0 01.32.49c.06.21.07.46.03.75a4.58 4.58 0 01-.22.9c-.18.5-.36.88-.54 1.15a3.24 3.24 0 01-.61.69c-.23.18-.44.31-.64.37a2.57 2.57 0 01-.72.13h-1.68l1.63-4.65h1.68zM26.24 7l.33-.96 3.16-.05-.63.98-3.13 1.48 1.67-1.5-1.4.05zm-7.88-5.98C8.8 1.02.97 4.72.97 9.25s7.82 8.23 17.4 8.23c9.57 0 17.38-3.7 17.38-8.23s-7.8-8.23-17.39-8.23z"/>
    <path fill="#b0b0b0" d="M16.45 10.97c-.23 0-.45.1-.66.3-.2.2-.38.54-.54 1.01-.15.47-.19.8-.11 1 .07.21.23.31.47.31.25 0 .48-.1.68-.3.2-.2.38-.55.55-1.07.14-.43.17-.75.1-.95-.08-.2-.24-.3-.48-.3"/>
    <g transform="translate(0 -.5)">
      <mask id="b" fill="#fff">
        <use xlink:href="#a"/>
      </mask>
      <path fill="#b0b0b0" d="M18.36 18.46C8.47 18.46.41 14.55.41 9.76c0-4.8 8.06-8.71 17.95-8.71 9.9 0 17.96 3.9 17.96 8.7 0 4.8-8.07 8.71-17.96 8.71m0-17.96C8.25.5 0 4.66 0 9.75 0 14.85 8.25 19 18.36 19c10.12 0 18.36-4.15 18.36-9.25C36.72 4.66 28.48.5 18.36.5" mask="url(#b)"/>
    </g>
  </g>
</svg>
