<svg xmlns="http://www.w3.org/2000/svg" xmlns:xlink="http://www.w3.org/1999/xlink" viewBox="0 0 34 15">
  <defs/>
  <defs>
    <path id="a" d="M0 .84h33.31V5H0z"/>
  </defs>
  <g fill="none" fill-rule="evenodd">
    <path fill="#b0b0b0" d="M14.14 4.64c-.43.67-.47.99-.48 1.2-.01.22-.01.6.33.91.59.52 1.4.43 2.12.43h5.93c.26 0 .33-.07.47-.25.47-.73.69-1.51.69-2.21 0-1.5-.99-3.4-3.46-4.25l-.28.4c1.96.93 2.78 2.14 2.78 3.85 0 .45-.11.94-.41 1.4h-5.77c-.35 0-.4-.39-.27-.61a23.23 23.23 0 011.65-2.53c.58-.77 1.16-1.5 1.76-2.26.17-.21.06-.41-.27-.48A10.47 10.47 0 0016.7 0c-4.74 0-6.47 2.71-6.47 4.72 0 2.18 1.75 4.7 6.48 4.7 2.63 0 4.35-.84 5.35-1.92h-1.01c-.87.8-2.37 1.37-4.34 1.37-4.01 0-5.49-2.25-5.49-4.18.03-1.73 1.62-4.1 5.59-4.19.15 0 .27.14.16.26-.68.84-2.61 3.53-2.83 3.88"/>
    <g transform="translate(0 9.89)">
      <mask id="b" fill="#fff">
        <use xlink:href="#a"/>
      </mask>
      <path fill="#b0b0b0" d="M13.18 4.15H7.73c.01-.42.46-.85.88-.85h3.43v-.85H7.68c-.05-.25.42-.74.78-.74h3.91v-.46l2.54 1.82-1.73 1.08zm18.8-1.62h-3.8c.05-.46.45-.85.86-.85h3.84l-.01-.8h-4.08a2.38 2.38 0 00-2.35 2.3c0 .1.05.15.15.15l4.63-.02c.23.03.42.22.42.44 0 .25-.23.45-.5.45h-5.1V.88h-1.49v3.33H21.8c-.75 0-.9-.45-.9-.87V.86h-2.5c-.24.17-.48.35-.73.5l-1.47.9L14.28.89h-5.8c-.76 0-1.35.2-1.78.53-.78.62-1.03 1.27-1.02 1.56H6.7c-.45.33-.75.73-.9 1.19H2.45c-.6 0-.99-.42-.99-.84V.84H0v2.58c0 .92.88 1.56 2.3 1.56h11.18c.23-.15.45-.32.7-.47l1.5-.91 1.93 1.37h2.2L16.9 2.8l1.48-.97c.32-.2.65-.38.98-.57v2.18c0 .92.24 1.56 2.1 1.56l10.51-.03c.81.02 1.34-.54 1.34-1.22 0-.67-.6-1.22-1.34-1.22z" mask="url(#b)"/>
    </g>
  </g>
</svg>
