<svg xmlns="http://www.w3.org/2000/svg" viewBox="0 0 48 9">
  <defs/>
  <g fill="#b0b0b0" fill-rule="evenodd">
    <path d="M10.9 1.46C9.68.26 7.67 0 6 0 4.3 0 2.22.26 1.02 1.56l-.06.07a4.18 4.18 0 00-.95 2.86C0 8.38 3.4 9 5.99 9c2.58 0 6-.62 6-4.5a4.11 4.11 0 00-.95-2.87 1.13 1.13 0 01-.14-.17zm-8.8.73C2.86 1.05 4.43.73 6 .73s3.07.27 3.92 1.4l.06.08C8.58 2.94 7 3 6.05 4.9 4.94 3.13 3.38 3.12 2 2.4l.09-.15V2.2zM6 8.12c-2.31 0-4.5-.6-4.5-3.65a3.46 3.46 0 01.06-.63c0-.05 0-.1.04-.14l2.35.73a3.54 3.54 0 012.08 1.98 3.62 3.62 0 012.03-2.03l2.35-.79v.06c.05.29.07.57.07.86.01 3.07-2.19 3.69-4.5 3.67L6 8.12zM31.63 4L34 2h-5v2z"/>
    <path d="M46.13 2.03h-4.07v1.61h3.3c.94 0 .77.6.77.6H43.5a2.06 2.06 0 00-1.84.76v-.33c0-2.72-2.1-2.64-2.1-2.64h-5.53l-5.62 4.31V3.69a1.64 1.64 0 00-.54-1.23 1.73 1.73 0 00-1.3-.43h-4.1v1.61h3.26c.94 0 .82.6.82.6h-2.61a2.05 2.05 0 00-1.83.67v-.64a2 2 0 00-.56-1.64A2.12 2.12 0 0019.89 2H13v6h2.08V3.8h1.47V8h2V3.8h.67c.96 0 .84.76.84.76V8h2.05v-.75c.34.46.9.74 1.5.75h5.7l5.66-4.41v4.39h4.43c.95.02 1.79-.6 2.01-1.51.15.86.9 1.5 1.8 1.5H48V3.7a1.63 1.63 0 00-.55-1.24 1.73 1.73 0 00-1.32-.42zm-19.6 4.33h-2.2a.42.42 0 01-.31-.1.4.4 0 01-.13-.3c0-.37.35-.39.47-.39h2.16v.8zm12.3-.12h-1.87V3.71h1.9s.89.08.89 1.18c0 1.11-.42 1.35-.92 1.35zm7.23.12h-2.18a.42.42 0 01-.32-.1.4.4 0 01-.13-.3c0-.37.37-.39.5-.39h2.13v.8z"/>
    <path d="M30 8h5V6h-2.62z"/>
  </g>
</svg>
