<svg xmlns="http://www.w3.org/2000/svg" viewBox="0 0 24 24"><path fill="#b0b0b0" d="M12 12.88c-.04 0-.1-.05-.22-.26a7.53 7.53 0 0 0-1.98-2.36 8.26 8.26 0 0 0-2.1-1.2 17.95 17.95 0 0 0-.34-.13c-1.02-.4-2.07-.81-3.04-1.38A8.98 8.98 0 0 1 4 7.36c.2-.34.42-.66.67-.96a6.05 6.05 0 0 1 1.25-1.13 7.13 7.13 0 0 1 1.62-.8A13.3 13.3 0 0 1 12 3.8c1.78 0 3.24.22 4.46.65a7.1 7.1 0 0 1 1.62.8A6.08 6.08 0 0 1 20 7.37l-.32.2c-.98.56-2.02.97-3.04 1.37l-.34.14a8.26 8.26 0 0 0-2.1 1.2 7.52 7.52 0 0 0-1.98 2.35c-.11.21-.18.26-.22.26m0 7.07c-1.54 0-2.8-.13-3.83-.39a6.92 6.92 0 0 1-2.58-1.19 5.8 5.8 0 0 1-1.39-1.53 7.6 7.6 0 0 1-.8-1.77 10.3 10.3 0 0 1-.48-2.98c0-.68.05-1.32.14-1.9 1.1.6 2.15.89 3.08 1.15l.21.06c1.3.38 2.32.86 3.14 1.5a6.18 6.18 0 0 1 2.1 2.98c.1.3.2.47.4.47.22 0 .32-.18.41-.47a6.12 6.12 0 0 1 2.11-2.99 9.22 9.22 0 0 1 3.14-1.49l.21-.06c.93-.26 1.98-.56 3.08-1.16a10.3 10.3 0 0 1-.33 4.88 7.63 7.63 0 0 1-.8 1.78 5.79 5.79 0 0 1-1.4 1.53c-.73.55-1.57.94-2.58 1.2-1.03.25-2.29.38-3.83.38M21.7 5.4c-1.92-2.05-5-2.99-9.7-3-4.7.01-7.78.95-9.7 3C.9 6.91 0 9.02 0 11.87c0 1.58.39 5.6 3.56 7.68 1.9 1.24 4.36 2.05 8.44 2.05 4.08 0 6.54-.8 8.44-2.05 3.17-2.08 3.56-6.1 3.56-7.68 0-2.84-.9-4.96-2.31-6.48Z"/></svg>