<svg xmlns="http://www.w3.org/2000/svg" xmlns:xlink="http://www.w3.org/1999/xlink" viewBox="0 0 26 26">
  <defs/>
  <defs>
    <path id="a" d="M0 .79h25.49v25.2H0z"/>
  </defs>
  <g fill="none" fill-rule="evenodd">
    <path fill="#b0b0b0" d="M12.7 4.22c0-.17-.05-.17-.06 0l-.53 7.87.53.3.06-8.17zm-2.46 9.71l2.21-1.23-.5-.28-1.78 1.46c-.1.08-.05.12.07.05"/>
    <g transform="translate(0 -.79)">
      <mask id="b" fill="#fff">
        <use xlink:href="#a"/>
      </mask>
      <path fill="#b0b0b0" d="M24.95 11.26a.5.5 0 01-.07-.15c-.93-2.87-1.73-4-3.26-5.68a12.3 12.3 0 00-8.8-3.92A12.12 12.12 0 00.7 13.63c0 1.99.43 3.7.78 4.57.41 1 1.12 2.34 1.16 2.4.03.08.03.1.03.17a.46.46 0 01-.11-.14c-.2-.3-1.04-1.79-1.3-2.44a12.56 12.56 0 01-.97-4.6c0-6.9 5.58-12.5 12.48-12.5 6.16 0 11.13 4.28 12.18 10.02 0 .05.02.1 0 .15zM2.29 19.44c-.42-.88-.87-2.1-1.05-3.08v-.15c.04.04.05.08.08.15.29.89.54 1.7 1.2 2.9l-.23.18zm.23-.11l8.93-6.42-.76-.44-7.96 6.62c-.89-1.62-1.51-3.7-1.51-5.68a11.32 11.32 0 0111.3-11.37l-1.63 10.13.76.44 1.02-10.56c.02-.14.11-.14.11 0l.06 11.14 1.81-1.07-1.73-10.08c6.2.17 11.34 5.17 11.34 11.35 0 2-.6 4.08-1.52 5.7l-7.94-6.61-.77.44 8.54 6.19c.2.15.15.21-.07.09l-9.6-5.53v2.07l9.62 3.68a11.4 11.4 0 01-9.81 5.38 11.3 11.3 0 01-9.76-5.39l9.63-3.67v-2.08L2.6 19.42c-.23.13-.3.06-.08-.1zm10.22 6.19c-4.79 0-8.54-2.49-10.33-5.91l.27-.1c.47.76 1.07 1.42 1.9 2.32 1 1.11 4.18 3.24 8.16 3.24a11.79 11.79 0 0010.05-5.55c.16-.05.2-.12.15-.26.96-1.68 1.61-3.8 1.61-5.87 0-1.3-.19-2.36-.5-3.3a12.96 12.96 0 00-.68-1.71.3.3 0 01-.04-.17.4.4 0 01.11.14c.19.34.6 1.17.8 1.7.26.73.73 1.72.73 3.34 0 6.64-5.43 12.13-12.23 12.13zm0-24.73A12.67 12.67 0 000 13.39C0 20.35 5.7 26 12.74 26c7.04 0 12.75-5.64 12.75-12.6 0-6.97-5.7-12.61-12.75-12.61z" mask="url(#b)"/>
    </g>
    <path fill="#b0b0b0" d="M20.14 16.8l-6.57-4.4-.54.3 7.08 4.15c.12.07.15.03.03-.05"/>
  </g>
</svg>
