<svg xmlns="http://www.w3.org/2000/svg" viewBox="0 0 28 28">
  <defs/>
  <g fill="#b0b0b0" fill-rule="nonzero">
    <path d="M20 .41H8.12L.41 8.13V19.9l7.66 7.69h11.8l7.72-7.72V8.07L19.99.41zm5.24 18.4l-6.42 6.43H9.18l-6.42-6.4V9.19L9.18 2.8h9.76l6.3 6.33v9.7z"/>
    <path d="M8.23 10.91L6.59 7.58 4.15 9.86v8.19l2.35 2.37v-7.96L8.54 17l2.31-6.06v12.7h2.6V4.3H10.7l-2.47 6.61zm7.03-6.6v19.33h2.97l5.62-5.6v-4.07h-4.33v2.35h1.61c.43-.07.46.43.15.8-.3.37-3.42 3.43-3.42 3.43V7.39l3.64 3.8v.93h2.35V9.95L18.29 4.3h-3.03z"/>
  </g>
</svg>
