<svg xmlns="http://www.w3.org/2000/svg" xmlns:xlink="http://www.w3.org/1999/xlink" viewBox="0 0 51 22">
  <defs/>
  <defs>
    <path id="a" d="M0 .78h50.38V22H0z"/>
    <path id="c" d="M0 22.22h50.38V1H0z"/>
  </defs>
  <g fill="none" fill-rule="evenodd" transform="translate(0 -1)">
    <path fill="#b0b0b0" d="M25.22 3.48a8.12 8.12 0 010 16.25 8.12 8.12 0 010-16.25m0 16.9A8.77 8.77 0 0034 11.61a8.77 8.77 0 00-8.78-8.78 8.77 8.77 0 00-8.77 8.78 8.77 8.77 0 008.77 8.77"/>
    <g transform="translate(0 .22)">
      <mask id="b" fill="#fff">
        <use xlink:href="#a"/>
      </mask>
      <path fill="#b0b0b0" d="M15.2 7.9a10.66 10.66 0 00-.43 1.67H3.17a53.26 53.26 0 01-1.45-1.68H15.2zm.81 8.76h-5.06A53.78 53.78 0 018.82 15h6.42c.2.58.47 1.14.77 1.67zM25.22 2.2a9.18 9.18 0 110 18.37 9.18 9.18 0 010-18.37zM35.21 15h6.36a53.06 53.06 0 01-2.13 1.67h-5A11 11 0 0035.2 15zm13.45-7.1a55.6 55.6 0 01-1.45 1.68H35.67a10.44 10.44 0 00-.43-1.68h13.42zm-4.96 5.22h-8c.08-.54.13-1.1.13-1.67h9.6a63.24 63.24 0 01-1.73 1.67zm-37.02 0a64.68 64.68 0 01-1.73-1.67h9.66c0 .57.05 1.13.14 1.67H6.68zM1.37 7.9a56.75 56.75 0 003.2 3.55c.53.54 1.1 1.1 1.71 1.67A58.25 58.25 0 008.39 15c.67.56 1.37 1.12 2.1 1.67a44.84 44.84 0 002.58 1.8h4.25a10.58 10.58 0 007.9 3.54c3.14 0 5.96-1.36 7.9-3.53h4.19A53.57 53.57 0 0050.38 6.15H34.45A10.6 10.6 0 0025.22.78a10.6 10.6 0 00-9.23 5.37H0s.48.66 1.36 1.74z" mask="url(#b)"/>
    </g>
    <mask id="d" fill="#fff">
      <use xlink:href="#c"/>
    </mask>
    <path fill="#b0b0b0" d="M24.11 13.9h1.11V9.36h-1.1zm-3.25 0L22 11.23v2.67h1.12V9.36h-1.23l-1.3 3-1.17-3h-1.26v4.54h.96v-2.73l1.08 2.73zm6.3-2.74l2.1 2.74h.86V9.36h-.96v2.76l-2.13-2.76h-.83v4.54h.95zm3.96 2.74h1.1V9.36h-1.1z" mask="url(#d)"/>
  </g>
</svg>
