<svg xmlns="http://www.w3.org/2000/svg" xmlns:xlink="http://www.w3.org/1999/xlink" viewBox="0 0 23 25">
  <defs/>
  <defs>
    <path id="a" d="M0 25h22.39V.64H0z"/>
  </defs>
  <g fill="none" fill-rule="evenodd">
    <path fill="#b0b0b0" d="M11.18 0L7.46 6.46l3.72 6.43 3.76-6.43zm0 12.89l3.76 6.43h7.45l-3.73-6.43zm-7.45 0L0 19.32h7.46l3.72-6.43zm-.33 8.3l-.64 1.4-.6-1.4h-.62v3.1h.55v-2.03l.67 1.47.7-1.47v2.02H4v-3.1zm1.1 3.1h.56v-3.1H4.5zm.81-3.1v.47h.67v2.62h.55v-2.62h.67v-.48z"/>
    <g transform="translate(0 -.64)">
      <path fill="#b0b0b0" d="M8.42 23.12c-.45-.22-.61-.33-.61-.55 0-.2.13-.3.38-.3.28 0 .42.24.42.5h.56c-.03-.53-.28-.98-.98-.98-.63 0-.94.34-.94.8 0 .45.28.7.7.95.58.33.71.41.71.6 0 .23-.16.36-.44.36-.33 0-.47-.27-.47-.55h-.53c.03.58.28 1.05 1 1.05.53 0 1-.3 1-.88 0-.5-.3-.72-.8-1m2.58.83c0 .33-.16.52-.46.52-.37 0-.53-.19-.53-.52v-2.13h-.56v2.13c0 .83.59 1.02 1.09 1.02.46 0 1.02-.22 1.02-1.02v-2.13H11v2.13zm1.92.5h-.45v-2.16h.42c.25 0 .44.11.44.39s-.16.39-.44.39h-.22v.5h.22c.33 0 .53.1.53.4 0 .34-.2.48-.5.48m.53-1.16c.13-.03.44-.28.44-.7 0-.5-.36-.77-.94-.77h-1.03v3.1h1.14c.55 0 .94-.36.94-.86a.78.78 0 00-.55-.77m5.74-.25h-1.11v-1.22h-.58v3.1h.58v-1.36h1.13v1.36h.55v-3.1h-.58z"/>
      <mask id="b" fill="#fff">
        <use xlink:href="#a"/>
      </mask>
      <path fill="#b0b0b0" d="M14.3 24.92h.56v-3.1h-.55zm6 0h.55v-3.1h-.55zm-3.88-1.83c-.45-.24-.62-.36-.62-.55 0-.2.17-.3.39-.3.28 0 .42.22.45.5h.52c-.03-.53-.27-.97-.97-.97-.64 0-.94.33-.94.8 0 .44.28.69.7.91.58.33.71.44.71.64 0 .22-.16.35-.44.35-.33 0-.47-.3-.47-.58h-.53c.03.61.28 1.06 1 1.06.53 0 1-.31 1-.86 0-.53-.3-.72-.8-1" mask="url(#b)"/>
    </g>
  </g>
</svg>
