<svg xmlns="http://www.w3.org/2000/svg" viewBox="0 0 40 34">
  <defs/>
  <g fill="#b0b0b0" fill-rule="nonzero">
    <path d="M26 0c-2.86 0-5.3 1.55-5.87 3.2v9.35c0 .13-.01.18-.15.18l-.91.01c-.16 0-.16-.07-.16-.18V3.21C18.3 1.55 15.66.05 13 .05V21.6c0 .82 1.43 1.55 2.65 1.55h7.85c1.04 0 2.49-.64 2.49-1.55V0zM24.5 3.84v14.66c0 .96-.45 1.06-1.64 1.06h-6.63c-.86 0-1.79.09-1.79-1.04V3.83c0-.6 1.17-.62 1.17 0v10.15c0 .32.05.36.37.36H23c.26 0 .37-.07.37-.35V3.83c0-.6 1.14-.59 1.14 0zM15.17 29.81h.04s-.19-.02-.04 0zm15.03-1c-.37 0-.67.23-.67.5 0 .28.3.5.67.5.37 0 .64-.2.64-.49 0-.27-.27-.5-.64-.5z"/>
    <path d="M37.45 30.38s-.3-.49-.44-.66c-.5-.6-1.22-.2-1.22-.2l.78-2.3-1.2-.04-1.18 3.23h-.86s-.53-.38.26-.9c-.61 0-1.65.03-1.65.03-.84.27-.2.87-.2.87h-1.4l.31-.87H29.5l-.38.85H27.7l.6-.86h-1l-.4.48-.33-.48h-1.5l.43.85h-1.37l-.45-.43.39-.4h-1.33l-.54.28.14-.27h-1.25l-.45.83H19.5s.25-.08.3-.32c.03-.23-.26-.14-.18-.3.08-.15.27-.25.27-.25h-1.93s-.28.07-.28.27.18.26.18.4-.43.2-.43.2h-1.05s.77-.89-.48-.95l-.77-.04-.64.04s-1.32.2-.58.81l.16.14-1.53.02s-.55.11-.2-.54c.36-.66 1.12-2.12 1.12-2.12s.14-.65-.5-.43c-.63.21-2.04.75-2.04.75l.26-.53s-.02-.5-.6-.32c-.57.18-2.12.83-2.12.83l.24-.65s.22-.4-.18-.39c-.22-.04-.43.06-.56.11-.97.38-3.8 1.1-7.83 5.28-.44.45.31.61.31.61l2.39.1.31-.47-1.86-.18s-.48-.14-.18-.44 2.42-2.55 5.65-4.03c.74-.21.36.28.36.28l-1.4 2.69h1.06l1.25-2.41 1.35-.38s.4-.02.24.34c-.16.35-1.29 2.45-1.29 2.45h.95l1.41-2.41 1.2-.36s.47.1.29.42l-1.1 1.82s-.47.5.38.53c.86.02 28.54 0 28.54 0v-.58h-2.55zm-22.14-.52l-.1.24s-.06.22-.2.16c-.12-.06-.06-.2-.06-.2.05-.1.12-.4.17-.5.04-.06.07-.03.11-.03.02 0 .08.06.1.07.08.01.03.13-.02.26zm6.62.52l.18-.34.24.35-.42-.01zm13.49 0c.2-.2.36-.24.48-.24.22 0 .3.24.3.24h-.78z"/>
  </g>
</svg>
