<svg xmlns="http://www.w3.org/2000/svg" viewBox="0 0 30 25">
  <defs/>
  <g fill="#b0b0b0" fill-rule="evenodd">
    <path d="M20.13 11.42c-.46 0-1.19-.12-1.17.59h1.9c.14-.5-.39-.61-.73-.59z"/>
    <path fill-rule="nonzero" d="M28.61 9.34l-1.27-.19A13 13 0 0014.7 0 13 13 0 002.1 9l-1 .2c-.92.17-1 .82-1 .86a24.91 24.91 0 000 4.57.9.9 0 00.93.95c.31.07.65.13 1 .18A13 13 0 0014.7 25a13 13 0 0012.62-9.12l1.24-.17c.74-.07.75-.95.75-1a44.32 44.32 0 000-4.44c.02-.91-.7-.93-.7-.93zM14.7 3.05a9.94 9.94 0 019.12 5.73 146.14 146.14 0 00-18.16-.17 10 10 0 019.04-5.56zm7.15 9.67v1.33a7.08 7.08 0 01-.92 0c-.05-.45 0-.84-.05-1.3a17.57 17.57 0 00-1.92 0 8 8 0 000 1.09c0 .15-.06.24-.22.23a1.55 1.55 0 00-.48 0 .23.23 0 01-.28-.22 16.66 16.66 0 01.02-2.54.63.63 0 01.33-.46 1.21 1.21 0 01.56-.13h1.51c.51 0 1.22 0 1.39.51.08.5.1 1 .06 1.49zm-7.2-1a26.34 26.34 0 012.66 1.07c.19.1.19.39.2.58a.73.73 0 01-.3.57.75.75 0 01-.47.12h-3.3a4.15 4.15 0 010-.71h2.67c.18 0 .17-.23 0-.28-.73-.24-1.36-.51-2.08-.75a.79.79 0 01-.53-.55.69.69 0 010-.47c.29-.85 1.26-.55 2-.59.74-.04 1.4 0 2.07 0 .02.24.02.47 0 .71h-2.83c-.2.01-.27.23-.09.31v-.01zm-5.76 1.64h2.68c.18 0 .16-.23 0-.28-.73-.24-1.36-.51-2.07-.75a.76.76 0 01-.5-.55.69.69 0 010-.47c.29-.85 1.26-.55 2-.59.74-.04 1.4 0 2.07 0 .02.24.02.48 0 .72h-2.84a.39.39 0 00-.2.06c-.11.07 0 .23.1.26.66.16 1.25.53 1.91.67.66.14 1.38.89.63 1.56-.08.06-.08 0-.16 0h-3.6c-.04-.14 0-.39-.02-.63zm-.44.69h-1v-3.34a7.85 7.85 0 011 0v3.34zM5 13.58c-.28-.6-.58-1.12-.85-1.71-.07-.14-.3-.16-.31 0v2c0 .14 0 .25-.21.23a1.21 1.21 0 00-.38 0c-.19 0-.25-.1-.25-.25V11.5a.66.66 0 01.23-.58 1.13 1.13 0 011.07-.12c.23.09.41.27.5.5.28.6.58 1.1.89 1.74.1.22.39.13.38-.12-.05-.77 0-1.43 0-2.19h.84v2.64a.61.61 0 01-.22.49A1.18 1.18 0 015 13.58zm9.7 8.34a9.94 9.94 0 01-9.13-5.75 155 155 0 009.25.34c3.49.06 6.61-.1 9-.3a9.94 9.94 0 01-9.12 5.71zm11.47-8.15a1.17 1.17 0 01-1.7-.1c-.36-.58-.62-1.21-.95-1.79 0-.07-.1-.17-.18-.15a.24.24 0 00-.13.24v2.08h-.83v-2c0-.34-.1-.74.12-1a1.09 1.09 0 011.13-.27 1 1 0 01.56.52c.29.61.62 1.19.94 1.81a.17.17 0 00.31-.09v-2.28h.84v2.54a.74.74 0 01-.11.49z"/>
  </g>
</svg>
