<svg xmlns="http://www.w3.org/2000/svg" xmlns:xlink="http://www.w3.org/1999/xlink" viewBox="0 0 33 26">
  <defs/>
  <defs>
    <path id="a" d="M0 .53h32.9V26H0z"/>
  </defs>
  <g fill="none" fill-rule="evenodd">
    <path fill="#b0b0b0" d="M9.62 16.52l16.12-.18a10 10 0 01-9.3 6.36c-5.4 0-9.8-4.31-9.96-9.67l5.33.23-2.62 2.03a.69.69 0 10.42 1.23zm4.1-3.87L5.8 12.3v.43a10.67 10.67 0 0020.91 2.91l-17.09.2 4.11-3.19z"/>
    <g transform="translate(0 -.53)">
      <mask id="b" fill="#fff">
        <use xlink:href="#a"/>
      </mask>
      <path fill="#b0b0b0" d="M32.2 16.12l-4.06.06A12.05 12.05 0 014.4 13.27c0-.16 0-.32.03-.48l-3.74-.16v-2.17l4.06-.05a12.05 12.05 0 0123.74 2.86c0 .18 0 .37-.03.56l3.74.16v2.13zm.03-2.82l-3.05-.13A12.75 12.75 0 0016.45.53 12.58 12.58 0 008.53 3.3a12.83 12.83 0 00-4.31 6.43l-3.54.05a.69.69 0 00-.68.68v2.17c0 .37.29.67.66.69l3.05.13A12.75 12.75 0 0016.45 26a12.73 12.73 0 0012.22-9.14l3.54-.05a.69.69 0 00.68-.69V14a.7.7 0 00-.66-.7z" mask="url(#b)"/>
    </g>
    <path fill="#b0b0b0" d="M21.1 12.29l2.7-2.06a.69.69 0 00.24-.77.7.7 0 00-.65-.46l-16.25.18a9.98 9.98 0 0119.27 3.35l-5.3-.24zM16.45 2.08c-4.9 0-9 3.28-10.26 7.8l17.2-.19-4.22 3.2 7.93.35v-.5c0-5.88-4.78-10.66-10.65-10.66z"/>
  </g>
</svg>
