<svg xmlns="http://www.w3.org/2000/svg" viewBox="0 0 34 25">
  <defs/>
  <g fill="#b0b0b0" fill-rule="evenodd">
    <path d="M20 6.18l.38.19.41-1.19a9.48 9.48 0 01-.31-.77l-.22.72c-.07.24-.2.61-.22.72a.27.27 0 01-.26.2.63.63 0 01-.22-.05c-.06.26-.12.44-.18.64l-.16.55 1 1.5-.64-.94c.21-.75.3-.9.42-1.57zM10.64 15c.17.04.34.1.5.18a3 3 0 00-.71-.47l.21.29zm8.02-2.56a.35.35 0 01.09.06l-.09-.06zM12.65 7.9h1.56l-.32-.38h-1.56a1.21 1.21 0 01-1.08.69h.09c.08.09.26.37.26.37a1 1 0 001.05-.68zm-1.77-.09c-.16 0-.35.09-.41.25l-.08.22c.1.1.21.2.34.26a.67.67 0 01.47-.32h-.31v-.41h-.01zM22 4.28a1.43 1.43 0 01-.14-.34 2.15 2.15 0 01.25-1.55.28.28 0 00-.15 0 .49.49 0 00-.38.27c-.19.34-.18.61 0 1.37.15.5.5 1.37.71 1.9v.12a7.72 7.72 0 01.51 1.64 2 2 0 01-.37 1.55A2.62 2.62 0 0121 10c.16.33.3.66.42 1a.62.62 0 00.3.37l-.38-.93a2.78 2.78 0 001.63-.85 2 2 0 00.46-1.27 11.84 11.84 0 00-1.23-3.66c-.06-.08-.12-.22-.2-.38zm-10.22.56l-.32-.43a2.11 2.11 0 01-.47 0 3.85 3.85 0 01-.65 0l.23.32a2.21 2.21 0 001.21.11zm3.68-2.72h.2a.82.82 0 00.28 0 .56.56 0 00-.77 0h.29zm7.64 14.1c.14 0 .21-.19.17-.37A7.62 7.62 0 0123 15v-2.52a4.91 4.91 0 01-.4-.55v2.53c0 .2.05.38.15.55a.56.56 0 010 .53.31.31 0 01-.27.17h-.05l-.37-.07a6 6 0 00-.91-.11 3 3 0 00-1.21.3l-.11.05-.1-.07a3 3 0 00-1.14-.46l.31.42a2.73 2.73 0 011.49.52 3.66 3.66 0 012.71-.07zM9.84 3.93h.05l.16-.13a.49.49 0 00-.38-.19H9.6l.22.32h.02zM24.19 6c.2-.15-.28-.92-.27-1.08a1.6 1.6 0 01.08-.46c.05-.17.13-.42.18-.67a2 2 0 00-.49-1.55c.1.29.14.6.1.9a4 4 0 01-.15.6.56.56 0 000 .12 1.81 1.81 0 00-.09.37 2.7 2.7 0 00.13.33c.16.35.33.71.06.92a.31.31 0 01-.17 0h-.17c.12.1.23.18.36.26 0 0 .35.26.43.26zm-3.75-3.76a4.64 4.64 0 00-.26-.44l.23.49.03-.05z"/>
    <path d="M17.75 11.79s.67.49 1 .71c.41.29.85.55 1.3.78a.9.9 0 01.22-.06.46.46 0 00-.07-.26.37.37 0 00-.31-.14h-.51a17.56 17.56 0 01-1.5-.95l-.43-.32-.23-.17a23.42 23.42 0 00-2.77 2.89.66.66 0 000 .59.62.62 0 010 .55.32.32 0 01-.26.15h-.1a5.7 5.7 0 00-1.63-.29 1.57 1.57 0 00-.83.18c.16.12.3.27.43.43.66-.43 2.13 0 2.67.14.16.06.28 0 .27-.26-.01-.26-.25-.57-.12-1 .17-.63 1.92-2.07 2.87-2.97z"/>
    <path d="M9.36 3.38a1.88 1.88 0 01.28 0 .84.84 0 01.71.46l-.14.11-.2.16c.13.06.27.1.41.11h.54a1.3 1.3 0 00.55-.09l.51.67c.26.35.54.68.83 1a4.86 4.86 0 01-1.12.11L10.31 6a.82.82 0 00-.71.51 2.59 2.59 0 00-.14.94l.2-.07c0 .08.08.14.11.19.15.26.21.35.48.45.15-.38.64-.42.81-.42h.06V8c1 0 1-.69 1-.69h1.85l.51.61.66.81a16.17 16.17 0 00-2.35 3.56.59.59 0 01-.35 1h-.06c-.32 0-.67-.23-1.07-.23h-.22c-.64.14-.51.66-1 1.33l.33.11c.4.16.77.42 1.05.75.29-.16.62-.24.95-.22a5.85 5.85 0 011.7.3c.1 0 .14-.2.06-.37a.93.93 0 010-.78 25.48 25.48 0 013-3.09l.78.57c.63.46 1.47 1 1.47 1h.62l.1.05.07.05a.64.64 0 01.2.48.39.39 0 010 .16.64.64 0 01-.08.14l-.1.08h-.13a.59.59 0 01-.19 0 1.5 1.5 0 00-1 .07c-.42.23-.24 1-.49 1.34.16 0 .32.02.47.06.37.1.73.25 1.05.47a3.53 3.53 0 012.63-.13c.08 0 .13-.22 0-.37a1.38 1.38 0 01-.18-.68v-2.69a1.5 1.5 0 01-.57 0 .8.8 0 01-.38-.19l-.1-.11a1 1 0 01-.13-.27c-.1-.3-.37-.89-.55-1.27A2.9 2.9 0 0022 9.39a1.48 1.48 0 00.37-.34 1.23 1.23 0 00.21-.34 1.74 1.74 0 00.13-1 6.79 6.79 0 00-.49-1.63c-.2-.53-.61-1.45-.77-2a4.49 4.49 0 01-.21-.91V3a1.35 1.35 0 01.17-.5.69.69 0 01.59-.37.63.63 0 01.22.05c.24.12.18.19.16.23a2.14 2.14 0 00-.2.4 1.76 1.76 0 00-.09 1.07c.12.34.32.65.58.9.12.11.25.22.38.31 0 0 .42.27.5.2.08-.07-.31-.85-.29-1.08a1.7 1.7 0 01.1-.42 4 4 0 00.18-.69 1.56 1.56 0 00-.41-1.28 1.24 1.24 0 00-.77-.39 1.56 1.56 0 00-1.62.71 1.43 1.43 0 00-.17.37 1.48 1.48 0 00-.09.55 12.14 12.14 0 00-1-2 3.6 3.6 0 00-.34-.39 1.36 1.36 0 00-.29-.26 13.67 13.67 0 00-1.7-.41 12.47 12.47 0 00-1.83.65l-.19.2c-.4.07-.8.16-1.19.28a.37.37 0 000 .47s.14.47.36.47h.6a.77.77 0 01.66-.36.74.74 0 01.71.5h-.09c-.16.08-.34.12-.52.12h-.46a1.86 1.86 0 00-.65.11c-.09 0-.14.07-.14.09 0 .02.62.15.78.16h1a1.27 1.27 0 01-.1.12 1.11 1.11 0 01-.67.23h-.95c.04.2.13.38.24.54h.39c.18 0 .2.06.17.14a.93.93 0 010 .13c0 .07-.05.14-.09.22a2 2 0 01-.48.76c-1-.84-2.26-1.89-3.17-2.56a2.68 2.68 0 00-1.19-.22 2.2 2.2 0 00-.72.1.66.66 0 00-.32.29l.27.08a.63.63 0 00-.21.86zm10.81 5.54h-.08c-.31-.44-.85-1.24-1.13-1.67.2-.71.29-.88.45-1.56.13.07.26.13.4.17.07-.3.56-1.71.65-2.17l.17.5c.08.25.18.48.27.71l.43 1a7.33 7.33 0 01.5 1.6c.1.34.05.7-.12 1a1.24 1.24 0 01-.43.35l-.16.07h-.95zm-4.45-7.77a.79.79 0 010-.38 7.83 7.83 0 01.79-.08.15.15 0 01.08 0 .13.13 0 010 .22c-.19.08-.53.2-.81.29a.64.64 0 01-.06-.05zm10.53 18.94a2.35 2.35 0 00-2.42 2.52 2.22 2.22 0 002.47 2.32 2.37 2.37 0 002.44-2.58 2.22 2.22 0 00-2.49-2.26zm.07 4.28c-.77 0-1.25-.63-1.27-1.75-.02-1.12.42-1.95 1.25-2 .83-.05 1.21.77 1.24 1.86.01.71-.2 1.89-1.22 1.89zm-8.65-.12h-.05a1.46 1.46 0 01-.76.06 1.65 1.65 0 01-1.32-1.79 1.83 1.83 0 011.69-1.79 3.54 3.54 0 011.33.18l.18-.55a4 4 0 00-1.61-.29c-2.17 0-2.88 1.45-2.88 2.43a2.38 2.38 0 002.66 2.41 4 4 0 001.95-.43v-1.93h-1.19v1.7zm11.2-3.37h1.45v3.84h1.22v-3.84h1.5v-.62h-4.17zM3.8 20.43a3.09 3.09 0 00-1.43-.17H0v4.46h1.28v-1.64h1.2c1.11 0 2-.24 2-1.53a1.31 1.31 0 00-.68-1.12zm-1.62 2.14h-.91v-1.76h1a.94.94 0 011 .88 1 1 0 01-1.09.88zm10.24.75a.93.93 0 01-1 1 1 1 0 01-1-1.05v-3H9.31V23c-.06.5.1 1 .44 1.36a2.12 2.12 0 001.71.62 2.17 2.17 0 001.71-.65A1.6 1.6 0 0013.6 23v-2.74h-1.18v3.06zm-7.38 1.4h3.44V24H6.25v-1.45h1.8v-.54h-1.8v-1.12h2.23v-.63H5.04zm14.85 0h3.43v-.7h-2.23v-1.45h1.8v-.54h-1.8v-1.12h2.23v-.65h-3.43z"/>
  </g>
</svg>
