<svg xmlns="http://www.w3.org/2000/svg" viewBox="0 0 20 26">
  <defs/>
  <g fill="#b0b0b0" fill-rule="evenodd">
    <path d="M.66 2.09C1.74 1.6 2.86 1.27 4 1.02a27.3 27.3 0 017.1-.63c2.36.11 4.7.36 7 1 .36.1.72.24 1.08.39.07.02.16.13.16.2V4.8c0 .04-.05.05-.1.03l-1.1-.4a26.1 26.1 0 00-4.46-1.07l-.18-.03a18.57 18.57 0 00-3.14-.19c-.36.01-.36.01-.36.37v1.62c-.01.2.04.26.25.26h8.94a.09.09 0 01.1.08v.05a.1.1 0 01-.1.1h-8.93c-.3 0-.3 0-.3.3V7.9L10 8c.02.05.07.07.11.04a.7.7 0 01.1-.05.37.37 0 01.14-.04c.17 0 .24-.07.2-.21-.01-.05-.01-.1.01-.12l.05-.04a.16.16 0 01.02-.02c.02-.01.05.02.09.06.1.12.2.13.25.01.04-.12.05-.25.12-.37l-.06-.07a.1.1 0 00-.13 0 .56.56 0 00-.08.1l-.04.1c-.01.06-.04.09-.07.08-.02 0-.03-.05-.03-.09a.68.68 0 01.02-.08c.02-.06.07-.14.05-.16-.05-.06-.12-.08-.2-.12l-.07-.05c-.04-.02-.04-.06 0-.1.08-.08.1-.16.05-.25-.02-.04-.09-.06-.14-.04-.05.02-.09-.01-.09-.06a6.72 6.72 0 01-.02-.4c0-.04.05-.08.08-.1.03 0 .09.01.1.04a.51.51 0 01.06.08c.02.04.07.05.1.01l.14-.14.06-.05c.02-.03.06-.05.07-.04.01.01 0 .05-.02.08a.23.23 0 00-.03.05c-.01.06-.03.14 0 .17.02.04.11.07.15.05.05-.03.09-.1.11-.16a.89.89 0 00.05-.14c0-.05.05-.06.08-.02.09.1.16.18.26.1.04-.02.08-.02.1.02.05.09.1.17.23.1l.07.03c.07.08.17.13.25.03.03-.04.03-.1.03-.17 0-.05.03-.1.07-.1.03 0 .05.04.05.1l-.01.08c0 .06-.02.13 0 .19 0 .03.11.06.13.04a.42.42 0 00.1-.16l.06-.14c.01-.04.05-.06.1-.02l.08.08a.09.09 0 00.13 0L13 6a.18.18 0 01.15-.06l.52.1c.05 0 .07.05.05.1a.38.38 0 00-.03.12.36.36 0 00.04.15.1.1 0 00.12.06c.03-.01.07-.02.08-.04l.11-.42c.02-.04.07-.07.12-.07.14.01.3-.03.45.09.04.02.12 0 .22-.04.05-.01.08.02.06.06l-.09.23-.02.05c.05.06.1.14.17.18a.51.51 0 00.26.08c.12 0 .2-.06.16-.2 0-.04.03-.08.04-.11.02-.07.06-.14.04-.2-.04-.1-.12-.13-.22-.06L15.2 6a.05.05 0 01-.02-.05c0-.02.04-.03.1-.03.12 0 .25 0 .34.06.08.06.15.08.2.06.05-.02.1-.03.14 0 .06.05.11.1.15.09.06-.01.11-.07.18-.14.03-.04.1-.06.13-.05a.63.63 0 00.16.02c.19 0 .38.04.55.15.04.03.14-.04.2-.08a.1.1 0 00.03-.05c.02-.03.03-.02.04.03l.02.14c0 .05.05.1.1.1.13 0 .16-.11.16-.25 0-.05.03-.08.08-.06l.1.04c.03.02.08.07.1.06.13-.07.2.02.31.08.04.02.13-.06.2-.1l.04-.06c.02-.02.03 0 .01.04-.06.15 0 .18.21.23.11.02.2.14.32.08.04-.03.08-.02.1.02v.02a.17.17 0 01-.03.16c-.1.11-.1.14.06.27.04.03.03.06-.02.07l-.18.06c-.01 0-.01.12.02.14.04.03.1.05.19.08.05.01.1.06.08.1-.05.1-.2.2-.05.3.04.04.04.05-.01.07-.2.05-.11.25-.17.38-.02.05-.01.07.04.07h.06c.05 0 .1-.03.1-.08 0-.04 0-.08.03-.08.02 0 .03.03.04.09v.21a.1.1 0 01-.08.1.94.94 0 01-.14.01H14c-.19 0-.26.03-.25.23.02.55.03 1.1.02 1.64 0 .22.09.27.29.27l4.9-.01h.17a.11.11 0 01.1.09l.02.06c0 .04-.03.09-.08.1a2.42 2.42 0 01-.19 0h-4.9c-.3 0-.3 0-.3.31l.02 1.96c0 .23.02.24.22.14.03-.02.08.01.12 0l.13-.06c.04-.02.05-.07.02-.11-.02-.04-.05-.08-.08-.1l-.06-.06c-.04-.03-.02-.04.03-.03.18.07.19.04.26-.23 0-.03.04-.04.04-.07.02-.06.05-.15.02-.19-.02-.04-.08-.05-.15-.07-.05-.02-.09-.06-.09-.09v-.06c.02-.07.09-.18.06-.2-.04-.05-.1-.07-.17-.1a.13.13 0 01-.08-.12l.03-.26a.07.07 0 01.1-.07l.08.02c.05.01.12.05.16.03.05-.03.1-.1.1-.16-.01-.14.03-.16.11-.13.05.01.06.06.03.1-.08.09-.13.18-.06.27.02.05.06.07.06.07l.08-.03c.08-.02.13-.08.1-.2 0-.04.03-.08.06-.12.03-.04.07-.04.1 0v.03c.03.04.09.09.14.09.1 0 .13-.04.15-.18a.1.1 0 01.1-.07c.15 0 .3-.02.43.09a.21.21 0 01.05.07.47.47 0 01.09 0h.1c.04 0 .06.04.02.07a.28.28 0 00-.05.08c-.02.05-.03.12-.01.16.02.04.1.08.13.07.05 0 .12-.06.14-.1.04-.12.06-.24.09-.37a.1.1 0 01.1-.08l.6.1c.05 0 .1 0 .1-.03 0-.01.02.01.04.06 0 0 0 .03.02.04l.05.1H17.46c.05-.01.08.01.06.05a.47.47 0 00-.03.07c-.01.07-.04.15-.02.2.02.04.13.07.17.05.04-.03.06-.11.08-.18l.03-.12.04-.11a.09.09 0 00-.06-.11l-.12-.04a.14.14 0 00-.03 0c-.02 0-.03-.02-.03-.04 0-.01.04-.03.09-.02.08 0 .17 0 .26.02l.27.05a.35.35 0 01.16.07c.13.11.16.1.28-.05a.2.2 0 01.14-.07c.13 0 .28-.04.4.03.04.02.06.07.06.1h-.1a2.09 2.09 0 01-.23-.08c-.14-.07-.2.01-.23.12-.01.05 0 .1-.02.15-.01.08-.06.18-.03.24.02.04.1.05.18.06.05.01.08.06.06.1l-.02.07c-.01.06-.04.13-.02.18.02.04.12.08.15.07.05-.04.07-.12.1-.18.02-.04.02-.1.05-.13.1-.15.06-.24-.12-.26h-.1a.2.2 0 01-.02-.07c-.01-.04 0-.06.04-.06h.05l.21.1a.11.11 0 01.06.13 3.14 3.14 0 00-.1.38.26.26 0 00.01.13.17.17 0 01-.03.15c-.05.05-.1.1-.09.13.01.05.07.1.13.15a.2.2 0 01.07.15l-.04.6a.1.1 0 01-.1.09h-.25l-4.77.01c-.17 0-.24.06-.24.23-.04 1.6-1.32 2.9-2.72 3.32a3.22 3.22 0 01-.71.16c-.23.02-.28.12-.28.32l.01 3.62v3.87c-.01.05-.06.1-.1.06-.09-.05-.07-.15-.07-.24 0-.73 0-1.46-.02-2.19v-.84c-.01-.28-.05-.32-.34-.32H4.22c-.08-.01-.16-.05-.23-.1-.05-.02-.08-.06-.07-.08 0-.03.05-.05.1-.05H9.6c.3 0 .3 0 .3-.3v-1.9c0-.26 0-.27-.27-.27l-7.19.04c-.26 0-.3-.02-.35-.26-.01-.05.02-.08.07-.07l.13.02c.06.01.13.04.18.02.04-.01.1-.12.08-.14a.37.37 0 00-.18-.13l-.35-.1a.1.1 0 01-.07-.11L2 17.7v-.08l.04-.08.03-.06a.09.09 0 00-.04-.12 1.14 1.14 0 00-.13-.06c-.12-.05-.26-.07-.36-.14-.1-.07-.05-.1 0-.15.04-.03.06-.1.05-.16-.03-.12-.13-.15-.28-.1-.05 0-.07-.02-.05-.07a.07.07 0 01.01-.01.1.1 0 01.13-.05c.08.03.14.06.2.05.03-.01.06-.08.08-.15a.13.13 0 01.12-.07l.25.03a.26.26 0 01.15.07c.1.1.13.08.25-.06.03-.04.05-.03.05.02.01.16.07.2.25.16.05-.01.07.01.06.06l-.04.14c-.02.06-.04.13-.02.18.01.04.1.08.13.07.05-.03.09-.09.11-.14.04-.07.07-.15.09-.23.01-.04.03-.1.01-.11-.05-.05-.11-.07-.17-.1a.5.5 0 00-.07-.03c-.04-.01-.07-.04-.06-.06 0-.03.05-.04.1-.03.13.01.26.02.34.09.16.13.24.1.3 0 .03-.03.06-.03.07.01a.41.41 0 00.09.16h.09a.26.26 0 01.17.01l.25.14c.05.02.08.06.07.08 0 .02-.04.04-.08.04-.03 0-.06 0-.07-.02-.08-.07-.15-.12-.23-.03-.03.04-.05.13-.03.14a.5.5 0 00.15.06.78.78 0 01.16.06c.05.03.1.06.15.05.1-.01.13-.1.08-.21-.01-.02.05-.07.08-.1.02-.05.06-.12.05-.15-.03-.05-.1-.08-.14-.1a.58.58 0 00-.08-.04c-.04-.01-.07-.05-.05-.08.01-.03.06-.04.1-.01.17.07.31.15.46.16.13.01.17-.07.14-.17-.01-.05 0-.08.06-.08h.38c.01 0 .03.11.03.17-.01.07-.07.16-.05.2.04.04.13.05.2.08.03.01.08.03.08.05 0 .03 0 .06-.02.1-.01.06-.04.06-.07.03-.02-.04-.04-.06-.06-.07-.06-.02-.13-.04-.18-.03-.04.02-.07.12-.05.16.02.05.1.07.16.1l.17.07c.1.07.22.02.2-.07-.02-.13.04-.2.1-.25a.08.08 0 000-.13 1.56 1.56 0 00-.13-.1.19.19 0 00-.06-.03c-.03-.01-.05-.06-.03-.1.02-.04.04-.03.08 0 .1.1.29.03.37.13.04.03.08.07.13.04.1-.04.17-.1.08-.24-.03-.04-.01-.07.04-.08.06 0 .11-.01.13.01.14.13.23.1.34.02.03-.04.05-.03.03.02-.05.1-.1.2-.11.3 0 .04.03.07.07.11a.1.1 0 00.14 0 .52.52 0 00.1-.1.2.2 0 00.02-.07c0-.05.04-.07.09-.04.17.08.32.17.47.18a.34.34 0 01.2.07.35.35 0 00.16.07h.12c.05 0 .1.02.1.03.01.02 0 .04-.04.06a.2.2 0 00-.05.05l-.04.14c.14.08.28.17.43.2.04.02.1-.07.18-.17a.15.15 0 01.14-.04l.36.1.12.03.09.02c.04.02.06.06.04.1a.24.24 0 00-.03.07c-.02.07-.02.18 0 .2.21.07.17.27.21.43l.02.05c.01.02.06.05.1.05.08-.01.1-.07.1-.16v-.85c0-.12-.04-.18-.18-.2a4.2 4.2 0 01-2.26-.95.51.51 0 00-.31-.1l-5.78.03c-.17 0-.27-.03-.29-.21 0-.05.04-.1.1-.1h5.76c.05 0 .1 0 .1-.02s-.02-.07-.06-.1c-.4-.4-.57-.92-.66-1.46a4.5 4.5 0 01-.07-.75L6.2 8.46c0-.34 0-.34.33-.34h3.03c.2 0 .25-.06.25-.25a552.1 552.1 0 01-.04-4.46c0-.18-.05-.26-.25-.25-2.84.1-5.6.54-8.23 1.64-.26.1-.5.21-.77.33-.04.02-.08 0-.09-.05a1.13 1.13 0 010-.08V2.46c0-.19.05-.3.23-.37M19.18 13.8c-.23 1.87-.8 3.63-1.8 5.23-.83 1.31-1.78 2.5-3 3.46-1.18.9-2.41 1.7-3.75 2.31l-.18.08c-.04.01-.08-.01-.08-.06v-7.36c0-.05.04-.1.1-.1.13.03.3.17.4.04.02-.05.07-.07.12-.06.11.05.22.1.31.08.07-.02.1-.15.15-.28a.23.23 0 01.12-.12 4.65 4.65 0 001.52-1.1.39.39 0 01.14-.08 4.5 4.5 0 014.06.26l.34.24c.04.03.07.01.07-.04 0-.1 0-.2-.03-.27a2.4 2.4 0 00-.36-.48c-.13-.14-.14-.22.05-.3.2-.1.39-.17.63-.27.05-.01.05-.05 0-.08-.06-.05-.1-.1-.16-.1-.34-.04-.66-.03-.9.26-.07.08-.2.19-.27.17-.18-.04-.36-.13-.54-.21-.01 0 0-.14.03-.18.14-.16.3-.31.46-.46a.69.69 0 01.15-.1c.04-.02.05-.07.01-.1a.63.63 0 00-.72 0c-.17.13-.34.3-.45.5-.12.2-.23.33-.5.3l-.22.01a.07.07 0 01-.07-.08 1.08 1.08 0 01.54-.77c.05-.03.05-.06 0-.09s-.08-.05-.11-.05c-.54 0-.93.3-1.07.8-.11.38-.14.42-.52.48-.05 0-.07-.03-.05-.07.07-.13.15-.25.19-.39.1-.35.17-.71.24-1.08.03-.11.06-.16.19-.16h4.77c.16 0 .2.07.19.22M9.7 21.98c-.08.08-.23.14-.15.27.02.04.02.09-.02.12-.13.1-.12.13.06.3.04.03.05.05.02.05a.15.15 0 00-.04 0c-.06 0-.14-.02-.18.01-.04.03-.07.12-.05.16.03.04.1.07.17.1.04.02.1.01.12.04.02.02-.02.08-.03.13l-.01.18c0 .05-.02.12-.07.15-.06.04-.12.08-.07.2.01.02-.03.06-.04.09-.02.07-.08.18-.06.2.05.04.11.06.2.08.04.02.07.06.07.1 0 .03-.03.04-.08.01l-.08-.03c-.04-.02-.12-.03-.14-.01-.04.04-.09.11-.08.17 0 .04.08.1.13.11.06.03.13.04.2.05.04.01.08.05.07.07-.01.03-.06.04-.1.02l-.21-.07-.45-.12h-.1c0 .01-.02 0-.03-.04-.02-.03-.08-.06-.13-.07H8.5c-.05 0-.08-.05-.06-.1a.42.42 0 00.02-.09c.01-.06.02-.13 0-.18-.01-.04-.1-.08-.13-.07-.05.03-.1.1-.13.15l-.03.07c-.02.05-.05.06-.09.02a.36.36 0 00-.15-.07 8.07 8.07 0 00-.12-.02c-.05 0-.07-.05-.05-.1l.18-.4c0-.03-.02-.07-.05-.1a.1.1 0 00-.13-.03c-.04.03-.07.05-.08.08-.04.14-.05.3-.1.44 0 .01-.02.02-.05.02-.04 0-.07-.04-.06-.09.02-.1.03-.19.01-.26-.02-.07-.3-.11-.47-.1a.14.14 0 01-.12-.06c-.06-.09-.14-.12-.27-.07-.05.02-.07 0-.06-.05a1 1 0 01.06-.17c.06-.14-.01-.2-.12-.24-.08-.03-.18-.09-.25-.07a.63.63 0 00-.21.1c-.04.02-.07 0-.06-.05l.06-.25c.02-.06.06-.14.04-.18-.03-.05-.13-.09-.17-.07-.05.02-.08.1-.1.17a.44.44 0 00-.03.07c-.02.04-.05.07-.07.07-.02 0-.04-.05-.03-.1a.43.43 0 01.01-.1l.13-.42c.03-.11-.06-.15-.16-.13-.05.01-.1 0-.12-.03-.02-.04-.02-.08 0-.08a.07.07 0 01.03 0c.17.01.36-.02.51.11.03.03.09 0 .14-.02.05-.02.12 0 .15.04l.06.05a.08.08 0 00.12 0l.12-.17c.03-.04.08-.04.13-.03.12.04.3 0 .42.14.07.08.22.1.34.11.05 0 .11-.09.16-.15l.07-.1c.02-.04.06-.06.07-.05.02.01.01.06-.01.1l-.07.12a.11.11 0 00.03.14l.08.05c.04.03.08.02.1-.03l.04-.16c.01-.05.04-.12.09-.15.04-.03.09 0 .12.06.02.04.07.07.12.05l.1-.04a.13.13 0 01.14.04l.05.07c.03.04.08.04.11 0s.07-.08.1-.14c.04-.04.1-.07.13-.06.04 0 .04.03 0 .06a.27.27 0 00-.05.05c-.03.04-.07.12-.05.14a.41.41 0 00.16.1l.18.04c.05.02.12.08.15.06a.27.27 0 00.1-.16c.03-.17.05-.21.18-.17.04.02.07.08.04.12m-4.42-.14l-.1.4c0 .04-.03.08-.05.08-.02 0-.03-.04-.03-.1V22c0-.06.02-.13.06-.16l.04-.05c.03-.04.07-.06.08-.05.02.01.02.06 0 .1M.6 13.2C.56 12.11.5 11.02.47 9.94.44 8.5.44 7.08.42 5.65c0-.16.05-.23.2-.3 1.7-.81 3.48-1.38 5.35-1.64 1.1-.15 2.22-.22 3.33-.32h.18c.05 0 .1.04.1.1v4.34a.09.09 0 01-.1.1H6.63c-.05 0-.07-.04-.03-.08.13-.12.32-.12.47-.2.04-.03.04-.08 0-.1-.23-.13-.62-.08-.86.11-.08.07-.16.15-.21.23-.11.17-.25.25-.46.24-.14 0-.28 0-.44.03-.04 0-.08-.04-.07-.09.05-.25.21-.42.38-.57.06-.07.15-.1.22-.16a.24.24 0 00.06-.07c.02-.04 0-.08-.04-.1a.2.2 0 00-.08-.02 1.2 1.2 0 00-.85.6l-.08.2c-.05.1-.06.27-.14.3-.2.1-.42.15-.64.2-.02 0-.1-.1-.1-.14a.99.99 0 01.28-.66l.17-.2c.03-.04.02-.08-.03-.09a.55.55 0 00-.52.2 1.46 1.46 0 00-.36.9c0 .13-.05.2-.17.23a4.21 4.21 0 00-.34.15c-.14.07-.2.02-.2-.13 0-.3.05-.58.24-.83.02-.01.03-.04.04-.06.02-.03 0-.07-.05-.08-.16-.03-.3.05-.4.22-.18.28-.2.6-.2.93-.01.2-.32.49-.51.46-.05 0-.1-.06-.13-.1-.05-.06-.09-.16-.15-.18-.1-.03-.24-.04-.3.01s-.05.2-.04.3c0 .04.04.08.07.12a.09.09 0 01-.02.13 6.86 6.86 0 00-.19.13c-.13.1-.15.21-.07.35.07.14.18.2.33.14.18-.08.33-.13.5.03.06.05.26.02.32-.04.05-.06.05-.22.02-.31-.03-.12-.11-.2.04-.28a8.68 8.68 0 013.83-1.1h.06c.03 0 .05.05.05.1 0 .5.01 1-.01 1.5 0 .12-.16.23-.21.36-.07.18-.21.12-.33.13l-.42.05c-.19.02-.21-.06-.19-.23.06-.35.23-.63.53-.82.02 0 .03-.02.05-.04.03-.02.01-.05-.04-.05-.24 0-.6.18-.73.41a1.6 1.6 0 00-.16.53c-.04.33-.03.33-.35.41l-.35.1a.12.12 0 01-.04 0c-.03 0-.06-.05-.07-.1-.06-.4.06-.73.35-1.02.04-.04.03-.07-.02-.08-.2-.01-.38.09-.53.3-.2.26-.22.57-.15.88.03.14-.01.2-.14.25-.12.04-.23.1-.34.16-.13.06-.2.03-.23-.1a1.13 1.13 0 01.15-.91l.05-.08c.03-.04.01-.08-.04-.08-.2.01-.32.12-.41.27-.18.26-.2.55-.13.85.07.34.08.36-.19.51a.14.14 0 01-.15 0 6.32 6.32 0 00-.19-.18c-.11-.09-.26-.1-.34 0-.06.08-.08.24-.04.32.1.19.09.29-.1.4-.17.1-.2.3-.1.42s.28.13.44.02l.13-.11c.09-.1.17-.08.27 0 .06.05.15.12.21.11.1-.01.23-.06.28-.13.05-.05.01-.18-.01-.26-.02-.05-.06-.1-.12-.16a.08.08 0 01.02-.12 8.09 8.09 0 013.54-1.12.09.09 0 01.1.08v2.25a.1.1 0 01-.1.1 1.41 1.41 0 01-.14 0H.9c-.29 0-.3 0-.3-.28M0 8.26c.04 1.59.1 3.5.17 5.4.03.8.12 1.6.36 2.38.8 2.65 2.27 4.87 4.32 6.71a10.89 10.89 0 004.5 2.5c.56.15 1.1.17 1.62-.12.74-.41 1.5-.8 2.23-1.24a13.61 13.61 0 005.15-5.71 12.46 12.46 0 001.34-4.82c.06-1.17.06-2.33.07-3.5l.01-8c0-.22-.07-.35-.28-.4-.87-.25-1.73-.53-2.6-.73A32.7 32.7 0 0010.61 0c-2.46-.08-4.89.22-7.28.8A17.6 17.6 0 00.22 1.83c-.16.07-.22.17-.22.34v6.08"/>
    <path d="M15.53 11.33l.18.05c.06.02.11.05.15.03.1-.03.1-.1.07-.18l-.04-.08-.09.01c-.08.02-.17.03-.23-.08 0-.02-.11 0-.13.02-.03.04-.06.16-.05.17.04.03.1.04.14.06m1.68-.06l-.1.01a.08.08 0 01-.03 0c-.07-.04-.14-.08-.22-.1l-.04.07c-.01.04.01.09.05.1l.14.08.1.03.1.04c.05.02.1 0 .1-.06a.81.81 0 000-.08v-.1h-.1M9.99 8.55h3.06c.21 0 .28.05.28.27v4.94c0 .77-.4 1.35-.95 1.85a4.46 4.46 0 01-2.2 1.08 1.15 1.15 0 01-.43-.03 3.97 3.97 0 01-2.24-1.07 3.08 3.08 0 01-.85-2.11c-.03-1.56 0-3.13 0-4.69 0-.18.05-.24.24-.24h3.09m-3.58.08v4.93c0 .55.13 1.07.4 1.55a3.7 3.7 0 002.44 1.72c.3.08.65.16.95.1a4.78 4.78 0 002.42-1.14c.63-.55.99-1.24.98-2.11-.02-1.71-.01-3.42 0-5.13 0-.18-.05-.24-.24-.24h-3.32a1223.36 1223.36 0 00-3.32 0c-.29 0-.31.03-.31.32m10.45-5.14c.3.1.6.17.9.26l1.1.34c.04.02.09-.01.1-.06.04-.33.01-.34-.32-.46a30.5 30.5 0 00-1.18-.37c-.24-.08-.28-.12-.2-.36a.1.1 0 01.11-.06l1.5.46c.04.01.09-.01.1-.07.02-.28 0-.3-.3-.4l-1.34-.4a.13.13 0 01-.09-.13V2.1c0-.05.04-.08.09-.06l1.51.42a.09.09 0 00.11-.06c.06-.3.04-.32-.28-.42a23.09 23.09 0 00-1.03-.3l-.81-.2h-.11l-.01.04v1.83c0 .05.09.13.15.14m-15.53-.8c0-.05.04-.1.08-.12l1.15-.37c.07-.02.22.04.22.07 0 .11 0 .3-.06.33-.42.17-.86.32-1.3.47-.05.02-.1 0-.1-.06v-.32zM.79 4.26c0 .05.04.09.09.08.39-.07.43-.14.44-.52 0-.15.07-.22.19-.26l1.4-.5c.2-.08.31-.2.3-.42V2c0-.2-.11-.3-.29-.32a.75.75 0 00-.33.03 53.97 53.97 0 00-1.68.59c-.05.02-.11.13-.12.2v1.75zm8.55-2.38h1.2c.13 0 .22.06.22.2s-.12.12-.22.12h-1l-.43.02a.1.1 0 00-.09.1v.2c0 .05.04.09.1.09h1.53c.54.02.55-.19.57-.6l-.02-.22c-.03-.18-.12-.3-.31-.3l-1.24-.03c-.1 0-.24.05-.26-.12-.03-.18.11-.2.24-.2l.78-.03h.6c.05 0 .09-.03.1-.06V.99c.03-.2-.04-.3-.27-.29-.4.01-.8-.02-1.2-.02-.64.02-.76.02-.72.82.02.28.14.38.42.38m-5.11-.1c.3-.08.61-.14.92-.2.15-.02.24.05.23.22v.33c0 .54.08.44-.45.59-.23.05-.45.1-.67.17-.17.05-.25 0-.25-.18v-.65c0-.15.07-.26.22-.29m-.7.77l.01.5c0 .3.16.42.45.34.48-.11.95-.24 1.43-.34.3-.07.42-.18.43-.5V1.47c0-.27-.16-.42-.44-.37l-1.58.32c-.21.04-.3.18-.31.39v.65c.01 0 .02.03.02.09m3.2-1.17c0-.04.07-.1.11-.11l.94-.09c.15-.01.22.05.22.2.01.15 0 .3-.18.33l-1 .1a.09.09 0 01-.1-.09l.01-.34m-.4 1.47c.32.04.37-.02.37-.37v-.04c-.01-.14.05-.2.2-.2l.66-.08c.39-.04.44 0 .56.36.02.06.09.14.14.14h.3c.05-.01.08-.05.06-.1l-.22-.57a.23.23 0 010-.17c.1-.18.11-.32.1-.63-.02-.3-.12-.42-.42-.4-.57.03-1.14.08-1.71.14-.05 0-.14.09-.14.14v1.69c0 .05.04.1.09.1m7.87.06l.27.05c.05 0 .09-.03.09-.08v-.66c0-.05.04-.08.09-.07l1.1.25c.03.01.06.1.07.15v.55c.01.05.06.12.11.14.08.03.16.05.26.06.05.01.09-.02.09-.07v-1.8c0-.03-.06-.1-.1-.1-.08-.03-.17-.04-.27-.06-.05 0-.09.03-.09.08v.54c0 .05-.04.08-.09.07l-1.07-.22c-.04-.01-.1-.1-.1-.15v-.45c0-.04-.05-.12-.09-.13-.08-.03-.17-.03-.27-.04a.08.08 0 00-.09.08V2.8c0 .05.04.1.09.1m-2.35-.25c.27.01.54.04.8.07l1.03.11a.1.1 0 00.1-.08c.06-.27.03-.3-.27-.33l-1.27-.16c-.06 0-.16-.07-.16-.11v-.89c0-.05.03-.08.08-.08l1.53.12a.08.08 0 00.1-.08V1a.1.1 0 00-.1-.1L11.92.76c-.19-.01-.31.12-.32.31V2.4c0 .17.08.24.25.26m4.53 3.93h.13l.12.05a.09.09 0 00.11-.06l.05-.12a.08.08 0 01.1-.05.55.55 0 00.3.04c.02 0 .04-.1.03-.12a.4.4 0 00-.16-.11c-.03-.02-.08 0-.11-.02a1.39 1.39 0 01-.13-.05.09.09 0 00-.12.04 2.71 2.71 0 01-.05.12.25.25 0 01-.1.12c-.04.02-.07 0-.07-.05s0-.08.02-.09c.14-.1.13-.18.05-.26a.13.13 0 00-.15-.02c-.07.04-.11.1-.07.22 0 .03-.05.07-.07.11-.02.05-.06.12-.04.14a.4.4 0 00.16.1m2.53.61l-.14-.05c-.06-.02-.12-.06-.16-.04-.03.01-.05.04-.07.07-.03.04-.04.08-.02.1.01 0 0 .04-.02.07a.2.2 0 00-.03.07.42.42 0 00-.01.2c0 .02.1.06.1.05.1-.08.15.02.22.06.04.02.15.02.16 0a2.7 2.7 0 00.15-.43c0-.02-.07-.07-.12-.1h-.06m-7.45-.37c.03.02.13-.02.14-.05.04-.1.07-.2.1-.34a.11.11 0 00-.06-.13c-.1-.04-.2-.1-.31-.13-.04-.01-.1.03-.14.05-.02.01-.04.05-.03.07.05.11 0 .18-.09.24l-.02.07c.13.08.27.16.4.22M4.34 18.14l-.1-.06c-.05-.01-.1-.03-.1-.06-.01-.03.02-.08.03-.12.02-.06.05-.13.04-.2 0-.02-.13-.07-.15-.05-.05.05-.07.13-.1.2l-.03.1-.03.12a.09.09 0 00.06.11.8.8 0 00.1.03.17.17 0 01.1.12v.06c.01.05.05.07.1.03a.37.37 0 00.06-.06l.06-.1a.08.08 0 00-.04-.12m8.1-10.5c.02-.04.01-.1.03-.13.01-.07.07-.15.05-.18-.04-.04-.12-.06-.18-.08a1.16 1.16 0 00-.12-.03l-.16-.03c-.05 0-.08.03-.07.08l.01.05a.48.48 0 00.02.1h.13c.05 0 .07.04.05.09a.35.35 0 00-.04.1c0 .05 0 .12.03.16.03.03.11.05.14.03a.4.4 0 00.11-.16m1.2-.34a2.7 2.7 0 00-.15-.02c-.05 0-.08.04-.07.09a.1.1 0 000 .03c0 .05.02.1.03.11l.11.02h.05c.05 0 .1.02.08.05l-.02.04c-.04.07-.09.13-.09.2 0 .03.13.1.16.08.05-.04.08-.12.11-.18l.04-.13c.02-.05.07-.12.05-.15-.03-.05-.1-.07-.16-.1a.41.41 0 00-.13-.04M2.73 17.8c.05.02.1.07.15.08.04.02.11.02.14 0 .04-.04.08-.11.06-.16 0-.04-.07-.08-.13-.1-.06-.03-.14-.03-.2-.06-.12-.06-.23-.03-.22.1 0 .1 0 .15-.07.2-.04.03-.03.16 0 .2.03.03.13.02.19 0 .02 0 .03-.01.05-.03l.04-.04a.35.35 0 01-.04-.07c-.02-.05-.02-.1 0-.1.01-.02.02-.02.03-.02m15.82-5.2v.01l-.04.2c-.01.06-.03.13 0 .17 0 .04.1.07.12.06a.35.35 0 00.11-.15c.02-.04.02-.08.03-.13 0-.05.04-.06.07-.02.1.1.18.18.28.03.03-.03 0-.15-.02-.16a2.7 2.7 0 00-.44-.13c-.03 0-.07.08-.1.11M7.32 17.13h.05c.02.01.04.04.04.07 0 .02 0 .04-.02.05-.13.1-.08.17.02.27.03.03.08.02.11-.02l.08-.14c.03-.05.04-.11.05-.17.01-.06.04-.13.02-.17-.02-.04-.1-.05-.15-.07a.71.71 0 00-.37-.05c-.02 0-.04.1-.03.12a.96.96 0 00.2.1m7.69-5.25a.42.42 0 00.1-.21c0-.04.04-.06.08-.04a.45.45 0 00.08.04c.05 0 .12.03.16 0 .04-.02.07-.1.06-.15-.01-.04-.1-.12-.13-.1-.13.05-.18-.03-.24-.1-.03-.05-.09-.05-.12 0-.04.02-.06.06-.06.1-.01.1-.02.2-.1.3-.02.02.03.11.06.16.01.02.09.02.1 0m-2.35-5.03l.15.04c.06 0 .13.04.17.02.04-.01.08-.12.06-.14-.04-.05-.11-.08-.17-.1a.32.32 0 00-.09-.02c-.05-.01-.06-.05-.02-.08.1-.1.17-.16.04-.27-.03-.03-.15-.02-.16 0a2.24 2.24 0 00-.13.45c0 .02.1.07.15.1m5.14-.15l.17.04c.06.01.13.04.19.02.03 0 .06-.11.05-.13a.47.47 0 00-.18-.12.35.35 0 00-.12-.02c-.05 0-.06-.04-.02-.07.03-.03.05-.04.05-.06l.04-.1c.01-.06-.02-.1-.07-.12-.04-.01-.07-.02-.1 0-.04.02-.05.11-.07.17l-.05.13c-.02.05-.07.12-.05.14a.39.39 0 00.16.12m-2.74.94a.1.1 0 00.06.02.51.51 0 00.2-.02c.02 0 .03-.14 0-.15a1.66 1.66 0 00-.4-.15c-.03-.01-.14.1-.13.12.03.12-.02.18-.09.27-.02.02 0 .07.04.13.02.04.05.08.08.08s.06-.03.08-.08a3.2 3.2 0 00.07-.13.53.53 0 00.02-.06c0-.03.04-.04.07-.03m2.51-.55c-.02-.01-.06.02-.1.02l-.1-.02c-.07-.02-.16-.08-.21-.05-.08.05-.07.1-.04.17.02.04.08.1.13.08.05-.03.11-.06.15-.02.03.04 0 .11-.04.15-.1.11-.1.18 0 .23.04.01.13 0 .15-.02.06-.13.12-.27.16-.42 0-.03-.06-.09-.1-.12m.1 5.27l.12.06.12.07c.05.02.11.04.15.03.04-.03.08-.1.1-.14a.74.74 0 00.05-.19c.01-.06.03-.13 0-.18-.01-.03-.12-.06-.15-.03-.04.03-.06.1-.08.16l-.03.1c0 .05-.04.06-.07.02a3 3 0 01-.1-.11c-.04-.04-.08-.04-.1 0l-.06.1a.08.08 0 00.04.11m-1.49-5.32a.32.32 0 00-.07-.05.78.78 0 00-.2-.05c-.06-.01-.13-.02-.18 0-.03.02-.06.1-.04.12.02.05.08.1.13.1.19 0 .26.02.1.2-.03.02 0 .13.04.17.03.03.15.01.17-.01.04-.1.06-.21.1-.34 0-.05-.01-.12-.05-.14M6.44 17.65c0-.05.04-.07.08-.04a.18.18 0 00.09.03.29.29 0 00.1-.02.1.1 0 00.07-.11l-.04-.1c-.13.01-.23-.09-.33-.1-.24-.03-.1.23-.18.34-.03.05-.05.09-.03.13l.07.08c.1.04.16-.04.17-.22m1.51.2l-.08-.06c-.05-.02-.05-.07-.01-.1l.06-.07a.2.2 0 000-.09.1.1 0 00-.11-.08c-.05 0-.1.01-.1.03a1.06 1.06 0 00-.13.35c0 .04.08.15.1.14.12-.03.18.03.22.09.03.04.1.09.14.08.07-.02.1-.07.1-.15-.01-.05-.12-.1-.19-.14m5.96-10.63c.03 0 .07.02.1.04h.08c.21.12.21.12.27-.12l.02-.04c.12-.2.13-.23-.04-.29-.05-.01-.12 0-.12.06 0 .07.03.17-.03.22-.03.04-.09.03-.1.02l-.01-.02a2.2 2.2 0 00-.1-.04.09.09 0 00-.12.04.1.1 0 00.05.13m-2.83.85h.03a.12.12 0 00.12-.08l.01-.05c.02-.05.06-.07.1-.04a.34.34 0 00.07.03c.05.01.13.03.17 0 .03-.02.06-.13.04-.15a.51.51 0 00-.14-.07c-.04-.02-.09-.03-.1-.01l-.07-.04c-.1-.1-.21-.1-.24 0s-.05.2-.06.31a.09.09 0 00.07.1m3.94 4.68a.27.27 0 00-.14.04c-.03.02-.03.09-.04.13a3.62 3.62 0 01-.02.1c-.01.05 0 .13.06.13.05 0 .1-.07.14-.12.03-.04.09-.03.1 0l.05.06c.04.02.11.04.15.03.04-.02.09-.08.09-.13 0-.27-.33-.05-.4-.24m3.17-.95l.1.1c.05.04.13.05.19.06.05.01.1.03.15.01a.17.17 0 00.06-.05c.03-.04.03-.1 0-.14-.02-.03-.03-.05-.06-.06a1.14 1.14 0 00-.34-.1c-.03 0-.06.02-.09.05a.1.1 0 000 .13M6.13 17.93c-.06-.04-.14-.05-.21-.06-.06 0-.13-.03-.16 0-.04.03-.06.12-.04.16.01.04.09.06.14.09l.19.06a.38.38 0 01.05.04c.03.01.08 0 .12-.04.03-.04.06-.08.06-.11 0-.05-.09-.11-.15-.14m-1.45-.1l-.15-.04c-.07 0-.14-.04-.2-.02-.03 0-.06.12-.04.15a.24.24 0 00.08.08c.04.03.09.04.1.02.01-.02.05-.01.08.02l.06.03c.06.02.13.03.18.01.03-.01.07-.1.06-.12a.52.52 0 00-.17-.13m13.68-10.1a1.05 1.05 0 00-.15-.05c-.06-.01-.13-.04-.18-.02-.04.01-.08.1-.07.14a.25.25 0 00.08.09c.04.02.08.03.1.02 0-.02.05-.01.09.02a.26.26 0 00.08.03c.06.02.13.03.18 0 .04-.01.06-.12.03-.15-.02-.04-.1-.06-.16-.08M6.08 17.42c.05-.02.08-.1.1-.16.02-.03 0-.1.02-.12.11-.09.1-.17.04-.24-.02-.05-.09-.06-.14-.04l-.04.01a.17.17 0 00-.1.13l-.02.18c0 .07-.03.14 0 .18.01.04.11.08.14.06m9.34-5.25c-.02.06-.04.14-.01.19.02.03.12.07.15.05.05-.03.08-.1.1-.16a.8.8 0 00.05-.17c0-.06.04-.13.01-.18-.02-.03-.11-.06-.15-.04a.16.16 0 00-.07.06c-.03.04-.04.08-.02.1.01 0 0 .05-.02.09a.26.26 0 00-.04.07m1.3-.5c.02.05.1.08.15.1a.97.97 0 00.17.07c.04.01.1.05.14.03a.25.25 0 00.08-.09.09.09 0 00-.02-.12l-.12-.07a.76.76 0 00-.18-.06c-.06-.02-.13-.04-.17-.01-.03.03-.07.12-.05.15"/>
    <path d="M13.34 7.53c-.07.01-.13 0-.2-.06-.03-.03-.12-.02-.18 0-.03.02-.04.12-.02.15.03.04.1.07.16.09h.12c.06.03.14.1.2.08.09-.04.09-.1.07-.18a.28.28 0 00-.05-.1c-.01-.01-.05 0-.1.01m5.13-.61l.04-.11a.1.1 0 00-.06-.12c-.03-.02-.07-.03-.1-.02-.04.03-.06.12-.08.18l-.02.1-.02.15a.1.1 0 00.07.1h.09a.25.25 0 00.05-.12v-.1c-.02 0-.01-.02 0-.03a.07.07 0 00.04-.03M5.63 17.81c-.02-.03-.06-.04-.1-.05a.1.1 0 00-.12.05l-.04.11-.04.13-.02.12c0 .05.03.1.07.1.04.02.07.02.08 0a.31.31 0 00.06-.1c.02-.05.02-.1 0-.1 0-.01 0-.03.02-.04l.03-.03c.03-.06.08-.15.06-.19m8.33-10.9c.04.02.15-.03.22-.06.02 0 .03-.02.04-.04.02-.02-.02-.04-.05-.08-.03-.03-.02-.07.04-.13.04-.04.05-.14.04-.2 0-.02-.12-.06-.14-.05-.05.05-.08.12-.1.18-.03.04-.01.1-.04.13-.1.09-.1.18-.01.24M3.23 17.22c.05-.02.12-.12.1-.14-.04-.1 0-.13.06-.19.03-.04.03-.13.01-.18 0-.03-.1-.06-.14-.04a.2.2 0 00-.07.06c-.03.04-.04.09-.03.1.02.01 0 .05-.02.09a.28.28 0 00-.04.07c-.02.05-.04.13-.02.18.02.03.12.07.15.05m1.95.42c-.05 0-.15.07-.15.1.02.12 0 .2-.09.3-.01 0 .04.12.08.15.03.02.14 0 .15-.03.04-.1.07-.21.1-.35.01-.04 0-.1-.03-.14l-.06-.03m11.73-5.04c-.02-.02-.12-.02-.14.01-.04.04-.07.11-.05.16.02.04.09.07.14.09l.14.01.14.03c.05.02.09-.01.09-.07v-.07a.31.31 0 01.01-.09h-.09c-.09.02-.17.03-.24-.07m1.3-6.12a.48.48 0 00.22.08l.13-.02a.1.1 0 00.07-.12c-.01-.05-.02-.09-.05-.1-.09-.04-.2-.06-.32-.08-.05-.01-.11 0-.14.03-.02.01-.03.04-.03.06 0 .05.07.12.12.15m-.47 1.07c-.05.02-.08.1-.1.15a.93.93 0 00-.06.16c-.02.05-.05.11-.03.15 0 .03.04.04.09.07a.08.08 0 00.11-.04 2.93 2.93 0 00.06-.12c.02-.06.05-.1.06-.16.02-.06.04-.13.02-.17-.02-.03-.12-.06-.15-.04m-6.08-.53c-.01.07-.03.14-.02.2.01.03.12.06.14.05.04-.05.06-.12.09-.19l.05-.1a.6.6 0 01.05-.08.1.1 0 00-.02-.13c-.04-.04-.08-.07-.12-.07-.04 0-.1.1-.13.15-.03.05-.03.11-.04.17m1.55-.75h.04c.02-.02.05 0 .06.01l.03.03c.06.03.13.07.17.05.04 0 .1-.12.07-.14-.03-.06-.1-.09-.16-.12a.5.5 0 00-.15-.05c-.07 0-.15-.02-.2 0-.03.02-.05.13-.03.16.03.04.1.05.17.06m-2.08.77c.02 0 .03-.03.05-.06.03-.04.02-.09-.02-.12a.63.63 0 00-.11-.08.78.78 0 00-.24-.06c-.05 0-.12 0-.16.03-.03.02-.04.1-.02.14.03.04.08.07.14.1a.99.99 0 00.2.05.31.31 0 00.16 0M4.68 17.31a3.42 3.42 0 00.17-.46c0-.02-.03-.05-.07-.08a.1.1 0 00-.14.02c-.04.04-.07.08-.06.1.05.1 0 .17-.07.24-.03.03-.02.13.01.15.04.03.16.05.16.03m-1.18.32a1.05 1.05 0 00-.03-.16.47.47 0 01-.01-.1.42.42 0 01-.09.03c-.07 0-.15 0-.21-.08-.01-.02-.1-.01-.15.01-.03.02-.06.12-.05.12.13.08.27.15.42.22.03.01.12-.03.12-.04m5.5-.18c-.04-.03-.07-.04-.1-.04-.05.01-.11.07-.15.13a.61.61 0 00-.07.19c-.01.05-.03.12 0 .16.02.04.11.08.15.07.04-.03.07-.1.09-.16l.05-.15a.55.55 0 01.05-.08c.03-.04.02-.1-.03-.12m8.83-5.38a.31.31 0 00.14-.13.7.7 0 00.08-.23c.01-.04.01-.12-.01-.14l-.1-.04a.1.1 0 00-.1.07l-.02.05v.11c0 .01 0 .03-.03.04l-.04.03c-.02.05-.06.11-.05.16.02.03.1.08.13.08"/>
    <path d="M17.63 12.75c.05 0 .1-.05.1-.1 0-.11-.05-.18-.21-.16-.03 0-.08-.01-.1-.04-.08-.08-.15-.09-.23 0-.07.06-.06.12-.01.16l.06.06a.33.33 0 01.08-.02h.08c.06.11.15.1.23.1m-2.16-.23c-.05-.01-.11 0-.14.02l-.05.05a.38.38 0 00.15.18c.05.03.13.06.2.06a.4.4 0 00.11-.01.11.11 0 00.08-.11c0-.04 0-.08-.02-.08-.1-.05-.2-.07-.33-.1m1.7-5.17c0-.05-.05-.09-.1-.08-.07.02-.15.03-.2-.06-.02-.02-.11-.01-.15.01-.03.02-.07.1-.05.12a.28.28 0 00.13.12c.04.02.12-.01.15.01.07.06.14.16.22.05.02-.04.01-.1 0-.17m-1.81 0c.08.05.17.08.25.09.06 0 .15-.02.18-.06.02-.03-.01-.15-.05-.17l-.33-.1c-.05-.01-.11 0-.14.03l-.03.07c0 .05.07.12.12.15m1.48 4.91c-.02.05-.03.13 0 .17.02.04.1.07.15.06.04-.02.07-.09.1-.14a.57.57 0 00.04-.17.55.55 0 000-.2c0-.03-.1-.07-.11-.06a.43.43 0 00-.08.09c-.03.04-.05.08-.03.1.01 0 0 .05-.03.08l-.04.07m-.45-.33h.06a.58.58 0 01.09 0 .4.4 0 01.03.07v.1c-.02.01-.03.02-.03.04-.02.06-.04.13-.03.2 0 .02.11.06.12.05.05-.05.07-.11.1-.18.02-.03 0-.08.02-.1.07-.09.14-.18.03-.25-.04-.02-.1 0-.16.04a.42.42 0 01-.08.03.65.65 0 01.01-.09l.06-.23c0-.05.02-.12 0-.16-.02-.04-.12-.07-.14-.05-.05.03-.08.1-.1.16-.02.04 0 .08 0 .12l-.05.16c-.01.05.02.09.07.09m-3.26-4.58c.03.02.08 0 .1-.05l.07-.13c.03-.05.04-.11.06-.17.02-.04.06-.12.05-.14-.04-.04-.11-.08-.16-.07-.2.01-.09.23-.15.33-.03.05-.06.09-.05.13l.03.07.05.03m3.84.25c-.06 0-.12-.03-.18-.04-.06-.01-.13-.04-.16-.02-.04.02-.07.11-.06.15.03.05.1.07.15.1.04.01.12 0 .13.02.07.11.14.1.22.06.04-.02.08-.08.07-.13-.02-.08-.06-.13-.17-.14m-.63 4.9c0-.03-.02-.07-.06-.1-.03-.02-.06-.04-.09-.03-.12.04-.19-.02-.28-.08l-.1.01a.11.11 0 00-.06.13c0 .03.02.07.04.08.1.06.23.1.36.13.03 0 .06-.02.1-.05a.4.4 0 00.09-.1m-1.58-.31c.02.02.14 0 .16-.03.02-.05.02-.18-.01-.19l-.33-.1c-.05 0-.12 0-.15.04-.02.02-.04.05-.03.06.02.06.11.16.14.15.1-.04.15 0 .22.07m-3.03-4.82c-.02-.03-.12-.03-.17-.02-.03.01-.07.1-.05.13.03.05.09.1.15.12.03.02.1-.02.12 0 .08.08.16.15.24.04.02-.03.02-.09 0-.15v-.09a.5.5 0 00-.1.02c-.06.02-.13.04-.19-.05M16.06 12h-.12a.1.1 0 00-.09.1c0 .05.01.1.03.1.1.05.2.07.33.1.05.01.11 0 .14-.04.03-.02.04-.05.04-.06-.02-.06-.14-.15-.16-.14-.1.07-.11-.03-.17-.06m-.24-5.27c.03.05.05.1.06.09.13-.03.2.03.3.1.02.01.08-.02.15-.05.04-.02.05-.07.02-.1-.04-.07-.08-.1-.1-.1-.12.02-.2-.03-.29-.1l-.1.04a.1.1 0 00-.04.12m1.75.23c.03.04.07.07.09.07.11-.03.19 0 .26.09.01.02.12 0 .14-.03.03-.04.04-.15.02-.16a3.17 3.17 0 00-.45-.18c-.01 0-.04.03-.07.08a.1.1 0 000 .13M3.55 17.88c-.02.05-.04.13-.01.16.02.04.11.08.14.06.05-.02.08-.1.11-.15l.03-.15c.02-.06.06-.13.04-.18-.02-.04-.12-.08-.15-.06-.03.01-.05.04-.07.07-.03.05-.04.1-.02.1.01.02 0 .06-.02.09a.26.26 0 00-.05.06m9.54-11.26c.1-.02.14 0 .19.07.03.03.1.04.15.03a.17.17 0 00.06-.07.1.1 0 00-.01-.13c-.04-.04-.08-.07-.1-.07-.1.06-.15-.02-.22-.06-.05-.03-.13-.02-.2 0-.01 0-.03.1-.02.12.04.05.12.13.16.11M9.35 17.58c-.04-.04-.12-.08-.17-.07-.03 0-.05.03-.06.07-.03.04-.04.09-.02.1.02 0 0 .04-.01.08a.23.23 0 00-.04.06c-.02.06-.03.13-.02.19.01.03.12.07.13.05a.58.58 0 00.12-.17.84.84 0 00.05-.16c.01-.05.04-.13.02-.15m2.77-10.54c.09.04.18.06.28.09.05 0 .1.03.11.05.02.02.05 0 .08-.04.02-.03.04-.06.03-.08a.4.4 0 00-.16-.16.39.39 0 00-.31-.07c-.05.01-.08.06-.08.1.01.05.02.1.05.1m4.31.45a.17.17 0 00-.1-.04c-.04 0-.1.07-.12.12a.75.75 0 00-.07.24c-.01.05-.01.13.02.16.04.03.15.03.16 0 .06-.1.1-.21.15-.34a.12.12 0 00-.04-.14M2.56 17.32c.05-.03.05-.08.01-.1-.08-.08-.13-.13-.15-.12-.12.06-.17-.02-.24-.07-.03-.03-.13 0-.16.03s-.03.14 0 .15c.13.07.26.13.4.17.04 0 .09-.03.14-.06m2.28.05c.01.03.03.05.06.07.04.03.09.04.1.02.01-.01.05 0 .09.03a.21.21 0 00.07.04c.06.02.13.03.18.01.03-.01.06-.1.05-.14-.03-.05-.1-.07-.16-.1a.68.68 0 00-.16-.05c-.06-.02-.13-.04-.18-.02-.03.01-.07.11-.05.14m.06.15a1.33 1.33 0 00-.26-.07.24.24 0 01-.13-.08c-.03-.03-.06-.02-.08.03a.33.33 0 00-.04.13c0 .05.09.14.11.13.11-.03.18 0 .25.08.03.03.14-.01.18-.05.03-.03 0-.15-.03-.17m1.78.27a.62.62 0 00-.11-.09c-.03-.01-.07.01-.08.06l-.04.09c-.03.09-.07.17-.08.27 0 .05.01.14.05.17.04.02.17-.02.17-.04 0-.14.07-.26.13-.38l-.04-.08m7.69-11.25c-.02.02 0 .12.03.13.12.06.25.12.38.14.03.01.07-.02.1-.05a.1.1 0 00.02-.13c-.03-.04-.06-.08-.08-.08-.12.02-.2-.03-.29-.09-.03-.02-.12.03-.16.08m4.12 5.5c-.04-.03-.08-.03-.11.01-.04.06-.07.1-.06.13.03.1 0 .14-.06.21-.02.02 0 .07.01.12.02.05.07.08.12.07.04 0 .07-.01.08-.03.03-.13.06-.25.12-.37.01-.02-.04-.07-.1-.14M3.46 17.38l.09-.01c.08-.01.16-.02.21.08.02.02.12.02.14 0a.21.21 0 00.07-.16c-.01-.04-.08-.07-.12-.09-.06-.02-.12 0-.17-.01a3.23 3.23 0 01-.15-.02c-.05 0-.08.02-.08.08v.04l.01.09m3.24-.16c.02.05.1.08.16.1.05.03.11.04.17.06l.06.03c.03.03.09.01.12-.03.02-.03.05-.06.04-.09 0-.05-.07-.1-.13-.13-.06-.04-.13-.05-.2-.06-.05-.01-.13-.05-.16-.03-.04.02-.08.12-.06.15m-4.8-.64a.1.1 0 00-.11.07 1.54 1.54 0 00-.03.1v.05c.01.02-.02.06-.06.09l-.02.01c-.04.03-.05.08-.01.12l.05.05c.04.04.09.03.11-.01l.07-.13.06-.13c.01-.06.03-.14 0-.19 0-.02-.03-.02-.06-.03m.5.91c-.04-.03-.15-.04-.16-.02-.07.14-.12.28-.16.43 0 .02.04.06.09.1.03.04.08.04.1-.01.07-.13.12-.24.16-.36.02-.04 0-.12-.03-.14m5.11.56c-.05-.03-.1-.07-.16-.08-.05-.01-.13-.03-.17 0-.03.03-.05.14-.03.16.04.03.09.04.14.06.05.02.09.02.1.01h.03l.02.02c.06.03.12.07.19.07.02 0 .08-.12.07-.12-.05-.05-.12-.09-.19-.12M2.22 16.9c.05.02.1.02.1.01s.03 0 .05.04c0 .02.02.05.04.05.05.02.13.03.17 0 .04-.02.07-.14.06-.14a3.44 3.44 0 00-.4-.2c-.02 0-.08 0-.1.03-.03.04-.06.13-.06.14a.9.9 0 00.14.07M15.5 7c.05-.02.08-.09.1-.14.04-.05.05-.11.07-.16.01-.06.04-.12.02-.16 0-.03-.03-.05-.08-.07-.04-.03-.09-.02-.11.02a1.75 1.75 0 00-.06.12l-.05.16c-.02.06-.06.13-.04.17.02.04.12.08.15.07m1.3-.13c-.02.05-.06.13-.04.16a.21.21 0 00.18.06c.03 0 .07-.08.1-.13a.86.86 0 00.05-.2c0-.05.03-.11 0-.16 0-.03-.1-.06-.13-.04a.21.21 0 00-.07.06c-.02.04-.03.09-.02.1.02.02 0 .05-.02.08a.28.28 0 00-.05.07m-1.45 4.94a.1.1 0 00-.13-.02.22.22 0 00-.08.07.57.57 0 00-.08.25.35.35 0 00.03.14c.02.04.06.1.09.1s.07-.02.1-.06l.03-.08c-.03-.12.02-.2.08-.3.01-.02-.01-.05-.04-.1M8.5 17.61a1.14 1.14 0 00-.3-.1c-.05-.02-.12.02-.14.05-.03.03-.02.13 0 .14.1.06.21.1.33.14.05.02.11.01.14-.02a.14.14 0 00.04-.06c.01-.05-.03-.13-.07-.15m5.97-10.22a.21.21 0 00.07.05c.04.03.1.02.13-.02s.06-.07.05-.1c-.04-.1 0-.15.07-.22.03-.03.01-.11-.01-.15-.02-.03-.1-.06-.12-.05-.05.02-.11.08-.1.11.03.11-.02.18-.09.25-.02.02-.01.1 0 .13M2.73 18.1a7.7 7.7 0 000 .09.39.39 0 01-.1.2c-.03.05-.02.08.03.08h.13c.05 0 .1-.04.1-.1.02-.03.02-.07.03-.11.02-.06.08-.15.06-.19-.04-.07-.1-.1-.16-.09-.05 0-.08.04-.08.03a.57.57 0 010 .09m11.76-4.97h.02a.18.18 0 00.14-.09.64.64 0 00.07-.17.23.23 0 000-.1.1.1 0 00-.1-.08c-.07 0-.12 0-.13.03-.04.1-.05.2-.07.32-.01.05.02.09.07.09m-1.53-5.07h.19l.1.02c0 .02.04 0 .08-.03s.04-.08 0-.11a.25.25 0 00-.07-.05.89.89 0 00-.22-.07.34.34 0 00-.17 0c-.03.02-.06.1-.04.12.03.05.08.1.13.12M3.88 18.33l-.07-.03h-.1s-.02 0-.04-.04a.17.17 0 00-.05-.04c-.04-.02-.1-.04-.14-.02a.18.18 0 00-.06.13c0 .05.05.12.08.12h.37c.05 0 .1-.03.1-.06 0-.02-.04-.05-.09-.07M16 12.76c-.04 0-.07.08-.09.14l-.02.18c0 .05.03.06.07.03.08-.05.15-.09.2-.15.03-.03.04-.13.02-.16a.22.22 0 00-.18-.04m-3.48-4.7c.07-.05.14-.09.19-.14.03-.04.05-.13.02-.16-.02-.04-.1-.07-.15-.06-.04 0-.08.08-.1.13l-.02.2c0 .05.02.07.06.04m2.17-.08c-.1-.05-.2-.09-.32-.12-.02 0-.04.02-.06.05-.03.04-.03.09 0 .12l.05.04h.32c.05 0 .1-.01.1-.03 0-.02-.04-.04-.09-.06m4.17-1.31c.04 0 .08-.04.13-.08.04-.04.04-.08 0-.12-.06-.05-.1-.09-.13-.08-.04.01-.07.05-.1.09a.1.1 0 000 .13c.04.03.07.06.1.06m-3.72 1.1l-.1.06a.1.1 0 000 .13c.03.04.06.08.1.1.02 0 .07-.05.12-.1a.08.08 0 00-.01-.12c-.05-.04-.08-.07-.1-.07m.94-1.35c.03-.02.06-.04.06-.07 0-.04-.04-.1-.08-.15-.03-.04-.08-.05-.11-.01-.05.05-.1.1-.08.12a.26.26 0 00.07.1c.04.04.1.04.14.01M6.88 17.85c-.05.03-.07.11-.08.18 0 .02 0 .03.02.05.02.03.07.05.11.04.04 0 .06 0 .08-.02.03-.06.06-.14.04-.2-.02-.03-.14-.07-.17-.05m10.66-5.87c.05-.06.09-.1.08-.14 0-.05-.09-.14-.14-.14-.04 0-.14.08-.14.13 0 .04.04.09.1.16.02.04.07.04.1 0m-12.33 4.8c.05-.05.09-.09.08-.11a.3.3 0 00-.08-.12.1.1 0 00-.13 0c-.03.03-.06.06-.06.1 0 .03.03.07.07.12.03.04.09.04.12 0M15.6 7.54c-.04-.04-.09-.03-.12 0-.04.06-.07.1-.06.13.01.03.04.06.08.08a.11.11 0 00.14 0c.03-.03.06-.06.06-.1-.01-.03-.05-.07-.1-.11m.17 4.24c.05-.06.1-.1.09-.14 0-.05-.1-.13-.15-.13-.05 0-.13.08-.13.14 0 .03.03.07.08.13.03.03.08.03.11 0m-3.88-4c-.04-.03-.09-.03-.12.01-.04.06-.07.1-.06.14 0 .03.03.06.07.08a.11.11 0 00.14 0c.03-.04.06-.07.06-.1 0-.04-.04-.08-.1-.12m-4.5 9.8c-.06.02-.14.1-.14.15 0 .04.09.13.14.13.03 0 .07-.04.12-.09a.08.08 0 000-.12c-.06-.04-.1-.07-.12-.07m8.97-4.77c-.05.06-.08.1-.08.13a.27.27 0 00.08.1.1.1 0 00.13.01c.03-.02.05-.05.05-.07 0-.05-.04-.1-.08-.16-.03-.04-.07-.04-.1 0m-1.36-.24c.03.04.06.07.1.08.02 0 .06-.03.11-.08a.08.08 0 000-.12c-.04-.05-.07-.09-.1-.08a.3.3 0 00-.1.07.1.1 0 00-.01.13m-5.62 5.36c-.05.05-.1.09-.08.12 0 .04.04.07.08.1s.1.03.14 0c.04-.04.07-.07.07-.1 0-.04-.04-.07-.08-.12a.08.08 0 00-.13 0m9.44-5.53c.04 0 .08-.04.13-.08.04-.03.04-.09 0-.12-.06-.05-.1-.09-.15-.1-.04 0-.12.1-.12.17 0 .04.09.12.14.13m-5.2-5.25c.05 0 .14-.09.14-.14 0-.03-.04-.07-.1-.12-.03-.04-.08-.03-.11 0-.04.06-.08.1-.08.13.01.06.1.13.15.13m-2.45.2c.03.06.09.13.15.14.02 0 .06-.03.11-.07.04-.04.04-.08 0-.12-.06-.03-.1-.07-.14-.07-.04 0-.13.1-.12.12m3.82-.1c.03.03.08.03.11-.01.05-.06.08-.1.08-.14 0-.05-.1-.1-.16-.11-.04 0-.13.09-.12.13 0 .04.04.08.09.13m-4.22.8c.05 0 .14-.1.13-.15 0-.04-.05-.09-.1-.14-.04-.04-.08-.04-.11 0-.04.07-.08.11-.07.15.02.05.1.13.15.13m6.62-.32c-.08.02-.15.06-.22.1-.01 0 .02.04.06.07l.14.1s.1-.08.1-.13c0-.04-.06-.14-.08-.14m-1.72-1.36c.04 0 .08-.03.14-.08.04-.03.04-.07 0-.1-.05-.06-.1-.1-.14-.1-.03 0-.06.04-.09.07a.1.1 0 000 .14c.03.04.06.07.1.07m-1.31 1.28c0 .06.08.14.13.15.04 0 .08-.04.13-.09.04-.03.04-.08 0-.1-.06-.05-.1-.08-.14-.09-.04 0-.13.1-.12.13m-3.5-1.03c.04 0 .07-.04.12-.09a.08.08 0 000-.12c-.05-.04-.09-.07-.1-.06-.05.01-.08.05-.12.08a.1.1 0 000 .13c.04.03.07.06.1.06m6.65-.09c.04-.04.04-.12.03-.18a.17.17 0 00-.05-.06c-.03-.03-.09-.02-.12.01a.16.16 0 00-.05.07.22.22 0 00.04.17c.03.03.13.02.15 0m-2.9 5.2c.06.01.1-.02.11-.07l.01-.13s0-.03-.02-.04l-.03-.03a.34.34 0 01-.06.01l-.06.02c-.03.06-.07.16-.04.2.01.02.06.03.1.04m-.99-4.97a.1.1 0 00.13 0 .24.24 0 00.07-.1c.01-.03-.02-.06-.07-.11a.08.08 0 00-.11 0c-.05.04-.09.08-.08.12 0 .03.03.06.06.09m-5.22 11.2a.11.11 0 00-.13 0c-.03.03-.06.05-.06.08 0 .04.03.08.06.14.04.04.08.04.11 0 .05-.05.1-.1.09-.13 0-.03-.03-.06-.07-.09m2.2-11.69a.11.11 0 00-.13-.03c-.12.06-.13.12-.06.23a.1.1 0 00.14.03c.12-.07.13-.12.06-.23m4.57.6c.03-.03.06-.06.07-.1.01-.03-.02-.07-.07-.13-.02-.04-.07-.05-.1-.01-.06.05-.1.1-.1.13s.03.06.06.1a.1.1 0 00.14 0m2.19 5.43c.04 0 .08-.04.14-.08.04-.03.04-.08 0-.1-.06-.05-.1-.08-.15-.08-.04 0-.13.09-.12.12.01.06.08.14.13.14m-4.55-5.04c.03 0 .07-.03.13-.08.04-.04.04-.08 0-.11-.07-.04-.1-.08-.15-.08-.05 0-.13.1-.12.13.01.06.08.13.14.14m5.43 5.42c-.04 0-.13.07-.12.1a.6.6 0 00.06.13c.02.04.06.08.08.08.01 0 .05-.04.07-.08a.55.55 0 00.05-.15c0-.02-.09-.08-.14-.08m-.78.15c-.03 0-.06.03-.08.07a.11.11 0 000 .14c.03.03.06.06.08.05.04 0 .08-.04.13-.1.04-.02.03-.07 0-.1-.06-.04-.1-.07-.13-.06m-3.06-1.34l-.14-.1c-.02 0-.05.03-.08.06a.1.1 0 000 .14.36.36 0 00.1.08c.02.01.06-.02.12-.06.04-.03.04-.08 0-.12m3.44-4.03c.05 0 .09-.04.15-.09.04-.03.04-.08 0-.11-.05-.05-.1-.08-.12-.07a.28.28 0 00-.1.08.1.1 0 000 .13c.02.04.05.06.07.06M3.65 17.02c.02.01.06-.02.12-.06.04-.03.04-.07 0-.1-.05-.05-.09-.1-.13-.1-.02 0-.05.03-.08.06a.1.1 0 000 .13c.02.03.05.06.09.07m12.67-9.8a.26.26 0 00.08.1.1.1 0 00.13 0c.03-.03.07-.06.07-.1 0-.03-.04-.07-.09-.12-.04-.03-.09-.03-.12 0-.04.05-.07.1-.07.12M2.78 17.48c.04.01.07-.01.1-.04.05-.02.08-.06.06-.09a.32.32 0 00-.1-.1c-.03-.02-.06-.04-.1-.04-.02 0-.05.02-.07.06a.1.1 0 000 .13.26.26 0 00.11.08m15.15-4.84a.43.43 0 00-.12.02l-.05.03c-.02.03-.02.07 0 .09l.06.02a.54.54 0 00.13 0c.05 0 .08-.04.08-.09 0-.04-.05-.08-.1-.07m-5.07-5.17c0-.03-.04-.07-.07-.1a.07.07 0 00-.12 0l-.04.05a.1.1 0 00.01.13c.04.02.07.05.1.05.04 0 .12-.09.12-.13m3.16 4.4c.04.04.09.03.11-.01.04-.06.07-.1.06-.14-.01-.05-.1-.1-.16-.11-.04 0-.12.1-.1.14 0 .04.04.08.1.13M16.53 7c.06 0 .14-.07.15-.12 0-.04-.03-.08-.08-.13-.03-.04-.08-.04-.11 0-.05.05-.08.1-.09.13 0 .04.1.13.13.12m-4.22-.29c.05-.06.1-.1.1-.13-.01-.05-.1-.12-.15-.13-.04 0-.13.08-.13.12 0 .04.03.08.07.14.03.04.08.04.11 0m1.98-.45c.04-.06.08-.1.07-.14 0-.03-.02-.05-.06-.08a.1.1 0 00-.13.01c-.03.03-.06.06-.06.1 0 .02.03.06.07.11.04.04.08.04.11 0m-2.37.35a.23.23 0 00.14-.14c.01-.03-.03-.06-.07-.11-.03-.04-.08-.04-.12 0-.04.04-.08.08-.08.12 0 .04.1.13.13.13m6.82 1.2c-.03 0-.06.04-.1.07-.02.04-.02.1.02.13a.18.18 0 00.08.05c.03 0 .07-.02.13-.05.04-.03.05-.07 0-.1-.05-.06-.1-.1-.13-.1M4.13 17.57c.03.03.09.03.12-.01.03-.05.06-.08.06-.11a.23.23 0 00-.08-.09.1.1 0 00-.13.01c-.02.03-.05.07-.05.1s.03.06.08.1M14.14 7.43c-.03.01-.06.05-.08.08a.1.1 0 000 .14l.1.06c.03 0 .06-.03.1-.08a.09.09 0 00-.01-.13c-.05-.04-.08-.07-.1-.07m3.2-.5c.03 0 .06-.03.1-.08.04-.03.04-.08 0-.12-.04-.04-.08-.08-.1-.07a.3.3 0 00-.14.16c0 .02.09.11.13.11m-2.47 5.5c0-.04-.04-.08-.09-.12-.03-.04-.08-.04-.12 0-.04.04-.07.08-.06.11.01.05.08.13.14.14.04 0 .13-.1.13-.13m-3.35-5.46c-.05-.04-.09-.08-.11-.07-.06.01-.13.08-.14.14 0 .04.09.13.13.13.04 0 .07-.03.12-.08.04-.04.04-.08 0-.12m2.46.82c-.04.06-.07.1-.06.13A.22.22 0 0014 8a.1.1 0 00.13 0c.02-.04.05-.07.05-.1s-.04-.07-.09-.12c-.03-.04-.08-.04-.11 0m4.04 3.65c.03 0 .07-.03.13-.07.04-.03.04-.08 0-.12-.04-.04-.07-.07-.1-.07-.04 0-.07.02-.1.05a.1.1 0 00-.02.13c.03.04.05.07.09.08m-3.45-5.06c.04 0 .08-.04.13-.08.04-.03.04-.09 0-.12-.04-.04-.08-.08-.1-.07a.23.23 0 00-.15.14c0 .03.08.13.12.13m1.28 1.27c-.03.06-.07.1-.06.14 0 .04.09.11.14.11.05 0 .13-.09.13-.13 0-.04-.04-.07-.1-.12-.03-.04-.08-.03-.1 0m-10.8 9.43h.03c.05-.01.08-.05.06-.1a1 1 0 01-.02-.07c-.01-.05-.05-.09-.1-.08-.03 0-.06.04-.06.1V17a.08.08 0 00.08.08m11.55-5.74c.04 0 .08-.05.12-.1.04-.03.03-.08 0-.1-.06-.05-.1-.08-.12-.07a.22.22 0 00-.13.15c0 .03.09.12.13.12m-8.7 5.98c.03.02.13-.05.13-.07 0-.07-.05-.14-.08-.2a.01.01 0 000-.01l-.08.05a.32.32 0 00-.09.1c0 .02.07.1.12.13m-.98.87c-.04-.04-.11-.06-.16-.04-.07.03-.08.1-.06.2 0 .05.05.07.1.05l.14-.07c.04-.03.05-.07.01-.1 0-.02-.02-.03-.03-.04m-3.73-.1c-.06.01-.13.1-.14.15 0 .04.01.08.03.11.02.05.06.07.09.06a.68.68 0 00.11-.1l.05-.09c-.02-.05-.1-.13-.14-.12m3.47-1.26c.03-.02.05-.04.05-.06 0-.05-.03-.1-.07-.15-.02-.04-.07-.05-.1 0-.05.04-.08.08-.08.11a.2.2 0 00.07.1c.04.03.1.03.13 0m-.77.9c.03.04.09.04.12 0 .04-.05.08-.08.08-.12 0-.05-.1-.12-.15-.12-.05 0-.12.09-.13.15 0 .02.03.06.08.1m1.23-.2l-.04-.04c-.03-.04-.09-.03-.12 0-.04.06-.07.1-.06.13 0 .04.1.12.14.11a.22.22 0 00.09-.07.1.1 0 000-.14m9.37-5.04c-.06.01-.13.08-.14.14 0 .02.04.05.08.1a.08.08 0 00.12 0c.04-.06.07-.1.07-.13 0-.04-.1-.12-.13-.1M18.76 7c.03 0 .07-.03.11-.07.04-.03.04-.08 0-.12-.05-.04-.08-.07-.1-.06-.06 0-.12.08-.14.14 0 .03.08.11.13.11m-.39 4.5c.05.01.12-.07.14-.13 0-.02-.03-.06-.07-.1a.1.1 0 00-.13 0c-.05.04-.08.08-.08.1.02.06.1.14.14.14M6.5 17.22c.02 0 .06-.03.1-.07.05-.03.05-.08.02-.11-.04-.05-.08-.08-.1-.08-.03 0-.06.02-.09.04a.1.1 0 00-.01.14.22.22 0 00.08.07m-1.8 1.04a.09.09 0 00-.13 0l-.06.05c-.03.03-.05.08-.03.1.02.04.07.04.11.02l.1-.05c.04-.02.05-.07.02-.11m-1.34-.5c-.03-.04-.08-.04-.11 0-.04.04-.07.07-.07.1 0 .04.02.06.04.1.04.03.1.03.14 0 .03-.03.06-.05.07-.09 0-.02-.03-.06-.07-.1M18.1 7.42c0 .03.03.06.08.11.03.04.08.04.1 0 .04-.06.07-.1.07-.14 0-.03-.09-.12-.1-.1-.07.02-.14.07-.15.13m-9.4 10.62c-.02 0-.05.03-.07.06a.1.1 0 000 .13c.02.03.05.06.08.06s.06-.03.11-.07c.04-.03.04-.08 0-.11-.05-.04-.08-.07-.12-.07m-3.03-.4c.04-.04.07-.07.07-.09a.31.31 0 00-.14-.15c-.01 0-.12.07-.12.1.01.05.04.09.08.14.03.04.07.04.11 0m.16.62c-.05-.04-.1-.07-.13-.07-.02 0-.05.02-.07.05a.1.1 0 000 .12c.02.02.04.04.06.04.04 0 .08-.02.14-.05.04-.03.04-.06 0-.1M16.64 7.94a.42.42 0 00-.12-.05c-.02 0-.04.03-.06.06-.03.04-.01.08.04.1l.09.03c.04.01.1 0 .1-.03.02-.03 0-.08-.05-.1m.2 5.04a.35.35 0 00-.13-.05c-.02 0-.05.05-.08.1-.02.05 0 .08.05.08h.12c.05 0 .1-.02.1-.04.02-.02-.01-.06-.06-.09m1-.05c-.03 0-.07.03-.1.05-.05.03-.07.07-.06.1 0 .01.06.03.1.03h.15c.05 0 .07-.03.04-.07-.05-.06-.09-.11-.12-.11m-2.38-5.05c-.03 0-.06.03-.1.05-.03.03-.06.08-.05.09 0 .02.06.03.1.03h.1l.1-.02c0-.02-.02-.06-.06-.1-.03-.02-.06-.05-.09-.05m-3.26 0a.21.21 0 00-.11.04c-.05.03-.08.07-.07.1 0 .02.05.04.1.04h.09l.1-.01c.01-.02 0-.06-.03-.1-.03-.03-.05-.06-.08-.06m3.4 5.04c-.03 0-.07.04-.12.1-.03.05-.02.07.03.07h.14c.05 0 .1 0 .1-.02 0-.01-.01-.05-.05-.09-.03-.03-.07-.06-.1-.06m3.38.06l-.15-.04-.04.05c-.02.03 0 .07.05.09l.09.03c.05.01.1 0 .1-.03.02-.04 0-.07-.05-.1m-11.1 5.2l-.04.03c-.03.04-.03.08.02.1.04.02.08.03.1.02.11-.05.07-.1.03-.15-.04-.03-.08-.04-.12 0M1.16 7.63c.1 0 .19-.05.29-.1a.18.18 0 01.16.03c.13.1.28.22.47.07.22-.17.05-.32-.04-.5-.02-.05.01-.1.05-.13 1.92-.9 3.86-1.55 6.02-.9.04.01.07-.01.04-.05a.37.37 0 00-.12-.16 5.28 5.28 0 00-.6-.34c-.12-.05-.14-.11-.08-.22.14-.25.35-.4.64-.4l.18-.01c.05 0 .1-.01.1-.04 0-.02-.03-.05-.08-.06a.73.73 0 00-.21-.07c-.43-.04-.79.1-1.03.48-.04.08-.11.2-.18.2-.27.03-.54.02-.82.02-.05 0-.09-.04-.08-.1.13-.5.47-.8.84-1.06.04-.03.03-.07-.02-.07a.57.57 0 00-.2 0c-.58.13-.91.52-1.1 1.07-.03.06-.06.16-.12.17-.29.09-.59.16-.9.23-.05.01-.1-.02-.1-.07.01-.47.2-.82.57-1.1.04-.02.03-.05-.02-.06a.75.75 0 00-.33.04.94.94 0 00-.58.72c-.03.16-.06.32-.07.48 0 .13-.06.18-.18.22a12 12 0 00-.79.27c-.15.07-.2.01-.22-.13a1.02 1.02 0 01.23-.77l.34-.38c.04-.04.02-.07-.03-.07-.36 0-.57.19-.75.43-.25.33-.26.7-.2 1.08 0 .06 0 .15-.05.17a.98.98 0 01-.37.18c-.07.01-.15-.14-.24-.17-.1-.04-.23-.07-.32-.03-.07.04-.17.2-.15.26.08.2.02.32-.16.42-.15.09-.12.24-.05.35.05.07.17.11.26.1m14.8 9.74a.89.89 0 00-.33.28c-.13.22-.3.26-.53.22a3.48 3.48 0 00-.23-.03c-.13-.01-.15-.09-.1-.19.09-.27.22-.51.46-.68a.6.6 0 00.08-.06c.04-.03.03-.07-.02-.09-.23-.06-.5.04-.66.28-.12.18-.2.39-.31.58-.04.07-.09.17-.15.19-.14.03-.3.03-.43.04a.1.1 0 01-.11-.08c-.07-.46.14-.8.43-1.1.04-.04.02-.07-.03-.06a.85.85 0 00-.26.08c-.34.18-.57.48-.56.85 0 .4-.2.52-.52.55l-.04.02c-.2.05-.25 0-.27-.2-.03-.29 0-.56.21-.78.04-.04.03-.07-.02-.07a.55.55 0 00-.49.32 1.03 1.03 0 00-.08.75c.02.07-.02.2-.07.25-.15.1-.32.22-.5.24-.1.01-.21-.16-.32-.25l-.01-.01c-.15-.1-.27-.06-.38.05-.1.12-.08.25.02.36a.44.44 0 00.06.05c.03.03.03.09 0 .12-.28.32-.29.39-.15.54.13.15.25.15.52 0 .05-.03.12-.03.15 0 .12.14.22.34.47.17.05-.03.09-.11.08-.16-.02-.12-.07-.24-.12-.38a.1.1 0 01.05-.13c.24-.13.5-.28.78-.4a6.4 6.4 0 011.91-.32c.64-.05 1.25.07 1.75.52l.06.03c.04 0 .06-.02.05-.07-.03-.1-.04-.18-.08-.24-.09-.12-.2-.23-.3-.34-.18-.19-.2-.33 0-.5.1-.09.23-.15.37-.22.04-.02.05-.07 0-.1-.1-.08-.24-.11-.38-.03m-1.01 3.03c-.12.03-.23.05-.33.1-.14.08-.25.2-.37.31-.14.12-.48.14-.58 0-.12-.15-.02-.3.09-.42.09-.1.2-.18.32-.26a.87.87 0 01.14-.08c.05-.03.04-.06 0-.07l-.1-.02a.9.9 0 00-.83.64c-.06.23-.17.32-.4.34-.15.01-.2-.03-.25-.16-.06-.2.01-.37.12-.53l.15-.23c.02-.04 0-.07-.04-.06-.43.12-.67.56-.6 1 .02.17-.13.35-.34.36-.17 0-.22-.15-.22-.28l.03-.4c0-.05-.01-.09-.04-.07a.13.13 0 00-.05.02c-.25.17-.32.47-.16.8.07.15.06.24-.07.34-.13.1-.22.16-.37 0-.06-.06-.24-.06-.33-.02-.14.07-.06.21 0 .3a.9.9 0 00.12.15c.03.04.03.1-.01.12-.03.02-.05.04-.06.07-.03.1-.08.24-.04.3.05.06.2.06.3.06.05 0 .1-.06.14-.11.1-.13.21-.18.34-.03.02.03.06.06.08.06.1 0 .22.02.26-.02.05-.05.03-.19 0-.26-.05-.06-.11-.11-.19-.17a.08.08 0 010-.12c.4-.37.83-.6 1.32-.72.66-.16 1.3-.2 1.87.3h.03c.02-.01.03-.05 0-.1a.36.36 0 00-.04-.1.77.77 0 00-.18-.19c-.16-.11-.16-.24-.03-.38l.35-.37c.03-.03.06-.08.06-.1h-.1M6.9 22.44l.12.04c.04.02.09-.01.09-.06v-.08c.01-.05-.02-.09-.07-.1h-.1c-.04 0-.09-.03-.1-.05 0-.02.02-.05.05-.07a.12.12 0 00.06-.04c.03-.05.04-.15.02-.16-.05-.03-.18-.06-.18-.04a3.38 3.38 0 00-.18.47.57.57 0 00.15.07c.05.02.1.01.14.02m1.04.33c.04.05.12.07.18.1l.1.01.13.04a.09.09 0 00.11-.06l.03-.1c.02-.06.06-.12.1-.16.06-.09.04-.16-.08-.2-.04 0-.08 0-.12.02l-.08.03v.09c.03.06.07.12.01.16-.04.03-.1.01-.1 0l-.04-.04c-.06-.02-.13-.05-.18-.03-.03 0-.08.13-.06.14m1.03.2c-.11.08-.07.14-.03.2l.04.08a.3.3 0 01.09-.02c.07-.01.14 0 .2.07.03.02.12.03.15 0a.21.21 0 00.06-.15c-.01-.1-.43-.23-.51-.18M8.7 23.18a.37.37 0 00-.19 0c-.03 0-.06.1-.05.13.04.05.12.11.16.1.1-.03.13 0 .16.05.03.04.08.07.13.05.13-.05.15-.08.1-.19l-.04-.07a.58.58 0 01-.09-.02l-.18-.05m-1.49-.94c.06-.02.13-.03.18.07 0 .02.12 0 .16-.02.03-.02.06-.1.05-.13a.4.4 0 00-.16-.11c-.04-.01-.1.02-.11 0-.08-.1-.18-.13-.24-.04-.03.04 0 .1.01.16.01.05.06.08.11.07m1.66 1.38l-.05-.08a.53.53 0 01-.08.02l-.1-.01c-.08-.09-.14-.08-.2-.05-.05.02-.1.07-.1.13 0 .21.34.04.39.22h.1c.05-.03.1-.09.1-.12a.45.45 0 00-.06-.11m-.6-.13a6.6 6.6 0 01-.09-.05c-.04-.03-.09-.01-.1.04l-.04.13c0 .03-.01.06-.03.07-.14.09-.1.17-.05.25.03.04.09.04.13 0 .05-.04.1-.07.1-.09-.06-.13.02-.19.1-.24.03-.03.02-.08-.02-.1m.27-1.2c.04.03.08.05.1.03 0-.02.04 0 .08.02a.34.34 0 00.25.05c.03 0 .08-.1.06-.11a.45.45 0 00-.14-.13.74.74 0 00-.2-.07.38.38 0 00-.19 0c-.02 0-.05.1-.04.13a.27.27 0 00.08.08m-1.82.36a.37.37 0 00-.14-.16c-.05-.03-.12-.04-.18-.06-.05-.02-.13-.05-.16-.03-.04.04-.08.12-.06.17.01.04.1.06.16.08.04.02.1.03.14.06a.3.3 0 01.06.04c.03.02.1.01.13-.02.03-.04.06-.07.05-.08m2.49.74c-.03.01-.06.04-.08.07-.03.04-.04.08-.03.1.02 0 0 .04-.02.08a.26.26 0 00-.03.07c-.02.06-.03.13 0 .16.02.04.11.08.14.06.04-.03.06-.1.09-.16l.05-.13c.01-.06.05-.14.03-.19-.01-.04-.1-.08-.15-.06m-1.97-.92c.02.14-.04.25-.1.36-.02.01.01.05.05.1.03.04.09.05.13.02.04-.04.07-.06.07-.09a.49.49 0 01.1-.28c.02-.03-.03-.15-.08-.18-.04-.02-.17.05-.17.07m.3.68c-.1-.04-.2-.06-.33-.09-.05 0-.11 0-.14.03-.01.02-.03.04-.02.06 0 .06.06.12.11.14a.66.66 0 00.24.08.37.37 0 00.11 0 .1.1 0 00.07-.12c0-.05-.02-.1-.04-.1m.5-.06c-.01-.07-.09-.13-.15-.17a.5.5 0 00-.2-.05h-.08c-.05 0-.09.05-.09.1s.01.1.03.11c.09.05.19.07.3.1.06.02.12 0 .16-.02.02-.03.04-.06.03-.07m.8-.59c-.04-.01-.13.02-.15.06a1 1 0 00-.13.35c0 .03.03.08.07.13a.09.09 0 00.12.01c.04-.02.06-.04.07-.06.04-.11.08-.23.1-.35 0-.04-.04-.13-.08-.14m-.68-.03l.05-.01a.54.54 0 01.09-.02l-.02-.09.01-.11c.13-.11.1-.2.05-.28-.04-.04-.08-.03-.1.01l-.11.18a.3.3 0 00-.03.1l-.02.16c0 .05.03.08.08.06m-2.05-.47a.1.1 0 00-.14 0c-.03.03-.06.05-.07.08 0 .04.03.08.07.14.04.04.08.04.12 0 .05-.05.1-.08.1-.12-.01-.03-.04-.06-.08-.1m3 .86c.05 0 .09-.03.14-.07.04-.03.04-.08 0-.12-.04-.04-.07-.08-.1-.07-.06 0-.13.07-.15.12 0 .05.08.14.12.14m-.06 1.16c-.04 0-.07.03-.1.06-.05.03-.05.08-.03.13.03.03.06.06.09.07.04 0 .08-.02.13-.06.05-.03.05-.08.02-.11-.05-.05-.08-.09-.11-.09m-1.24-1.6c.04 0 .07-.04.12-.09.03-.03.03-.09 0-.12-.06-.04-.1-.08-.12-.07a.32.32 0 00-.1.09.1.1 0 000 .13c.04.03.07.06.1.06m-.08.36c.03 0 .06-.02.1-.04.04-.03.07-.07.06-.1a.31.31 0 00-.1-.09.2.2 0 00-.1-.05c-.03 0-.12.1-.12.12.04.06.1.13.16.16m-.76-.18a.09.09 0 00-.12 0c-.04.05-.08.09-.07.1a.3.3 0 00.08.11.1.1 0 00.13 0c.03-.02.07-.06.07-.1 0-.02-.04-.06-.09-.1m-.16.32c-.03 0-.06.03-.1.08-.04.04-.04.08 0 .12.04.04.08.08.12.08.03 0 .06-.04.09-.08a.1.1 0 00-.01-.13c-.03-.03-.06-.06-.1-.07m2.35-.67c-.04.05-.07.09-.06.12 0 .03.03.06.06.09a.11.11 0 00.14 0c.03-.03.06-.06.06-.09s-.03-.07-.08-.12c-.04-.04-.09-.04-.12 0m-.57 1.7c-.03.03-.03.12 0 .18 0 .02.02.04.05.06.03.03.08.02.1 0a.16.16 0 00.05-.07c0-.05 0-.14-.02-.17-.05-.03-.15-.03-.18 0m-2.2-1.65c.02.01.06-.03.1-.07.05-.03.05-.08 0-.12-.04-.04-.08-.07-.12-.08-.04 0-.12.1-.12.13.01.06.08.13.14.14m1.85.76l-.1.01c-.07.1-.03.17.1.24.04.03.08 0 .08-.04v-.12a.09.09 0 00-.08-.1m1.46-12.5c.18 0 .29.14.34.4.06.36.02.62-.11.72-.05.03-.09 0-.1-.06 0-.33.03-.68-.17-.98-.03-.04-.01-.08.04-.08m-1.68 1.65c-.15-.24-.27-.25-.42 0l-.58 1.07a.18.18 0 00-.02.09c0 .05.02.1.03.1.02.01.06 0 .1-.04.09-.05.18-.1.18-.15 0-.35.21-.6.37-.86a.3.3 0 01.07-.08.08.08 0 01.12.02l.15.23c.08.17.12.36.36.4.02 0 .06.07.05.11 0 .03-.05.08-.1.09-.11.03-.24.04-.36.06-.15.02-.21.09-.2.24.02.22.05.44.04.65-.03.27.14.4.3.57.02.04.08.04.1 0l.13-.17c.03-.04.01-.07-.04-.07-.23 0-.28-.15-.29-.35L8 13.82c0-.33.08-.4.39-.3.22.05.44.12.65 0 .12-.06.2-.05.3.02.24.17.5.25.8.21h.25c.05 0 .08.01.07.03-.02.01-.01.06 0 .11l.17.42c.02.09.03.23-.02.28-.2.2-.44.36-.65.56-.1.09-.19.2-.28.31-.03.04-.05.09-.03.11.02.02.07.02.11-.01a1.28 1.28 0 00.18-.13c.06-.05.1-.13.15-.17.27-.17.55-.32.82-.48.12-.07.17-.16.16-.31a.52.52 0 01.02-.17c.01-.04.06-.06.1-.03.12.1.22.18.33.22.2.07.22.19.13.32-.15.23-.34.44-.5.67l-.22.35c-.03.05-.04.1-.03.1.01.02.06.02.11 0l.15-.02c.05-.01.08-.06.08-.11-.01-.17.1-.26.25-.33a.7.7 0 00.24-.16c.11-.12.2-.27.3-.4.1-.14.15-.25.01-.42-.26-.31-.23-.45 0-.78.1-.13.17-.3.2-.47.03-.26.09-.31.35-.24.09.02.19.03.29.03.05 0 .09 0 .09-.02s-.03-.05-.07-.09a.8.8 0 00-.06-.04c-.04-.03-.05-.1-.03-.14l.12-.2c.03-.04.01-.05-.04-.03-.14.08-.19.08-.24.01-.03-.04-.01-.1.03-.13l.18-.12c.04-.03.03-.06-.01-.08l-.24-.09c-.05-.01-.06-.06-.03-.1.1-.12.19-.22.15-.36-.01-.05-.05-.05-.07-.01a.2.2 0 01-.04.07.55.55 0 01-.1.07c-.05.02-.09 0-.1-.05 0-.05-.02-.1 0-.13.06-.12.15-.22.22-.33l.08-.14c.02-.05 0-.06-.04-.04-.29.13-.54.26-.58.59 0 .05-.02.08-.03.08a.3.3 0 01-.07-.1l-.04-.08c-.02-.04-.07-.05-.1 0-.09.12-.02.25.06.37l.32.49c.1.16.07.3-.05.44-.04.04-.09.04-.12 0-.29-.32-.68-.27-1.06-.26a4.04 4.04 0 01-.5 0c-.18-.02-.31-.1-.35-.28-.05-.2-.02-.37.14-.5.15-.12.29-.05.42.04h.03c.02-.02.02-.06 0-.1l-.1-.31c-.01-.05.01-.08.06-.05l.18.08.1.02c.02-.01 0-.05-.02-.1l-.14-.24c-.03-.05 0-.07.04-.07l.1.02c.05 0 .07-.02.04-.06l-.22-.24a1.05 1.05 0 01-.13-.21.09.09 0 01.04-.12l.18-.1.02-.02c0-.01-.02-.04-.07-.05a.79.79 0 00-.49.01c-.07.02-.15 0-.24-.02-.05 0-.07-.05-.06-.1l.07-.2v-.03c0-.02-.05-.02-.1 0-.34.2-.62.54-1.09.47-.05-.01-.06 0-.03.05l.04.05c.03.04.02.09-.02.12l-.65.44c-.04.03-.03.07.01.09.2.1.35.22.55.08.03-.02.08 0 .15.02.05.02.06.06.04.1l-.19.28-.39.53c-.03.05-.06.1-.1.13a.1.1 0 01-.12.03c-.07-.04-.14-.09-.18-.15m-.82-2.55a.32.32 0 01-.17-.05c-.02-.01-.04 0-.05.02l-.01.07c0 .02 0 .04.02.05a.4.4 0 00.2.06c.19 0 .3-.12.3-.3 0-.15-.06-.24-.22-.32-.11-.05-.15-.1-.15-.17 0-.06.04-.14.14-.14.06 0 .1.02.13.04.02 0 .04 0 .05-.02l.02-.07a.05.05 0 00-.03-.05.37.37 0 00-.17-.04c-.17 0-.28.12-.28.3 0 .13.07.22.23.3.1.04.14.09.14.17 0 .1-.06.15-.15.15m.35-.76h.21v.85c0 .03.02.04.04.04h.07c.02 0 .04-.01.04-.04v-.85h.21a.04.04 0 00.04-.03V8.8c0-.02-.02-.04-.04-.04h-.57a.04.04 0 00-.04.04v.07c0 .02.02.03.04.03m.98.9c.2 0 .33-.16.33-.44V8.8a.04.04 0 00-.04-.04h-.07a.04.04 0 00-.04.04v.57c0 .13-.03.3-.18.3-.1 0-.17-.11-.17-.3V8.8a.04.04 0 00-.04-.04h-.07a.04.04 0 00-.04.04v.56c0 .39.2.45.32.45m.42-.9h.21v.84a.04.04 0 00.04.04h.07c.02 0 .04-.01.04-.04v-.85h.21a.04.04 0 00.04-.03V8.8c0-.02-.02-.04-.04-.04h-.57a.04.04 0 00-.04.04v.07c0 .02.02.03.04.03m.66 0h.21v.85c0 .03.02.04.04.04h.07c.02 0 .03-.01.03-.04v-.85h.22a.04.04 0 00.04-.03V8.8a.04.04 0 00-.04-.04h-.57c-.02 0-.04.02-.04.04v.07c0 .02.02.03.04.03m.7.76a.4.4 0 00.32.14.68.68 0 00.25-.05.06.06 0 00.03-.04v-.44a.04.04 0 00-.04-.04h-.23a.04.04 0 00-.04.04v.06a.04.04 0 00.04.04h.13v.26l-.01.01a.35.35 0 01-.12.02c-.18 0-.3-.15-.3-.39 0-.23.12-.38.31-.38.06 0 .12.01.16.03a.03.03 0 00.05-.02l.02-.06a.04.04 0 00-.03-.06c-.02 0-.1-.03-.2-.03-.27 0-.46.21-.46.53a.59.59 0 00.12.38m.92-.32l.07-.26.03-.11.03.1.07.27h-.2zm-.22.45h.07c.02 0 .04-.01.04-.03l.08-.27v-.01h.26l.08.28c.01.02.03.03.05.03h.07l.03-.01a.04.04 0 000-.03l-.27-.96a.05.05 0 00-.04-.03h-.09a.05.05 0 00-.04.03l-.27.96a.04.04 0 000 .03.04.04 0 00.03.01zm.92-.57v-.32a.39.39 0 01.08-.02c.08 0 .18.04.18.17 0 .11-.07.18-.17.18h-.1zm-.1.57h.06c.02 0 .04-.02.04-.04v-.4h.08c.09.01.12.06.15.19.02.12.03.18.05.22a.05.05 0 00.04.03h.07a.04.04 0 00.03-.01v-.03a2.91 2.91 0 01-.06-.25c-.01-.1-.05-.17-.1-.2a.28.28 0 00.14-.26.3.3 0 00-.07-.2c-.06-.06-.13-.1-.25-.1a.85.85 0 00-.19.03.04.04 0 00-.04.04v.94a.04.04 0 00.04.04zm.57-.89h.21v.85c0 .02.02.04.04.04h.07a.04.04 0 00.04-.04v-.85h.21a.04.04 0 00.04-.04v-.06c0-.02-.02-.04-.04-.04h-.57c-.02 0-.04.02-.04.04v.06c0 .02.02.04.04.04"/>
  </g>
</svg>
