<svg xmlns="http://www.w3.org/2000/svg" viewBox="0 0 34 25">
  <defs/>
  <g fill="#b0b0b0" fill-rule="evenodd">
    <path d="M16.77 4.82l2.3 3.26-2.3 3.33-2.4-3.33 2.4-3.27zm2.85 3.08L17.06 4 18.42.75l-4.66 7.11 2.98 4.17 2.88-4.14z"/>
    <path d="M14.85 0l-.08.13-4.63 7.67-.08.14.08.14 4.8 7.8.09.13h3.64l.08-.13 4.74-7.8.08-.14-.08-.14-4.7-7.67L18.7 0h-3.85zM10.7 7.93l4.46-7.4h3.25l4.54 7.4v.02h-2.86l-4.1 5.92.55-1.34-3.22-4.58H10.7l-.01-.02zM3.44 21h-1v-1.18h1s.18.32.18.6c0 .28-.18.58-.18.58m1.9-.8c0-1.25-1.03-1.43-1.03-1.43H0c.03.37.68.74.68.74v3.83l-.49.23v.58H3v-.58l-.55-.23v-1.67h.25l.91 2.46h1.92v-.53l-1.3-1.91s1.13-.24 1.13-1.49m5 2.12H9.19v.93H8.18v-1.51h.68l.25.34h.58v-1.5h-.51l-.34.34h-.66v-1.25h1v.58h1.24v-1.5H5.85v.5l.51.23v3.84l-.5.32v.52h4.5zm3.35 1.85h1.47v-4.58l.59-.25.01-.6h-2.02v.58l.5.17.02 1.85-1.49-2.6-2.09.02v.48l.33.17v4l-.51.32v.43h2v-.43l-.48-.3V21.4zm3.61-2.58l.24-.8.3.8h-.54zm.6 2.56h2.82v-.58l-.51-.21-1.63-4.61-2.35-.02v.59l.67.64-1.03 3.4s-.24.18-.54.3v.49h1.91v-.5l-.5-.17.3-.98h1.14l.32.85-.6.32v.48zm4.9.34c1.8 0 2-1.41 2-1.41v-3.5l.43-.16v-.58H23.4v.56l.58.19v3.64s-.4.25-.75.25c-.36 0-.65-.25-.65-.25v-3.64l.65-.27v-.5l-3.33.02v.5l.84.25v3.52s.26 1.38 2.07 1.38m5.83-1h-.92v-3.66l.77-.42v-.59h-3.02v.58l.42.19v3.99l-.5.17v.55l4.26.02v-1.76h-1.01z"/>
    <path d="M29.06 20.67h1.09l.01-.85h.4v3.5l-.75.33v.65h3.17v-.65l-.75-.32v-3.51h.33v.85h1.07v-1.83h-4.57z"/>
  </g>
</svg>
