<svg xmlns="http://www.w3.org/2000/svg" fill="none" viewBox="0 0 26 26">
  <defs/>
  <path fill="#fff" fill-rule="evenodd" d="M0 0h26v26H0V0z" clip-rule="evenodd"/>
  <g filter="url(#filter0_d)">
    <path fill="#fff" fill-rule="evenodd" d="M13.6 13.42l-.15-2.94c.23-.37.38-.77.22-1.23-.2-.58-.37-.7-.64-.77-.14-.03-.5.18-.58.57-.09.4-.27.99.12 1.4l-.28 3.05-2.13.83-.63.25-.62.3-.57.29-.55.33-.53.35-.22.16-.17-.82L6.65 14l-.2-1.19-.17-1.2-.22-1.77-.15-1.45-.08-1.12v-.8a.6.6 0 01.55-.5H19.9a.51.51 0 01.46.51l-.02.24-.12 1.2L20.09 9l-.13 1-.14.93-.23 1.36-.26 1.36-.28 1.36-.23.99-.3-.24-.64-.43-.65-.4-.67-.37-.21-.1-.54-.22-.57-.2-.49-.15-1.15-.48z" clip-rule="evenodd"/>
  </g>
  <path fill="#b0b0b0" fill-rule="evenodd" d="M7.34 2.67H6.32v.07c.24.02.29.05.29.3v1.45c0 .25-.02.32-.29.34v.06h.93v-.06c-.27-.01-.3-.08-.3-.3v-.66h.19l.2.26.6.76h.54v-.06c-.14 0-.22-.07-.3-.16l-.68-.85c.17-.03.6-.11.6-.56 0-.47-.45-.57-.76-.59zm10.97 1.04c.2-.05.39-.17.39-.46 0-.31-.22-.41-.4-.44l-.18-.01c-.18 0-.2.02-.2.12v.82c.1 0 .25 0 .39-.03zm0-1.04c.3.02.76.12.76.59 0 .45-.44.53-.61.56l.69.85c.07.1.15.15.3.16v.06h-.55l-.6-.76-.2-.27h-.19v.67c0 .22.04.29.3.3v.06h-.92v-.06c.27-.02.28-.09.28-.34V3.04c0-.25-.05-.28-.28-.3v-.07h1.02zm-8.2 2.15h.01c.37 0 .71-.3.71-1.04 0-.76-.37-1.03-.71-1.03-.34 0-.72.27-.72 1.03 0 .74.35 1.04.72 1.04zm0-2.2h.01c.55 0 1.1.4 1.1 1.17 0 .71-.5 1.15-1.1 1.15-.61 0-1.1-.44-1.1-1.15 0-.77.55-1.16 1.1-1.16zm3.92.05h-.69v.07c.13 0 .25.01.25.15 0 .07-.06.21-.07.23l-.49 1.23-.5-1.13c-.08-.17-.14-.31-.14-.36 0-.1.06-.11.25-.12v-.07h-.9v.07c.16 0 .22.04.36.35l.83 1.84h.05l.74-1.88c.1-.26.15-.3.31-.31v-.07zm2.62 1.66h-.1c-.15.34-.31.44-.74.44-.5 0-.5 0-.5-.15V3.8l.52.01c.28 0 .33.05.37.32h.08v-.78h-.08c-.04.24-.07.32-.37.32h-.51V2.9c0-.11.04-.11.1-.11h.46c.37 0 .46.05.51.35h.08v-.48h-1.79v.07c.21.01.3.03.3.3v1.49c0 .26-.08.29-.3.3v.06h1.81l.16-.56zm-9.3-.62c-.14.03-.29.03-.4.03v-.82c0-.1.03-.12.2-.12l.2.01c.17.03.39.13.39.44 0 .3-.19.41-.4.46zm-.13 12.47l-.33.24-.25-1.19-.23-1.19-.2-1.2-.17-1.2-.22-1.78-.15-1.45-.08-1.13-.01-.8v-.04l.01-.04v-.04l.02-.03.03-.08.03-.08.03-.06.04-.06L5.8 6l.05-.05.06-.05.07-.05.06-.03.06-.03.08-.03.08-.02h.07l.04-.01H19.95l.03.01.07.02.06.02.06.02.05.03.05.03.05.04.05.04.04.05.05.05.03.05.03.06.03.06.02.06.01.06.01.06v.26l-.01.1-.12 1.2-.13 1.1-.13 1.01-.14.92-.23 1.38-.26 1.36-.29 1.36-.3 1.35-.12-.08-.49-.37-.28-.2-.34-.23-.4-.24-.24-.15-.54-.3-.12-.07-.2-.1-.24-.1-.15-.06-.13-.05-.33-.12-.24-.08-.13-.04-.1-.03-.24-.07-.24-.06.08.19.08.18.09.18.1.17.08.16.09.16.06.1.03.05.1.16h.15l.08.02.08.02.06.02.06.03.06.04.06.04.06.05.05.06.04.05.04.06.03.07.04.07.01.04.01.03.01.04v.04l.03-.01.02-.01.03-.01h.03l.05-.02H16.37l.05.02.05.02.05.02.04.02h.01l.04.03.04.03.04.04.03.04.04.04.02.05.03.04.01.04.02.05.01.06.01.05v.11h.03l.03-.01h.2l.05.01.06.02.05.02.06.02h.01l.05.03.05.03.04.05.05.04.04.04.04.05.03.05.03.06.02.05.02.06.02.05V17.6l.35.15.56.22-.4 1.15-.16-.05-.74-.26-.78-.28-.07-.02-.09.18-.09.19-.1.17-.1.18-.13.2-.13.18-.02.02-.14.2-.16.18.32.17.71.37.78.41.27.14-.06.43-.13.4-.08.14-.12.22-.27.33-.04.03-.07.04-.1.04-.14.06-.04.01-.14.06-.16.05-.14.04-.12.03-.15.02-.43.06-.4.03-.32.03-.52.02-.34.01h-.68l-.31.01-.95-.01h-.1l-.55-.03-.17-.01-.7-.06-.58-.08-.18-.04-.03-.01-.03-.01-.1-.03-.15-.05-.13-.05-.06-.04-.07-.05-.09-.07-.09-.08-.07-.06-.04-.04-.02-.02-.06-.06-.04-.06-.02-.03-.02-.03-.02-.04-.02-.04-.44-1.03.64-.31.8-.38.03-.02.8-.39.04-.02-.04-.04-.04-.04-.07-.09-.08-.08-.06-.1-.13-.17-.13-.2-.11-.18-.11-.2-.05-.1-.02-.04-.03-.06-.05-.1-.04-.1-.7.24-.79.27-.32.12-.43-1.22.75-.28.19-.07v-.16l.03-.09.03-.08.03-.07.03-.06.05-.07.05-.06.06-.06.06-.05.07-.04.06-.03.08-.04.04-.01.05-.01.04-.02h.12l.01-.04.01-.04.02-.03.02-.03.04-.08.04-.06.05-.05.04-.05.06-.05.06-.05.06-.04.07-.03.06-.03.05-.01.02-.01.07-.02.08-.01h.04l.03-.01h.08V16l.01-.03v-.03l.03-.07.03-.07.03-.05.03-.05.04-.06.04-.04.05-.05.06-.04.05-.03.06-.03.06-.03h.02l.05-.02h.06l.06-.02h.14l.04.01h.03l.03.01.03.02.09-.13.08-.13.07-.13.08-.13.1-.19.09-.18.08-.2.08-.18-.25.07-.39.11-.47.17-.16.05-.61.26H9.6l-.03.02-.55.26-.25.13-.3.16-.48.28-.07.04-.53.35-.17.13zm11.64-9.44a61.52 61.52 0 01-.33 3.5 71.22 71.22 0 01-.83 4.7l.39.26.62.43.15-.68a44.05 44.05 0 001.16-8.78H18.9l-.03.57zm-.77-.58h-.74c-.07 1.32-.2 2.65-.36 3.96a49.74 49.74 0 01-.76 3.95l.34.2.76.43.02-.08a50.91 50.91 0 00.88-5.08c.1-1.12.2-2.24.24-3.37h-.38zm0 12.03l-.45-.2-.29.22-.14.12.14.05.7.26.04-.1.1-.3-.1-.05zm-.74-.8v-.06l-.03-.09-.05-.08-.05-.05-.05-.02H17.05l-.07.02-.09.03-.07.04-.08.06-.06.06-.06.07-.05.07-.03.07-.02.07-.01.13v.1l.02.1.04.06.06.05.06.03h.16l.1-.03.1-.05.09-.08.09-.1.06-.1.04-.08.02-.08v-.14zm-.78-11.22h-.83c-.07 1.29-.19 2.58-.34 3.87a58.58 58.58 0 01-.6 3.58l.23.07.83.25h.04c.26-1.26.49-2.54.67-3.82l.03-.2c.15-1.25.25-2.5.32-3.75h-.35zm0 14.84l-.19-.09-.24-.1-.28-.09-.03-.01-.28-.08-.25-.06-.23-.04h-.04l-.17-.01h-.38l-.16.04-.13.04-.04.01-.17.09-.19.1-.2.13-.09.08-.11.11-.13.13-.1.11-.04.06-.05.06-.05.07-.04.07-.05.07-.04-.09-.04-.08-.05-.08-.05-.07-.13-.15-.13-.13-.14-.12-.13-.1-.15-.09-.17-.07-.1-.04-.07-.02-.17-.05-.16-.02-.14-.01h-.23l-.2.02-.25.04-.18.04-.1.02-.3.09-.32.1-.08.03-.03.02-.13.05-.24.1-.24.12-.19.1-.04.03.04.11.04.11.13-.06.13-.06.13-.05.13-.05.24-.1h.03l.22-.08.16-.05.11-.03.25-.03h.48l.23.04.2.05h.03l.21.08.22.1.1.04.12.07.17.11.18.14.18.16.19.19.07.09.08.1.06.09.06.1.06-.1.07-.1.07-.09.05-.05.02-.03.19-.18.17-.16.18-.13.17-.12.21-.1.08-.04.13-.05.22-.07.22-.06.24-.03h.03l.2-.02h.23l.22.03.16.03h.02l.16.05.22.07.24.1.1.04.02.02.12.06.12.06.11.07.14-.33-.23-.13-.24-.12-.05-.02zm0 .85l-.25-.1-.43-.1h-.03l-.4-.05H15l-.43.06-.38.1h-.03l-.4.17-.37.2.16.22.28-.14.29-.1.07-.02.22-.05.3-.02.32.06.3.06.21.02.2.01H15.9l.15-.02.17-.04.18-.05.16-.07.16-.08-.16-.06zm-.71-5.22l-.05.05-.06.06-.04.07-.03.08-.02.07-.02.12v.11l.03.09.04.07.05.04.07.03h.03l.04.01H16l.1-.03.09-.06.1-.08.08-.1.06-.08.04-.09.02-.08.01-.08v-.12l-.03-.1-.05-.07-.06-.05-.04-.02h-.12l-.08.02-.08.03-.08.04-.07.05-.02.02zm0 1.22h-.07l-.08-.02-.08-.02-.06-.03-.07-.04-.07-.04-.06-.05-.06-.06-.04-.05-.05-.06-.04-.07-.04-.08-.01-.04-.02-.04v-.04l-.01-.03h-.07l-.03.01H14.89l-.07-.02-.07-.01-.05-.02-.07-.03-.06-.04-.05-.03-.05-.05-.05-.05-.04-.05-.04-.06-.03-.06-.03-.06-.01-.06-.02-.07v-.08l-.01-.03v-.1l-.05-.08-.47-.7v.78l.19.27.2.26.08.08.15.16.24.23.34.27.11.08.23.17.37.23.23.12.15.08.13-.38-.1-.09h-.18zm0 1l-.27-.2-.28-.22-.27-.22h-.01l-.25-.22-.28-.25-.27-.25-.04-.03-.22-.22-.26-.27v.64l.19.16.19.16.1.1.08.07.2.16.27.23.29.24.28.23.28.24.27-.34.01-.01h-.01zm-.83-12.7h-3.95c.03 1.25.09 2.5.18 3.74l.04.52c.1 1.05.23 2.09.4 3.12l.1-.02.16-.04c.24-.9.37-1.74.4-2.67v-.38c-.2-.19-.24-.32-.25-.6.03-.2.07-.3.19-.48a.83.83 0 01-.07-.37c.01-.12.03-.22.07-.34l-.1-.1c-.04-.07-.09-.15-.12-.23l-.03-.14c0-.25.1-.51.18-.75.05-.11.06-.22.2-.22.12.05.13.11.15.24l.2.99c.02-.09.1-.12.3-.13a.3.3 0 01.09.01c.07.03.11.08.16.13l.22-1.16.04-.05.15-.08c.19.1.23.58.23.8-.03.26-.1.41-.25.61.09.16.1.27.1.45a1.3 1.3 0 01-.1.35c.1.18.13.29.13.48-.04.23-.09.36-.22.55l.03.32c.12.9.26 1.81.4 2.71l.13.04.17.04c.22-1.12.42-2.25.57-3.38l.1-.91c.1-1.02.18-2.04.23-3.06h-.23zm0 9.8l-.07.06-.07.06-.05.07-.05.07-.03.07-.02.07-.02.13v.1l.03.1.04.06.05.05.07.03h.16l.1-.03.1-.05.09-.08.09-.1.05-.09.04-.08.03-.09v-.19l-.03-.1-.04-.07-.06-.06-.05-.01-.05-.01h-.07l-.08.02-.08.03-.07.04h-.01zm0 3.35l-.14-.1-.22-.18-.22-.18-.19-.17-.07-.07-.12-.11-.17-.19-.18-.2v.6l.13.13.14.12.13.12.07.06.07.05.19.16.19.16.2.15.19.15.31-.28-.23-.16-.08-.06zm-.84-4.75l-.48-.87v.93l.48.84.2.35.29-.37-.49-.88zm0 5.24h-.02l-.12-.1-.1-.1-.09-.1-.08-.1-.07-.11v1.11l.06-.07.06-.07.07-.06.08-.04.15-.07.06-.02.09-.02.15-.03h.16l-.14-.07-.14-.07-.12-.08zM13.17 8.72l-.14-.02-.17.02-.14.07-.09.13-.05.17.13.12v.15l-.33.4.09.1.13-.07.14-.06.14-.02h.15l.14.01h.01l.14.05.13.06.12.09.1-.16-.36-.39v-.16l.14-.12-.04-.17-.08-.12-.13-.07h-.03zm0 1.2l-.12-.01-.13.02-.12.06-.09.1-.06.12.38.36.14-.14.28-.28-.07-.11-.1-.08-.1-.04h-.01zm0 .85h-.46v10.12h.56V10.77h-.1zM11.8 21.82l-.14-.06-.3-.07-.1-.02-.21-.03-.34-.02h-.36l-.33.04-.33.06-.1.02-.02.01-.2.05-.31.12.07.1.1.1.1.06.13.06h.14l.19-.01.34-.03.27-.03.2-.02.66-.09.24-.03.18.05.12.04.05.03.16.09.14.12.18-.21-.15-.13-.17-.1-.17-.09-.04-.01zm0-7.26l-.54.97-.02.03.02.01.37.2.17-.3.5-.83v-.96l-.5.88zm0 1.75l-.02.03v.13l-.01.04-.03.09-.02.08-.04.08-.03.06-.05.07-.05.07-.06.06-.07.05-.06.04-.07.04-.03.01-.05.03-.09.02-.04.02h-.04l-.04.01h-.04l-.02.03v.03l-.03.03-.01.03-.05.06-.04.06-.04.04-.05.05-.05.04-.06.04-.06.03-.06.02-.05.02-.04.01h-.03l-.07.02-.07.01h-.14l-.22.14.22.5.25-.19.06-.04.18-.14.23-.2.23-.2.22-.2.1-.1.32-.32.12-.12.2-.2.29-.33v-.76l-.49.7zm0 1.2l-.2.2-.24.23-.1.09-.18.15-.29.24-.29.22-.1.07-.2.14.2.23.05.06.26-.18.25-.19.25-.2.05-.04.2-.16.21-.19.13-.12.09-.08.2-.2.2-.2v-.64l-.21.26-.23.26-.05.04zm0 1.11l-.12.11-.23.2-.2.13v.01l-.21.14-.21.13-.23.11.3.3.19-.1.17-.12h.01l.19-.13.18-.13.16-.12h.01l.17-.14.17-.13.16-.14v-.65l-.2.23-.2.2-.1.1zm0 1.18l-.08.05-.13.09-.14.07-.15.06h.14l.14.01.14.03.08.03.05.01.12.05.12.06.11.07.1.08v-1.15l-.1.14-.1.13-.12.12-.13.11-.05.04zm1.37-10.5v.04l-.01.02-.01.02-.01.01-.01.01-.01.01-.02.01-.02.01h-.01l-.02.01h-.07l-.02-.02h-.01l-.01-.02-.02-.01v-.02l-.01-.01v-.02l-.01-.02v-.07l.01-.01.01-.02.02-.01V9.2l.02-.01.02-.01H13l.01-.01H13.08l.02.02h.02v.02h.02v.02l.02.02v.04zm-1.91 3.25c-.15-.94-.28-1.89-.38-2.83-.11-1.2-.2-2.38-.24-3.57H9.37a81.55 81.55 0 00.3 3.92c.17 1.32.36 2.63.58 3.94l.15-.05.86-.28.17-.06-.17-1.07zm0 3.57l.04.07.03.09.02.12v.1l-.03.08-.05.06h-.01l-.1.06-.13.02-.16-.03-.18-.06-.03-.04-.08-.1-.06-.08-.04-.06-.01-.04-.02-.1v-.1l.01-.08.04-.08.05-.05.06-.04.07-.03.08-.01h.08l.08.03.09.04.08.06.1.07.06.09zm-.86 1.12l.01-.02.03-.08v-.1l-.02-.12-.02-.06v-.03l-.06-.08-.07-.08-.09-.08-.08-.06-.09-.04-.08-.02h-.16l-.07.03-.06.04-.04.05h-.01l-.02.06-.02.02-.01.08v.1l.02.1v.02l.02.02.02.03.01.03.06.08.08.1.04.04.18.06.15.03.14-.02.1-.06.04-.04zm-.8-4.6l-.03-.22c-.08-.57-.16-1.14-.22-1.72a105.9 105.9 0 01-.36-4.54H7.72c.05 1.4.14 2.82.27 4.22v.08c.17 1.43.38 2.83.62 4.25l.16-.07.8-.36.03-.01.23-.1c-.09-.51-.16-1.02-.23-1.53zm-.03 5.26l.02-.07v-.1l-.01-.12-.01-.03-.03-.06-.05-.08-.07-.09-.09-.07-.08-.06-.09-.04-.08-.03h-.16l-.07.04-.06.04-.02.02-.03.03-.03.08-.02.08v.09l.02.1.02.04.03.06.01.02.05.07.08.1.03.03.19.07.15.03.14-.02.1-.06.05-.06zm-1.58.73l.68-.25-.4-.48L8 18l-.34.13.2.55.14-.05zm0-5.19l.28 1.5-.28.17-.77.45c-.25-1.57-.55-3.13-.72-4.7-.18-1.58-.37-3.11-.31-4.7h1.1c.04 1.46.14 2.9.28 4.35a65 65 0 00.42 2.93z" clip-rule="evenodd"/>
  <path fill="#b0b0b0" fill-rule="evenodd" d="M9.8 24.76l-.2-.03-.18-.02-.2-.04-.18-.03-.2-.03-.17-.03-.1-.03-.06-.01-.2-.08-.2-.1-.17-.1-.17-.12-.1-.1-.12-.11-.12-.14-.12-.17-.08-.11-.07-.12-.07-.13-.07-.14-.22-.55-.27-.77-.31-.98-.36-1.19-.27-.94-.25-.91-.21-.86-.19-.83-.26-1.28-.22-1.25-.2-1.2-.15-1.16-.17-1.58-.12-1.52-.08-1.46-.04-1.4v-.58l.02-.5.03-.4.04-.34.02-.12.03-.12.04-.1.04-.12.12-.25.13-.22.13-.2.14-.17.17-.18.19-.16.2-.15.21-.13.2-.1.23-.08.25-.07.28-.07h.05l.09-.01h.12l.16-.02h13.08l.11.02.1.02.28.07.25.08.22.09.2.1.2.14.21.14.18.17.18.19.13.18.13.2.13.23.12.26.04.11.04.11.03.11.02.12.04.56.02.8-.02 1.01-.04 1.24-.07 1.2-.1 1.17-.12 1.17-.15 1.15-.14.88-.17.95-.2 1.04-.25 1.11-.23 1-.25.98-.26.97-.28.96-.25.81-.25.75-.23.67-.23.6-.07.16-.05.13-.05.1-.04.07-.18.27-.19.24-.18.2-.19.18-.2.15-.24.14-.27.14-.3.13-.1.04-.11.03-.13.03-.15.02-.82.11-.93.1-1.04.05-.82.03-.34.02h-1.43l-.72-.04-.72-.05zM13 1.63H6.61l-.15.01h-.1l-.09.01-.04.01-.23.05-.2.06-.2.07-.16.08-.17.11-.17.12-.15.14-.15.15-.11.14-.11.16-.1.2-.1.2-.04.09-.04.1-.02.1-.02.1-.04.3-.03.38v1l.03 1.41.08 1.46.12 1.5.17 1.56.15 1.15.19 1.2.22 1.22.26 1.27.19.82.2.86.25.9.27.95.35 1.16.3.95.27.75.21.54.06.12.06.12.07.1.07.1.1.14.09.1.1.1.08.08.13.1.13.07.15.07.16.07.04.01.1.02.14.03.18.03.18.03.18.03.19.03.18.02.7.05.71.03.7.01h.72l.33-.02.79-.02 1.01-.07.91-.08.8-.11.14-.02.12-.03.1-.03.09-.03.25-.1.22-.12.2-.12.17-.13.16-.15.16-.17.15-.2.16-.23.03-.06.05-.1.05-.1.05-.15.23-.6.23-.66.24-.73.25-.8.28-.95.26-.97.24-.97.23-.99.24-1.1.21-1.02.17-.94.13-.87.15-1.14.12-1.16.1-1.17.07-1.2.05-1.2.01-.98-.01-.76-.04-.53-.02-.1-.02-.1-.03-.09-.04-.1-.1-.21-.1-.2-.11-.16-.12-.15-.14-.16-.16-.14-.16-.12-.18-.11-.17-.09-.18-.07-.21-.07-.23-.06-.09-.01-.09-.01-.1-.01H13z" clip-rule="evenodd"/>
  <defs>
    <filter id="filter0_d" width="22.53" height="18.05" x="1.82" y="5.96" color-interpolation-filters="sRGB" filterUnits="userSpaceOnUse">
      <feFlood flood-opacity="0" result="BackgroundImageFix"/>
      <feColorMatrix in="SourceAlpha" values="0 0 0 0 0 0 0 0 0 0 0 0 0 0 0 0 0 0 127 0"/>
      <feOffset dy="4"/>
      <feGaussianBlur stdDeviation="2"/>
      <feColorMatrix values="0 0 0 0 0 0 0 0 0 0 0 0 0 0 0 0 0 0 0.25 0"/>
      <feBlend in2="BackgroundImageFix" result="effect1_dropShadow"/>
      <feBlend in="SourceGraphic" in2="effect1_dropShadow" result="shape"/>
    </filter>
  </defs>
</svg>
