<svg xmlns="http://www.w3.org/2000/svg" xmlns:xlink="http://www.w3.org/1999/xlink" width="26" height="26" viewBox="0 0 26 26"><defs><path id="a" d="M0 .533h25.455V26H0z"/></defs><g fill="none" fill-rule="evenodd"><g transform="translate(0 -.533)"><mask id="b" fill="#fff"><use xlink:href="#a"/></mask><path fill="#b0b0b0" d="M12.728 1.466c6.504 0 11.807 5.298 11.807 11.806 0 6.496-5.303 11.796-11.807 11.796-6.502 0-11.807-5.3-11.807-11.796 0-6.508 5.305-11.806 11.807-11.806m0 24.534c7.03 0 12.728-5.698 12.728-12.728 0-7.038-5.698-12.74-12.728-12.74C5.699.533 0 6.235 0 13.273 0 20.302 5.699 26 12.728 26" mask="url(#b)"/></g><path fill="#b0b0b0" d="M6.898 19.095c-.96 0-1.633-.156-1.633-.925 0-.867 1.013-1.054 1.816-1.054 1 0 1.949.17 1.949 1H7.653c0-.352-.232-.407-.572-.407-.287 0-.498.084-.498.295 0 .232.184.315.677.315 1.226 0 1.77.214 1.85.783l.807-1.932h1.75l.858 2.07.86-2.07h1.748l.953 2.296V17.17h2.798c.712 0 .89.492.89.78 0 .278-.117.639-.655.72.613.055.747.533.747.809 0 .313-.23.842-.844.842h-3.79l-.203-.503h-1.545l-.205.503H11.77l-.212-.503H10.01l-.203.503H8.606l.11-.28c-.178.17-.508.366-1.591.366-1.032 0-1.965-.222-1.984-1.077h1.377c0 .207.138.423.582.423.542 0 .6-.184.6-.31 0-.195-.15-.348-.802-.348M7.825 8.64c.588.004 1.038-.207 1.43-.207.303 0 .819.15 1.055.67-.133-.101-.411-.248-.858-.248-.321 0-.904.322-1.384.322-.754 0-1.194-.617-1.438-1.17.237.235.63.625 1.195.633m1.494-2.404c.306 0 .647.106 1.027.319.058-.292.242-.611.467-.69-.02.009-.04.01-.06.018L9.41 2.739c.556 0 1.132.239 1.132.695 0 .133-.05.29-.176.466 0 .017.009.025.024.025.009 0 .014 0 .025-.008a.492.492 0 0 1 .393-.177.53.53 0 0 1 .527.53c0 .28-.236.519-.527.519-.04 0-.076 0-.102-.01.013.12.403.326.823.326.344 0 .71-.137.926-.555a.5.5 0 0 1-.304.104c-.308 0-.547-.23-.547-.52 0-.295.239-.53.547-.53a.48.48 0 0 1 .274.082.563.563 0 0 1-.171-.382c0-.292.243-.53.54-.53a.522.522 0 1 1 .384.884.497.497 0 0 1 .245-.053c.292 0 .528.234.528.53 0 .29-.236.519-.528.519a.554.554 0 0 1-.35-.12c.069.232.467.614.974.614.26 0 .547-.104.836-.368-.038.009-.07.009-.095.009a.535.535 0 0 1-.547-.52c0-.291.24-.53.547-.53a.49.49 0 0 1 .378.178c.008.008.017.008.027.008.013 0 .026-.008.026-.025-.125-.176-.18-.333-.18-.47 0-.452.576-.691 1.126-.691l-1.32 3.11c.087.078.172.182.236.294a2.17 2.17 0 0 1 .765-.141c.198 0 .327.029.357.036 0 0 .16.039.184.084-.171.42-.306.668-.468.906.677.689.937 1.556.81 2.684a2.768 2.768 0 0 0-.791-.34c.35.55.463 1.02.463 1.564 0 .404-.083.805-.245 1.187l-.125.3c-.192-.3-.38-.515-.616-.703.057.184.129.588.129.864 0 .73-.286 1.383-.973 1.802a4.483 4.483 0 0 0-.674-1.174c.03.675-.005 1.447-.258 1.982-.515.68-1.231 1.083-2.332 1.334.185-.456.354-1.66.268-3.147-.22.328-.482.953-.565 1.752-.267-.211-1.062-.83-1.062-1.871 0-.43.148-.862.438-1.302-.404.148-.656.408-.93.929-.094-.747.034-1.566.438-2.152-.976-.04-1.265-.615-1.213-1.468.283.229.585.408.988.408.396 0 .91-.18 1.43-.846-.225-.134-.458-.205-.611-.257-.195-.06-.506-.132-.791-.493C9.589 7.95 9.41 7.9 9.18 7.9c-.267 0-.672.075-1.311.377.083-1.557.835-2.04 1.45-2.04m3.409 17.87c6.275 0 11.374-5.1 11.374-11.368 0-6.284-5.1-11.377-11.374-11.377-6.274 0-11.368 5.093-11.368 11.377 0 6.269 5.094 11.369 11.368 11.369"/></g></svg>