<svg xmlns="http://www.w3.org/2000/svg" xmlns:xlink="http://www.w3.org/1999/xlink" viewBox="0 0 24 20">
  <defs/>
  <defs>
    <path id="a" d="M.24.1h4.92V3H.24z"/>
    <path id="c" d="M.41.1h5.15V3H.41z"/>
  </defs>
  <g fill="none" fill-rule="evenodd">
    <path fill="#b0b0b0" d="M9.61 13.46c-.64-.02-4.67-.35-4.82-.38-.16-.02-.17-.09-.17-.32l-.1-3.73s-.02-.16.17-.14c.4.06 6.87.67 7.47.67.6.01.43-.19.42-.22-.02-.04-.19-.2-.52-.27-.33-.08-2.15-.56-3.39-.84L4.56 7.3s-.08 0-.08-.1v-.69s-.04-.16.08-.15l6.66 1.33 7.84 1.76s.07 0 .06.12c0 .3-.03 1.43-.06 1.58-.04.16.07 2.04-3.42 2.24-3.67.23-5.39.09-6.03.07M4.55 2.88C4.75 1.95 5.7.78 7.97.65 11.64.45 13.36.56 14 .58a170 170 0 014.83.38c.15.02.15.1.16.32l.1 2.7c0 .12-.07.16-.16.16-.47 0-6.2-.48-7.42-.45-.3 0-.32.16-.25.26.05.07.16.08.16.08s7.55 1.24 7.67 1.28c.02.02.06.02.06.16v1.12s.04.17-.26.09C13.95 5.55 4.54 4.3 4.54 4.3c-.06-.01-.07-.02-.07-.05 0-.3.02-1.08.09-1.37m14.58 4.75v1s.01.12-.18.07c-.48-.14-9.58-2.18-14.43-2.89-.05 0-.04-.1-.04-.1v-.74s0-.1.06-.08a380.34 380.34 0 0114.51 2.5c.1.02.08.23.08.23m.51 3.86c.04-.17.07-1.39.07-1.71.01-.32 0-5.08-.04-6.05l-.1-2.92c0-.25 0-.32-.18-.35-.17-.03-4.52-.39-5.22-.4-.7-.02-2.55-.16-6.53.07-2.45.14-3.47 1.4-3.69 2.42-.07.32-.1 1.16-.1 1.48l.07 5.17.1 4.03c0 .25.01.32.18.35.17.03 4.52.39 5.22.4.7.02 2.56.18 6.52-.07 3.78-.21 3.66-2.25 3.7-2.42M4.12 17.83a213.69 213.69 0 00-2.36-.07c-.08 0-.2 0-.35-.02-.11-.02-.28-.03-.28-.28 0-.23.13-.27.25-.29.12-.02.4-.01.4-.01h3.16v-.53H1.37c-.45 0-1.38-.07-1.37.9 0 .79.69.74 1.08.76a129.86 129.86 0 002.55.09c.1.01.3.03.3.3 0 .26-.16.29-.32.3-.17.03-.33.02-.33.02H.01v.53h3.97c.42-.04 1.05-.03 1.07-.78.03-.95-.8-.9-.93-.92"/>
    <g transform="translate(6 16.53)">
      <mask id="b" fill="#fff">
        <use xlink:href="#a"/>
      </mask>
      <path fill="#b0b0b0" d="M.24 3h4.9v-.54H1.4V1.8h3.58v-.54H1.4V.62h3.76V.1H.24z" mask="url(#b)"/>
    </g>
    <g transform="translate(12 16.53)">
      <mask id="d" fill="#fff">
        <use xlink:href="#c"/>
      </mask>
      <path fill="#b0b0b0" d="M4.44.62v.7H1.52c0-.7.36-.7.63-.7h2.3zM.41 1.2V3h1.11V1.85h2.92V3h1.12V.1H1.73C1.3.1.4.12.4 1.2z" mask="url(#d)"/>
    </g>
    <path fill="#b0b0b0" d="M18.72 17.19h2.01v2.34h1.17v-2.35h2.02v-.56h-5.2z"/>
  </g>
</svg>
