<svg xmlns="http://www.w3.org/2000/svg" xmlns:xlink="http://www.w3.org/1999/xlink" viewBox="0 0 25 25">
  <defs/>
  <defs>
    <path id="a" d="M0 .5h24.5V25H0z"/>
  </defs>
  <g fill="none" fill-rule="evenodd">
    <g transform="translate(0 -.5)">
      <mask id="b" fill="#fff">
        <use xlink:href="#a"/>
      </mask>
      <path fill="#b0b0b0" d="M24.21 12.75a11.92 11.92 0 01-3.5 8.45 11.91 11.91 0 01-8.46 3.5 11.9 11.9 0 01-8.45-3.5 11.92 11.92 0 01-3.5-8.45c0-3.3 1.33-6.29 3.5-8.45A11.92 11.92 0 0112.25.79c3.3 0 6.29 1.34 8.45 3.5a11.93 11.93 0 013.51 8.46M12.25.49A12.2 12.2 0 003.6 4.1 12.2 12.2 0 000 12.75a12.22 12.22 0 003.6 8.66 12.22 12.22 0 0017.3 0 12.21 12.21 0 00.01-17.32A12.21 12.21 0 0012.25.5" mask="url(#b)"/>
    </g>
    <path fill="#b0b0b0" d="M16.21 2.57l.1.05c.23.1.37.21.44.35.06.14.05.3-.04.51-.08.2-.2.33-.34.38-.15.05-.33.03-.56-.07l-.1-.04.5-1.17zm-.73 1.64c.28.11.49.19.63.21.14.03.28.03.42 0a.98.98 0 00.45-.23c.13-.12.24-.27.32-.46.08-.19.11-.37.11-.54a1 1 0 00-.15-.5 1.09 1.09 0 00-.3-.3c-.12-.1-.35-.2-.68-.35l-.44-.18-.9 2.12.44.2.1.03zM11.6 2a.55.55 0 01.44-.2c.16 0 .31.06.42.2a.69.69 0 01.18.48c0 .2-.06.36-.17.49a.56.56 0 01-.43.19.55.55 0 01-.44-.2.7.7 0 01-.17-.48c0-.2.06-.36.17-.48m-.43 1.33a1.19 1.19 0 00.87.36c.16 0 .31-.03.47-.1a1.24 1.24 0 00.66-.64 1.18 1.18 0 000-.94 1.22 1.22 0 00-.66-.65 1.27 1.27 0 00-.47-.1 1.27 1.27 0 00-.87.36 1.2 1.2 0 00-.28.4 1.22 1.22 0 000 .92c.07.15.15.28.28.4m8.97 2.07l-.07.1-.43.66-.4-.48.73-.3.14-.07.15-.08a4.29 4.29 0 00-.12.17zM18 5.57l.4.49.4-.18.57.68-.24.36.4.48 1.26-2.1-.51-.6-2.28.87zM3.98 4.82l-.23-.58-.15.19.04.38-.39.01-.16.19.6.14zm.07 1.35c.13.12.26.17.4.16.13 0 .3-.07.49-.2.14-.1.24-.15.3-.16.06 0 .12.01.18.07a.22.22 0 01.08.17.33.33 0 01-.09.2.55.55 0 01-.24.15 1.1 1.1 0 01-.36.05l.17.52c.17-.01.32-.05.45-.11a1.19 1.19 0 00.35-.28c.17-.2.25-.41.25-.63a.76.76 0 00-.29-.57.76.76 0 00-.23-.14.54.54 0 00-.23-.04c-.12 0-.28.08-.5.23l-.03.02a.69.69 0 01-.23.11.19.19 0 01-.15-.04.17.17 0 01-.06-.14.3.3 0 01.08-.18.57.57 0 01.19-.14.8.8 0 01.24-.07l-.2-.45a1.16 1.16 0 00-.34.14c-.1.07-.19.15-.27.24a.8.8 0 00-.22.57.71.71 0 00.26.53m4.1-1.48l-.46-.93 1.13.6.7-.35-1.34-.65.27-1.38-.66.31-.2 1.27-.45-.94-.56.27 1 2.07zm12.53 11.36l-.23-.25a3.3 3.3 0 00-.42 2.28l-.5.61a33.56 33.56 0 00-.13-.7l.15-.16c-.07-.48-.46-.48-.53-.14-.04.1-.05.2.13.4l.1.83c-.53.44-1.05.96-1.58 1.4l-.03-.2c.24-.42.48-.84.95-1.1.15-.33.24-.62.15-.9a5.1 5.1 0 00-1.53 1.57l-.16.85-.6.38c.01-.17.1-.34.11-.51.48-.6-.22-.85-.39-.3.06.35.06.64-.07.93-.7.27-1.32.55-2.02.82 0-.06.08-.22.08-.28.4-.39.75-.54 1.37-.64.26-.21.37-.44.32-.72-.57.1-1.14.25-1.61.58-.45.28-.74.65-.8 1.1l-.81.08.51-.56.27-.13c.12-.52-.12-.51-.42-.43a.47.47 0 00-.12.36c-.2.2-.39.41-.65.54l-.64-.7a.39.39 0 00-.12-.36c-.3-.08-.55-.1-.43.43.1.1.19.15.27.13l.52.57-.81-.08c-.07-.46-.36-.83-.8-1.1a4.03 4.03 0 00-1.61-.59c-.05.28.05.5.32.73.62.1.97.25 1.37.63 0 .06.07.23.07.28-.7-.27-1.32-.55-2.01-.82a1.54 1.54 0 01-.08-.93c-.17-.54-.86-.3-.39.3 0 .17.1.34.1.51l-.59-.38-.15-.85a5.09 5.09 0 00-1.53-1.57c-.1.28 0 .58.14.9.47.26.71.69.96 1.1l-.04.2c-.53-.43-1.05-.96-1.57-1.4l.1-.84c.18-.18.17-.3.13-.39-.07-.33-.47-.33-.53.15l.14.16-.12.7-.5-.62c.09-.82.02-1.6-.43-2.27l-.23.24c-.16-.06-.21-.22-.15-.5-.24-.22-.39-.14-.44.22.14.13.25.28.2.54l-.43-.24v.54a.73.73 0 01-.26-.23l-.19-.38c-.33-.08-.46.05-.38.38l.3.16a.54.54 0 01.26.26l-.48.12c.5.64 1.08 1.19 1.9 1.4l.58.55c-.1.04-.35 0-.46.04-.08-.07-.13-.16-.2-.23-.34-.02-.6.01-.33.47.13.08.3.09.48.04l.72-.1c.54.47 1.17.98 1.72 1.44a2.67 2.67 0 01-1.56-.79 1.07 1.07 0 00-1.02-.19c.36.49.79.88 1.25 1.2.65.37 1.28.37 1.93.22a20 20 0 00.54.23l-.62.21c-.14-.08-.29-.06-.43.05-.12.23-.1.38.07.45.13.1.28.05.45-.14.3-.1.6-.2.88-.31l.74.21 1.42.44c-.32.15-.74.14-1.28-.07-.5-.28-.92-.22-1.3 0 .45.45 1.08.72 1.87.82a3.9 3.9 0 001.52-.6l.54.01c-.52.39-.92.83-.9 1.5.38-.62.83-1.06 1.52-1.22.7.32 1.15.75 1.53 1.38.02-.67-.38-1.12-.9-1.5l.53-.01c.42.25.88.49 1.53.6.79-.1 1.41-.37 1.86-.82a1.18 1.18 0 00-1.3 0c-.54.21-.95.21-1.28.07l1.42-.44.74-.21.88.3c.17.2.32.24.46.15.16-.07.18-.22.07-.45-.15-.12-.3-.13-.43-.05l-.62-.22.53-.22c.66.15 1.28.14 1.93-.22a5.56 5.56 0 001.26-1.2 1.07 1.07 0 00-1.03.19c-.46.5-1.05.7-1.55.79l1.72-1.43.72.09c.19.05.34.03.47-.05.27-.45.01-.49-.32-.46-.08.06-.13.16-.2.22-.11-.03-.36 0-.47-.03l.59-.56c.82-.2 1.39-.75 1.9-1.4l-.49-.12c.04-.1.13-.19.27-.26l.3-.15c.07-.34-.06-.46-.39-.39l-.19.39a.8.8 0 01-.25.22v-.53l-.44.23c-.05-.25.06-.4.2-.53-.05-.36-.2-.44-.44-.23.07.28.02.45-.15.5"/>
    <path fill="#b0b0b0" d="M13.09 13.28a.78.78 0 011.09.01.78.78 0 010 1.1.77.77 0 01-1.08-.02.77.77 0 01-.01-1.1m-2.2-6.43c.7.51 1.07.84 1.42 1.63l-.3.18a7.32 7.32 0 00-2.04-1.98c-.84-.44-2.8 1.77-2.55 1.87.78.37 1.8.84 2.37 1.26l-.25.4c-.8-.47-2.06-1.1-2.7-1.06-.33.05-1.04 2.35-.68 2.43.74.07 2.12.81 2.76 1.13.44.36 1.8 2.65 1.25 2.98-.17.1-.72-.02-1.28-.3-2.55-1.03-2.74.12-2.26.48.38.24.25.66.27.77-.02.64.66 1.14 1.99.24 2.71.04 4.26.1 6.98.14.25.8 1.96-.01 2.52-.67-.24-.56-2.23-1.96-2.49-.54l-.71-.14c1.54-3.28 1.07-9.47-2.53-10.07-.55-.1-2.8.5-1.77 1.26"/>
    <path fill="#b0b0b0" d="M20.15 12.32a7.8 7.8 0 01-2.3 5.53 7.8 7.8 0 01-11.06 0 7.81 7.81 0 01-2.3-5.53A7.8 7.8 0 016.8 6.8a7.8 7.8 0 015.53-2.29c2.16 0 4.11.88 5.53 2.3a7.8 7.8 0 012.3 5.52M12.33 4.2h-.01A8.1 8.1 0 006.59 6.6a8.09 8.09 0 00-2.39 5.73c0 2.24.92 4.27 2.38 5.74a8.1 8.1 0 005.74 2.38 8.1 8.1 0 005.74-2.38 8.1 8.1 0 000-11.47 8.08 8.08 0 00-5.74-2.39"/>
  </g>
</svg>
