<svg xmlns="http://www.w3.org/2000/svg" xmlns:xlink="http://www.w3.org/1999/xlink" viewBox="0 0 41 9">
  <defs/>
  <defs>
    <path id="a" d="M0 .15h5.56V8H0z"/>
    <path id="c" d="M.37.74h.9v1h-.9z"/>
    <path id="e" d="M.97.37h1.3v1.3H.97z"/>
  </defs>
  <g fill="none" fill-rule="evenodd">
    <path fill="#b0b0b0" d="M6.49 2.74c.52.61 1.03 1.4 1.27 1.97A8.49 8.49 0 016.5 6.68V2.74zm-.56-1.3v6.53A8.19 8.19 0 008.36 4.7a8.4 8.4 0 00-2.43-3.27z"/>
    <g transform="translate(0 .63)">
      <mask id="b" fill="#fff">
        <use xlink:href="#a"/>
      </mask>
      <path fill="#b0b0b0" d="M0 4.08A3.92 3.92 0 003.92 8c.66 0 1.2-.15 1.64-.44V5.6c-.44.32-1.03.51-1.47.51-1.23 0-2.1-.9-2.1-2.03s.87-2.02 2.1-2.02c.44 0 1.03.18 1.47.5V.6A3.03 3.03 0 003.92.15 3.94 3.94 0 000 4.08" mask="url(#b)"/>
    </g>
    <path fill="#b0b0b0" d="M36.28 3.28V1.96h-.69a2.33 2.33 0 00-2.3 2.23v4h1.37V4.26c0-.53.44-.98.98-.98h.64zm2.08 2.6V3.26h1.52v-1.3h-1.52V.73H37v5.23a2.31 2.31 0 002.3 2.23h.72v-1.3h-.64a1.03 1.03 0 01-1-1M18.47 4.13c0-.56.42-1 .96-1 .46 0 .98.3.98 1.17V8.2h1.37v-3.9c0-.79.52-1.15.98-1.15.6 0 .98.41.98 1V8.2h1.38V3.97a2.27 2.27 0 00-2.26-2.13c-.69 0-1.33.32-1.77.83a2.3 2.3 0 00-1.76-.83c-1.18 0-2.18.93-2.25 2.13v4.22h1.4V4.14zM29.2 3.2c1 0 1.83.85 1.83 1.9 0 1.14-.76 1.92-1.83 1.92a1.9 1.9 0 01-1.9-1.91 1.9 1.9 0 011.9-1.91m0 5.14c.7 0 1.37-.27 1.76-.73v.59h1.37v-3.1c0-1.88-1.32-3.23-3.16-3.23a3.15 3.15 0 00-3.19 3.21 3.13 3.13 0 003.22 3.26M11.4 6.25l-.96.96c.1.1 1.2 1.12 2.9 1.12 2 0 2.91-.98 2.91-1.9 0-1.16-.76-1.77-2.35-1.97-1.35-.15-1.62-.4-1.62-.76 0-.56.88-.64 1.27-.64.64 0 1.3.25 1.77.67l.88-.89c-.37-.3-1.2-.98-2.86-.98-1.65 0-2.53.98-2.53 1.94 0 1.1.86 1.74 2.65 1.94.75.07 1.32.2 1.32.71 0 .95-2.43.85-3.38-.2"/>
    <g transform="translate(39 -.37)">
      <mask id="d" fill="#fff">
        <use xlink:href="#c"/>
      </mask>
      <path fill="#b0b0b0" d="M.64.98h-.1V.84h.15c.07 0 .07.05.07.07C.76.96.71.98.64.98m.1.08C.79 1.03.86.98.86.9.86.9.84.74.69.74H.37v.1h.07v.39H.37v.07h.27v-.07h-.1v-.17H.6c.08.05.13.12.17.24h.15v-.07H.86c-.02-.05-.07-.14-.12-.17" mask="url(#d)"/>
    </g>
    <g transform="translate(38 -.37)">
      <mask id="f" fill="#fff">
        <use xlink:href="#e"/>
      </mask>
      <path fill="#b0b0b0" d="M1.64 1.45c-.24 0-.44-.2-.44-.42a.44.44 0 01.88 0c0 .22-.2.42-.44.42m0-1.08a.66.66 0 00-.67.66c0 .35.3.64.67.64a.65.65 0 00.63-.64c0-.36-.29-.66-.63-.66" mask="url(#f)"/>
    </g>
  </g>
</svg>
