<svg xmlns="http://www.w3.org/2000/svg" xmlns:xlink="http://www.w3.org/1999/xlink" viewBox="0 0 40 26">
  <defs/>
  <defs>
    <path id="a" d="M.67.99h4.7v5H.67z"/>
    <path id="c" d="M.93.01H5.9V5H.92z"/>
    <path id="e" d="M.12.09h25.33v15.43H.12z"/>
  </defs>
  <g fill="none" fill-rule="evenodd">
    <path fill="#b0b0b0" d="M4.23 23.82c-.09-.8-2.27-1.8-2.27-1.8-.57-.34-.33-.77-.33-.77.35-.77 2.19-.05 2.19-.05l.35-.83c-.98-.73-2.22-.58-2.22-.58C.43 19.96.2 21 .2 21c-.35 1.58.87 1.96.87 1.96 1.11.52 1.44.73 1.44.73.91.6.11.98.11.98-.99.47-2.23-.17-2.23-.17l-.39.9c1.03.7 2.62.4 2.62.4 2.02-.28 1.61-1.97 1.61-1.97"/>
    <path fill="#b0b0b0" d="M7.49 24.14c-.07-.65-1.84-1.45-1.84-1.45-.46-.28-.27-.64-.27-.64.29-.61 1.77-.03 1.77-.03l.28-.68c-.78-.59-1.79-.46-1.79-.46-1.23.14-1.42.98-1.42.98-.28 1.27.7 1.58.7 1.58.9.42 1.18.6 1.18.6.74.47.08.78.08.78-.8.38-1.8-.13-1.8-.13l-.32.73c.84.56 2.12.33 2.12.33 1.64-.24 1.3-1.6 1.3-1.6"/>
    <path fill="#b0b0b0" d="M9.02 23.84l.66-1.63.73 1.63H9.02zm-.05-2.85l-1.75 4.69 1 .01.46-1.02h2.1l.46.93h.97L10.4 21H8.97z"/>
    <path fill="#b0b0b0" d="M15.45 24.08l-1.95-3.05H12.2v4.57l.95.02v-3l2.08 3.13h1.2v-4.7h-.99zm5.24-.98h-1.6v.72h1.08v1.1c-.74.28-1.51-.02-1.51-.02-1.54-1.02-.7-2.3-.7-2.3.94-1.47 3.2-.56 3.2-.56v-.86c-2.75-.9-3.93.61-3.93.61a2.43 2.43 0 00.38 3.55c1.9 1.17 3.72.15 3.72.15v-1.7c-.04-.77-.64-.7-.64-.7"/>
    <g transform="translate(34 19.91)">
      <mask id="b" fill="#fff">
        <use xlink:href="#a"/>
      </mask>
      <path fill="#b0b0b0" d="M4.72 3.19h-1.6v.72h1.09v1.1c-.74.28-1.52-.02-1.52-.02-1.53-1.03-.7-2.3-.7-2.3.95-1.47 3.2-.57 3.2-.57v-.85c-2.74-.9-3.92.6-3.92.6a2.43 2.43 0 00.38 3.55c1.9 1.18 3.72.16 3.72.16v-1.7c-.04-.77-.65-.7-.65-.7" mask="url(#b)"/>
    </g>
    <path fill="#b0b0b0" d="M24.95 19.99l-1.46 2.43-1.46-2.37h-1.27l2.18 3.54-1.21 2.27h1.15L26.24 20z"/>
    <g transform="translate(24 20.91)">
      <mask id="d" fill="#fff">
        <use xlink:href="#c"/>
      </mask>
      <path fill="#b0b0b0" d="M3.42 4.02A1.52 1.52 0 011.9 2.51a1.52 1.52 0 013.04 0c0 .84-.69 1.51-1.52 1.51m0-4A2.5 2.5 0 00.92 2.5 2.49 2.49 0 003.43 5a2.5 2.5 0 100-4.99" mask="url(#d)"/>
    </g>
    <path fill="#b0b0b0" d="M33.52 24.03L31.57 21h-1.33v4.68l1-.01v-3.04l2.07 3.1h1.21v-4.75h-1z"/>
    <g transform="translate(7 -.09)">
      <mask id="f" fill="#fff">
        <use xlink:href="#e"/>
      </mask>
      <path fill="#b0b0b0" d="M9.88 12.88s-.95.73.41 1.35c0 0 .83.29 1.42.91 0 0 .38.36 1.01.38h.11c.65-.01 1.03-.38 1.03-.38.58-.62 1.42-.9 1.42-.9 1.36-.62.4-1.35.4-1.35l-.65-.57c-.14-.16.06-.25.06-.25l.28-.06c4.72-.94 5.9-1.43 5.9-1.43 2.6-.84 3.61-2.33 4-3.24.32-.73.1-1.75.1-1.75-.72-2.67-4.19-4.02-4.19-4.02-.93-.34-.56.19-.56.19s4 1.83 4 4.4c0 3.16-4.36 4.1-4.36 4.1 3.96-1.25 3.97-3.94 3.97-3.94-.07-2.68-3.6-4.56-3.6-4.56a9.97 9.97 0 00-2.11-.97c-1.78-.6-1.2.1-1.2.1s5.37 1.69 5.37 5.43c0 3.81-7.5 5.04-7.5 5.04 7.05-1.31 7.05-5.01 7.05-5.01C22.24 3 17.31.89 17.31.89c-.74-.4-2-.73-2-.73-1.16-.25-.5.26-.5.26 4.72 2.76 4.72 5.8 4.72 5.8 0 3.4-3.1 4.24-3.1 4.24-.9.35-2.65.63-2.65.63-.28.09-.48.28-.48.51 0 .09.02.18.09.25.17.18.74.61.74.61.2.2.33.44.33.7 0 .63-.73 1.15-1.64 1.16h-.07c-.9 0-1.64-.53-1.64-1.16 0-.26.12-.5.33-.7 0 0 .57-.43.74-.6a.35.35 0 00.09-.26c0-.23-.2-.42-.48-.5 0 0-1.75-.29-2.65-.64 0 0-3.1-.85-3.1-4.23 0 0 0-3.05 4.71-5.81 0 0 .66-.51-.5-.26 0 0-1.26.32-2 .73 0 0-4.93 2.12-4.93 5.46 0 0 0 3.7 7.05 5 0 0-7.49-1.22-7.49-5.03C2.88 2.58 8.26.89 8.26.89s.57-.7-1.2-.1c0 0-.75.2-2.12.97 0 0-3.54 1.88-3.6 4.56 0 0 0 2.69 3.96 3.95 0 0-4.35-.95-4.35-4.12 0-2.56 4-4.4 4-4.4s.37-.52-.56-.18c0 0-3.47 1.34-4.2 4.02 0 0-.22 1.02.1 1.75.4.9 1.42 2.4 4 3.24 0 0 1.19.49 5.9 1.43l.29.06s.2.1.06.25l-.66.56z" mask="url(#f)"/>
    </g>
  </g>
</svg>
