<svg xmlns="http://www.w3.org/2000/svg" viewBox="0 0 47 18">
  <defs/>
  <g fill="#b0b0b0" fill-rule="evenodd">
    <path fill-rule="nonzero" d="M22 14.43c.5-.26.81-.77.82-1.33 0-.35-.16-1.5-1.74-1.5h-5.3v5.69h5.31c1.77 0 1.85-1.09 1.85-1.6a1.44 1.44 0 00-.94-1.26zm-4.52-1.68h3.12a.6.6 0 01.65.59.55.55 0 01-.59.61h-3.18v-1.2zm3.2 3.39h-3.2v-1.23h3.18a.63.63 0 01.69.64.6.6 0 01-.66.59h-.01zm17.13-1.04c.5-.32.83-.87.86-1.47a1.79 1.79 0 00-2-2h-5.08v5.69h1.71v-1.79h3.07c.45.03.8.4.81.85v.91h1.52v-.88a1.66 1.66 0 00-.89-1.31zm-1.38-.62H33.3v-1.73h3.13c.42 0 .69.51.69.91a.78.78 0 01-.69.82zM26 11.6l-3.07 5.69h1.67l.63-1.15h3.58l.62 1.15h1.68L28 11.6h-2zm-.11 3.31L27 12.86l1.18 2.05h-2.29z"/>
    <path d="M44.89 11.6v4.06c0 .22-.08.48-.4.48h-3a.42.42 0 01-.48-.45c0-1.77-.07-4.06 0-4.12h-1.7v4.54c0 .88.94 1.18 2 1.18h3.9c.86 0 1.43-.46 1.41-1.18V11.6h-1.73zm-38.8 2.17c-1.37-.07-3-.06-4-.11-.56 0-.56-1.1.05-1.1h3.09c.43 0 .43.47.43.48h1.55c0-.06.16-1.65-1.34-1.65H1.36c-.75 0-1.29.45-1.29 1v1.2c0 .78.7 1.15 1.66 1.18 1.41 0 2.27.08 3.39.13a.62.62 0 110 1.23H2.21a.63.63 0 01-.64-.67H0A1.63 1.63 0 000 16a1.49 1.49 0 001.47 1.28H6a1.22 1.22 0 001.36-1.18v-1.2a1.17 1.17 0 00-1.27-1.13zm7.34-2.17v4.06c0 .22-.08.48-.4.48H10a.43.43 0 01-.48-.45v-4.12H7.85v4.54c0 .87.91 1.18 2 1.18h3.91c.85 0 1.45-.46 1.44-1.18V11.6h-1.77z"/>
    <path fill-rule="nonzero" d="M18 1.46c-1.57.93-2.55 2.19-2.55 3.47 0 1.28 1 2.52 2.54 3.44a11.5 11.5 0 005.7 1.45 11.56 11.56 0 005.73-1.44C31 7.46 32 6.21 32 4.93c0-1.28-1-2.54-2.56-3.47A11.52 11.52 0 0023.7 0 11.39 11.39 0 0018 1.46zm13.75 3.47c0 1.19-.94 2.36-2.44 3.23a11.25 11.25 0 01-5.61 1.42 11.16 11.16 0 01-5.58-1.42c-1.49-.87-2.42-2-2.42-3.23s.94-2.38 2.43-3.26A11.12 11.12 0 0123.7.24a11.11 11.11 0 015.6 1.43c1.5.88 2.45 2.07 2.45 3.26z"/>
    <path d="M20.67 1.29l-.77 1.94-3.39.73 3.39.72.81 2.07.81-2.02 3.68-.77-3.72-.81zm4.2 3.76l-1.46.32 1.46.33.36.88.33-.84 1.58-.37-1.58-.32-.36-.8zm4.2-.8l-.36.8-1.41.32 1.41.33.36.88.33-.84 1.58-.37-1.58-.32zm-1-.04l.32-.9 1.57-.32-1.57-.33-.37-.81-.32.81-1.45.33 1.45.32zm-1.5 1.97l-.36.81-1.42.32 1.42.33.36.84.36-.84 1.58-.33-1.62-.36zm-4.2.24l-.33.86-1.45.32 1.45.28.37.89.32-.85 1.58-.32-1.58-.37z"/>
  </g>
</svg>
