<svg xmlns="http://www.w3.org/2000/svg" viewBox="0 0 25 30">
  <defs/>
  <path fill="#b0b0b0" fill-rule="evenodd" d="M8.95 6.46c.23-.75.81-.36.81-.36s1.51 1.15 5.65 3.78c4.14 2.63 9.3-1.02 9.3-1.02L12.45.15C7.08 5.85.2 7.89.2 7.89h.02l15.67 11c-.24.74-.82.36-.82.36s-1.5-1.15-5.65-3.78c-4.14-2.64-9.3 1.02-9.3 1.02l12.26 8.71c5.38-5.7 12.26-7.74 12.26-7.74l-.02-.01L8.95 6.46M0 28.66h1.89c.03.19-.02.18.08.28.15.14.4.17.6.14.16-.03.42-.08.43-.29.01-.22-.14-.3-.34-.32-.26-.04-.53-.05-.8-.09-.69-.11-1.06-.16-1.35-.35-.3-.19-.32-.6-.32-.89 0-.19.07-.37.23-.54.15-.17.37-.3.68-.4.3-.1.72-.14 1.25-.14.65 0 1.14.09 1.48.26.34.18.55.57.61.96h-1.6c.01-.03-.03-.13-.04-.16-.06-.22-.28-.28-.48-.33a.7.7 0 00-.51.05c-.1.06-.17.12-.17.2 0 .06.04.11.12.16.07.05.25.1.52.14.69.1 1.18.21 1.48.32.3.12.51.25.65.42a.84.84 0 01.2.54c0 .24-.1.46-.27.66-.18.2-.43.35-.76.46-.32.1-.73.15-1.22.15-.86 0-1.46-.12-1.8-.36-.33-.24-.52-.5-.56-.87m7.65-2.53h1.4v2.62c0 .54-.34.92-1 1.14-.32.1-.69.11-1.1.11-.38 0-.72 0-1.03-.07-.74-.3-1.1-.69-1.1-1.18v-2.62h1.4v2.24c0 .41.05.72.72.72.69 0 .7-.32.7-.73l.01-2.23m9.11 0h1.4v2.62c0 .54-.34.92-1 1.14-.31.1-.68.11-1.1.11-.38 0-.72 0-1.03-.07-.73-.3-1.1-.69-1.1-1.18v-2.62h1.4v2.24c0 .41.06.72.73.72.68 0 .7-.32.7-.73v-2.23m-7.43.03h4.32v.8l-2.11 1.9h2.1v1.05h-4.3v-.9l2.05-1.87H9.34v-.98m9.16 3.75v-3.76h1.39v1.39l1.49-1.39h1.73l-1.99 1.82 2.07 1.94h-1.86l-1.43-1.35.01 1.35h-1.4m4.88 0h1.38v-3.76H23.4z"/>
</svg>
