<svg xmlns="http://www.w3.org/2000/svg" xmlns:xlink="http://www.w3.org/1999/xlink" viewBox="0 0 23 26">
  <defs/>
  <defs>
    <path id="a" d="M0 .85h22.12V24H0z"/>
  </defs>
  <g fill="none" fill-rule="evenodd">
    <path fill="#b0b0b0" d="M12.4 9.01l-.9 1.09-.9-1.09c-1.4-.05-4.64.05-6.6.8.27.48 1.45 1.18 2.1 1.33.03-.96 1.46-1.15 2.83-1.15L11.5 23l2.57-13.01c1.37 0 2.8.2 2.83 1.15.65-.15 1.83-.85 2.1-1.33-1.96-.75-5.2-.85-6.6-.8"/>
    <g transform="translate(0 2)">
      <mask id="b" fill="#fff">
        <use xlink:href="#a"/>
      </mask>
      <path fill="#b0b0b0" d="M21.34 4.82a34.04 34.04 0 01-.81 3.49 34.4 34.4 0 01-2.03 5.33 23.52 23.52 0 01-3.77 5.64c-1.46 1.6-3 2.86-3.67 3.1-.66-.24-2.21-1.5-3.67-3.1a23.58 23.58 0 01-3.77-5.64 34.6 34.6 0 01-2.03-5.33 33.75 33.75 0 01-.8-3.49A32.58 32.58 0 01.29.85L0 1.07c0 1.19.22 2.7.42 3.87a37.28 37.28 0 00.74 3.53c.41 1.54.99 3.5 1.88 5.47.97 2.13 2.15 4.2 3.58 5.98A19.32 19.32 0 0011.06 24a19.18 19.18 0 004.44-4.08 28.15 28.15 0 003.58-5.98c.9-1.97 1.47-3.93 1.88-5.47a36.6 36.6 0 00.74-3.53c.2-1.16.41-2.68.42-3.87l-.28-.22a33.97 33.97 0 01-.5 3.97" mask="url(#b)"/>
    </g>
    <path fill="#b0b0b0" d="M3.5 9a20.9 20.9 0 016.63-1.16c.9-.03 1.83-.03 2.75 0 2.4.08 4.69.43 6.61 1.16l.51-.8a22.48 22.48 0 00-7.1-1.18 51.76 51.76 0 00-2.8 0c-2.42.07-4.83.34-7.1 1.18l.5.8z"/>
    <path fill="#b0b0b0" d="M4.08 1.57C5.02 1.2 6.06.85 7.11.62a20.88 20.88 0 018.79 0c1.05.23 2.09.58 3.02.95 1.22.49 2.26 1.03 2.92 1.53a32.94 32.94 0 01-2.98 11.78 27.1 27.1 0 01-1.8 3.24 19.79 19.79 0 01-5.56 5.72 19.82 19.82 0 01-5.57-5.72 28.07 28.07 0 01-1.79-3.24A33.12 33.12 0 011.16 3.1c.66-.5 1.7-1.04 2.92-1.53M3.96 14.9a26.3 26.3 0 001.82 3.28A19.64 19.64 0 0011.5 24a19.62 19.62 0 005.72-5.82c.69-1.03 1.27-2.13 1.82-3.28A34.36 34.36 0 0022 3.03a13.64 13.64 0 00-3.02-1.6 20.28 20.28 0 00-3.05-.95 20.65 20.65 0 00-8.86 0C6.1.7 5.05 1.02 4 1.43c-1.04.42-2.07.92-3.01 1.6A34.38 34.38 0 003.96 14.9"/>
    <path fill="#b0b0b0" d="M17 6h.53v-.66h1.94V6H20V5h-3zm-6.44-.4c-.28.07-.5.2-.55.38L10 6h3V4.79h-2.47v-.4h1.9c.29-.06.5-.21.56-.39H10v1.18h2.47v.41h-1.91zm5.44 0h-1.64V4H14v2h1.68a.55.55 0 00.32-.4m1.54-.89h1.94c.27-.08.46-.23.52-.42h-3c.05.19.26.34.54.42m-11.01 0h1.94c.28-.08.48-.23.53-.43H6c.05.2.26.35.53.44m0 2h1.94c.28-.09.48-.25.53-.44H6c.05.2.26.35.53.44M2.48 4.4h.79V6h.46V4.42l.04-.02h.75c.25-.08.43-.22.48-.4H2c.05.18.23.32.48.4m4.05 1.32h1.94c.28-.09.48-.25.53-.44H6c.05.2.26.35.53.44"/>
  </g>
</svg>
