<svg xmlns="http://www.w3.org/2000/svg" xmlns:xlink="http://www.w3.org/1999/xlink" viewBox="0 0 32 20">
  <defs/>
  <defs>
    <path id="a" d="M0 0h31.77v19.88H0z"/>
  </defs>
  <g fill="none" fill-rule="evenodd">
    <mask id="b" fill="#fff">
      <use xlink:href="#a"/>
    </mask>
    <path fill="#b0b0b0" d="M1.92 9.77v.14c0 4.53 5.5 8.25 12.54 8.7-7.05-.45-12.54-4.17-12.54-8.7v-.14zM5.2 5.9c.64 1.66 3.02 3.04 6.4 3.69v.43c0 3.26.77 6.07 2.04 7.58-6.05-.64-10.54-3.8-10.54-7.52 0-1.5.73-2.93 2.1-4.18zm5.07 1.19zm1.76 2.09l.22-.27-.08-.01h.08v.01l-.22.27zm-4.06-4.7c.36-1 2.74-1.86 5.79-2.14a9.42 9.42 0 00-1.89 4.5c-1.98-.37-3.4-1-3.82-1.72a.77.77 0 01-.12-.4.71.71 0 01.04-.24zM14 5.62zm4.22 2.02zm5.58-3.16a.7.7 0 01.04.24.8.8 0 01-.11.4c-.42.72-1.85 1.35-3.83 1.72a9.45 9.45 0 00-1.88-4.5c3.04.28 5.43 1.15 5.78 2.14zm1.74 2.14a3.26 3.26 0 01-.14.13l.14-.13zm-4.78.65zm5.81-1.37c1.38 1.25 2.1 2.68 2.1 4.18 0 3.72-4.48 6.88-10.54 7.53 1.28-1.52 2.05-4.33 2.05-7.59V9.6c3.37-.64 5.75-2.03 6.4-3.7zm-8.23 3.16zm-1.72 6.69c1-.77 1.74-3.1 1.74-5.98 0 2.89-.73 5.2-1.74 5.98zm-.74-8.57c-.55 0-1.1-.02-1.64-.06.33-1.6.96-2.61 1.64-2.61.68 0 1.31 1.02 1.65 2.61-.54.04-1.1.06-1.65.06zm0 7.79c-.9 0-1.85-2.03-1.89-5.07a25.67 25.67 0 003.78 0c-.04 3.04-1 5.07-1.89 5.07zm-2.22-7.41l-.12.08.12-.08zm-.1-4.14l.06-.1-.06.1zm-.15 6.35c0 2.89.73 5.2 1.74 5.98-1.01-.77-1.74-3.1-1.74-5.98zm2.47 10.1c8.76 0 15.88-4.46 15.88-9.93C31.77 4.46 24.64 0 15.88 0 7.12 0 0 4.46 0 9.94c0 5.47 7.13 9.94 15.88 9.94z" mask="url(#b)"/>
  </g>
</svg>
