<svg xmlns="http://www.w3.org/2000/svg" viewBox="0 0 45 18">
  <defs/>
  <g fill="none" fill-rule="evenodd">
    <path fill="#b0b0b0" d="M0 .15C.32.12.64.02.96.07 6.28 1.66 11.6 3.26 16.93 4.84l.9-1.13a6.84 6.84 0 012.51-1.62c.82-.28 1.69-.4 2.55-.37 1.76-.02 3.5.72 4.73 1.99.33.39.64.78.98 1.17C33.7 3.3 38.8 1.76 43.92.2c.27-.1.57-.16.86-.1.16.05.23.25.12.38-.18.2-.44.27-.67.37L29.88 7.51c-.1.06-.22.07-.28.16 0 .45.09.9.04 1.36a7.6 7.6 0 01-.75 2.83h8.99v6.1H8.64c-.52-.02-.9-.53-.93-1v-5.1h8.88c-.54-1-.82-2.15-.8-3.29l.1-1.21L.72.7C.45.58.05.5 0 .15"/>
    <path fill="#FFF" d="M.3.14c.19.03.38.03.57.08l15.93 4.7c.16.2.36.38.54.57.28-.04.56-.16.84-.14l4.8 1.43v1.7L6.06 2.27C4.14 1.56 2.2.87.3.14M43.12.62c.56-.15 1.1-.45 1.7-.37-7.23 2.8-14.45 5.57-21.68 8.36V6.78l4.2-1.34c.3-.01.6.11.9.14.18-.18.3-.43.5-.57L43.12.61"/>
    <path fill="#FFF" d="M20.33 2.22a7.39 7.39 0 014.96.08c.83.36 1.6.85 2.23 1.5L28.47 5l-.33.44c-.62-1.1-1.59-2-2.72-2.55a7.21 7.21 0 00-4.11-.39 5.97 5.97 0 00-3.9 2.87l-.35-.45.87-1.1c.67-.7 1.5-1.23 2.4-1.59"/>
    <path fill="#FFF" d="M19.2 4.24A5.35 5.35 0 0122.75 3a5.34 5.34 0 013.87 1.57l.64.75-4.06 1.24c-.19.09-.38-.03-.56-.07l-4.37-1.27c.3-.34.55-.72.91-1M16.66 7.24c.12.19.23.37.32.57 0 .39-.09.77-.05 1.15.06 1.03.42 2.04.99 2.9h-.55a6.3 6.3 0 01-.9-3.22c.05-.47.07-.95.2-1.4M28.5 8.44c-.06-.36.23-.64.38-.94a6.26 6.26 0 01-.8 4.36h-.55c.64-1.01 1-2.21.97-3.42"/>
    <path fill="#FFF" d="M17.16 7.87l1.95.88-.8 1.32c-.12.22-.3.43-.33.7 0 .19.18.38.39.34 1.57-.15 3.14-.3 4.7-.47 1.77-.77 3.5-1.6 5.26-2.37a5.2 5.2 0 01-1.02 3.59h-9.2a5.36 5.36 0 01-.95-3.99"/>
    <path fill="#FFF" d="M19.38 8.74h3.52l-4.68 2.06c.05-.15.11-.3.2-.44l.96-1.62M7.96 12.12h29.66v5.54H8.7a.74.74 0 01-.57-.2.87.87 0 01-.17-.57v-4.77"/>
    <path fill="#b0b0b0" d="M8.51 12.64h4.2l-.01 2.9c0 .25.04.5.07.75.17.09.37.1.54 0 .03-.25.07-.5.07-.75v-2.9h4.22v3.67c0 .29-.13.57-.37.72-.17.08-.35.12-.53.12H9.22a.67.67 0 01-.6-.35c-.07-.18-.11-.36-.11-.55v-3.61M18.36 12.89c.2-.25.56-.24.85-.25h7.16c.24 0 .5-.01.7.13.2.12.27.36.27.58v3.8h-8.4a.74.74 0 01-.57-.33c-.23-.39-.14-.85-.16-1.28 0-.32.13-.69.45-.8.28-.1.58-.07.87-.07h3.61l-.06-1.2c-.18-.1-.4-.03-.55.08l-.06.54H18.2c.04-.4-.11-.86.15-1.2M27.85 12.64h9.1v.78l-3.93 2.96h3.92v.77h-9.09v-.77l3.98-2.97h-3.98v-.77"/>
    <path fill="#FFF" d="M22.57 15.35l.57-.06v1.09l-.57-.06a1.56 1.56 0 010-.97"/>
  </g>
</svg>
