<svg xmlns="http://www.w3.org/2000/svg" version="1.0" viewBox="0 0 226.77 42.52">
<path fill="#b0b0b0" fill-rule="evenodd" d="M16.58 10.35h6.66L24.3 23.1l5.72-12.75h6.97L26.66 32.23h-7.71zM29.15 32.23l13.07-21.88h6.16l4.17 21.88H45.7l-1.92-13.55-7.84 13.55z" clip-rule="evenodd"/>
<path fill="#b0b0b0" fill-rule="evenodd" d="M35.75 24.21h11.51v4.85H35.75zM74.48 19.49h-9.4l-.96 4.7h2.61s-1.48 3.05-4.57 2.39c-2.73-.6-3.03-3.51-2.24-6.44.66-2.42 2.67-5.73 5.85-5.16 2.43.44 2.49 2.4 2.49 2.43 0 .03 6.16 0 6.16 0s1.06-7.68-8.5-7.84-13 7.65-13.3 12.25c-.32 4.6 1.6 10.25 8.49 10.6 3.67.19 6.28-2.52 6.28-2.52l-.06 2.34h4.48l2.67-12.75z" clip-rule="evenodd"/>
<path fill="#b0b0b0" fill-rule="evenodd" d="M75 32.29l7.9-21.99 123.57.01v22.01z" clip-rule="evenodd"/>
</svg>
