<svg xmlns="http://www.w3.org/2000/svg" viewBox="0 0 26 26">
  <defs/>
  <g fill="none" fill-rule="evenodd">
    <path fill="#b0b0b0" d="M13 0a13 13 0 110 26 13 13 0 010-26z"/>
    <path fill="#FFF" d="M13 2a11 11 0 110 22 11 11 0 010-22zM5.64 7.1l3.94 10.23 1.45-3.74h3.79l1.44 3.74 3.99-10.36a9.5 9.5 0 00-2.5-2.13l-2.77 7.62h-3.9L8.3 4.8a9.57 9.57 0 00-2.66 2.3zm16.2 2.56l-4.5 11.72a9.49 9.49 0 004.5-11.72zm-6.45 12.49l-.03-.24-2.44-6.32-2.44 6.32-.01.2a9.32 9.32 0 002.53.34 9.54 9.54 0 002.39-.3zm-6.92-.87L4.09 9.88a9.44 9.44 0 004.37 11.41zM13 3.56a9.34 9.34 0 012.42.31l-2.39 6.6-2.4-6.61c.77-.2 1.57-.3 2.36-.3z"/>
  </g>
</svg>
