<svg xmlns="http://www.w3.org/2000/svg" xmlns:xlink="http://www.w3.org/1999/xlink" viewBox="0 0 30 26">
  <defs/>
  <defs>
    <path id="a" d="M0 .35h29.84V26H0z"/>
  </defs>
  <g fill="none" fill-rule="evenodd">
    <g transform="translate(0 -.35)">
      <mask id="b" fill="#fff">
        <use xlink:href="#a"/>
      </mask>
      <path fill="#b0b0b0" d="M27.3 17H2.63C1.41 16.08.8 15.13.83 14.15c.03-1.42 1.41-2.52 1.8-2.8h24.66c1.16.9 1.74 1.84 1.73 2.8-.03 1.42-1.35 2.56-1.72 2.85m-18.66.83h12.65a7.37 7.37 0 01-6.33 3.6 7.38 7.38 0 01-6.33-3.6m6.27 7.34a11.2 11.2 0 01-10.53-7.34h3.32a8.21 8.21 0 007.27 4.43c3.16 0 5.9-1.8 7.27-4.43h3.2a11.2 11.2 0 01-10.53 7.34m6.57-14.65H8.46a7.38 7.38 0 0113 0M14.9 3.05c2.29 0 4.48.68 6.36 1.96a.41.41 0 00.52-.04l2.16-2.1a.4.4 0 00-.04-.63l-1.03-.75 4.98-.28L27.9 6l-.72-.84a.41.41 0 00-.3-.14.41.41 0 00-.3.11l-2.37 2.25a.4.4 0 00-.06.53c.56.82 1 1.7 1.32 2.61H22.4a8.21 8.21 0 00-7.43-4.74 8.21 8.21 0 00-7.43 4.74h-3.2A11.2 11.2 0 0114.9 3.05m12.78 7.55a.4.4 0 00-.25-.08h-1.08a11.7 11.7 0 00-1.31-2.78l1.8-1.71 1.19 1.37a.42.42 0 00.46.11.41.41 0 00.26-.39L28.67.76a.42.42 0 00-.14-.3.4.4 0 00-.3-.1l-6.56.37a.41.41 0 00-.38.3.42.42 0 00.16.45L23 2.6l-1.57 1.53a12.07 12.07 0 00-6.54-1.91c-5.36 0-9.9 3.49-11.45 8.3H2.5a.4.4 0 00-.22.06c-.1.06-2.21 1.46-2.27 3.54-.03 1.29.72 2.5 2.25 3.62.07.05.15.08.24.08h1C5.07 22.57 9.6 26 14.9 26s9.83-3.43 11.4-8.17h1.13a.4.4 0 00.24-.07c.09-.06 2.13-1.5 2.17-3.6.03-1.26-.7-2.46-2.16-3.56" mask="url(#b)"/>
    </g>
    <path fill="#b0b0b0" d="M8.41 12.3H6.03v.46h.64l-1.1 2.04-1.2-2.03h.88v-.48H1.78v.48h.8l.31.58.89 1.63.35.65h1.92l.72-1.33.83-1.54h.8zm2.1 2.9c-.34 0-.63-.57-.63-1.28 0-.7.28-1.27.64-1.27.35 0 .64.57.64 1.27 0 .71-.29 1.28-.64 1.28m.03-3c-1.35 0-2.45.79-2.45 1.76s1.1 1.76 2.45 1.76c1.36 0 2.45-.79 2.45-1.76s-1.1-1.76-2.45-1.76M26 15.18a.29.29 0 01-.1.02c-.35 0-.64-.57-.64-1.28 0-.7.29-1.27.64-1.27.05 0 .1.01.14.04.29.12.5.63.5 1.23 0 .64-.24 1.16-.54 1.26m-.02-2.98h-.05c-1.35 0-2.45.79-2.45 1.76s1.1 1.76 2.44 1.76h.01c.3 0 .58-.04.84-.1.94-.25 1.61-.9 1.61-1.66 0-.75-.64-1.38-1.55-1.64a3.18 3.18 0 00-.85-.12m-9.55 2.9h-.82v-2.33h.78v-.48h-3.15v.48h.8v2.34h-.84v.52H18v-1.55h-.51c-.03.82-.76 1.03-1.07 1.03m7.36-2.82h-2.39v.47h.64l-1.1 2.04-1.2-2.03h.88v-.48h-3.46v.48h.8l1.55 2.86h1.92l.92-1.69.64-1.18h.79z"/>
  </g>
</svg>
