<svg xmlns="http://www.w3.org/2000/svg" viewBox="0 0 26 25">
  <defs/>
  <g fill="#b0b0b0" fill-rule="evenodd">
    <path d="M1 10.77l.49-.04c1.4-.08 2.8-.1 4.2-.24 1.88-.17 3.73-.55 5.51-1.2a19.4 19.4 0 005.4-3.03c.22-.17.2-.23-.13-.36.19-.17.38-.32.54-.5.19-.2.42-.2.67-.18.54.02 1.08 0 1.62.01.36 0 .71.02 1.07.04l.15.04-.36.5A18.6 18.6 0 016.53 12.9l-.7.04c-.07.01-.14.06-.21.1.04.06.07.15.14.2a8.3 8.3 0 002.16 1.07c2.04.68 4.13.82 6.26.67 2.08-.14 3.97-.79 5.71-1.9a6.84 6.84 0 002.78-3.1c.34-.8.42-1.64.35-2.5-.1-1.29-.64-2.4-1.53-3.33-.48-.5-1.04-.9-1.67-1.2-.2-.09-.23-.18-.12-.35.09-.13.16-.28.23-.42.07-.14.17-.16.3-.1 1.22.48 2.36 1.09 3.37 1.93a6.6 6.6 0 012.05 2.7c.58 1.54.4 3-.48 4.39a8.73 8.73 0 01-3.43 2.94c-1.4.74-2.89 1.2-4.44 1.52-1.83.37-3.68.44-5.53.32a17.84 17.84 0 01-7.01-1.84 9.3 9.3 0 01-3.55-2.92l-.2-.35"/>
    <path d="M14.14.65c-4.4.08-7.9 1.43-10.7 4.22-.44.43-.85.65-1.47.58-.39-.04-.78 0-1.18 0-.24-.01-.26-.05-.15-.26A7.5 7.5 0 013 2.76 15.17 15.17 0 017.96.64c2.14-.53 4.31-.72 6.51-.61 1.8.09 3.56.35 5.27.87.23.07.26.13.14.32a14.06 14.06 0 01-5.72 5.15A22.23 22.23 0 018.3 8.31c-2.05.4-4.12.62-6.21.65-.53 0-1.05.02-1.58.03C.32 9 .23 8.92.2 8.76a4.61 4.61 0 01-.1-2.18c.06-.32.09-.33.43-.35 1.54-.05 3.08-.07 4.62-.2 2.24-.17 4.42-.62 6.5-1.43 1.91-.73 3.6-1.77 5.03-3.17.1-.1.16-.26.25-.39-.15-.05-.29-.13-.43-.15L14.14.65M13.69 23.34v.01H15c.23 0 .35-.08.33-.31v-.64c0-.21-.08-.31-.3-.31h-2.59c-.4 0-.65.23-.66.6 0 .38.26.64.67.65h1.24zm.05 1.64c-.73 0-1.46-.03-2.18.01-.57.04-1.19-.4-1.4-1.02a2.5 2.5 0 01.07-1.93c.28-.61.77-.94 1.47-.94h3.25c.18-.03.41.02.4-.28 0-.3-.14-.44-.46-.44h-4.07c-.18 0-.24-.05-.17-.24.21-.63.41-1.27.6-1.9.06-.18.15-.24.33-.24h3.71c.53.01 1.03.13 1.4.57.23.29.3.64.3 1v3.65c0 .1-.02.2-.06.3l-.5 1.27c-.06.15-.15.21-.32.21h-2.37v-.02zM17 24.98c.18-.51.35-.98.5-1.45.06-.16.17-.18.31-.18l3.78-.01c.25 0 .45-.1.56-.34a.65.65 0 00-.05-.67c-.13-.2-.33-.24-.56-.24h-3.62c.18-.36.32-.66.5-.95.02-.05.17-.04.26-.04h3.1c.31 0 .46-.2.36-.49-.06-.19-.21-.23-.4-.23h-3.88l-.3-.02c.01-.07 0-.12.03-.17l.67-1.98c.05-.16.13-.21.29-.2 1.29 0 2.58-.02 3.87 0 .82 0 1.46.63 1.56 1.52.07.6-.05 1.16-.41 1.65-.09.1-.17.2-.04.35.34.39.46.86.41 1.36-.03.39-.1.8-.26 1.16-.26.63-.75.96-1.47.95h-4.94l-.27-.02M2 24.96c.2-.53.36-1.02.55-1.5.02-.06.13-.1.2-.1l3.37-.01c.2 0 .41 0 .61-.03.31-.05.48-.3.48-.63s-.18-.54-.5-.58c-.1-.02-.2-.02-.3-.02H2.91c.17-.35.3-.64.45-.92.03-.06.17-.07.26-.07l3.16-.01c.11 0 .3-.08.33-.18.05-.1.02-.3-.05-.4-.06-.09-.23-.12-.35-.13H2.54l.12-.4.57-1.74c.06-.18.14-.24.32-.24h3.8c.9.01 1.57.66 1.64 1.56.05.62-.06 1.2-.46 1.7-.04.06-.02.22.02.27.62.77.5 2.04 0 2.78-.3.45-.71.7-1.28.69l-4.99-.02-.28-.02"/>
  </g>
</svg>
