<svg width="165" height="42" fill="none" xmlns="http://www.w3.org/2000/svg"><g clip-path="url(#clip0_1577_5919)"><path d="M42 21C42 9.402 32.598 0 21 0S0 9.402 0 21s9.402 21 21 21 21-9.402 21-21z" fill="url(#paint0_linear_1577_5919)"/><mask id="a" style="mask-type:alpha" maskUnits="userSpaceOnUse" x="0" y="0" width="42" height="42"><path d="M42 21C42 9.402 32.598 0 21 0S0 9.402 0 21s9.402 21 21 21 21-9.402 21-21z" fill="#fff"/></mask><g mask="url(#a)" fill="#fff"><path d="M12.471 28.514H-.92l-1.188 3.05-.205.53H.268a.484.484 0 01-.007-.074v-1.323c0-.256.196-.464.438-.464.243 0 .44.208.44.464v1.323a.485.485 0 01-.008.073h4.212a.485.485 0 01-.006-.073v-1.323c0-.256.196-.464.438-.464.243 0 .439.208.439.464v1.323a.484.484 0 01-.007.073h4.212a.485.485 0 01-.007-.073v-1.323c0-.256.197-.464.44-.464.242 0 .438.208.438.464v1.323a.485.485 0 01-.007.073h2.582l-.206-.529-1.188-3.05z"/><path d="M23.895 16.607a.75.75 0 00-.656-.478h-3.358a.75.75 0 00-.655.478 5.12 5.12 0 00-.232.98 4256.156 4256.156 0 01-3.113-6.352 1.358 1.358 0 00-1.019-.913 48.509 48.509 0 00-9.086-.872c-3.004 0-6.062.293-9.088.872a1.36 1.36 0 00-1.02.913s-1.635 3.346-3.112 6.352a5.121 5.121 0 00-.232-.98.749.749 0 00-.656-.478h-3.357a.75.75 0 00-.656.478c-.34 1.046-.34 1.646 0 2.692a.75.75 0 00.656.478h3.351c0 .044.003.089.008.133-.707.226-1.221.92-1.221 1.741v12.025c0 .484.37.875.827.875h4.165c.457 0 .828-.391.828-.875v-2.112h.673l1.438-3.691a.44.44 0 01.405-.287h13.98c.178 0 .338.113.405.287l1.438 3.691h.673v2.112c0 .484.37.875.828.875h4.165c.457 0 .828-.391.828-.875V21.651c0-.821-.515-1.515-1.222-1.741a1.46 1.46 0 00.008-.133h3.351a.75.75 0 00.656-.478c.34-1.046.34-1.646 0-2.692zm-26.38-4.342s2-.536 8.26-.536 8.26.536 8.26.536l2.935 7.512H-5.42l2.935-7.512zm-3.648 12.999v-2.468h5.056l1.503 2.468h-6.56zm23.816 0h-6.559l1.503-2.468h5.056v2.468z"/></g></g><path fill-rule="evenodd" clip-rule="evenodd" d="M88.788 17.866c-.357-.85-.86-1.494-1.511-1.932-.652-.44-1.414-.659-2.288-.659-.874 0-1.637.22-2.288.659-.651.438-1.158 1.083-1.52 1.932-.356.85-.534 1.893-.534 3.13 0 1.237.178 2.28.535 3.13.361.849.868 1.493 1.52 1.932.65.439 1.413.658 2.287.658.874 0 1.636-.22 2.287-.658.652-.439 1.155-1.083 1.512-1.933.361-.849.542-1.892.542-3.13 0-1.236-.18-2.28-.542-3.129zm-7.89-4.806c-1.208.701-2.163 1.722-2.864 3.062-.701 1.34-1.052 2.964-1.052 4.874 0 1.904.35 3.526 1.052 4.865.701 1.34 1.656 2.363 2.864 3.07 1.208.707 2.571 1.06 4.09 1.06 1.51 0 2.867-.35 4.075-1.051 1.214-.707 2.17-1.73 2.872-3.07.707-1.34 1.06-2.965 1.06-4.874 0-1.91-.353-3.535-1.06-4.874-.701-1.34-1.658-2.36-2.872-3.062-1.208-.707-2.566-1.06-4.074-1.06-1.52 0-2.883.353-4.091 1.06zm25.205 15.64c1.253-.701 2.213-1.707 2.881-3.018.673-1.311 1.01-2.88 1.01-4.703 0-1.819-.337-3.38-1.01-4.686-.668-1.306-1.623-2.306-2.864-3.002-1.241-.701-2.722-1.052-4.442-1.052h-6.111v17.513h6.061c1.737 0 3.228-.35 4.475-1.052zm-.275-10.894c-.368-.82-.916-1.425-1.645-1.813-.729-.387-1.628-.581-2.697-.581h-2.304V26.58h2.296c1.069 0 1.967-.194 2.697-.582.734-.393 1.285-1 1.653-1.821.373-.827.559-1.893.559-3.198 0-1.294-.186-2.352-.559-3.173zm54.032 7.953l1.266 3.993H165l-5.894-17.513h-4.659l-5.903 17.513h3.874l1.268-3.993h6.174zm-.916-2.89l-2.101-6.628h-.134l-2.105 6.627h4.34zm-88.92.976l.005-.01c.422-.865.654-1.972.654-3.353V12.19h3.677v8.36c0 2.14-.48 4.047-1.472 5.686l-.002.003c-1.002 1.642-2.482 2.85-4.391 3.636l-.302.125-.303-.123c-1.892-.77-3.37-1.952-4.387-3.56C62.49 24.72 62 22.854 62 20.75v-8.56h3.721v8.292c0 1.4.226 2.518.636 3.385.338.715.923 1.867 1.836 2.45.89-.593 1.49-1.751 1.832-2.472zm56.099 5.53a2.025 2.025 0 01-.584-1.453c0-.559.195-1.038.584-1.437a1.928 1.928 0 011.42-.598c.534 0 1.001.2 1.402.598.401.4.601.878.601 1.437 0 .376-.094.721-.284 1.035a2.174 2.174 0 01-.726.744 1.88 1.88 0 01-.993.273c-.551 0-1.025-.2-1.42-.598zm15.22-3.078a3.088 3.088 0 001.211-1.222c.289-.52.434-1.112.434-1.78V12.24h3.615v11.373c0 1.277-.298 2.395-.893 3.352-.59.958-1.417 1.705-2.48 2.24-1.063.53-2.301.796-3.715.796-1.42 0-2.661-.265-3.724-.795-1.063-.536-1.89-1.283-2.48-2.24-.59-.958-.885-2.076-.885-3.353V12.24h3.616v11.057c0 .667.141 1.26.425 1.779.29.518.696.926 1.219 1.222.524.297 1.133.445 1.829.445.701 0 1.311-.148 1.828-.445zm-28.778 3.455V12.239h3.615v17.513h-3.615zm10.098 0V12.239h-3.615v17.513h3.615z" fill="#0D0A19"/><defs><linearGradient id="paint0_linear_1577_5919" x1="42" y1="42" x2="42" y2="0" gradientUnits="userSpaceOnUse"><stop offset=".5" stop-color="#FFD500"/><stop offset=".5" stop-color="#005BBB"/></linearGradient><clipPath id="clip0_1577_5919"><path fill="#fff" d="M0 0h42v42H0z"/></clipPath></defs></svg>