<?xml version="1.0" encoding="utf-8"?><svg viewBox="0 0 30 30" xmlns="http://www.w3.org/2000/svg" xmlns:xlink="http://www.w3.org/1999/xlink"><style>:root>svg{display:none}:root>svg:target{display:block}</style><svg fill="none" viewBox="0 0 30 30" id="icon-arrow-login" xmlns="http://www.w3.org/2000/svg"><g clip-path="url(#aclip0_1606_5721)" fill="#fff"><path d="M15.4 18.127a1.365 1.365 0 001.485 2.244c.167-.075.317-.182.442-.316l4.091-4.09a1.58 1.58 0 00.091-.1l.017-.023c.021-.027.042-.055.062-.084l.014-.023c.019-.03.038-.06.054-.091l.01-.017a1.56 1.56 0 00.048-.104l.004-.011c.015-.037.03-.076.041-.115l.003-.013a1 1 0 00.029-.116l.005-.033c.014-.077.022-.156.022-.235 0-.08-.008-.158-.022-.236l-.005-.032c-.007-.04-.018-.078-.03-.117l-.002-.012a1.36 1.36 0 00-.042-.116l-.003-.009a1.367 1.367 0 00-.05-.105l-.008-.016c-.017-.032-.036-.063-.054-.092l-.015-.023a1.052 1.052 0 00-.061-.084l-.019-.024a1.135 1.135 0 00-.089-.099l-4.09-4.09a1.365 1.365 0 00-1.929 1.929l1.764 1.763h-15.8a1.364 1.364 0 000 2.727h15.799L15.4 18.127z"/><path d="M18.845 3.845a11.145 11.145 0 00-9.263 4.94 1.364 1.364 0 002.263 1.521 8.423 8.423 0 017-3.733c4.648 0 8.428 3.78 8.428 8.427 0 4.646-3.78 8.427-8.428 8.427a8.427 8.427 0 01-6.989-3.716 1.363 1.363 0 10-2.26 1.527 11.15 11.15 0 009.25 4.917C24.995 26.155 30 21.15 30 15c0-6.15-5.004-11.155-11.155-11.155z"/></g><defs><clipPath id="aclip0_1606_5721"><path fill="#fff" d="M0 0h30v30H0z"/></clipPath></defs></svg><svg fill="none" viewBox="0 0 18 18" id="icon-close" xmlns="http://www.w3.org/2000/svg"><path fill-rule="evenodd" clip-rule="evenodd" d="M10.587 9.065l6.829 6.865c.438.44.438 1.155 0 1.595-.438.44-1.149.44-1.587 0L9 10.66l-6.829 6.865c-.438.44-1.149.44-1.587 0a1.132 1.132 0 010-1.595l6.83-6.865L.49 2.105A1.132 1.132 0 01.49.51a1.118 1.118 0 011.587 0L9 7.47 15.923.51a1.118 1.118 0 011.587 0c.438.44.438 1.155 0 1.595l-6.923 6.96z" fill="currentColor"/></svg><svg fill="none" viewBox="0 0 14 14" id="icon-search" xmlns="http://www.w3.org/2000/svg"><path d="M2.746 7.527c.656.657 1.453.985 2.39.985.938 0 1.735-.328 2.391-.985.657-.656.985-1.453.985-2.39 0-.938-.328-1.735-.985-2.39-.656-.657-1.453-.985-2.39-.985-.938 0-1.735.328-2.39.984-.657.656-.985 1.453-.985 2.39 0 .938.328 1.735.984 2.391zm6.89.985l3.727 3.726-1.125 1.125-3.726-3.726v-.598L8.3 8.83c-.89.773-1.946 1.16-3.164 1.16-1.36 0-2.52-.47-3.48-1.407C.718 7.645.25 6.496.25 5.137c0-1.36.469-2.508 1.406-3.446C2.617.731 3.777.25 5.136.25c1.36 0 2.509.48 3.446 1.441.938.938 1.406 2.086 1.406 3.446 0 .492-.117 1.054-.351 1.687-.235.61-.504 1.102-.809 1.477l.211.21h.598z" fill="#fff"/></svg><svg fill="none" viewBox="0 0 24 25" id="icon-user" xmlns="http://www.w3.org/2000/svg"><path d="M9 2.802c-2.62 0-4.75 2.13-4.75 4.75 0 2.57 2.01 4.65 4.63 4.74.08-.01.16-.01.22 0h.07a4.738 4.738 0 004.58-4.74c0-2.62-2.13-4.75-4.75-4.75zM14.08 14.952c-2.79-1.86-7.34-1.86-10.15 0-1.27.85-1.97 2-1.97 3.23s.7 2.37 1.96 3.21c1.4.94 3.24 1.41 5.08 1.41 1.84 0 3.68-.47 5.08-1.41 1.26-.85 1.96-1.99 1.96-3.23-.01-1.23-.7-2.37-1.96-3.21zM19.99 8.142c.16 1.94-1.22 3.64-3.13 3.87h-.05c-.06 0-.12 0-.17.02-.97.05-1.86-.26-2.53-.83 1.03-.92 1.62-2.3 1.5-3.8a4.64 4.64 0 00-.77-2.18 3.592 3.592 0 015.15 2.92z" fill="currentColor"/><path d="M21.99 17.392c-.08.97-.7 1.81-1.74 2.38-1 .55-2.26.81-3.51.78.72-.65 1.14-1.46 1.22-2.32.1-1.24-.49-2.43-1.67-3.38-.67-.53-1.45-.95-2.3-1.26 2.21-.64 4.99-.21 6.7 1.17.92.74 1.39 1.67 1.3 2.63z" fill="currentColor"/></svg></svg>