<?xml version="1.0" encoding="utf-8"?><svg viewBox="0 0 30 30" xmlns="http://www.w3.org/2000/svg" xmlns:xlink="http://www.w3.org/1999/xlink"><style>:root>svg{display:none}:root>svg:target{display:block}</style><svg fill="none" viewBox="0 0 30 30" id="icon-arrow-login" xmlns="http://www.w3.org/2000/svg"><g clip-path="url(#aclip0_1606_5721)" fill="#fff"><path d="M15.4 18.127a1.365 1.365 0 001.485 2.244c.167-.075.317-.182.442-.316l4.091-4.09a1.58 1.58 0 00.091-.1l.017-.023c.021-.027.042-.055.062-.084l.014-.023c.019-.03.038-.06.054-.091l.01-.017a1.56 1.56 0 00.048-.104l.004-.011c.015-.037.03-.076.041-.115l.003-.013a1 1 0 00.029-.116l.005-.033c.014-.077.022-.156.022-.235 0-.08-.008-.158-.022-.236l-.005-.032c-.007-.04-.018-.078-.03-.117l-.002-.012a1.36 1.36 0 00-.042-.116l-.003-.009a1.367 1.367 0 00-.05-.105l-.008-.016c-.017-.032-.036-.063-.054-.092l-.015-.023a1.052 1.052 0 00-.061-.084l-.019-.024a1.135 1.135 0 00-.089-.099l-4.09-4.09a1.365 1.365 0 00-1.929 1.929l1.764 1.763h-15.8a1.364 1.364 0 000 2.727h15.799L15.4 18.127z"/><path d="M18.845 3.845a11.145 11.145 0 00-9.263 4.94 1.364 1.364 0 002.263 1.521 8.423 8.423 0 017-3.733c4.648 0 8.428 3.78 8.428 8.427 0 4.646-3.78 8.427-8.428 8.427a8.427 8.427 0 01-6.989-3.716 1.363 1.363 0 10-2.26 1.527 11.15 11.15 0 009.25 4.917C24.995 26.155 30 21.15 30 15c0-6.15-5.004-11.155-11.155-11.155z"/></g><defs><clipPath id="aclip0_1606_5721"><path fill="#fff" d="M0 0h30v30H0z"/></clipPath></defs></svg><svg fill="none" viewBox="0 0 18 18" id="icon-close" xmlns="http://www.w3.org/2000/svg"><path fill-rule="evenodd" clip-rule="evenodd" d="M10.587 9.065l6.829 6.865c.438.44.438 1.155 0 1.595-.438.44-1.149.44-1.587 0L9 10.66l-6.829 6.865c-.438.44-1.149.44-1.587 0a1.132 1.132 0 010-1.595l6.83-6.865L.49 2.105A1.132 1.132 0 01.49.51a1.118 1.118 0 011.587 0L9 7.47 15.923.51a1.118 1.118 0 011.587 0c.438.44.438 1.155 0 1.595l-6.923 6.96z" fill="currentColor"/></svg><svg fill="none" viewBox="0 0 14 14" id="icon-search" xmlns="http://www.w3.org/2000/svg"><path d="M2.746 7.527c.656.657 1.453.985 2.39.985.938 0 1.735-.328 2.391-.985.657-.656.985-1.453.985-2.39 0-.938-.328-1.735-.985-2.39-.656-.657-1.453-.985-2.39-.985-.938 0-1.735.328-2.39.984-.657.656-.985 1.453-.985 2.39 0 .938.328 1.735.984 2.391zm6.89.985l3.727 3.726-1.125 1.125-3.726-3.726v-.598L8.3 8.83c-.89.773-1.946 1.16-3.164 1.16-1.36 0-2.52-.47-3.48-1.407C.718 7.645.25 6.496.25 5.137c0-1.36.469-2.508 1.406-3.446C2.617.731 3.777.25 5.136.25c1.36 0 2.509.48 3.446 1.441.938.938 1.406 2.086 1.406 3.446 0 .492-.117 1.054-.351 1.687-.235.61-.504 1.102-.809 1.477l.211.21h.598z" fill="#fff"/></svg><svg fill="none" viewBox="0 0 14 14" id="icon-user" xmlns="http://www.w3.org/2000/svg"><path d="M3.027 9.355C4.41 8.793 5.734 8.512 7 8.512s2.578.281 3.938.843c1.382.54 2.074 1.254 2.074 2.145v1.512H.988V11.5c0-.89.68-1.605 2.04-2.145zM9.11 6.121A2.877 2.877 0 017 7c-.82 0-1.523-.293-2.11-.879a2.877 2.877 0 01-.878-2.11c0-.82.293-1.523.879-2.109C5.477 1.293 6.18.988 7 .988c.82 0 1.523.305 2.11.914.585.586.878 1.29.878 2.11 0 .82-.293 1.523-.879 2.11z" fill="currentColor"/></svg></svg>