<svg width="451" height="490" fill="none" xmlns="http://www.w3.org/2000/svg"><path fill-rule="evenodd" clip-rule="evenodd" d="M346.26 79.445l50.035 78.973c-.597 1.669-.896 3.519-1.279 5.237a141.006 141.006 0 01-17.919 38.468s-9.089 13.521-15.823 21.461c-4.864 5.736-7.755 8.83-13.16 14.056-7.482 7.234-9.765 9.691-20.388 17.159-10.622 7.468-12.525 8.673-23.617 14.964-11.093 6.29-17.436 8.713-29.179 12.86-6.043 2.135-9.496 3.163-15.677 4.86-15.286 4.198-39.889 7.565-39.889 7.565-3.613.537-16.102 2.291-26.318 4.316-11.144 2.209-28.311 6.685-28.311 6.685-5.249 1.508-18.036 6.408-23.006 8.673-4.969 2.265-12.147 6.221-15.821 8.549l-15.942 10.1-5.642 3.574c19.011-28.184 48.987-49.943 87.309-58.821 13.774-2.639 29.426-6.377 43.057-10.401 13.071-4.039 25.349-9.328 37.444-16.069 15.064-8.437 28.431-19.12 39.504-32.406a133.3 133.3 0 0018.082-32.116 55.04 55.04 0 002.878-7.357c10.019-26.269 14.971-53.57 14.725-81.82-.343-6.055-.327-12.705-1.063-18.51z" fill="#FED400"/><path fill-rule="evenodd" clip-rule="evenodd" d="M329.72 187.132a133.268 133.268 0 01-17.999 32.247 137.22 137.22 0 01-39.355 32.497 195.127 195.127 0 01-37.617 16.086c-13.631 4.024-27.464 7.44-41.238 10.079a144.347 144.347 0 00-90.524 60.858c-9.083 17.007-15.342 34.991-18.477 54.131a93.419 93.419 0 00-.958 8.355l-50.869-80.29 8.007-11.16a179.377 179.377 0 0144.285-40.969 215.575 215.575 0 0131.356-15.808 347.151 347.151 0 0165.626-16.862c22.121-3.685 44.158-7.502 66.291-11.749l16.385-3.741a159.966 159.966 0 0065.087-33.674z" fill="#005BBE"/></svg>