<svg width="379" height="458" fill="none" xmlns="http://www.w3.org/2000/svg"><path fill-rule="evenodd" clip-rule="evenodd" d="M248.717 0l87.431 63.476c.071 2.048.539 4.162.861 6.17a162.96 162.96 0 01-2.835 48.962s-3.995 18.4-7.84 29.801c-2.777 8.235-4.561 12.792-8.138 20.711-4.95 10.962-6.353 14.575-14.576 27.128-8.224 12.552-9.753 14.659-18.984 26.147-9.23 11.488-15.009 16.797-25.853 26.261-5.58 4.871-8.849 7.448-14.764 11.908-14.628 11.031-39.616 25.142-39.616 25.142-3.652 2.118-16.318 9.33-26.426 15.863-11.027 7.127-27.555 19.258-27.555 19.258-4.995 3.86-16.639 14.578-21.01 19.13-4.371 4.553-10.394 11.864-13.346 15.932l-12.814 17.649-4.535 6.246c8.395-38.382 31.309-74.541 68.681-100.424 13.668-8.711 28.885-19.403 41.808-29.541 12.316-9.914 23.247-20.833 33.362-33.232 12.581-15.49 22.38-32.665 28.604-51.66a154.035 154.035 0 005.721-42.208c.203-3.04.187-6.091-.047-9.13-.446-32.489-6.774-63.924-19.091-94.161C254.804 13.07 251.984 5.92 248.717 0z" fill="#FED400"/><path fill-rule="evenodd" clip-rule="evenodd" d="M276.893 122.719a154.026 154.026 0 01-5.575 42.314 158.583 158.583 0 01-28.406 51.693 225.409 225.409 0 01-33.54 33.324c-12.923 10.138-26.324 19.708-39.992 28.419a166.817 166.817 0 00-71.265 103.984c-2.501 22.141-1.55 44.127 3.248 66.022a107.844 107.844 0 002.534 9.382l-88.888-64.533 3.84-15.403a207.306 207.306 0 0130.085-62.896 249.114 249.114 0 0126.935-30.356 401.17 401.17 0 0163.292-46.107c22.187-13.396 44.228-26.897 66.188-40.9l16.003-11.008a184.883 184.883 0 0055.541-63.935z" fill="#005BBE"/></svg>